<svg width="3928" height="1398" xmlns="http://www.w3.org/2000/svg" xmlns:xlink="http://www.w3.org/1999/xlink" xml:space="preserve" overflow="hidden"><defs><linearGradient x1="2480.5" y1="1284.5" x2="3969.5" y2="1284.5" gradientUnits="userSpaceOnUse" spreadMethod="reflect" id="fill0"><stop offset="0" stop-color="#8FAADC"/><stop offset="0.5" stop-color="#AFADAD"/><stop offset="1" stop-color="#F4B183"/></linearGradient></defs><g transform="translate(-235 -635)"><path d="M244.483 388.589C248.847 447.433 251.072 509.122 251.072 571.227" stroke="#A5A5A5" stroke-width="2.29167" stroke-miterlimit="8" fill="none" fill-rule="evenodd" transform="matrix(0.833926 0.551876 0.551876 -0.833926 2123.55 1980.83)"/><path d="M143.228 5.70102C182.449 31.1061 216.733 139.264 235.718 297.484" stroke="#A5A5A5" stroke-width="2.29167" stroke-miterlimit="8" fill="none" fill-rule="evenodd" transform="matrix(0.890247 0.455478 0.455478 -0.890247 3387.03 1097.24)"/><path d="M143.228 5.70102C176.285 27.1137 206.106 107.571 226.095 229.279" stroke="#A5A5A5" stroke-width="2.29167" stroke-miterlimit="8" fill="none" fill-rule="evenodd" transform="matrix(0.890247 0.455478 0.455478 -0.890247 3606.7 1587.07)"/><path d="M230.087 335.321C249.348 508.698 255.716 722.123 247.671 924.658" stroke="#A5A5A5" stroke-width="2.29167" stroke-miterlimit="8" fill="none" fill-rule="evenodd" transform="matrix(0.833926 0.551876 0.551876 -0.833926 2177.55 1796.92)"/><path d="M3212.71 667.5 3264.47 682.297 3317.71 716.823 3360.6 776.011 3422.72 904.252 3471.52 1042.36 3546.94 1254.45 3632.72 1469 3719.97 1616.97 3765.82 1690.96 3842.72 1787.14 3916.67 1856.19 3969.5 1901.5 2480.5 1901.5 2532.42 1833.99 2637.42 1666.3 2702.49 1552.85 2779.4 1407.35 2857.78 1242.12 2937.64 1069.48 3001.23 931.38 3061.87 803.139 3119.54 714.357 3160.95 679.831 3212.71 667.5Z" stroke="#000000" stroke-width="4.58333" stroke-miterlimit="8" fill="url(#fill0)" fill-rule="evenodd"/><path d="M3215.73 667.5 3254.77 682.297 3294.92 716.823 3327.27 776.011 3374.12 904.252 3410.92 1042.36 3467.81 1254.45 3532.5 1469 3598.31 1616.97 3632.88 1690.96 3690.88 1787.14 3746.65 1856.19 3786.5 1901.5 2663.5 1901.5 2702.66 1833.99 2781.85 1666.3 2830.93 1552.85 2888.93 1407.35 2948.04 1242.12 3008.27 1069.48 3056.23 931.38 3101.96 803.139 3145.46 714.357 3176.69 679.831 3215.73 667.5Z" stroke="#767171" stroke-width="4.58333" stroke-miterlimit="8" fill="none" fill-rule="evenodd"/><path d="M3218.75 667.5 3247.19 682.297 3276.43 716.823 3299.99 776.011 3334.12 904.252 3360.93 1042.36 3402.36 1254.45 3449.49 1469 3497.42 1616.97 3522.61 1690.96 3564.85 1787.14 3605.48 1856.19 3634.5 1901.5 2816.5 1901.5 2845.02 1833.99 2902.71 1666.3 2938.45 1552.85 2980.7 1407.35 3023.76 1242.12 3067.63 1069.48 3102.57 931.38 3135.88 803.139 3167.57 714.357 3190.31 679.831 3218.75 667.5Z" stroke="#767171" stroke-width="4.58333" stroke-miterlimit="8" fill="none" fill-rule="evenodd"/><path d="M3220.55 667.5 3239.29 682.297 3258.56 716.823 3274.09 776.011 3296.57 904.252 3314.24 1042.36 3341.54 1254.45 3372.59 1469 3404.17 1616.97 3420.77 1690.96 3448.61 1787.14 3475.38 1856.19 3494.5 1901.5 2955.5 1901.5 2974.29 1833.99 3012.3 1666.3 3035.86 1552.85 3063.7 1407.35 3092.07 1242.12 3120.98 1069.48 3144 931.38 3165.95 803.139 3186.83 714.357 3201.82 679.831 3220.55 667.5Z" stroke="#767171" stroke-width="4.58333" stroke-miterlimit="8" fill="none" fill-rule="evenodd"/><path d="M3224.2 667.5 3229.69 682.297 3235.34 716.823 3239.89 776.011 3246.48 904.252 3251.66 1042.36 3259.66 1254.45 3268.76 1469 3278.02 1616.97 3282.89 1690.96 3291.05 1787.14 3298.89 1856.19 3304.5 1901.5 3146.5 1901.5 3152.01 1833.99 3163.15 1666.3 3170.06 1552.85 3178.22 1407.35 3186.53 1242.12 3195.01 1069.48 3201.76 931.38 3208.19 803.139 3214.31 714.357 3218.7 679.831 3224.2 667.5Z" stroke="#767171" stroke-width="4.58333" stroke-miterlimit="8" fill="none" fill-rule="evenodd"/><path d="M3726.44 1649.9 2660 1649" stroke="#A5A5A5" stroke-width="2.29167" stroke-miterlimit="8" fill="none" fill-rule="evenodd"/><path d="M3.4375-1.00548e-06 3.43785 1210.9-3.43715 1210.9-3.4375 1.00548e-06ZM13.7504 1206.31 0.000360892 1233.81-13.7496 1206.31Z" transform="matrix(1 0 0 -1 2477.5 1901.31)"/><path d="M7.96451e-07-3.4375 1534.7-3.43714 1534.7 3.43786-7.96451e-07 3.4375ZM1530.12-13.7496 1557.62 0.000360892 1530.12 13.7504Z" transform="matrix(1 0 0 -1 2477.5 1899.5)"/><text font-family="Arial,Arial_MSFontService,sans-serif" font-weight="400" font-size="64" transform="matrix(-1.83697e-16 -1 1 -1.83697e-16 2439.38 1044)">T</text><text font-family="Arial,Arial_MSFontService,sans-serif" font-weight="400" font-size="64" transform="matrix(-1.83697e-16 -1 1 -1.83697e-16 2439.38 1005)">emperature</text><text font-family="Arial,Arial_MSFontService,sans-serif" font-weight="400" font-size="64" transform="matrix(1 0 0 1 3772.41 1979)">Entropy</text><text font-family="Arial,Arial_MSFontService,sans-serif" font-weight="400" font-size="64" transform="matrix(1 0 0 1 3732.39 922)">P</text><text font-family="Arial,Arial_MSFontService,sans-serif" font-weight="400" font-size="43" transform="matrix(1 0 0 1 3775.35 937)">high</text><text font-family="Arial,Arial_MSFontService,sans-serif" font-weight="400" font-size="64" transform="matrix(1 0 0 1 3929.64 1490)">P</text><text font-family="Arial,Arial_MSFontService,sans-serif" font-weight="400" font-size="43" transform="matrix(1 0 0 1 3972.61 1505)">low</text><path d="M2631 1649C2631 1641.27 2637.49 1635 2645.5 1635 2653.51 1635 2660 1641.27 2660 1649 2660 1656.73 2653.51 1663 2645.5 1663 2637.49 1663 2631 1656.73 2631 1649Z" fill="#002060" fill-rule="evenodd"/><path d="M3647.55 1653.83 2683.41 1652.96 2683.42 1646.08 3647.55 1646.96ZM2687.99 1663.28 2660.5 1649.5 2688.01 1635.78Z"/><path d="M0.0316718-3.43735 22.1697-3.23337 44.2949-2.62919 66.3322-1.63805 88.2533-0.271949 131.488 3.52777 173.686 8.66881 194.311 11.7134 214.533 15.0529 234.324 18.6768 253.641 22.5721 272.443 26.7265 290.685 31.1272 308.326 35.7616 325.323 40.6175 341.634 45.6826 357.216 50.9447 372.027 56.3919 386.027 62.0129 399.173 67.7965 411.424 73.7324 422.74 79.8113 433.08 86.0253 442.404 92.3686 450.672 98.8382 457.842 105.436 464.101 112.426 466.467 117.84 460.168 120.594 458.023 115.685 458.611 116.602 452.831 110.145 453.064 110.382 446.118 103.99 446.327 104.168 438.257 97.8535 438.442 97.9884 429.292 91.764 429.455 91.8682 419.269 85.7467 419.413 85.8285 408.234 79.8228 408.362 79.8881 396.232 74.011 396.346 74.0639 383.31 68.3284 383.413 68.3719 369.513 62.7907 369.607 62.827 354.886 57.413 354.973 57.4436 339.474 52.2097 339.554 52.2358 323.321 47.1949 323.397 47.2173 306.473 42.3822 306.544 42.4017 288.972 37.7853 289.039 37.8023 270.863 33.4175 270.927 33.4324 252.189 29.2921 252.251 29.3052 232.995 25.4222 233.055 25.4338 213.324 21.8209 213.383 21.8312 193.219 18.5013 193.278 18.5104 172.726 15.4765 172.812 15.4881 130.714 10.3593 130.829 10.3713 87.695 6.58048 87.7821 6.58702 65.9343 5.22549 65.9937 5.22868 44.0163 4.24023 44.0769 4.24242 22.0131 3.63991 22.0753 3.64105-0.0316718 3.43735ZM474.408 109.886 471.769 140.519 448.847 120.027Z" transform="matrix(1.83697e-16 1 1 -1.83697e-16 3510.5 1168.5)"/><text font-family="Arial,Arial_MSFontService,sans-serif" font-weight="400" font-size="64" transform="matrix(1 0 0 1 2540.78 1001)">Liquid Phase</text><text font-family="Arial,Arial_MSFontService,sans-serif" font-weight="400" font-size="64" transform="matrix(1 0 0 1 2912.33 1804)">Liquid &amp; Vapour Phase</text><text font-family="Arial,Arial_MSFontService,sans-serif" font-weight="400" font-size="64" transform="matrix(1 0 0 1 3586.04 780)">Vapour Phase</text><path d="M3472.89 1156.84 3466.01 1156.79 3466.06 1149.91 3472.93 1149.96ZM3459.14 1156.74 3452.26 1156.7 3452.31 1149.82 3459.18 1149.87ZM3445.39 1156.65 3438.51 1156.6 3438.56 1149.73 3445.43 1149.78ZM3431.64 1156.56 3424.76 1156.51 3424.81 1149.64 3431.68 1149.68ZM3417.89 1156.47 3411.01 1156.42 3411.06 1149.54 3417.93 1149.59ZM3404.14 1156.37 3397.26 1156.33 3397.31 1149.45 3404.19 1149.5ZM3390.39 1156.28 3383.51 1156.23 3383.56 1149.36 3390.44 1149.41ZM3376.64 1156.19 3369.76 1156.14 3369.81 1149.27 3376.69 1149.31ZM3362.89 1156.09 3356.01 1156.05 3356.06 1149.17 3362.94 1149.22ZM3349.14 1156 3342.27 1155.96 3342.31 1149.08 3349.19 1149.13ZM3335.39 1155.91 3328.52 1155.86 3328.56 1148.99 3335.44 1149.03ZM3321.64 1155.82 3314.77 1155.77 3314.81 1148.9 3321.69 1148.94ZM3307.89 1155.72 3301.02 1155.68 3301.06 1148.8 3307.94 1148.85ZM3294.14 1155.63 3287.27 1155.59 3287.31 1148.71 3294.19 1148.76ZM3280.39 1155.54 3273.52 1155.49 3273.56 1148.62 3280.44 1148.66ZM3266.64 1155.45 3259.77 1155.4 3259.81 1148.53 3266.69 1148.57ZM3252.89 1155.35 3246.02 1155.31 3246.06 1148.43 3252.94 1148.48ZM3239.14 1155.26 3232.27 1155.22 3232.31 1148.34 3239.19 1148.39ZM3225.39 1155.17 3218.52 1155.12 3218.56 1148.25 3225.44 1148.29ZM3211.64 1155.08 3204.77 1155.03 3204.81 1148.16 3211.69 1148.2ZM3197.89 1154.98 3191.02 1154.94 3191.06 1148.06 3197.94 1148.11ZM3184.14 1154.89 3177.27 1154.85 3177.32 1147.97 3184.19 1148.02ZM3170.39 1154.8 3163.52 1154.75 3163.57 1147.88 3170.44 1147.92ZM3156.64 1154.71 3149.77 1154.66 3149.82 1147.79 3156.69 1147.83ZM3142.89 1154.61 3136.02 1154.57 3136.07 1147.69 3142.94 1147.74ZM3129.15 1154.52 3122.27 1154.47 3122.32 1147.6 3129.19 1147.65ZM3115.4 1154.43 3108.52 1154.38 3108.57 1147.51 3115.44 1147.55ZM3101.65 1154.34 3094.77 1154.29 3094.82 1147.41 3101.69 1147.46ZM3087.9 1154.24 3081.02 1154.2 3081.07 1147.32 3087.94 1147.37ZM3074.15 1154.15 3067.27 1154.1 3067.32 1147.23 3074.19 1147.28ZM3060.4 1154.06 3053.52 1154.01 3053.57 1147.14 3060.44 1147.18ZM3046.65 1153.97 3042.48 1153.94 3042.52 1147.06 3046.69 1147.09ZM3468.42 1139.62 3495.83 1153.55 3468.23 1167.12Z"/><text font-family="Arial,Arial_MSFontService,sans-serif" font-weight="400" font-size="64" transform="matrix(1 0 0 1 3648.58 1717)">D</text><text font-family="Arial,Arial_MSFontService,sans-serif" font-weight="400" font-size="64" transform="matrix(1 0 0 1 2629.21 1728)">E</text><path d="M3013 1013.5C3013 1005.49 3019.49 999 3027.5 999 3035.51 999 3042 1005.49 3042 1013.5 3042 1021.51 3035.51 1028 3027.5 1028 3019.49 1028 3013 1021.51 3013 1013.5Z" fill="#002060" fill-rule="evenodd"/><path d="M3013 1150.5C3013 1142.49 3019.49 1136 3027.5 1136 3035.51 1136 3042 1142.49 3042 1150.5 3042 1158.51 3035.51 1165 3027.5 1165 3019.49 1165 3013 1158.51 3013 1150.5Z" fill="#002060" fill-rule="evenodd"/><path d="M3495 1153.5C3495 1145.49 3501.49 1139 3509.5 1139 3517.51 1139 3524 1145.49 3524 1153.5 3524 1161.51 3517.51 1168 3509.5 1168 3501.49 1168 3495 1161.51 3495 1153.5Z" fill="#002060" fill-rule="evenodd"/><path d="M2888 1150.5C2888 1142.49 2894.49 1136 2902.5 1136 2910.51 1136 2917 1142.49 2917 1150.5 2917 1158.51 2910.51 1165 2902.5 1165 2894.49 1165 2888 1158.51 2888 1150.5Z" fill="#002060" fill-rule="evenodd"/><path d="M0.000887608-3.4375 6.87589-3.43572 6.87411 3.43927-0.000887608 3.4375ZM13.7509-3.43395 20.6259-3.43217 20.6241 3.44283 13.7491 3.44105ZM27.5009-3.4304 34.3759-3.42862 34.3741 3.44638 27.4991 3.4446ZM41.2509-3.42685 48.1259-3.42507 48.1241 3.44993 41.2491 3.44815ZM55.0009-3.4233 61.8759-3.42152 61.8741 3.45348 54.9991 3.4517ZM68.7509-3.41975 73.5222-3.41852 73.5204 3.45648 68.7491 3.45525ZM68.9416-13.7322 96.438 0.0249016 68.9345 13.7678Z" transform="matrix(-1 0 0 1 3013.94 1150.5)"/><path d="M3031.94 1028.5 3031.94 1113.09 3025.06 1113.09 3025.06 1028.5ZM3042.25 1108.5 3028.5 1136 3014.75 1108.5Z"/><path d="M3650.42 1639.5C3655.69 1633.53 3664.8 1632.96 3670.77 1638.23 3676.75 1643.51 3677.31 1652.62 3672.04 1658.59 3666.77 1664.56 3657.66 1665.13 3651.69 1659.86 3645.72 1654.59 3645.15 1645.47 3650.42 1639.5Z" fill="#002060" fill-rule="evenodd"/><text font-family="Arial,Arial_MSFontService,sans-serif" font-weight="400" font-size="64" transform="matrix(1 0 0 1 3046.35 1003)">A</text><text font-family="Arial,Arial_MSFontService,sans-serif" font-weight="400" font-size="64" transform="matrix(1 0 0 1 2836.85 1136)">B</text><text font-family="Arial,Arial_MSFontService,sans-serif" font-weight="400" font-size="64" transform="matrix(1 0 0 1 3517.47 1117)">C</text><path d="M0-4.58333 239.952-4.58333 239.952 77.9488 230.786 77.9488 230.786 0 235.369 4.58333 0 4.58333ZM249.119 73.3655 235.369 100.865 221.619 73.3655Z" fill="#0E2680" transform="matrix(-1 1.22465e-16 1.22465e-16 1 1859.87 1054.5)"/><path d="M4.58346 22.9166 4.58369 67.8524-4.58297 67.8525-4.58321 22.9167ZM-13.7499 27.5001 0 0 13.7501 27.4999Z" fill="#FF6600" transform="matrix(1 0 0 -1 1622.5 1362.35)"/><text fill="#002060" font-family="Arial,Arial_MSFontService,sans-serif" font-weight="400" font-size="64" transform="matrix(1 0 0 1 1748.98 1021)">Coolant</text><path d="M1368.5 791.5 1368.5 1022.42 1368.5 1059.1 1368.5 1067.25 1368.5 1067.25C1368.5 1071.8 1362.45 1075.5 1354.99 1075.5 1347.52 1075.5 1341.47 1071.8 1341.47 1067.25L1341.47 1067.25 1341.47 1052.77 1082.5 992.197 1082.5 882.743 1082.5 858.399 1082.5 838.086 1082.5 837.92 1082.61 837.92 1086.46 832.25C1088.9 830.756 1092.28 829.832 1096.01 829.832 1099.74 829.832 1103.12 830.756 1105.57 832.25L1109.41 837.92 1109.53 837.92 1109.53 838.086 1109.53 852.077Z" stroke="#FFC000" stroke-width="4.58333" stroke-miterlimit="8" fill="#FFFF00" fill-rule="evenodd"/><text fill="#002060" font-family="Calibri,Calibri_MSFontService,sans-serif" font-weight="400" font-size="64" transform="matrix(1 0 0 1 1123.93 955)">Turbine</text><path d="M765.917 974.347 765.917 705.104 1097.76 705.104 1098.25 807.683 1089.09 807.727 1088.61 709.709 1093.2 714.271 770.5 714.271 775.083 709.687 775.083 974.347ZM1106.88 801.733 1096.02 830.5 1079.52 804.558Z" fill="#C00000"/><rect x="886.5" y="658.5" width="104" height="104" stroke="#2F528F" stroke-width="4.58333" stroke-miterlimit="8" fill="#FFFFFF"/><text fill="#002060" font-family="Calibri,Calibri_MSFontService,sans-serif" font-weight="400" font-size="83" transform="matrix(1 0 0 1 915.976 737)">C</text><path d="M1354.5 1070.92 1360.88 1070.92 1360.88 1284.05 1356.3 1279.46 1455.69 1279.46 1455.69 1288.63 1351.71 1288.63 1351.71 1075.5 1356.3 1080.08 1354.5 1080.08ZM1451.11 1270.3 1478.61 1284.05 1451.11 1297.8Z" fill="#C00000"/><path d="M100 0C155.229 0 200 44.5712 200 99.5524 200 127.043 188.807 151.931 170.711 169.947L169.668 170.803 200 201 0 201 30.3322 170.803 29.2892 169.947C11.1931 151.931 0 127.043 0 99.5524 0 44.5712 44.7715 0 100 0Z" stroke="#787878" stroke-width="4.58333" stroke-miterlimit="8" fill="#A5A5A5" fill-rule="evenodd" transform="matrix(-1 0 0 1 1588.5 1715.5)"/><path d="M0 8.5001C-1.01849e-15 3.80562 3.58168-1.08218e-15 7.9999-2.16435e-15 12.4181-4.3287e-15 15.9998 3.80562 15.9998 8.5001 15.9998 13.1946 12.4181 17.0002 7.9999 17.0002 3.58168 17.0002-5.09247e-15 13.1946 0 8.5001Z" stroke="#000000" stroke-width="4.58333" stroke-miterlimit="8" fill-rule="evenodd" transform="matrix(-1 0 0 1 1496.5 1807.5)"/><path d="M0 4.58333-83.0751 4.58333-78.4918 0-78.4918 268.612-83.0751 264.029 529.263 264.029 529.263 273.196-87.6584 273.196-87.6584-4.58333 0-4.58333ZM524.679 254.862 552.179 268.612 524.679 282.362Z" fill="#2E75B6" transform="matrix(-1 0 0 1 1768.68 1284.5)"/><rect x="1306.5" y="1231.5" width="104" height="104" stroke="#2F528F" stroke-width="4.58333" stroke-miterlimit="8" fill="#FFFFFF"/><text fill="#002060" font-family="Calibri,Calibri_MSFontService,sans-serif" font-weight="400" font-size="83" transform="matrix(1 0 0 1 1332.81 1310)">D</text><path d="M1494.5 1284.5C1494.5 1212.7 1552.7 1154.5 1624.5 1154.5 1696.3 1154.5 1754.5 1212.7 1754.5 1284.5 1754.5 1356.3 1696.3 1414.5 1624.5 1414.5 1552.7 1414.5 1494.5 1356.3 1494.5 1284.5Z" stroke="#000000" stroke-width="6.875" stroke-miterlimit="8" fill="#8FAADC" fill-rule="evenodd"/><path d="M1703.68 1242 1720.22 1242 1720.22 1276.03 1769 1276.03 1768.42 1283.72 1769 1292.66 1720.22 1292.66 1718.58 1292.66 1703.68 1292.66 1703.68 1262.22 1544.03 1326.1 1544.03 1326.69 1542.56 1326.69 1541.79 1327 1541.67 1326.69 1527.48 1326.69 1527.48 1292.66 1478.79 1292.66 1478 1283.72 1478.79 1276.03 1527.48 1276.03 1529.21 1276.03 1544.03 1276.03 1544.03 1308.21 1703.68 1244.32 1703.68 1242Z" fill="#C00000" fill-rule="evenodd"/><rect x="1580.5" y="1482.5" width="104" height="104" stroke="#2F528F" stroke-width="4.58333" stroke-miterlimit="8" fill="#FFFFFF"/><text fill="#002060" font-family="Calibri,Calibri_MSFontService,sans-serif" font-weight="400" font-size="83" transform="matrix(1 0 0 1 1611.94 1562)">E</text><text fill="#002060" font-family="Arial,Arial_MSFontService,sans-serif" font-weight="400" font-size="64" transform="matrix(1 0 0 1 1176.08 1896)">Pump</text><text fill="#002060" font-family="Arial,Arial_MSFontService,sans-serif" font-weight="400" font-size="64" transform="matrix(1 0 0 1 1744.74 1147)">Condenser</text><path d="M880.5 1218.5C880.5 1279.25 831.251 1328.5 770.5 1328.5L770.5 1328.5C709.749 1328.5 660.5 1279.25 660.5 1218.5L660.5 1083.5C660.5 1022.75 709.749 973.5 770.5 973.5L770.5 973.5C831.251 973.5 880.5 1022.75 880.5 1083.5Z" stroke="#000000" stroke-width="4.58333" stroke-miterlimit="8" fill="#BFBFBF" fill-rule="evenodd"/><path d="M279.5 1146.92 637.69 1146.92 637.69 1156.08 279.5 1156.08ZM633.107 1137.75 660.607 1151.5 633.107 1165.25Z" fill="#C00000"/><rect x="414.5" y="1099.5" width="104" height="104" stroke="#2F528F" stroke-width="4.58333" stroke-miterlimit="8" fill="#FFFFFF"/><text fill="#002060" font-family="Calibri,Calibri_MSFontService,sans-serif" font-weight="400" font-size="83" transform="matrix(1 0 0 1 442.531 1178)">A</text><path d="M0-4.58333 229.037-4.58333 229.037 318.884 219.87 318.884 219.87 0 224.454 4.58333 0 4.58333ZM238.204 314.3 224.454 341.8 210.704 314.3Z" fill="#2E75B6" transform="matrix(1.83697e-16 1 1 -1.83697e-16 770.5 1328.5)"/><path d="M1112.5 1552.5C1112.5 1523.78 1135.78 1500.5 1164.5 1500.5 1193.22 1500.5 1216.5 1523.78 1216.5 1552.5 1216.5 1581.22 1193.22 1604.5 1164.5 1604.5 1135.78 1604.5 1112.5 1581.22 1112.5 1552.5Z" stroke="#2F528F" stroke-width="4.58333" stroke-miterlimit="8" fill="#4472C4" fill-rule="evenodd"/><path d="M0-4.58333 215.734-4.58333 215.734 292.783 206.568 292.783 206.568 0 211.151 4.58333 0 4.58333ZM224.901 288.2 211.151 315.7 197.401 288.2Z" fill="#2E75B6" transform="matrix(1.83697e-16 1 1 -1.83697e-16 1164.5 1604.5)"/><path d="M3.41688e-06-4.58333 461.177-4.58299 461.177 4.58368-3.41688e-06 4.58333ZM456.594-13.7497 484.094 0.000360892 456.594 13.7503Z" fill="#2E75B6" transform="matrix(1 0 0 -1 1488.5 1715.5)"/><text fill="#002060" font-family="Arial,Arial_MSFontService,sans-serif" font-weight="400" font-size="64" transform="matrix(1 0 0 1 1579.76 1695)">To </text><text fill="#002060" font-family="Arial,Arial_MSFontService,sans-serif" font-weight="400" font-size="64" transform="matrix(1 0 0 1 1672 1695)">Reinjection Well</text><rect x="903.5" y="1500.5" width="104" height="104" stroke="#2F528F" stroke-width="4.58333" stroke-miterlimit="8" fill="#FFFFFF"/><text fill="#002060" font-family="Calibri,Calibri_MSFontService,sans-serif" font-weight="400" font-size="83" transform="matrix(1 0 0 1 932.889 1580)">B</text><text fill="#002060" font-family="Arial,Arial_MSFontService,sans-serif" font-weight="400" font-size="64" transform="matrix(1 0 0 1 914.82 1147)">Flash</text><text fill="#002060" font-family="Arial,Arial_MSFontService,sans-serif" font-weight="400" font-size="64" transform="matrix(1 0 0 1 914.82 1224)">Drum</text><text font-family="Arial,Arial_MSFontService,sans-serif" font-weight="400" font-size="64" transform="matrix(1 0 0 1 3056.79 1103)">1</text><text font-family="Arial,Arial_MSFontService,sans-serif" font-weight="400" font-size="64" transform="matrix(1 0 0 1 3572.42 1461)">2</text><text font-family="Arial,Arial_MSFontService,sans-serif" font-weight="400" font-size="64" transform="matrix(1 0 0 1 3090.22 1629)">3</text><path d="M0 0 175.734 0.930381" stroke="#000000" stroke-width="36.6667" stroke-miterlimit="8" fill="none" fill-rule="evenodd" transform="matrix(1 0 0 -1 1371.5 932.43)"/><path d="M1547.5 931.5C1547.5 893.945 1577.94 863.5 1615.5 863.5 1653.06 863.5 1683.5 893.945 1683.5 931.5 1683.5 969.055 1653.06 999.5 1615.5 999.5 1577.94 999.5 1547.5 969.055 1547.5 931.5Z" stroke="#2F528F" stroke-width="4.58333" stroke-miterlimit="8" fill="#4472C4" fill-rule="evenodd"/><text fill="#002060" font-family="Arial,Arial_MSFontService,sans-serif" font-weight="400" font-size="64" transform="matrix(1 0 0 1 1459.51 830)">Generator</text><text fill="#002060" font-family="Arial,Arial_MSFontService,sans-serif" font-weight="400" font-size="64" transform="matrix(1 0 0 1 273.865 984)">From Production </text><text fill="#002060" font-family="Arial,Arial_MSFontService,sans-serif" font-weight="400" font-size="64" transform="matrix(1 0 0 1 273.865 1061)">Well</text></g></svg>