<svg width="2057" height="2407" xmlns="http://www.w3.org/2000/svg" xmlns:xlink="http://www.w3.org/1999/xlink" xml:space="preserve" overflow="hidden"><defs><clipPath id="clip0"><rect x="1187" y="128" width="2057" height="2407"/></clipPath></defs><g clip-path="url(#clip0)" transform="translate(-1187 -128)"><path d="M472.214 30.4696C887.18-43.2934 1385.5 21.1398 1585.24 174.385 1636.3 213.561 1664.32 256.285 1667.45 299.747" stroke="#4472C4" stroke-width="2.29167" stroke-miterlimit="8" fill="none" fill-rule="evenodd" transform="matrix(-0.426883 -0.904307 -0.904307 0.426883 2941.24 2679.22)"/><path d="M1471.98 2213.52C1634.22 1681.53 1866.74 1274.43 1999.1 1290.62" stroke="#4472C4" stroke-width="2.29167" stroke-miterlimit="8" fill="none" fill-rule="evenodd"/><path d="M267.416 425.039C272.189 489.403 274.623 556.878 274.623 624.808" stroke="#A5A5A5" stroke-width="2.29167" stroke-miterlimit="8" fill="none" fill-rule="evenodd" transform="matrix(0.890247 0.455478 0.455478 -0.890247 990.681 2498.87)"/><path d="M0 0 1114.15 0.000360892" stroke="#A5A5A5" stroke-width="2.29167" stroke-miterlimit="8" fill="none" fill-rule="evenodd" transform="matrix(-1 0 0 1 2648.15 2069)"/><path d="M199.799 68.4487C245.723 175.246 274.623 390.132 274.623 624.808" stroke="#A5A5A5" stroke-width="2.29167" stroke-miterlimit="8" fill="none" fill-rule="evenodd" transform="matrix(0.890247 0.455478 0.455478 -0.890247 1223.52 1965.51)"/><path d="M156.663 6.23578C224.339 50.0726 274.623 313.754 274.623 624.807" stroke="#A5A5A5" stroke-width="2.29167" stroke-miterlimit="8" fill="none" fill-rule="evenodd" transform="matrix(0.890247 0.455478 0.455478 -0.890247 2222.29 1473.97)"/><path d="M3.4375-9.19251e-07 3.43786 1326.63-3.43714 1326.63-3.4375 9.19251e-07ZM13.7504 1322.04 0.000360892 1349.54-13.7496 1322.04Z" transform="matrix(1 0 0 -1 1392.5 2351.04)"/><path d="M7.2815e-07-3.4375 1680.81-3.43714 1680.81 3.43786-7.2815e-07 3.4375ZM1676.23-13.7496 1703.73 0.000360892 1676.23 13.7504Z" transform="matrix(1 0 0 -1 1392.5 2348.5)"/><text font-family="Arial,Arial_MSFontService,sans-serif" font-weight="400" font-size="64" transform="matrix(1 0 0 1 1293.13 1079)">T</text><text font-family="Arial,Arial_MSFontService,sans-serif" font-weight="400" font-size="64" transform="matrix(1 0 0 1 3015.65 2428)">S</text><path d="M156.663 6.23578C224.339 50.0726 274.623 313.754 274.623 624.807" stroke="#A5A5A5" stroke-width="2.29167" stroke-miterlimit="8" fill="none" fill-rule="evenodd" transform="matrix(0.890247 0.455478 0.455478 -0.890247 2499.66 2002.93)"/><text font-family="Arial,Arial_MSFontService,sans-serif" font-weight="400" font-size="64" transform="matrix(1 0 0 1 2774.38 1112)">P</text><text font-family="Arial,Arial_MSFontService,sans-serif" font-weight="400" font-size="43" transform="matrix(1 0 0 1 2817.35 1127)">high</text><text font-family="Arial,Arial_MSFontService,sans-serif" font-weight="400" font-size="64" transform="matrix(1 0 0 1 2881.16 1583)">P</text><text font-family="Arial,Arial_MSFontService,sans-serif" font-weight="400" font-size="43" transform="matrix(1 0 0 1 2924.13 1598)">low</text><path d="M1503 2068.5C1503 2059.94 1509.94 2053 1518.5 2053 1527.06 2053 1534 2059.94 1534 2068.5 1534 2077.06 1527.06 2084 1518.5 2084 1509.94 2084 1503 2077.06 1503 2068.5Z" fill="#4472C4" fill-rule="evenodd"/><path d="M2334 1538.5C2334 1529.94 2341.16 1523 2350 1523 2358.84 1523 2366 1529.94 2366 1538.5 2366 1547.06 2358.84 1554 2350 1554 2341.16 1554 2334 1547.06 2334 1538.5Z" fill="#4472C4" fill-rule="evenodd"/><path d="M9.60981e-05-3.4375 777.465-3.41577 777.465 3.45923-9.60981e-05 3.4375ZM772.882-13.7284 800.382 0.0223753 772.882 13.7716Z" transform="matrix(-1 0 0 1 2334.88 2069.5)"/><path d="M1882.5 1536.06 2311.7 1536.06 2311.7 1542.94 1882.5 1542.94ZM2307.11 1525.75 2334.61 1539.5 2307.11 1553.25Z"/><path d="M2353.94 1554.5 2353.94 2030.05 2347.06 2030.05 2347.06 1554.5ZM2364.25 2025.46 2350.5 2052.96 2336.75 2025.46Z"/><path d="M2334 2068.5C2334 2059.94 2341.16 2053 2350 2053 2358.84 2053 2366 2059.94 2366 2068.5 2366 2077.06 2358.84 2084 2350 2084 2341.16 2084 2334 2077.06 2334 2068.5Z" fill="#4472C4" fill-rule="evenodd"/><text font-family="Arial,Arial_MSFontService,sans-serif" font-weight="400" font-size="64" transform="matrix(1 0 0 1 1563.02 2035)">6</text><text font-family="Arial,Arial_MSFontService,sans-serif" font-weight="400" font-size="64" transform="matrix(1 0 0 1 2200.23 2034)">5s</text><path d="M1850 1374C1850 1365.16 1857.16 1358 1866 1358 1874.84 1358 1882 1365.16 1882 1374 1882 1382.84 1874.84 1390 1866 1390 1857.16 1390 1850 1382.84 1850 1374Z" fill="#4472C4" fill-rule="evenodd"/><path d="M1851 1538.5C1851 1529.94 1857.94 1523 1866.5 1523 1875.06 1523 1882 1529.94 1882 1538.5 1882 1547.06 1875.06 1554 1866.5 1554 1857.94 1554 1851 1547.06 1851 1538.5Z" fill="#4472C4" fill-rule="evenodd"/><text font-family="Arial,Arial_MSFontService,sans-serif" font-weight="400" font-size="64" transform="matrix(1 0 0 1 1825.44 1334)">1</text><text font-family="Arial,Arial_MSFontService,sans-serif" font-weight="400" font-size="64" transform="matrix(1 0 0 1 1889.87 1607)">2</text><text font-family="Arial,Arial_MSFontService,sans-serif" font-weight="400" font-size="64" transform="matrix(1 0 0 1 1672.83 1522)">3</text><path d="M1737 1538.5C1737 1529.94 1743.94 1523 1752.5 1523 1761.06 1523 1768 1529.94 1768 1538.5 1768 1547.06 1761.06 1554 1752.5 1554 1743.94 1554 1737 1547.06 1737 1538.5Z" fill="#4472C4" fill-rule="evenodd"/><text font-family="Arial,Arial_MSFontService,sans-serif" font-weight="400" font-size="64" transform="matrix(1 0 0 1 2340.17 1495)">4</text><path d="M2630 2068.5C2630 2059.94 2636.94 2053 2645.5 2053 2654.06 2053 2661 2059.94 2661 2068.5 2661 2077.06 2654.06 2084 2645.5 2084 2636.94 2084 2630 2077.06 2630 2068.5Z" fill="#4472C4" fill-rule="evenodd"/><text font-family="Arial,Arial_MSFontService,sans-serif" font-weight="400" font-size="64" transform="matrix(1 0 0 1 2646.71 2037)">7</text><path d="M1.5044e-05-3.4375 59.5462-3.43724 59.5461 3.43776-1.5044e-05 3.4375ZM54.9629-13.7498 82.4628 0.000360892 54.9628 13.7502Z" transform="matrix(-1 0 0 1 1850.96 1539.5)"/><path d="M0.00101156-3.4375 240.759-3.36665 240.757 3.50835-0.00101156 3.4375ZM236.179-13.6805 263.675 0.0775919 236.171 13.8195Z" transform="matrix(1 0 0 -1 2366.5 2068.58)"/><path d="M2451 2066.5C2451 2057.94 2458.16 2051 2467 2051 2475.84 2051 2483 2057.94 2483 2066.5 2483 2075.06 2475.84 2082 2467 2082 2458.16 2082 2451 2075.06 2451 2066.5Z" fill="#4472C4" fill-rule="evenodd"/><path d="M2361.93 1549.3 2364.56 1593.73 2364.56 1593.72 2367.31 1637.79 2367.3 1637.77 2370.24 1680.95 2370.24 1680.93 2371.8 1702.12 2371.8 1702.1 2373.49 1722.91 2373.49 1722.88 2375.3 1743.32 2375.3 1743.29 2377.23 1763.23 2377.23 1763.2 2379.29 1782.64 2379.29 1782.61 2381.48 1801.54 2381.47 1801.49 2383.85 1819.74 2383.84 1819.69 2386.4 1837.32 2386.39 1837.26 2389.14 1854.2 2389.13 1854.13 2392.07 1870.26 2392.05 1870.18 2395.24 1885.55 2395.22 1885.47 2398.6 1900.04 2398.58 1899.96 2402.14 1913.83 2402.12 1913.75 2405.87 1927 2405.85 1926.92 2409.72 1939.49 2409.7 1939.4 2413.76 1951.47 2413.73 1951.38 2417.98 1962.94 2417.95 1962.88 2422.27 1973.94 2422.24 1973.87 2426.67 1984.56 2426.65 1984.5 2431.15 1994.81 2431.11 1994.73 2440.42 2014.54 2440.38 2014.44 2449.07 2031.57 2442.94 2034.68 2434.22 2017.51 2424.87 1997.61 2420.34 1987.22 2415.87 1976.47 2411.54 1965.34 2407.26 1953.7 2403.17 1941.56 2399.27 1928.91 2395.49 1915.58 2391.91 1901.63 2388.52 1886.99 2385.31 1871.53 2382.36 1855.33 2379.6 1838.34 2377.03 1820.66 2374.65 1802.36 2372.46 1783.38 2370.39 1763.91 2368.45 1743.94 2366.64 1723.48 2364.95 1702.64 2363.38 1681.43 2360.44 1638.22 2357.69 1594.15 2355.07 1549.7ZM2456.13 2022.76 2456.5 2053.5 2431.68 2035.35Z"/><text font-family="Arial,Arial_MSFontService,sans-serif" font-weight="400" font-size="64" transform="matrix(1 0 0 1 2480.5 2025)">5</text><path d="M2658.5 941.5 2758.5 841.5 2858.5 941.5Z" stroke="#2F528F" stroke-width="4.58333" stroke-miterlimit="8" fill="#4472C4" fill-rule="evenodd"/><path d="M2658.5 839.5C2658.5 784.271 2703.27 739.5 2758.5 739.5 2813.73 739.5 2858.5 784.271 2858.5 839.5 2858.5 894.728 2813.73 939.5 2758.5 939.5 2703.27 939.5 2658.5 894.728 2658.5 839.5Z" stroke="#2F528F" stroke-width="4.58333" stroke-miterlimit="8" fill="#4472C4" fill-rule="evenodd"/><path d="M2319.5 840.5C2319.5 840.5 2319.5 840.5 2319.5 840.5 2319.5 840.5 2319.5 840.5 2319.5 840.5 2319.5 840.5 2319.5 840.5 2319.5 840.5 2319.5 840.5 2319.5 840.5 2319.5 840.5Z" stroke="#2F528F" stroke-width="4.58333" stroke-miterlimit="8" fill="#4472C4" fill-rule="evenodd"/><path d="M1658.92 565.472 1658.92 425.917 1826.49 425.917 1826.49 435.083 1663.5 435.083 1668.08 430.5 1668.08 565.472ZM1821.91 416.75 1849.41 430.5 1821.91 444.25Z" fill="#FF0000"/><path d="M2252.5 430.5C2252.5 392.945 2283.17 362.5 2321 362.5 2358.83 362.5 2389.5 392.945 2389.5 430.5 2389.5 468.055 2358.83 498.5 2321 498.5 2283.17 498.5 2252.5 468.055 2252.5 430.5Z" fill="#A6A6A6" fill-rule="evenodd"/><path d="M2272.56 382.417 2369.44 478.583M2369.44 382.417 2272.56 478.583" stroke="#7F7F7F" stroke-width="4.58333" stroke-miterlimit="8" fill="none" fill-rule="evenodd"/><path d="M2252.5 430.5C2252.5 392.945 2283.17 362.5 2321 362.5 2358.83 362.5 2389.5 392.945 2389.5 430.5 2389.5 468.055 2358.83 498.5 2321 498.5 2283.17 498.5 2252.5 468.055 2252.5 430.5Z" stroke="#7F7F7F" stroke-width="4.58333" stroke-miterlimit="8" fill="none" fill-rule="evenodd"/><path d="M0-4.58333 671.71-4.58333 671.71 68.5724 662.543 68.5724 662.543 0 667.126 4.58333 0 4.58333ZM680.876 63.9891 667.126 91.4891 653.376 63.9891Z" fill="#0E2680" transform="matrix(-1 1.22465e-16 1.22465e-16 1 2988.63 270.5)"/><path d="M1384.5 676.917 1562.27 676.917 1562.27 686.084 1384.5 686.083ZM1557.69 667.75 1585.19 681.501 1557.69 695.25Z" fill="#C00000"/><path d="M0 285 66.75 0 200.25 0 267 285Z" stroke="#FFC000" stroke-width="4.58333" stroke-miterlimit="8" fill="#FFFF00" fill-rule="evenodd" transform="matrix(1.83697e-16 1 1 -1.83697e-16 1849.5 296.5)"/><path d="M2134.5 425.917 2229.49 425.917 2229.49 435.083 2134.5 435.083ZM2224.9 416.75 2252.4 430.5 2224.9 444.25Z" fill="#FF0000"/><path d="M2965.71 579.456 2316.92 579.456 2316.92 498.5 2326.08 498.5 2326.08 574.872 2321.5 570.289 2965.71 570.289ZM2961.13 561.122 2988.63 574.872 2961.13 588.622Z" fill="#FF6600"/><text fill="#002060" font-family="Arial,Arial_MSFontService,sans-serif" font-weight="400" font-size="83" transform="matrix(1 0 0 1 2723.89 234)">Coolant</text><text fill="#002060" font-family="Arial,Arial_MSFontService,sans-serif" font-weight="400" font-size="83" transform="matrix(1 0 0 1 1854.52 455)">Turbine</text><text fill="#002060" font-family="Arial,Arial_MSFontService,sans-serif" font-weight="400" font-size="83" transform="matrix(1 0 0 1 2785.71 707)">Reinjection</text><path d="M0-4.58333 46.2354-4.58333 46.2354 748.922 37.0687 748.922 37.0687 0 41.652 4.58333 0 4.58333ZM55.402 744.339 41.652 771.839 27.902 744.339Z" fill="#2E75B6" transform="matrix(1.83697e-16 1 1 -1.83697e-16 1663.5 797.5)"/><path d="M2758.5 734.917 2970.5 734.917 2970.5 744.084 2758.5 744.083ZM2965.92 725.75 2993.42 739.5 2965.92 753.25Z" fill="#2E75B6"/><text fill="#002060" font-family="Arial,Arial_MSFontService,sans-serif" font-weight="400" font-size="83" transform="matrix(1 0 0 1 1236.69 661)">Geo Fluid</text><path d="M1585.5 643.5C1585.5 600.422 1620.42 565.5 1663.5 565.5L1663.5 565.5C1706.58 565.5 1741.5 600.422 1741.5 643.5L1741.5 719.5C1741.5 762.578 1706.58 797.5 1663.5 797.5L1663.5 797.5C1620.42 797.5 1585.5 762.578 1585.5 719.5Z" stroke="#2F528F" stroke-width="4.58333" stroke-miterlimit="8" fill="#4472C4" fill-rule="evenodd"/><path d="M2389.5 425.917 2475.61 425.917 2475.61 779.757 2466.44 779.757 2466.44 430.5 2471.02 435.083 2389.5 435.083ZM2484.77 775.173 2471.02 802.673 2457.27 775.173Z" fill="#2E75B6"/><path d="M2435.5 839C2435.5 818.842 2451.39 802.5 2471 802.5 2490.61 802.5 2506.5 818.842 2506.5 839 2506.5 859.158 2490.61 875.5 2471 875.5 2451.39 875.5 2435.5 859.158 2435.5 839Z" stroke="#2F528F" stroke-width="4.58333" stroke-miterlimit="8" fill="#4472C4" fill-rule="evenodd"/><path d="M2506.53 833.917 2630.89 834.732 2630.83 843.898 2506.47 843.083ZM2626.36 825.535 2653.77 839.465 2626.18 853.035Z" fill="#2E75B6"/><path d="M1424.5 777.5C1424.5 748.781 1447.78 725.5 1476.5 725.5 1505.22 725.5 1528.5 748.781 1528.5 777.5 1528.5 806.219 1505.22 829.5 1476.5 829.5 1447.78 829.5 1424.5 806.219 1424.5 777.5Z" stroke="#2F528F" stroke-width="4.58333" stroke-miterlimit="8" fill="#4472C4" fill-rule="evenodd"/><text fill="#FFFFFF" font-family="Calibri,Calibri_MSFontService,sans-serif" font-weight="400" font-size="83" transform="matrix(1 0 0 1 1455.27 804)">1</text><path d="M1609.5 686.5C1609.5 657.781 1632.78 634.5 1661.5 634.5 1690.22 634.5 1713.5 657.781 1713.5 686.5 1713.5 715.219 1690.22 738.5 1661.5 738.5 1632.78 738.5 1609.5 715.219 1609.5 686.5Z" stroke="#2F528F" stroke-width="4.58333" stroke-miterlimit="8" fill="#4472C4" fill-rule="evenodd"/><text fill="#FFFFFF" font-family="Calibri,Calibri_MSFontService,sans-serif" font-weight="400" font-size="83" transform="matrix(1 0 0 1 1640.39 714)">2</text><path d="M1869.94 1390.5 1869.94 1500.67 1863.06 1500.67 1863.06 1390.5ZM1880.25 1496.08 1866.5 1523.58 1852.75 1496.08Z"/><path d="M1961.5 922C1961.5 893.557 1984.78 870.5 2013.5 870.5 2042.22 870.5 2065.5 893.557 2065.5 922 2065.5 950.443 2042.22 973.5 2013.5 973.5 1984.78 973.5 1961.5 950.443 1961.5 922Z" stroke="#2F528F" stroke-width="4.58333" stroke-miterlimit="8" fill="#4472C4" fill-rule="evenodd"/><text fill="#FFFFFF" font-family="Calibri,Calibri_MSFontService,sans-serif" font-weight="400" font-size="83" transform="matrix(1 0 0 1 1991.95 949)">3</text><path d="M1633.5 348.5C1633.5 319.781 1656.78 296.5 1685.5 296.5 1714.22 296.5 1737.5 319.781 1737.5 348.5 1737.5 377.219 1714.22 400.5 1685.5 400.5 1656.78 400.5 1633.5 377.219 1633.5 348.5Z" stroke="#2F528F" stroke-width="4.58333" stroke-miterlimit="8" fill="#4472C4" fill-rule="evenodd"/><text fill="#FFFFFF" font-family="Calibri,Calibri_MSFontService,sans-serif" font-weight="400" font-size="83" transform="matrix(1 0 0 1 1663.94 375)">4</text><path d="M2157.5 355.5C2157.5 326.781 2180.56 303.5 2209 303.5 2237.44 303.5 2260.5 326.781 2260.5 355.5 2260.5 384.219 2237.44 407.5 2209 407.5 2180.56 407.5 2157.5 384.219 2157.5 355.5Z" stroke="#2F528F" stroke-width="4.58333" stroke-miterlimit="8" fill="#4472C4" fill-rule="evenodd"/><text fill="#FFFFFF" font-family="Calibri,Calibri_MSFontService,sans-serif" font-weight="400" font-size="83" transform="matrix(1 0 0 1 2187.59 383)">5</text><path d="M2498.5 457C2498.5 428.557 2521.78 405.5 2550.5 405.5 2579.22 405.5 2602.5 428.557 2602.5 457 2602.5 485.443 2579.22 508.5 2550.5 508.5 2521.78 508.5 2498.5 485.443 2498.5 457Z" stroke="#2F528F" stroke-width="4.58333" stroke-miterlimit="8" fill="#4472C4" fill-rule="evenodd"/><text fill="#FFFFFF" font-family="Calibri,Calibri_MSFontService,sans-serif" font-weight="400" font-size="83" transform="matrix(1 0 0 1 2528.73 484)">6</text></g></svg>