<svg width="5046" height="2663" xmlns="http://www.w3.org/2000/svg" xmlns:xlink="http://www.w3.org/1999/xlink" xml:space="preserve" overflow="hidden"><defs><clipPath id="clip0"><rect x="141" y="-365" width="5046" height="2663"/></clipPath></defs><g clip-path="url(#clip0)" transform="translate(-141 365)"><path d="M1302 1622 3640.58 1622" stroke="#000000" stroke-width="13.75" stroke-miterlimit="8" fill="none" fill-rule="evenodd"/><path d="M0 0 0.000360892 719.231" stroke="#000000" stroke-width="27.5" stroke-miterlimit="8" fill="none" fill-rule="evenodd" transform="matrix(1 0 0 -1 1293 1660.23)"/><rect x="819" y="623" width="271" height="72.0002" stroke="#000000" stroke-width="27.5" stroke-miterlimit="8" fill="#FFFFFF"/><rect x="866" y="698" width="178" height="237" stroke="#000000" stroke-width="27.5" stroke-miterlimit="8" fill="#FFFFFF"/><rect x="819" y="1898" width="271" height="72.0002" stroke="#000000" stroke-width="27.5" stroke-miterlimit="8" fill="#FFFFFF"/><rect x="866" y="1658" width="178" height="236" stroke="#000000" stroke-width="27.5" stroke-miterlimit="8" fill="#FFFFFF"/><path d="M3640.5 1027C3781.61 1027 3896 1151.46 3896 1305 3896 1458.54 3781.61 1583 3640.5 1583 3639.57 1583 3638.63 1582.99 3637.7 1582.98" stroke="#000000" stroke-width="13.75" stroke-miterlimit="8" fill="none" fill-rule="evenodd"/><path d="M1299 988 3637.58 988" stroke="#000000" stroke-width="13.75" stroke-miterlimit="8" fill="none" fill-rule="evenodd"/><path d="M1299 1027 3637.58 1027" stroke="#000000" stroke-width="13.75" stroke-miterlimit="8" fill="none" fill-rule="evenodd"/><path d="M1299 1226 3637.58 1226" stroke="#000000" stroke-width="13.75" stroke-miterlimit="8" fill="none" fill-rule="evenodd"/><path d="M1299 1265 3637.58 1265" stroke="#000000" stroke-width="13.75" stroke-miterlimit="8" fill="none" fill-rule="evenodd"/><path d="M1299 1345 3637.58 1345" stroke="#000000" stroke-width="13.75" stroke-miterlimit="8" fill="none" fill-rule="evenodd"/><path d="M1299 1384 3637.58 1384" stroke="#000000" stroke-width="13.75" stroke-miterlimit="8" fill="none" fill-rule="evenodd"/><path d="M1299 1464 3637.58 1464" stroke="#000000" stroke-width="13.75" stroke-miterlimit="8" fill="none" fill-rule="evenodd"/><path d="M1299 1503 3637.58 1503" stroke="#000000" stroke-width="13.75" stroke-miterlimit="8" fill="none" fill-rule="evenodd"/><path d="M1299 1583 3637.58 1583" stroke="#000000" stroke-width="13.75" stroke-miterlimit="8" fill="none" fill-rule="evenodd"/><path d="M1299 1107 3637.58 1107" stroke="#000000" stroke-width="13.75" stroke-miterlimit="8" fill="none" fill-rule="evenodd"/><path d="M1299 1146 3637.58 1146" stroke="#000000" stroke-width="13.75" stroke-miterlimit="8" fill="none" fill-rule="evenodd"/><path d="M3638 1107C3742.93 1107 3828 1195.65 3828 1305 3828 1414.35 3742.93 1503 3638 1503 3637.33 1503 3636.67 1503 3636 1502.99" stroke="#000000" stroke-width="13.75" stroke-miterlimit="8" fill="none" fill-rule="evenodd"/><path d="M3636.5 1146C3719.62 1146 3787 1217.19 3787 1305 3787 1392.81 3719.62 1464 3636.5 1464 3635.97 1464 3635.43 1464 3634.9 1463.99" stroke="#000000" stroke-width="13.75" stroke-miterlimit="8" fill="none" fill-rule="evenodd"/><path d="M3638 988C3803.69 988 3938 1129.93 3938 1305 3938 1480.07 3803.69 1622 3638 1622 3634.56 1622 3631.13 1621.94 3627.69 1621.81" stroke="#000000" stroke-width="13.75" stroke-miterlimit="8" fill="none" fill-rule="evenodd"/><path d="M3636 1226C3689.57 1226 3733 1261.37 3733 1305 3733 1348.63 3689.57 1384 3636 1384 3635.73 1384 3635.47 1384 3635.2 1384" stroke="#000000" stroke-width="13.75" stroke-miterlimit="8" fill="none" fill-rule="evenodd"/><path d="M3632 1265C3665.69 1265 3693 1282.91 3693 1305 3693 1327.09 3665.69 1345 3632 1345 3631.87 1345 3631.73 1345 3631.6 1345" stroke="#000000" stroke-width="13.75" stroke-miterlimit="8" fill="none" fill-rule="evenodd"/><path d="M2910.92 315.769 4841.46 315.77C4930.33 315.769 5002.38 387.817 5002.38 476.692L5002.38 1059.76 5002.38 1120.36 5002.38 1539.25C5002.38 1605.45 4948.71 1659.12 4882.51 1659.12L677.731 1659.12C611.526 1659.12 557.857 1605.45 557.857 1539.25L557.857 1059.76C557.857 993.56 611.526 939.891 677.731 939.891L1298.94 939.891 1313.5 928.371C1320.64 923.791 1328.35 919.858 1336.58 916.683L2819.65 344.328 2820.95 343.253C2846.63 325.901 2877.59 315.769 2910.92 315.769Z" stroke="#000000" stroke-width="27.5" stroke-miterlimit="8" fill="none" fill-rule="evenodd"/><path d="M0 0 0.000360892 853.733" stroke="#000000" stroke-width="27.5" stroke-miterlimit="8" fill="none" fill-rule="evenodd" transform="matrix(1 0 0 -1 4038 1668.73)"/><path d="M0 0 741.584 0.000360892" stroke="#000000" stroke-width="27.5" stroke-miterlimit="8" fill="none" fill-rule="evenodd" transform="matrix(-1 0 0 1 1288.58 1305)"/><path d="M961.156 2004 961.156 2241.7 950.844 2241.7 950.844 2004ZM971.469 2236.55 956 2267.49 940.531 2236.55Z"/><path d="M959.156 307 959.156 544.704 948.844 544.704 948.844 307ZM969.469 539.547 954 570.485 938.531 539.547Z"/><text font-family="Calibri,Calibri_MSFontService,sans-serif" font-weight="400" font-size="101" transform="matrix(1 0 0 1 290.461 464)">Geofluid inlet</text><text font-family="Calibri,Calibri_MSFontService,sans-serif" font-weight="400" font-size="101" transform="matrix(1 0 0 1 202.294 2168)">Geofluid </text><text font-family="Calibri,Calibri_MSFontService,sans-serif" font-weight="400" font-size="101" transform="matrix(1 0 0 1 574.689 2168)">outlet</text><rect x="1413" y="1904" width="270" height="70.9998" stroke="#000000" stroke-width="27.5" stroke-miterlimit="8" fill="#FFFFFF"/><rect x="1459" y="1664" width="178" height="236" stroke="#000000" stroke-width="27.5" stroke-miterlimit="8" fill="#FFFFFF"/><path d="M5.15625-7.06246e-06 5.15658 237.704-5.15592 237.704-5.15625 7.06246e-06ZM15.4691 232.547 0.000360892 263.485-15.4684 232.548Z" transform="matrix(1 0 0 -1 1548 2267.49)"/><text font-family="Calibri,Calibri_MSFontService,sans-serif" font-weight="400" font-size="101" transform="matrix(1 0 0 1 1618.18 2185)">ORC</text><text font-family="Calibri,Calibri_MSFontService,sans-serif" font-weight="400" font-size="101" transform="matrix(1 0 0 1 1816.09 2185)">flui</text><text font-family="Calibri,Calibri_MSFontService,sans-serif" font-weight="400" font-size="101" transform="matrix(1 0 0 1 1945.57 2185)">d</text><text font-family="Calibri,Calibri_MSFontService,sans-serif" font-weight="400" font-size="101" transform="matrix(1 0 0 1 2021.2 2185)">inlet (liquid)</text><path d="M0 0 2739.43 5.2647" stroke="#000000" stroke-width="13.75" stroke-miterlimit="8" stroke-dasharray="55 41.25" fill="none" fill-rule="evenodd" transform="matrix(1 0 0 -1 1299 940.265)"/><path d="M3092.16 623 3092.16 860.704 3081.84 860.704 3081.84 623ZM3102.47 855.547 3087 886.485 3071.53 855.547Z"/><text font-family="Calibri,Calibri_MSFontService,sans-serif" font-weight="400" font-size="101" transform="matrix(1 0 0 1 3135.1 784)">Boiling</text><text font-family="Calibri,Calibri_MSFontService,sans-serif" font-weight="400" font-size="101" transform="matrix(1 0 0 1 3435.31 784)">ORC</text><text font-family="Calibri,Calibri_MSFontService,sans-serif" font-weight="400" font-size="101" transform="matrix(1 0 0 1 3633.22 784)">flui</text><text font-family="Calibri,Calibri_MSFontService,sans-serif" font-weight="400" font-size="101" transform="matrix(1 0 0 1 3762.7 784)">d</text><rect x="3655" y="5.00016" width="771" height="71.9998" stroke="#000000" stroke-width="27.5" stroke-miterlimit="8" fill="#FFFFFF"/><rect x="3788" y="80.0001" width="505" height="237" stroke="#000000" stroke-width="27.5" stroke-miterlimit="8" fill="#FFFFFF"/><path d="M5.15625-7.06246e-06 5.15658 237.704-5.15592 237.704-5.15625 7.06246e-06ZM15.4691 232.547 0.000360892 263.485-15.4684 232.548Z" transform="matrix(1 0 0 -1 4037 -70.5151)"/><text font-family="Calibri,Calibri_MSFontService,sans-serif" font-weight="400" font-size="101" transform="matrix(1 0 0 1 4106.93 -153)">ORC</text><text font-family="Calibri,Calibri_MSFontService,sans-serif" font-weight="400" font-size="101" transform="matrix(1 0 0 1 4304.84 -153)">flui</text><text font-family="Calibri,Calibri_MSFontService,sans-serif" font-weight="400" font-size="101" transform="matrix(1 0 0 1 4434.32 -153)">d</text><text font-family="Calibri,Calibri_MSFontService,sans-serif" font-weight="400" font-size="101" transform="matrix(1 0 0 1 4509.95 -153)">outlet (vapour)</text><text font-family="Calibri,Calibri_MSFontService,sans-serif" font-weight="400" font-size="101" transform="matrix(1 0 0 1 4039.85 1893)">Tubes</text><path d="M4016.17 1832.34 3836.73 1598.77 3842.19 1594.58 4021.62 1828.15ZM3831.35 1608.68 3825.5 1578.5 3853.16 1591.93Z"/><text font-family="Calibri,Calibri_MSFontService,sans-serif" font-weight="400" font-size="101" transform="matrix(1 0 0 1 3523.99 2135)">Shell</text><path d="M3518.51 2050.47 3288.38 1706.46 3294.1 1702.64 3524.22 2046.64ZM3282.36 1716 3278.5 1685.5 3305.22 1700.71Z"/></g></svg>