<svg width="3687" height="1420" xmlns="http://www.w3.org/2000/svg" xmlns:xlink="http://www.w3.org/1999/xlink" xml:space="preserve" overflow="hidden"><defs><clipPath id="clip0"><rect x="511" y="613" width="3687" height="1420"/></clipPath><linearGradient x1="2480.5" y1="1284.5" x2="3969.5" y2="1284.5" gradientUnits="userSpaceOnUse" spreadMethod="reflect" id="fill1"><stop offset="0" stop-color="#8FAADC"/><stop offset="0.5" stop-color="#AFADAD"/><stop offset="1" stop-color="#F4B183"/></linearGradient><linearGradient x1="44.5002" y1="0" x2="44.5002" y2="130" gradientUnits="userSpaceOnUse" spreadMethod="reflect" id="fill2"><stop offset="0" stop-color="#FFFF00"/><stop offset="0.48" stop-color="#FFC000"/><stop offset="0.75" stop-color="#FF0000"/><stop offset="1" stop-color="#C00000"/></linearGradient><linearGradient x1="825.5" y1="1024" x2="825.5" y2="1154" gradientUnits="userSpaceOnUse" spreadMethod="reflect" id="fill3"><stop offset="0" stop-color="#FFFF00"/><stop offset="0.48" stop-color="#FFC000"/><stop offset="0.75" stop-color="#FF0000"/><stop offset="1" stop-color="#C00000"/></linearGradient><linearGradient x1="891" y1="1024" x2="891" y2="1154" gradientUnits="userSpaceOnUse" spreadMethod="reflect" id="fill4"><stop offset="0" stop-color="#FFFF00"/><stop offset="0.48" stop-color="#FFC000"/><stop offset="0.75" stop-color="#FF0000"/><stop offset="1" stop-color="#C00000"/></linearGradient></defs><g clip-path="url(#clip0)" transform="translate(-511 -613)"><path d="M244.483 388.589C248.847 447.433 251.072 509.122 251.072 571.227" stroke="#A5A5A5" stroke-width="2.29167" stroke-miterlimit="8" fill="none" fill-rule="evenodd" transform="matrix(0.833926 0.551876 0.551876 -0.833926 2123.55 1980.83)"/><path d="M143.228 5.70102C193.233 38.0916 234.102 203.698 246.946 425.978" stroke="#A5A5A5" stroke-width="2.29167" stroke-miterlimit="8" fill="none" fill-rule="evenodd" transform="matrix(0.890247 0.455478 0.455478 -0.890247 3387.03 1097.24)"/><path d="M143.228 5.70102C205.101 45.7785 251.072 286.847 251.072 571.226" stroke="#A5A5A5" stroke-width="2.29167" stroke-miterlimit="8" fill="none" fill-rule="evenodd" transform="matrix(0.890247 0.455478 0.455478 -0.890247 3606.7 1587.07)"/><path d="M153.765 9.76202 157.269 13.2827 160.717 17.2521 164.139 21.6415 167.488 26.4073 170.746 31.5822 173.986 37.0464 177.226 42.9546 180.412 49.1987 186.542 62.786 192.471 77.7968 198.263 94.2287 203.796 111.961 209.135 130.993 214.22 151.269 219.05 172.847 223.627 195.542 227.951 219.481 232.024 244.483 236.313 274.791 229.506 275.755 225.221 245.482 225.232 245.553 221.17 220.615 221.18 220.674 216.867 196.798 216.88 196.867 212.318 174.242 212.333 174.313 207.52 152.813 207.541 152.899 202.478 132.711 202.503 132.803 197.19 113.866 197.219 113.961 191.719 96.3365 191.758 96.4553 186.008 80.1428 186.053 80.2627 180.178 65.3877 180.242 65.5387 174.179 52.1012 174.251 52.2497 171.126 46.1247 171.173 46.2154 167.986 40.4029 168.043 40.5034 164.856 35.1284 164.904 35.2065 161.716 30.144 161.812 30.2889 158.562 25.6639 158.664 25.8007 155.351 21.5507 155.468 21.6921 152.155 17.8796 152.313 18.0496 148.892 14.6113ZM245.977 269.003 235.781 298.009 218.694 272.449Z" transform="matrix(0.890247 0.455478 0.455478 -0.890247 3387.03 1097.24)"/><path d="M230.087 335.321C249.348 508.698 255.716 722.123 247.671 924.658" stroke="#A5A5A5" stroke-width="2.29167" stroke-miterlimit="8" fill="none" fill-rule="evenodd" transform="matrix(0.833926 0.551876 0.551876 -0.833926 2177.55 1796.92)"/><path d="M3212.71 667.5 3264.47 682.297 3317.71 716.823 3360.6 776.011 3422.72 904.252 3471.52 1042.36 3546.94 1254.45 3632.72 1469 3719.97 1616.97 3765.82 1690.96 3842.72 1787.14 3916.67 1856.19 3969.5 1901.5 2480.5 1901.5 2532.42 1833.99 2637.42 1666.3 2702.49 1552.85 2779.4 1407.35 2857.78 1242.12 2937.64 1069.48 3001.23 931.38 3061.87 803.139 3119.54 714.357 3160.95 679.831 3212.71 667.5Z" stroke="#000000" stroke-width="4.58333" stroke-miterlimit="8" fill="url(#fill1)" fill-rule="evenodd"/><path d="M3215.73 667.5 3254.77 682.297 3294.92 716.823 3327.27 776.011 3374.12 904.252 3410.92 1042.36 3467.81 1254.45 3532.5 1469 3598.31 1616.97 3632.88 1690.96 3690.88 1787.14 3746.65 1856.19 3786.5 1901.5 2663.5 1901.5 2702.66 1833.99 2781.85 1666.3 2830.93 1552.85 2888.93 1407.35 2948.04 1242.12 3008.27 1069.48 3056.23 931.38 3101.96 803.139 3145.46 714.357 3176.69 679.831 3215.73 667.5Z" stroke="#767171" stroke-width="4.58333" stroke-miterlimit="8" fill="none" fill-rule="evenodd"/><path d="M3218.75 667.5 3247.19 682.297 3276.43 716.823 3299.99 776.011 3334.12 904.252 3360.93 1042.36 3402.36 1254.45 3449.49 1469 3497.42 1616.97 3522.61 1690.96 3564.85 1787.14 3605.48 1856.19 3634.5 1901.5 2816.5 1901.5 2845.02 1833.99 2902.71 1666.3 2938.45 1552.85 2980.7 1407.35 3023.76 1242.12 3067.63 1069.48 3102.57 931.38 3135.88 803.139 3167.57 714.357 3190.31 679.831 3218.75 667.5Z" stroke="#767171" stroke-width="4.58333" stroke-miterlimit="8" fill="none" fill-rule="evenodd"/><path d="M3220.55 667.5 3239.29 682.297 3258.56 716.823 3274.09 776.011 3296.57 904.252 3314.24 1042.36 3341.54 1254.45 3372.59 1469 3404.17 1616.97 3420.77 1690.96 3448.61 1787.14 3475.38 1856.19 3494.5 1901.5 2955.5 1901.5 2974.29 1833.99 3012.3 1666.3 3035.86 1552.85 3063.7 1407.35 3092.07 1242.12 3120.98 1069.48 3144 931.38 3165.95 803.139 3186.83 714.357 3201.82 679.831 3220.55 667.5Z" stroke="#767171" stroke-width="4.58333" stroke-miterlimit="8" fill="none" fill-rule="evenodd"/><path d="M3224.2 667.5 3229.69 682.297 3235.34 716.823 3239.89 776.011 3246.48 904.252 3251.66 1042.36 3259.66 1254.45 3268.76 1469 3278.02 1616.97 3282.89 1690.96 3291.05 1787.14 3298.89 1856.19 3304.5 1901.5 3146.5 1901.5 3152.01 1833.99 3163.15 1666.3 3170.06 1552.85 3178.22 1407.35 3186.53 1242.12 3195.01 1069.48 3201.76 931.38 3208.19 803.139 3214.31 714.357 3218.7 679.831 3224.2 667.5Z" stroke="#767171" stroke-width="4.58333" stroke-miterlimit="8" fill="none" fill-rule="evenodd"/><path d="M3726.44 1648.9 2660 1648" stroke="#A5A5A5" stroke-width="2.29167" stroke-miterlimit="8" fill="none" fill-rule="evenodd"/><path d="M3.4375-1.00548e-06 3.43785 1210.9-3.43715 1210.9-3.4375 1.00548e-06ZM13.7504 1206.31 0.000360892 1233.81-13.7496 1206.31Z" transform="matrix(1 0 0 -1 2477.5 1901.31)"/><path d="M7.96451e-07-3.4375 1534.7-3.43714 1534.7 3.43786-7.96451e-07 3.4375ZM1530.12-13.7496 1557.62 0.000360892 1530.12 13.7504Z" transform="matrix(1 0 0 -1 2477.5 1899.5)"/><text font-family="Arial,Arial_MSFontService,sans-serif" font-weight="400" font-size="64" transform="matrix(-1.83697e-16 -1 1 -1.83697e-16 2439.38 1017)">T</text><text font-family="Arial,Arial_MSFontService,sans-serif" font-weight="400" font-size="64" transform="matrix(-1.83697e-16 -1 1 -1.83697e-16 2439.38 978)">emperature</text><text font-family="Arial,Arial_MSFontService,sans-serif" font-weight="400" font-size="64" transform="matrix(1 0 0 1 3769.81 1979)">Entropy</text><text font-family="Arial,Arial_MSFontService,sans-serif" font-weight="400" font-size="64" transform="matrix(1 0 0 1 3818.59 838)">P</text><text font-family="Arial,Arial_MSFontService,sans-serif" font-weight="400" font-size="43" transform="matrix(1 0 0 1 3861.55 853)">high</text><text font-family="Arial,Arial_MSFontService,sans-serif" font-weight="400" font-size="64" transform="matrix(1 0 0 1 3964.22 1209)">P</text><text font-family="Arial,Arial_MSFontService,sans-serif" font-weight="400" font-size="43" transform="matrix(1 0 0 1 4007.19 1224)">low</text><path d="M2631 1648.5C2631 1640.49 2637.49 1634 2645.5 1634 2653.51 1634 2660 1640.49 2660 1648.5 2660 1656.51 2653.51 1663 2645.5 1663 2637.49 1663 2631 1656.51 2631 1648.5Z" fill="#002060" fill-rule="evenodd"/><path d="M3728 927.5C3728 919.492 3734.49 913 3742.5 913 3750.51 913 3757 919.492 3757 927.5 3757 935.508 3750.51 942 3742.5 942 3734.49 942 3728 935.508 3728 927.5Z" fill="#002060" fill-rule="evenodd"/><path d="M3726.94 1652.83 2683.41 1651.96 2683.42 1645.08 3726.94 1645.96ZM2687.99 1662.27 2660.5 1648.5 2688.01 1634.77Z"/><path d="M3.43748-0.0125471 5.87971 669.075-0.995241 669.1-3.43748 0.0125471ZM16.1754 664.454 2.52589 692.004-11.3244 664.555Z" transform="matrix(-1 0 0 1 3743.03 942.5)"/><text font-family="Arial,Arial_MSFontService,sans-serif" font-weight="400" font-size="64" transform="matrix(1 0 0 1 3774.75 1290)">3</text><text font-family="Arial,Arial_MSFontService,sans-serif" font-weight="400" font-size="64" transform="matrix(1 0 0 1 2901.06 1225)">2</text><path d="M3729.81 1638.74C3735.08 1632.77 3744.19 1632.2 3750.17 1637.47 3756.14 1642.74 3756.71 1651.86 3751.43 1657.83 3746.16 1663.8 3737.05 1664.37 3731.08 1659.1 3725.11 1653.83 3724.54 1644.71 3729.81 1638.74Z" fill="#002060" fill-rule="evenodd"/><text font-family="Arial,Arial_MSFontService,sans-serif" font-weight="400" font-size="64" transform="matrix(1 0 0 1 2540.78 1001)">Liquid Phase</text><text font-family="Arial,Arial_MSFontService,sans-serif" font-weight="400" font-size="64" transform="matrix(1 0 0 1 2889.74 1841)">Liquid &amp; Vapour Phase</text><text font-family="Arial,Arial_MSFontService,sans-serif" font-weight="400" font-size="64" transform="matrix(1 0 0 1 3468.91 697)">Vapour Phase</text><path d="M3.4375-1.35057e-05 3.43777 68.9387-3.43723 68.9388-3.4375 1.35057e-05ZM13.7503 64.3554 0.000360892 91.8554-13.7497 64.3555Z" transform="matrix(1 0 0 -1 2645.5 1634.36)"/><path d="M2631 1527.5C2631 1519.49 2637.49 1513 2645.5 1513 2653.51 1513 2660 1519.49 2660 1527.5 2660 1535.51 2653.51 1542 2645.5 1542 2637.49 1542 2631 1535.51 2631 1527.5Z" fill="#002060" fill-rule="evenodd"/><path d="M243.665 496.88C252.175 638.449 253.382 792.045 247.129 937.765" stroke="#000000" stroke-width="6.875" stroke-miterlimit="8" fill="none" fill-rule="evenodd" transform="matrix(0.833926 0.551876 0.551876 -0.833926 2177.55 1796.92)"/><path d="M3527.95 1153.5 2898.5 1153.5" stroke="#000000" stroke-width="6.875" stroke-miterlimit="8" fill="none" fill-rule="evenodd"/><text font-family="Arial,Arial_MSFontService,sans-serif" font-weight="400" font-size="64" transform="matrix(1 0 0 1 3197.29 1622)">4</text><text font-family="Arial,Arial_MSFontService,sans-serif" font-weight="400" font-size="64" transform="matrix(1 0 0 1 2581.15 1628)">1</text><path d="M1435.77 1662.39 511.804 1662.39 511.804 879.917 756.584 879.917 756.584 889.083 516.387 889.083 520.971 884.5 520.971 1657.81 516.387 1653.23 1435.77 1653.23ZM752 870.75 779.5 884.5 752 898.25Z" fill="#2E75B6"/><path d="M2056.5 767.5C2056.5 767.5 2056.5 767.5 2056.5 767.5 2056.5 767.5 2056.5 767.5 2056.5 767.5 2056.5 767.5 2056.5 767.5 2056.5 767.5 2056.5 767.5 2056.5 767.5 2056.5 767.5Z" stroke="#2F528F" stroke-width="4.58333" stroke-miterlimit="8" fill="#4472C4" fill-rule="evenodd"/><path d="M0-4.58333 239.952-4.58333 239.952 77.9488 230.786 77.9488 230.786 0 235.369 4.58333 0 4.58333ZM249.119 73.3655 235.369 100.865 221.619 73.3655Z" fill="#0E2680" transform="matrix(-1 1.22465e-16 1.22465e-16 1 2048.87 1221.5)"/><path d="M4.58346 22.9166 4.58369 67.8524-4.58297 67.8525-4.58321 22.9167ZM-13.7499 27.5001 0 0 13.7501 27.4999Z" fill="#FF6600" transform="matrix(1 0 0 -1 1811.5 1492.35)"/><text fill="#002060" font-family="Arial,Arial_MSFontService,sans-serif" font-weight="400" font-size="64" transform="matrix(1 0 0 1 1814.04 1188)">Coolant</text><path d="M795.5 885.5C795.5 813.703 853.479 755.5 925 755.5 996.521 755.5 1054.5 813.703 1054.5 885.5 1054.5 957.297 996.521 1015.5 925 1015.5 853.479 1015.5 795.5 957.297 795.5 885.5Z" stroke="#000000" stroke-width="6.875" stroke-miterlimit="8" fill="#F4B183" fill-rule="evenodd"/><path d="M1003.9 843 1020.39 843 1020.39 876.633 1069 876.633 1068.42 884.227 1069 893.062 1020.39 893.062 1018.75 893.062 1003.9 893.062 1003.9 862.979 844.804 926.116 844.804 926.696 843.342 926.696 842.575 927 842.453 926.696 828.315 926.696 828.315 893.062 779.791 893.062 779 884.227 779.791 876.633 828.315 876.633 830.037 876.633 844.804 876.633 844.804 908.432 1003.9 845.295 1003.9 843Z" fill="#2E75B6" fill-rule="evenodd"/><path d="M1557.5 921.5 1557.5 1152.42 1557.5 1189.1 1557.5 1197.25 1557.5 1197.25C1557.5 1201.8 1551.45 1205.5 1543.99 1205.5 1536.52 1205.5 1530.47 1201.8 1530.47 1197.25L1530.47 1197.25 1530.47 1182.77 1271.5 1122.2 1271.5 1012.74 1271.5 988.399 1271.5 968.086 1271.5 967.92 1271.61 967.92 1275.46 962.25C1277.9 960.756 1281.28 959.832 1285.01 959.832 1288.74 959.832 1292.12 960.756 1294.57 962.25L1298.41 967.92 1298.53 967.92 1298.53 968.086 1298.53 982.077Z" stroke="#FFC000" stroke-width="4.58333" stroke-miterlimit="8" fill="#FFFF00" fill-rule="evenodd"/><text fill="#002060" font-family="Calibri,Calibri_MSFontService,sans-serif" font-weight="400" font-size="64" transform="matrix(1 0 0 1 1312.77 1085)">Turbine</text><rect x="600.5" y="834.5" width="104" height="104" stroke="#2F528F" stroke-width="4.58333" stroke-miterlimit="8" fill="#FFFFFF"/><text fill="#002060" font-family="Calibri,Calibri_MSFontService,sans-serif" font-weight="400" font-size="83" transform="matrix(1 0 0 1 629.473 914)">B</text><path d="M1069.5 879.917 1287.22 879.917 1287.73 936.627 1278.56 936.709 1278.09 884.541 1282.68 889.083 1069.5 889.083ZM1296.35 930.696 1285.5 959.463 1269 933.522Z" fill="#C00000"/><rect x="1131.5" y="834.5" width="104" height="104" stroke="#2F528F" stroke-width="4.58333" stroke-miterlimit="8" fill="#FFFFFF"/><text fill="#002060" font-family="Calibri,Calibri_MSFontService,sans-serif" font-weight="400" font-size="83" transform="matrix(1 0 0 1 1160.56 914)">C</text><path d="M1543.5 1210.08 1538.42 1210.08 1543 1205.5 1543 1451.86 1538.42 1447.28 1644.69 1447.28 1644.69 1456.44 1533.84 1456.44 1533.84 1200.92 1543.5 1200.92ZM1640.11 1438.11 1667.61 1451.86 1640.11 1465.61Z" fill="#C00000"/><path d="M100 0C155.229 0 200 44.793 200 100.048 200 127.675 188.807 152.687 170.711 170.792L169.668 171.653 200 202 0 202 30.3322 171.653 29.2892 170.792C11.1931 152.687 0 127.675 0 100.048 0 44.793 44.7715 0 100 0Z" stroke="#787878" stroke-width="4.58333" stroke-miterlimit="8" fill="#A5A5A5" fill-rule="evenodd" transform="matrix(-1 0 0 1 1535.5 1658.5)"/><path d="M0 8.5001C-1.01849e-15 3.80562 3.58168-1.08218e-15 7.9999-2.16435e-15 12.4181-4.3287e-15 15.9998 3.80562 15.9998 8.5001 15.9998 13.1946 12.4181 17.0002 7.9999 17.0002 3.58168 17.0002-5.09247e-15 13.1946 0 8.5001Z" stroke="#000000" stroke-width="4.58333" stroke-miterlimit="8" fill-rule="evenodd" transform="matrix(-1 0 0 1 1443.5 1750.5)"/><path d="M0 4.58333-83.0765 4.58333-78.4932 0-78.4932 307.325-83.0765 302.741 490.566 302.741 490.566 311.908-87.6598 311.908-87.6598-4.58333 0-4.58333ZM485.983 293.575 513.483 307.325 485.983 321.075Z" fill="#2E75B6" transform="matrix(-1 0 0 1 1956.98 1451.5)"/><rect x="1488.5" y="1240.5" width="104" height="104" stroke="#2F528F" stroke-width="4.58333" stroke-miterlimit="8" fill="#FFFFFF"/><text fill="#002060" font-family="Calibri,Calibri_MSFontService,sans-serif" font-weight="400" font-size="83" transform="matrix(1 0 0 1 1514.78 1320)">D</text><path d="M1683.5 1452.5C1683.5 1380.7 1741.7 1322.5 1813.5 1322.5 1885.3 1322.5 1943.5 1380.7 1943.5 1452.5 1943.5 1524.3 1885.3 1582.5 1813.5 1582.5 1741.7 1582.5 1683.5 1524.3 1683.5 1452.5Z" stroke="#000000" stroke-width="6.875" stroke-miterlimit="8" fill="#8FAADC" fill-rule="evenodd"/><path d="M1892.68 1410 1909.22 1410 1909.22 1443.63 1958 1443.63 1957.42 1451.23 1958 1460.06 1909.22 1460.06 1907.58 1460.06 1892.68 1460.06 1892.68 1429.98 1733.03 1493.12 1733.03 1493.7 1731.56 1493.7 1730.79 1494 1730.67 1493.7 1716.48 1493.7 1716.48 1460.06 1667.79 1460.06 1667 1451.23 1667.79 1443.63 1716.48 1443.63 1718.21 1443.63 1733.03 1443.63 1733.03 1475.43 1892.68 1412.3 1892.68 1410Z" fill="#C00000" fill-rule="evenodd"/><rect x="1769.5" y="1705.5" width="104" height="104" stroke="#2F528F" stroke-width="4.58333" stroke-miterlimit="8" fill="#FFFFFF"/><text fill="#002060" font-family="Calibri,Calibri_MSFontService,sans-serif" font-weight="400" font-size="83" transform="matrix(1 0 0 1 1797.07 1784)">A</text><path d="M83.7197 66.8022C86.3693 77.8559 75.0485 88.6693 63.9686 84.1036 54.5749 80.7394 50.9618 69.9262 57.4653 60.5546 72.1581 41.0907 61.3192 10.573 36.9916 0 48.0714 20.9059 31.2108 39.8891 21.3353 48.0592 11.7007 55.9891 5.19716 64.3993 3.27022 69.2052-6.60518 92.9946 8.08755 115.823 18.204 121.35 13.6276 111.017 9.53275 91.5528 27.3569 73.0499 27.3569 73.0499 22.2988 92.7542 33.3787 106.211 44.4585 119.908 44.4585 130 44.4585 130 61.8009 130 78.4206 119.667 85.4059 102.606 90.2232 92.2736 90.7049 76.1739 83.7197 66.8022" fill="url(#fill2)" fill-rule="evenodd" transform="matrix(-1 0 0 1 1004 1024)"/><path d="M864.72 1090.8C867.369 1101.86 856.048 1112.67 844.969 1108.1 835.575 1104.74 831.962 1093.93 838.465 1084.55 853.158 1065.09 842.319 1034.57 817.992 1024 829.071 1044.91 812.211 1063.89 802.335 1072.06 792.701 1079.99 786.197 1088.4 784.27 1093.21 774.395 1116.99 789.088 1139.82 799.204 1145.35 794.628 1135.02 790.533 1115.55 808.357 1097.05 808.357 1097.05 803.299 1116.75 814.379 1130.21 825.459 1143.91 825.459 1154 825.459 1154 842.801 1154 859.421 1143.67 866.406 1126.61 871.223 1116.27 871.705 1100.17 864.72 1090.8" fill="url(#fill3)" fill-rule="evenodd"/><path d="M929.779 1090.8C932.399 1101.86 921.205 1112.67 910.25 1108.1 900.962 1104.74 897.389 1093.93 903.82 1084.55 918.347 1065.09 907.63 1034.57 883.576 1024 894.531 1044.91 877.86 1063.89 868.096 1072.06 858.569 1079.99 852.139 1088.4 850.233 1093.21 840.469 1116.99 854.997 1139.82 864.999 1145.35 860.474 1135.02 856.426 1115.55 874.049 1097.05 874.049 1097.05 869.048 1116.75 880.004 1130.21 890.959 1143.91 890.959 1154 890.959 1154 908.107 1154 924.539 1143.67 931.446 1126.61 936.209 1116.27 936.686 1100.17 929.779 1090.8" fill="url(#fill4)" fill-rule="evenodd"/><text fill="#002060" font-family="Arial,Arial_MSFontService,sans-serif" font-weight="400" font-size="64" transform="matrix(1 0 0 1 808.52 711)">Boiler</text><text fill="#002060" font-family="Arial,Arial_MSFontService,sans-serif" font-weight="400" font-size="64" transform="matrix(1 0 0 1 1123.88 1769)">Pump</text><text fill="#002060" font-family="Arial,Arial_MSFontService,sans-serif" font-weight="400" font-size="64" transform="matrix(1 0 0 1 1960.85 1387)">Condenser</text><text font-family="Arial,Arial_MSFontService,sans-serif" font-weight="400" font-size="64" transform="matrix(1 0 0 1 2622.6 1733)">A</text><text font-family="Arial,Arial_MSFontService,sans-serif" font-weight="400" font-size="64" transform="matrix(1 0 0 1 2589.31 1499)">B</text><text font-family="Arial,Arial_MSFontService,sans-serif" font-weight="400" font-size="64" transform="matrix(1 0 0 1 3691 899)">C</text><text font-family="Arial,Arial_MSFontService,sans-serif" font-weight="400" font-size="64" transform="matrix(1 0 0 1 3796.82 1691)">D</text><path d="M0 0 175.734 0.930381" stroke="#000000" stroke-width="36.6667" stroke-miterlimit="8" fill="none" fill-rule="evenodd" transform="matrix(1 0 0 -1 1559.5 1067.43)"/><path d="M1735.5 1066.5C1735.5 1028.94 1765.72 998.5 1803 998.5 1840.28 998.5 1870.5 1028.94 1870.5 1066.5 1870.5 1104.06 1840.28 1134.5 1803 1134.5 1765.72 1134.5 1735.5 1104.06 1735.5 1066.5Z" stroke="#2F528F" stroke-width="4.58333" stroke-miterlimit="8" fill="#4472C4" fill-rule="evenodd"/><text fill="#002060" font-family="Arial,Arial_MSFontService,sans-serif" font-weight="400" font-size="64" transform="matrix(1 0 0 1 1647.39 964)">Generator</text></g></svg>