<svg width="1664" height="1886" xmlns="http://www.w3.org/2000/svg" xmlns:xlink="http://www.w3.org/1999/xlink" xml:space="preserve" overflow="hidden"><defs><clipPath id="clip0"><rect x="1333" y="20" width="1664" height="1886"/></clipPath></defs><g clip-path="url(#clip0)" transform="translate(-1333 -20)"><path d="M419.784 27.0866C788.677-38.4859 1231.67 18.7934 1409.23 155.023 1454.62 189.849 1479.53 227.829 1482.31 266.465" stroke="#4472C4" stroke-width="2.29167" stroke-miterlimit="8" fill="none" fill-rule="evenodd" transform="matrix(-0.426883 -0.904307 -0.904307 0.426883 2826.28 2065.75)"/><path d="M1520.16 1651.75C1664.38 1178.83 1871.09 816.928 1988.75 831.322" stroke="#4472C4" stroke-width="2.29167" stroke-miterlimit="8" fill="none" fill-rule="evenodd"/><path d="M237.725 377.847C241.968 435.065 244.132 495.048 244.132 555.436" stroke="#A5A5A5" stroke-width="2.29167" stroke-miterlimit="8" fill="none" fill-rule="evenodd" transform="matrix(0.890247 0.455478 0.455478 -0.890247 1092.3 1905.42)"/><path d="M0 0 990.449 0.000360892" stroke="#A5A5A5" stroke-width="2.29167" stroke-miterlimit="8" fill="none" fill-rule="evenodd" transform="matrix(-1 0 0 1 2565.45 1523)"/><path d="M177.616 60.8489C218.441 155.788 244.131 346.816 244.131 555.436" stroke="#A5A5A5" stroke-width="2.29167" stroke-miterlimit="8" fill="none" fill-rule="evenodd" transform="matrix(0.890247 0.455478 0.455478 -0.890247 1299.29 1431.28)"/><path d="M139.268 5.54342C199.431 44.5131 244.132 278.918 244.132 555.435" stroke="#A5A5A5" stroke-width="2.29167" stroke-miterlimit="8" fill="none" fill-rule="evenodd" transform="matrix(0.890247 0.455478 0.455478 -0.890247 2187.17 994.312)"/><path d="M3.4375-1.03406e-06 3.43785 1176.79-3.43715 1176.79-3.4375 1.03406e-06ZM13.7504 1172.2 0.000360892 1199.7-13.7496 1172.2Z" transform="matrix(1 0 0 -1 1449.5 1774.2)"/><path d="M8.19093e-07-3.4375 1491.64-3.43714 1491.64 3.43786-8.19093e-07 3.4375ZM1487.06-13.7496 1514.56 0.000360892 1487.06 13.7504Z" transform="matrix(1 0 0 -1 1449.5 1772.5)"/><text font-family="Arial,Arial_MSFontService,sans-serif" font-weight="400" font-size="64" transform="matrix(-1.83697e-16 -1 1 -1.83697e-16 1414.29 917)">T</text><text font-family="Arial,Arial_MSFontService,sans-serif" font-weight="400" font-size="64" transform="matrix(-1.83697e-16 -1 1 -1.83697e-16 1414.29 878)">emperature</text><text font-family="Arial,Arial_MSFontService,sans-serif" font-weight="400" font-size="64" transform="matrix(1 0 0 1 2737.57 1852)">Entrop</text><text font-family="Arial,Arial_MSFontService,sans-serif" font-weight="400" font-size="64" transform="matrix(1 0 0 1 2926.06 1852)">y</text><path d="M139.268 5.54342C199.431 44.5131 244.132 278.918 244.132 555.435" stroke="#A5A5A5" stroke-width="2.29167" stroke-miterlimit="8" fill="none" fill-rule="evenodd" transform="matrix(0.890247 0.455478 0.455478 -0.890247 2433.73 1464.55)"/><text font-family="Arial,Arial_MSFontService,sans-serif" font-weight="400" font-size="64" transform="matrix(1 0 0 1 2681.62 681)">P</text><text font-family="Arial,Arial_MSFontService,sans-serif" font-weight="400" font-size="43" transform="matrix(1 0 0 1 2724.58 696)">high</text><text font-family="Arial,Arial_MSFontService,sans-serif" font-weight="400" font-size="64" transform="matrix(1 0 0 1 2776.54 1100)">P</text><text font-family="Arial,Arial_MSFontService,sans-serif" font-weight="400" font-size="43" transform="matrix(1 0 0 1 2819.51 1115)">low</text><path d="M1547 1523C1547 1515.27 1553.27 1509 1561 1509 1568.73 1509 1575 1515.27 1575 1523 1575 1530.73 1568.73 1537 1561 1537 1553.27 1537 1547 1530.73 1547 1523Z" fill="#4472C4" fill-rule="evenodd"/><path d="M1547 1377C1547 1369.27 1553.27 1363 1561 1363 1568.73 1363 1575 1369.27 1575 1377 1575 1384.73 1568.73 1391 1561 1391 1553.27 1391 1547 1384.73 1547 1377Z" fill="#4472C4" fill-rule="evenodd"/><path d="M2287 1053C2287 1045.27 2293.27 1039 2301 1039 2308.73 1039 2315 1045.27 2315 1053 2315 1060.73 2308.73 1067 2301 1067 2293.27 1067 2287 1060.73 2287 1053Z" fill="#4472C4" fill-rule="evenodd"/><path d="M2287 1523C2287 1515.27 2293.27 1509 2301 1509 2308.73 1509 2315 1515.27 2315 1523 2315 1530.73 2308.73 1537 2301 1537 2293.27 1537 2287 1530.73 2287 1523Z" fill="#4472C4" fill-rule="evenodd"/><path d="M9.58956e-05-3.4375 688.599-3.41829 688.599 3.45671-9.58956e-05 3.4375ZM684.016-13.7309 711.516 0.0198491 684.015 13.7691Z" transform="matrix(-1 0 0 1 2287.02 1523.5)"/><path d="M1558.34 1509.36 1558.12 1414.42 1564.99 1414.41 1565.22 1509.34ZM1547.82 1419.03 1561.5 1391.5 1575.31 1418.97Z"/><path d="M1770.51 1049.06 2264.88 1050.14 2264.87 1057.01 1770.49 1055.94ZM2260.32 1039.82 2287.79 1053.63 2260.26 1067.32Z"/><path d="M212.367 181.707C232.806 283.959 244.132 417.214 244.132 555.435" stroke="#000000" stroke-width="6.875" stroke-miterlimit="8" fill="none" fill-rule="evenodd" transform="matrix(0.890247 0.455478 0.455478 -0.890247 1299.29 1435.31)"/><path d="M2304.94 1067.5 2304.94 1486.24 2298.06 1486.24 2298.06 1067.5ZM2315.25 1481.66 2301.5 1509.16 2287.75 1481.66Z"/><path d="M1973 831.5C1973 826.253 1977.03 822 1982 822 1986.97 822 1991 826.253 1991 831.5 1991 836.747 1986.97 841 1982 841 1977.03 841 1973 836.747 1973 831.5Z" fill-rule="evenodd"/><text font-family="Arial,Arial_MSFontService,sans-serif" font-weight="400" font-size="64" transform="matrix(1 0 0 1 2014.84 815)">Critical Point</text><path d="M1443.5 1468.5C1443.5 1439.78 1466.78 1416.5 1495.5 1416.5 1524.22 1416.5 1547.5 1439.78 1547.5 1468.5 1547.5 1497.22 1524.22 1520.5 1495.5 1520.5 1466.78 1520.5 1443.5 1497.22 1443.5 1468.5Z" stroke="#2F528F" stroke-width="4.58333" stroke-miterlimit="8" fill="#4472C4" fill-rule="evenodd"/><text fill="#FFFFFF" font-family="Calibri,Calibri_MSFontService,sans-serif" font-weight="400" font-size="83" transform="matrix(1 0 0 1 1474.48 1495)">1</text><path d="M1674.5 980.5C1674.5 951.781 1697.78 928.5 1726.5 928.5 1755.22 928.5 1778.5 951.781 1778.5 980.5 1778.5 1009.22 1755.22 1032.5 1726.5 1032.5 1697.78 1032.5 1674.5 1009.22 1674.5 980.5Z" stroke="#2F528F" stroke-width="4.58333" stroke-miterlimit="8" fill="#4472C4" fill-rule="evenodd"/><text fill="#FFFFFF" font-family="Calibri,Calibri_MSFontService,sans-serif" font-weight="400" font-size="83" transform="matrix(1 0 0 1 1705.53 1008)">2</text><path d="M2324.5 1285.5C2324.5 1256.78 2347.78 1233.5 2376.5 1233.5 2405.22 1233.5 2428.5 1256.78 2428.5 1285.5 2428.5 1314.22 2405.22 1337.5 2376.5 1337.5 2347.78 1337.5 2324.5 1314.22 2324.5 1285.5Z" stroke="#2F528F" stroke-width="4.58333" stroke-miterlimit="8" fill="#4472C4" fill-rule="evenodd"/><text fill="#FFFFFF" font-family="Calibri,Calibri_MSFontService,sans-serif" font-weight="400" font-size="83" transform="matrix(1 0 0 1 2355.12 1313)">3</text><path d="M1924.5 1604.5C1924.5 1575.78 1947.78 1552.5 1976.5 1552.5 2005.22 1552.5 2028.5 1575.78 2028.5 1604.5 2028.5 1633.22 2005.22 1656.5 1976.5 1656.5 1947.78 1656.5 1924.5 1633.22 1924.5 1604.5Z" stroke="#2F528F" stroke-width="4.58333" stroke-miterlimit="8" fill="#4472C4" fill-rule="evenodd"/><text fill="#FFFFFF" font-family="Calibri,Calibri_MSFontService,sans-serif" font-weight="400" font-size="83" transform="matrix(1 0 0 1 1955.38 1632)">4</text><path d="M1484.5 415.5 1579.5 320.5 1674.5 415.5Z" stroke="#2077AF" stroke-width="9.16667" stroke-miterlimit="8" fill="#2FA3EE" fill-rule="evenodd"/><path d="M1484.5 318.5C1484.5 266.033 1527.03 223.5 1579.5 223.5 1631.97 223.5 1674.5 266.033 1674.5 318.5 1674.5 370.967 1631.97 413.5 1579.5 413.5 1527.03 413.5 1484.5 370.967 1484.5 318.5Z" stroke="#2077AF" stroke-width="9.16667" stroke-miterlimit="8" fill="#2FA3EE" fill-rule="evenodd"/><path d="M0.000463145-1.71875 72.1732-1.6993 72.1722 1.7382-0.000463145 1.71875ZM67.5931-13.7318 95.0894 0.0256234 67.5857 13.7682Z" transform="matrix(1 0 0 -1 1484.5 318.526)"/><path d="M1839.5 223.5C1839.5 171.033 1882.03 128.5 1934.5 128.5 1986.97 128.5 2029.5 171.033 2029.5 223.5 2029.5 275.967 1986.97 318.5 1934.5 318.5 1882.03 318.5 1839.5 275.967 1839.5 223.5Z" fill="#2FA3EE" fill-rule="evenodd"/><path d="M1867.32 156.325 2001.68 290.675M2001.68 156.325 1867.32 290.675" stroke="#2077AF" stroke-width="9.16667" stroke-miterlimit="8" fill="none" fill-rule="evenodd"/><path d="M1839.5 223.5C1839.5 171.033 1882.03 128.5 1934.5 128.5 1986.97 128.5 2029.5 171.033 2029.5 223.5 2029.5 275.967 1986.97 318.5 1934.5 318.5 1882.03 318.5 1839.5 275.967 1839.5 223.5Z" stroke="#2077AF" stroke-width="9.16667" stroke-miterlimit="8" fill="none" fill-rule="evenodd"/><path d="M0.0874662-1.71652 9.97492-1.2127 19.5692 0.121605 28.6017 2.28431 36.6898 5.02279 40.3036 6.63612 43.5959 8.31451 46.5521 10.1539 49.0705 12.1422 51.1846 14.188 52.7479 16.391 53.7872 18.6922 54.1356 20.9222 54.4481 22.9222 54.3164 22.4801 55.1914 24.4176 55.0053 24.1009 56.4428 26.0384 56.2778 25.8472 58.1528 27.7222 57.9802 27.5712 60.3552 29.3837 60.2205 29.2907 63.033 31.0407 62.9292 30.981 66.1167 32.6685 65.9895 32.6077 69.4896 34.1077 69.3752 34.0635 77.3127 36.8135 77.0037 36.7376 82.4148 37.5451 81.9075 40.9449 76.3383 40.1138 68.1919 37.2915 64.5706 35.7395 61.2679 33.991 58.3349 32.166 55.8034 30.2341 53.7576 28.1883 52.1346 26.0008 51.0878 23.6828 50.7394 21.4528 50.4269 19.4528 50.5586 19.8949 49.6836 17.9574 49.8483 18.2447 48.4733 16.3072 48.6797 16.5476 46.7422 14.6726 46.8725 14.7865 44.4975 12.9115 44.6545 13.0218 41.842 11.2718 41.9694 11.3437 38.7819 9.71875 38.8619 9.75696 35.3618 8.19446 35.5113 8.25297 27.5738 5.56547 27.7248 5.609 18.8498 3.484 19.0132 3.51487 9.57575 2.20237 9.72503 2.21652-0.0874662 1.71652ZM79.4353 25.0098 104.877 42.2739 75.8007 52.2686Z" fill="#29A0ED" transform="matrix(1.83697e-16 1 1 -1.83697e-16 1934.5 318.5)"/><path d="M0.0874662-1.71652 9.97492-1.2127 19.5692 0.121605 28.6017 2.28431 36.6898 5.02279 40.3036 6.63612 43.5959 8.31451 46.5521 10.1539 49.0705 12.1422 51.1846 14.188 52.7479 16.391 53.7872 18.6922 54.1356 20.9222 54.4481 22.9222 54.3164 22.4801 55.1914 24.4176 55.0053 24.1009 56.4428 26.0384 56.2778 25.8472 58.1528 27.7222 57.9802 27.5712 60.3552 29.3837 60.2205 29.2907 63.033 31.0407 62.9292 30.981 66.1167 32.6685 65.9895 32.6077 69.4896 34.1077 69.3752 34.0635 77.3127 36.8135 77.0037 36.7376 82.4148 37.5451 81.9075 40.9449 76.3383 40.1138 68.1919 37.2915 64.5706 35.7395 61.2679 33.991 58.3349 32.166 55.8034 30.2341 53.7576 28.1883 52.1346 26.0008 51.0878 23.6828 50.7394 21.4528 50.4269 19.4528 50.5586 19.8949 49.6836 17.9574 49.8483 18.2447 48.4733 16.3072 48.6797 16.5476 46.7422 14.6726 46.8725 14.7865 44.4975 12.9115 44.6545 13.0218 41.842 11.2718 41.9694 11.3437 38.7819 9.71875 38.8619 9.75696 35.3618 8.19446 35.5113 8.25297 27.5738 5.56547 27.7248 5.609 18.8498 3.484 19.0132 3.51487 9.57575 2.20237 9.72503 2.21652-0.0874662 1.71652ZM79.4353 25.0098 104.877 42.2739 75.8007 52.2686Z" fill="#CD622E" transform="matrix(1.83697e-16 1 1 -1.83697e-16 1892.5 20.5)"/><path d="M1579.5 221.781 1816.83 221.782 1816.83 225.219 1579.5 225.219ZM1812.24 209.75 1839.74 223.5 1812.24 237.25Z"/><path d="M2268.5 166.5 2531.5 128.5 2531.5 318.5 2268.5 318.5Z" stroke="#2077AF" stroke-width="9.16667" stroke-miterlimit="8" fill="#2FA3EE" fill-rule="evenodd"/><path d="M0.00293229-1.71875 216.121-1.35004 216.115 2.08746-0.00293229 1.71875ZM211.558-13.3891 239.035 0.407808 211.511 14.1109Z" transform="matrix(1 0 0 -1 2029.5 223.908)"/><path d="M2720.5 223.5C2720.5 171.033 2763.03 128.5 2815.5 128.5 2867.97 128.5 2910.5 171.033 2910.5 223.5 2910.5 275.967 2867.97 318.5 2815.5 318.5 2763.03 318.5 2720.5 275.967 2720.5 223.5Z" fill="#2FA3EE" fill-rule="evenodd"/><path d="M2748.32 156.325 2882.68 290.675M2882.68 156.325 2748.32 290.675" stroke="#2077AF" stroke-width="9.16667" stroke-miterlimit="8" fill="none" fill-rule="evenodd"/><path d="M2720.5 223.5C2720.5 171.033 2763.03 128.5 2815.5 128.5 2867.97 128.5 2910.5 171.033 2910.5 223.5 2910.5 275.967 2867.97 318.5 2815.5 318.5 2763.03 318.5 2720.5 275.967 2720.5 223.5Z" stroke="#2077AF" stroke-width="9.16667" stroke-miterlimit="8" fill="none" fill-rule="evenodd"/><path d="M0.0874662-1.71652 9.97492-1.2127 19.5692 0.121605 28.6017 2.28431 36.6898 5.02279 40.3036 6.63612 43.5959 8.31451 46.5521 10.1539 49.0705 12.1422 51.1846 14.188 52.7479 16.391 53.7872 18.6922 54.1356 20.9222 54.4481 22.9222 54.3164 22.4801 55.1914 24.4176 55.0053 24.1009 56.4428 26.0384 56.2778 25.8472 58.1528 27.7222 57.9802 27.5712 60.3552 29.3837 60.2205 29.2907 63.033 31.0407 62.9292 30.981 66.1167 32.6685 65.9895 32.6077 69.4896 34.1077 69.3752 34.0635 77.3127 36.8135 77.0037 36.7376 82.4148 37.5451 81.9075 40.9449 76.3383 40.1138 68.1919 37.2915 64.5706 35.7395 61.2679 33.991 58.3349 32.166 55.8034 30.2341 53.7576 28.1883 52.1346 26.0008 51.0878 23.6828 50.7394 21.4528 50.4269 19.4528 50.5586 19.8949 49.6836 17.9574 49.8483 18.2447 48.4733 16.3072 48.6797 16.5476 46.7422 14.6726 46.8725 14.7865 44.4975 12.9115 44.6545 13.0218 41.842 11.2718 41.9694 11.3437 38.7819 9.71875 38.8619 9.75696 35.3618 8.19446 35.5113 8.25297 27.5738 5.56547 27.7248 5.609 18.8498 3.484 19.0132 3.51487 9.57575 2.20237 9.72503 2.21652-0.0874662 1.71652ZM79.4353 25.0098 104.877 42.2739 75.8007 52.2686Z" fill="#CD622E" transform="matrix(1.83697e-16 1 1 -1.83697e-16 2815.5 318.5)"/><path d="M0.0874662-1.71652 9.97492-1.2127 19.5692 0.121605 28.6017 2.28431 36.6898 5.02279 40.3036 6.63612 43.5959 8.31451 46.5521 10.1539 49.0705 12.1422 51.1846 14.188 52.7479 16.391 53.7872 18.6922 54.1356 20.9222 54.4481 22.9222 54.3164 22.4801 55.1914 24.4176 55.0053 24.1009 56.4428 26.0384 56.2778 25.8472 58.1528 27.7222 57.9802 27.5712 60.3552 29.3837 60.2205 29.2907 63.033 31.0407 62.9292 30.981 66.1167 32.6685 65.9895 32.6077 69.4896 34.1077 69.3752 34.0635 77.3127 36.8135 77.0037 36.7376 82.4148 37.5451 81.9075 40.9449 76.3383 40.1138 68.1919 37.2915 64.5706 35.7395 61.2679 33.991 58.3349 32.166 55.8034 30.2341 53.7576 28.1883 52.1346 26.0008 51.0878 23.6828 50.7394 21.4528 50.4269 19.4528 50.5586 19.8949 49.6836 17.9574 49.8483 18.2447 48.4733 16.3072 48.6797 16.5476 46.7422 14.6726 46.8725 14.7865 44.4975 12.9115 44.6545 13.0218 41.842 11.2718 41.9694 11.3437 38.7819 9.71875 38.8619 9.75696 35.3618 8.19446 35.5113 8.25297 27.5738 5.56547 27.7248 5.609 18.8498 3.484 19.0132 3.51487 9.57575 2.20237 9.72503 2.21652-0.0874662 1.71652ZM79.4353 25.0098 104.877 42.2739 75.8007 52.2686Z" fill="#29A0ED" transform="matrix(1.83697e-16 1 1 -1.83697e-16 2772.5 20.5)"/><path d="M2531.5 221.781 2696.98 222.139 2696.97 225.577 2531.5 225.219ZM2692.42 210.098 2719.89 223.908 2692.36 237.598Z"/><path d="M0 0-54.8923 0-54.8923 245.071 1480.68 245.071 1480.68 95.089 1425.79 95.089" stroke="#000000" stroke-width="3.4375" stroke-miterlimit="8" fill="none" fill-rule="evenodd" transform="matrix(-1 0 0 1 2910.29 223.5)"/><path d="M1523.5 130.5C1523.5 101.781 1546.78 78.4999 1575.5 78.4999 1604.22 78.4999 1627.5 101.781 1627.5 130.5 1627.5 159.219 1604.22 182.5 1575.5 182.5 1546.78 182.5 1523.5 159.219 1523.5 130.5Z" stroke="#2F528F" stroke-width="4.58333" stroke-miterlimit="8" fill="#4472C4" fill-rule="evenodd"/><text fill="#FFFFFF" font-family="Calibri,Calibri_MSFontService,sans-serif" font-weight="400" font-size="83" transform="matrix(1 0 0 1 1553.66 158)">1</text><path d="M1887.5 219.5C1887.5 190.781 1910.78 167.5 1939.5 167.5 1968.22 167.5 1991.5 190.781 1991.5 219.5 1991.5 248.219 1968.22 271.5 1939.5 271.5 1910.78 271.5 1887.5 248.219 1887.5 219.5Z" stroke="#2F528F" stroke-width="4.58333" stroke-miterlimit="8" fill="#4472C4" fill-rule="evenodd"/><text fill="#FFFFFF" font-family="Calibri,Calibri_MSFontService,sans-serif" font-weight="400" font-size="83" transform="matrix(1 0 0 1 1917.84 246)">2</text><path d="M2360.5 234.5C2360.5 205.781 2383.78 182.5 2412.5 182.5 2441.22 182.5 2464.5 205.781 2464.5 234.5 2464.5 263.219 2441.22 286.5 2412.5 286.5 2383.78 286.5 2360.5 263.219 2360.5 234.5Z" stroke="#2F528F" stroke-width="4.58333" stroke-miterlimit="8" fill="#4472C4" fill-rule="evenodd"/><text fill="#FFFFFF" font-family="Calibri,Calibri_MSFontService,sans-serif" font-weight="400" font-size="83" transform="matrix(1 0 0 1 2390.88 262)">3</text><path d="M2768.5 222C2768.5 193.557 2791.78 170.5 2820.5 170.5 2849.22 170.5 2872.5 193.557 2872.5 222 2872.5 250.443 2849.22 273.5 2820.5 273.5 2791.78 273.5 2768.5 250.443 2768.5 222Z" stroke="#2F528F" stroke-width="4.58333" stroke-miterlimit="8" fill="#4472C4" fill-rule="evenodd"/><text fill="#FFFFFF" font-family="Calibri,Calibri_MSFontService,sans-serif" font-weight="400" font-size="83" transform="matrix(1 0 0 1 2799.54 249)">4</text></g></svg>