<svg width="1805" height="1394" xmlns="http://www.w3.org/2000/svg" xmlns:xlink="http://www.w3.org/1999/xlink" xml:space="preserve" overflow="hidden"><defs><clipPath id="clip0"><rect x="1348" y="679" width="1805" height="1394"/></clipPath><linearGradient x1="1470.5" y1="1324.5" x2="2959.5" y2="1324.5" gradientUnits="userSpaceOnUse" spreadMethod="reflect" id="fill1"><stop offset="0" stop-color="#8FAADC"/><stop offset="0.5" stop-color="#AFADAD"/><stop offset="1" stop-color="#F4B183"/></linearGradient></defs><g clip-path="url(#clip0)" transform="translate(-1348 -679)"><path d="M244.483 388.589C248.847 447.433 251.072 509.122 251.072 571.227" stroke="#A5A5A5" stroke-width="2.29167" stroke-miterlimit="8" fill="none" fill-rule="evenodd" transform="matrix(0.833926 0.551876 0.551876 -0.833926 1111.26 2026.56)"/><path d="M143.228 5.70102C182.449 31.1061 216.733 139.264 235.718 297.484" stroke="#A5A5A5" stroke-width="2.29167" stroke-miterlimit="8" fill="none" fill-rule="evenodd" transform="matrix(0.890247 0.455478 0.455478 -0.890247 2377.03 1137.24)"/><path d="M143.228 5.70102C176.285 27.1137 206.106 107.571 226.095 229.279" stroke="#A5A5A5" stroke-width="2.29167" stroke-miterlimit="8" fill="none" fill-rule="evenodd" transform="matrix(0.890247 0.455478 0.455478 -0.890247 2602.43 1630.51)"/><path d="M230.087 335.321C249.348 508.698 255.716 722.123 247.671 924.658" stroke="#A5A5A5" stroke-width="2.29167" stroke-miterlimit="8" fill="none" fill-rule="evenodd" transform="matrix(0.833926 0.551876 0.551876 -0.833926 1167.55 1836.92)"/><path d="M2202.71 707.5 2254.47 722.297 2307.71 756.823 2350.6 816.011 2412.72 944.251 2461.52 1082.36 2536.94 1294.45 2622.72 1509 2709.97 1656.97 2755.82 1730.96 2832.72 1827.14 2906.67 1896.19 2959.5 1941.5 1470.5 1941.5 1522.42 1873.99 1627.42 1706.3 1692.49 1592.85 1769.4 1447.35 1847.78 1282.12 1927.64 1109.48 1991.23 971.38 2051.87 843.139 2109.54 754.357 2150.95 719.831 2202.71 707.5Z" stroke="#000000" stroke-width="4.58333" stroke-miterlimit="8" fill="url(#fill1)" fill-rule="evenodd"/><path d="M2205.73 707.5 2244.77 722.297 2284.92 756.823 2317.27 816.011 2364.12 944.251 2400.92 1082.36 2457.81 1294.45 2522.5 1509 2588.31 1656.97 2622.88 1730.96 2680.88 1827.14 2736.65 1896.19 2776.5 1941.5 1653.5 1941.5 1692.66 1873.99 1771.85 1706.3 1820.93 1592.85 1878.93 1447.35 1938.04 1282.12 1998.27 1109.48 2046.23 971.38 2091.96 843.139 2135.46 754.357 2166.69 719.831 2205.73 707.5Z" stroke="#767171" stroke-width="4.58333" stroke-miterlimit="8" fill="none" fill-rule="evenodd"/><path d="M2208.75 707.5 2237.19 722.297 2266.43 756.823 2289.99 816.011 2324.12 944.251 2350.93 1082.36 2392.36 1294.45 2439.49 1509 2487.42 1656.97 2512.61 1730.96 2554.85 1827.14 2595.48 1896.19 2624.5 1941.5 1806.5 1941.5 1835.02 1873.99 1892.71 1706.3 1928.46 1592.85 1970.7 1447.35 2013.76 1282.12 2057.63 1109.48 2092.57 971.38 2125.88 843.139 2157.57 754.357 2180.31 719.831 2208.75 707.5Z" stroke="#767171" stroke-width="4.58333" stroke-miterlimit="8" fill="none" fill-rule="evenodd"/><path d="M2210.55 707.5 2229.29 722.297 2248.56 756.823 2264.09 816.011 2286.57 944.251 2304.24 1082.36 2331.54 1294.45 2362.59 1509 2394.17 1656.97 2410.77 1730.96 2438.61 1827.14 2465.38 1896.19 2484.5 1941.5 1945.5 1941.5 1964.3 1873.99 2002.3 1706.3 2025.86 1592.85 2053.7 1447.35 2082.07 1282.12 2110.98 1109.48 2134 971.38 2155.95 843.139 2176.83 754.357 2191.82 719.831 2210.55 707.5Z" stroke="#767171" stroke-width="4.58333" stroke-miterlimit="8" fill="none" fill-rule="evenodd"/><path d="M2214.2 707.5 2219.69 722.297 2225.34 756.823 2229.89 816.011 2236.48 944.251 2241.66 1082.36 2249.66 1294.45 2258.76 1509 2268.02 1656.97 2272.89 1730.96 2281.05 1827.14 2288.89 1896.19 2294.5 1941.5 2136.5 1941.5 2142.01 1873.99 2153.15 1706.3 2160.06 1592.85 2168.22 1447.35 2176.53 1282.12 2185.01 1109.48 2191.76 971.38 2198.19 843.139 2204.31 754.357 2208.7 719.831 2214.2 707.5Z" stroke="#767171" stroke-width="4.58333" stroke-miterlimit="8" fill="none" fill-rule="evenodd"/><path d="M2732.66 1690.91 1636 1689" stroke="#A5A5A5" stroke-width="2.29167" stroke-miterlimit="8" fill="none" fill-rule="evenodd"/><path d="M3.4375-1.00548e-06 3.43785 1210.9-3.43715 1210.9-3.4375 1.00548e-06ZM13.7504 1206.31 0.000360892 1233.81-13.7496 1206.31Z" transform="matrix(1 0 0 -1 1467.5 1941.31)"/><path d="M7.96451e-07-3.4375 1534.7-3.43714 1534.7 3.43786-7.96451e-07 3.4375ZM1530.12-13.7496 1557.62 0.000360892 1530.12 13.7504Z" transform="matrix(1 0 0 -1 1467.5 1939.5)"/><text font-family="Arial,Arial_MSFontService,sans-serif" font-weight="400" font-size="64" transform="matrix(-1.83697e-16 -1 1 -1.83697e-16 1429.38 1084)">T</text><text font-family="Arial,Arial_MSFontService,sans-serif" font-weight="400" font-size="64" transform="matrix(-1.83697e-16 -1 1 -1.83697e-16 1429.38 1045)">emperature</text><text font-family="Arial,Arial_MSFontService,sans-serif" font-weight="400" font-size="64" transform="matrix(1 0 0 1 2762.41 2019)">Entropy</text><text font-family="Arial,Arial_MSFontService,sans-serif" font-weight="400" font-size="64" transform="matrix(1 0 0 1 2722.39 962)">P</text><text font-family="Arial,Arial_MSFontService,sans-serif" font-weight="400" font-size="43" transform="matrix(1 0 0 1 2765.35 977)">high</text><text font-family="Arial,Arial_MSFontService,sans-serif" font-weight="400" font-size="64" transform="matrix(1 0 0 1 2919.64 1530)">P</text><text font-family="Arial,Arial_MSFontService,sans-serif" font-weight="400" font-size="43" transform="matrix(1 0 0 1 2962.61 1545)">low</text><path d="M1877 1689C1877 1681.27 1883.49 1675 1891.5 1675 1899.51 1675 1906 1681.27 1906 1689 1906 1696.73 1899.51 1703 1891.5 1703 1883.49 1703 1877 1696.73 1877 1689Z" fill="#002060" fill-rule="evenodd"/><path d="M2486.91 1693.83 1929.41 1692.97 1929.42 1686.1 2486.92 1686.96ZM1933.98 1703.29 1906.5 1689.5 1934.02 1675.79Z"/><text font-family="Arial,Arial_MSFontService,sans-serif" font-weight="400" font-size="64" transform="matrix(1 0 0 1 1530.78 1041)">Liquid Phase</text><text font-family="Arial,Arial_MSFontService,sans-serif" font-weight="400" font-size="64" transform="matrix(1 0 0 1 1902.33 1844)">Liquid &amp; Vapour Phase</text><text font-family="Arial,Arial_MSFontService,sans-serif" font-weight="400" font-size="64" transform="matrix(1 0 0 1 2576.04 820)">Vapour Phase</text><text font-family="Arial,Arial_MSFontService,sans-serif" font-weight="400" font-size="64" transform="matrix(1 0 0 1 2518.05 1747)">C</text><text font-family="Arial,Arial_MSFontService,sans-serif" font-weight="400" font-size="64" transform="matrix(1 0 0 1 1828.68 1751)">D</text><path d="M2486 1191.5C2486 1183.49 2492.49 1177 2500.5 1177 2508.51 1177 2515 1183.49 2515 1191.5 2515 1199.51 2508.51 1206 2500.5 1206 2492.49 1206 2486 1199.51 2486 1191.5Z" fill="#002060" fill-rule="evenodd"/><path d="M1877 1191.5C1877 1183.49 1883.49 1177 1891.5 1177 1899.51 1177 1906 1183.49 1906 1191.5 1906 1199.51 1899.51 1206 1891.5 1206 1883.49 1206 1877 1199.51 1877 1191.5Z" fill="#002060" fill-rule="evenodd"/><path d="M2489.95 1679.5C2495.22 1673.53 2504.33 1672.96 2510.3 1678.24 2516.27 1683.51 2516.84 1692.62 2511.57 1698.59 2506.3 1704.56 2497.19 1705.13 2491.22 1699.86 2485.24 1694.59 2484.68 1685.48 2489.95 1679.5Z" fill="#002060" fill-rule="evenodd"/><text font-family="Arial,Arial_MSFontService,sans-serif" font-weight="400" font-size="64" transform="matrix(1 0 0 1 1832.76 1169)">A</text><text font-family="Arial,Arial_MSFontService,sans-serif" font-weight="400" font-size="64" transform="matrix(1 0 0 1 2507.47 1157)">B</text><text font-family="Arial,Arial_MSFontService,sans-serif" font-weight="400" font-size="64" transform="matrix(1 0 0 1 2194.51 1177)">1</text><text font-family="Arial,Arial_MSFontService,sans-serif" font-weight="400" font-size="64" transform="matrix(1 0 0 1 2512.99 1451)">2</text><text font-family="Arial,Arial_MSFontService,sans-serif" font-weight="400" font-size="64" transform="matrix(1 0 0 1 2198.47 1671)">3</text><path d="M1906.5 1189.06 2463.97 1189.06 2463.97 1195.94 1906.5 1195.94ZM2459.39 1178.75 2486.89 1192.5 2459.39 1206.25Z"/><path d="M3.4375-2.6485e-06 3.43784 445.488-3.43716 445.488-3.4375 2.6485e-06ZM13.7503 440.904 0.000360892 468.404-13.7497 440.904Z" transform="matrix(1 0 0 -1 1892.5 1674.9)"/><path d="M3.43749-0.00658376 4.29078 445.509-2.58421 445.522-3.43749 0.00658376ZM14.5945 440.906 0.897178 468.432-12.9055 440.959Z" transform="matrix(-1 0 0 1 2501.4 1206.5)"/><text font-family="Arial,Arial_MSFontService,sans-serif" font-weight="400" font-size="64" transform="matrix(1 0 0 1 1832.85 1476)">4</text></g></svg>