<svg width="4114" height="1313" xmlns="http://www.w3.org/2000/svg" xmlns:xlink="http://www.w3.org/1999/xlink" xml:space="preserve" overflow="hidden"><defs><clipPath id="clip0"><rect x="294" y="571" width="4114" height="1313"/></clipPath></defs><g clip-path="url(#clip0)" transform="translate(-294 -571)"><rect x="294" y="813" width="455" height="909" fill="#2FA3EE"/><text font-family="Tw Cen MT,Tw Cen MT_MSFontService,sans-serif" font-weight="400" font-size="83" transform="matrix(1 0 0 1 453.698 1273)">T</text><text font-family="Tw Cen MT,Tw Cen MT_MSFontService,sans-serif" font-weight="400" font-size="55" transform="matrix(1 0 0 1 489.792 1293)">Cold</text><text font-family="Tw Cen MT,Tw Cen MT_MSFontService,sans-serif" font-weight="400" font-size="83" transform="matrix(1 0 0 1 444.119 676)">Cold</text><text font-family="Tw Cen MT,Tw Cen MT_MSFontService,sans-serif" font-weight="400" font-size="83" transform="matrix(1 0 0 1 370.51 775)">Reservoir</text><rect x="749" y="813" width="37.9998" height="455"/><rect x="1396" y="813" width="455" height="909" fill="#CE6633"/><text font-family="Tw Cen MT,Tw Cen MT_MSFontService,sans-serif" font-weight="400" font-size="83" transform="matrix(1 0 0 1 1568.72 1272)">T</text><text font-family="Tw Cen MT,Tw Cen MT_MSFontService,sans-serif" font-weight="400" font-size="55" transform="matrix(1 0 0 1 1604.81 1292)">Hot</text><text font-family="Tw Cen MT,Tw Cen MT_MSFontService,sans-serif" font-weight="400" font-size="83" transform="matrix(1 0 0 1 1568.88 674)">Hot</text><text font-family="Tw Cen MT,Tw Cen MT_MSFontService,sans-serif" font-weight="400" font-size="83" transform="matrix(1 0 0 1 1474.64 773)">Reservoir</text><rect x="1358" y="813" width="38.9999" height="455"/><rect x="787" y="1236" width="572" height="37.9998" fill="#A5A5A5"/><rect x="1054" y="823" width="38.0001" height="415" fill="#A5A5A5"/><text font-family="Tw Cen MT,Tw Cen MT_MSFontService,sans-serif" font-weight="400" font-size="83" transform="matrix(1 0 0 1 982.763 783)">Piston</text><rect x="749" y="1268" width="37.9998" height="454"/><rect x="1358" y="1268" width="38.9999" height="454"/><rect x="787" y="1274" width="572" height="416" fill="#CE6633"/><rect x="787" y="1684" width="572" height="37.9998"/><text font-family="Tw Cen MT,Tw Cen MT_MSFontService,sans-serif" font-weight="400" font-size="83" transform="matrix(1 0 0 1 1012.44 1510)">T</text><text font-family="Tw Cen MT,Tw Cen MT_MSFontService,sans-serif" font-weight="400" font-size="55" transform="matrix(1 0 0 1 1048.53 1530)">Hot</text><text font-family="Tw Cen MT,Tw Cen MT_MSFontService,sans-serif" font-weight="400" font-size="83" transform="matrix(1 0 0 1 3297.18 1107)">T</text><text font-family="Tw Cen MT,Tw Cen MT_MSFontService,sans-serif" font-weight="400" font-size="55" transform="matrix(1 0 0 1 3333.27 1127)">Hot</text><text font-family="Tw Cen MT,Tw Cen MT_MSFontService,sans-serif" font-weight="400" font-size="83" transform="matrix(1 0 0 1 3271.56 1519)">T</text><text font-family="Tw Cen MT,Tw Cen MT_MSFontService,sans-serif" font-weight="400" font-size="55" transform="matrix(1 0 0 1 3305.2 1539)">Cold</text><path d="M3442 1077 4356.66 1077" stroke="#000000" stroke-width="2.29167" stroke-miterlimit="8" stroke-dasharray="9.16667 6.875" fill="none" fill-rule="evenodd"/><path d="M3655 928 3655 1718.08" stroke="#000000" stroke-width="2.29167" stroke-miterlimit="8" stroke-dasharray="9.16667 6.875" fill="none" fill-rule="evenodd"/><path d="M3449.18 832.414 3449.2 1718.95 3444.62 1714.37 4331.03 1714.37 4331.03 1723.53 3440.03 1723.53 3440.02 832.414ZM3430.87 837.059 3444.5 809.5 3458.37 836.941ZM4326.45 1705.2 4353.95 1718.95 4326.45 1732.7Z"/><text font-family="Tw Cen MT,Tw Cen MT_MSFontService,sans-serif" font-weight="400" font-size="83" transform="matrix(-1.83697e-16 -1 1 -1.83697e-16 3261.61 1217)">T</text><text font-family="Tw Cen MT,Tw Cen MT_MSFontService,sans-serif" font-weight="400" font-size="83" transform="matrix(-1.83697e-16 -1 1 -1.83697e-16 3261.61 1188)">emperature</text><text font-family="Tw Cen MT,Tw Cen MT_MSFontService,sans-serif" font-weight="400" font-size="83" transform="matrix(1 0 0 1 4108.17 1813)">Entrop</text><text font-family="Tw Cen MT,Tw Cen MT_MSFontService,sans-serif" font-weight="400" font-size="83" transform="matrix(1 0 0 1 4316.71 1813)">y</text><path d="M3636 1076.5C3636 1065.73 3644.73 1057 3655.5 1057 3666.27 1057 3675 1065.73 3675 1076.5 3675 1087.27 3666.27 1096 3655.5 1096 3644.73 1096 3636 1087.27 3636 1076.5Z" fill="#4472C4" fill-rule="evenodd"/><path d="M3442 1491 4356.66 1491" stroke="#000000" stroke-width="2.29167" stroke-miterlimit="8" stroke-dasharray="9.16667 6.875" fill="none" fill-rule="evenodd"/><text font-family="Tw Cen MT,Tw Cen MT_MSFontService,sans-serif" font-weight="400" font-size="83" transform="matrix(1 0 0 1 3618.68 1809)">S</text><text font-family="Tw Cen MT,Tw Cen MT_MSFontService,sans-serif" font-weight="400" font-size="55" transform="matrix(1 0 0 1 3659.93 1829)">1</text><path d="M2922.44 1423.15C2539.63 1298.73 2269.99 1089.1 2202.97 863.804" stroke="#5B9BD5" stroke-width="6.875" stroke-miterlimit="8" stroke-dasharray="6.875 6.875" fill="none" fill-rule="evenodd"/><path d="M2050.18 832.414 2050.2 1718.95 2045.62 1714.37 2932.03 1714.37 2932.03 1723.53 2041.04 1723.53 2041.02 832.414ZM2031.87 837.059 2045.5 809.5 2059.37 836.941ZM2927.45 1705.2 2954.95 1718.95 2927.45 1732.7Z"/><text font-family="Tw Cen MT,Tw Cen MT_MSFontService,sans-serif" font-weight="400" font-size="83" transform="matrix(-1.83697e-16 -1 1 -1.83697e-16 2006.69 1080)">P</text><text font-family="Tw Cen MT,Tw Cen MT_MSFontService,sans-serif" font-weight="400" font-size="83" transform="matrix(-1.83697e-16 -1 1 -1.83697e-16 2006.69 1038)">ressure</text><text font-family="Tw Cen MT,Tw Cen MT_MSFontService,sans-serif" font-weight="400" font-size="83" transform="matrix(1 0 0 1 2717.28 1813)">V</text><text font-family="Tw Cen MT,Tw Cen MT_MSFontService,sans-serif" font-weight="400" font-size="83" transform="matrix(1 0 0 1 2762.17 1813)">olume</text><path d="M2233 968.5C2233 957.731 2241.73 949 2252.5 949 2263.27 949 2272 957.731 2272 968.5 2272 979.27 2263.27 988 2252.5 988 2241.73 988 2233 979.27 2233 968.5Z" fill="#4472C4" fill-rule="evenodd"/><path d="M2915.48 1644.58C2485.84 1615.33 2175.74 1417.37 2116.56 1134.58" stroke="#4472C4" stroke-width="6.875" stroke-miterlimit="8" stroke-dasharray="6.875 6.875" fill="none" fill-rule="evenodd"/><text font-family="Tw Cen MT,Tw Cen MT_MSFontService,sans-serif" font-weight="400" font-size="83" transform="matrix(1 0 0 1 2901.28 1370)">T</text><text font-family="Tw Cen MT,Tw Cen MT_MSFontService,sans-serif" font-weight="400" font-size="55" transform="matrix(1 0 0 1 2937.37 1390)">Hot</text><text font-family="Tw Cen MT,Tw Cen MT_MSFontService,sans-serif" font-weight="400" font-size="83" transform="matrix(1 0 0 1 2931.63 1623)">T</text><text font-family="Tw Cen MT,Tw Cen MT_MSFontService,sans-serif" font-weight="400" font-size="55" transform="matrix(1 0 0 1 2965.27 1643)">Cold</text></g></svg>