<svg width="4116" height="1402" xmlns="http://www.w3.org/2000/svg" xmlns:xlink="http://www.w3.org/1999/xlink" xml:space="preserve" overflow="hidden"><defs><clipPath id="clip0"><rect x="295" y="574" width="4116" height="1402"/></clipPath></defs><g clip-path="url(#clip0)" transform="translate(-295 -574)"><rect x="295" y="816" width="454" height="910" fill="#2FA3EE"/><text font-family="Tw Cen MT,Tw Cen MT_MSFontService,sans-serif" font-weight="400" font-size="83" transform="matrix(1 0 0 1 454.144 1277)">T</text><text font-family="Tw Cen MT,Tw Cen MT_MSFontService,sans-serif" font-weight="400" font-size="55" transform="matrix(1 0 0 1 490.238 1297)">Cold</text><text font-family="Tw Cen MT,Tw Cen MT_MSFontService,sans-serif" font-weight="400" font-size="83" transform="matrix(1 0 0 1 444.565 679)">Cold</text><text font-family="Tw Cen MT,Tw Cen MT_MSFontService,sans-serif" font-weight="400" font-size="83" transform="matrix(1 0 0 1 370.957 778)">Reservoir</text><rect x="749" y="816" width="38.9998" height="455"/><rect x="1397" y="816" width="454" height="910" fill="#CE6633"/><text font-family="Tw Cen MT,Tw Cen MT_MSFontService,sans-serif" font-weight="400" font-size="83" transform="matrix(1 0 0 1 1569.16 1275)">T</text><text font-family="Tw Cen MT,Tw Cen MT_MSFontService,sans-serif" font-weight="400" font-size="55" transform="matrix(1 0 0 1 1605.26 1295)">Hot</text><text font-family="Tw Cen MT,Tw Cen MT_MSFontService,sans-serif" font-weight="400" font-size="83" transform="matrix(1 0 0 1 1569.32 678)">Hot</text><text font-family="Tw Cen MT,Tw Cen MT_MSFontService,sans-serif" font-weight="400" font-size="83" transform="matrix(1 0 0 1 1475.09 777)">Reservoir</text><rect x="1359" y="816" width="38.0001" height="455"/><rect x="788" y="1239" width="571" height="38.0001" fill="#A5A5A5"/><rect x="1054" y="826" width="39.0002" height="416" fill="#A5A5A5"/><text font-family="Tw Cen MT,Tw Cen MT_MSFontService,sans-serif" font-weight="400" font-size="83" transform="matrix(1 0 0 1 983.209 786)">Piston</text><rect x="749" y="1271" width="38.9998" height="455"/><rect x="1359" y="1271" width="38.0001" height="455"/><rect x="788" y="1278" width="571" height="415" fill="#CE6633"/><rect x="788" y="1688" width="571" height="37.9998"/><text font-family="Tw Cen MT,Tw Cen MT_MSFontService,sans-serif" font-weight="400" font-size="83" transform="matrix(1 0 0 1 1012.89 1513)">T</text><text font-family="Tw Cen MT,Tw Cen MT_MSFontService,sans-serif" font-weight="400" font-size="55" transform="matrix(1 0 0 1 1048.98 1533)">Hot</text><path d="M6.87503 34.375 6.87536 415.748-6.87464 415.748-6.87497 34.375ZM-20.625 41.25 0 0 20.625 41.25Z" transform="matrix(1 0 0 -1 919 1240.75)"/><path d="M6.87503 34.375 6.87536 415.748-6.87464 415.748-6.87497 34.375ZM-20.625 41.25 0 0 20.625 41.25Z" transform="matrix(1 0 0 -1 1229 1240.75)"/><path d="M2542.78 1260.48 2549.1 1280.86 2549.09 1280.83 2555.59 1301.21 2555.57 1301.15 2562.51 1321.65 2562.48 1321.58 2569.98 1342.2 2569.95 1342.11 2578.2 1362.92 2578.15 1362.81 2587.4 1383.93 2587.34 1383.8 2597.78 1405.18 2597.72 1405.07 2603.47 1415.89 2603.44 1415.83 2609.51 1426.77 2609.46 1426.69 2615.96 1437.69 2615.93 1437.64 2622.74 1448.77 2622.69 1448.68 2637.38 1471.18 2637.32 1471.1 2653.19 1493.85 2653.15 1493.78 2670.02 1516.85 2669.99 1516.8 2687.61 1540.05 2687.59 1540.01 2705.78 1563.39 2705.76 1563.36 2724.38 1586.86 2724.37 1586.85 2728.86 1592.46 2723.49 1596.76 2719 1591.14 2700.36 1567.62 2682.15 1544.22 2664.49 1520.93 2647.58 1497.81 2631.65 1474.99 2616.91 1452.4 2610.05 1441.21 2603.52 1430.15 2597.42 1419.14 2591.62 1408.25 2581.13 1386.76 2571.83 1365.51 2563.54 1344.6 2556.01 1323.89 2549.05 1303.32 2542.53 1282.91 2536.22 1262.52ZM2734.05 1582.44 2740.5 1612.5 2712.58 1599.62Z"/><path d="M2283.1 1405.99 2276.72 1361.42 2273.59 1338.78 2270.41 1315.71 2267.28 1292.06 2264.21 1267.67 2261.21 1242.4 2258.21 1216.13 2257.46 1209.12 2256.64 1201.61 2255.83 1193.65 2255.02 1185.27 2253.27 1167.46 2251.45 1148.52 2249.58 1128.88 2247.76 1108.94 2245.95 1089.06 2244.2 1069.62 2242.58 1050.99 2242.58 1051 2241.76 1042.18 2241.01 1033.67 2240.32 1025.54 2240.33 1025.56 2239.64 1017.87 2239.01 1010.74 2238.06 999.624 2244.91 999.037 2245.86 1010.14 2246.49 1017.26 2247.17 1024.95 2247.86 1033.09 2247.86 1033.07 2248.61 1041.57 2248.61 1041.56 2249.42 1050.38 2251.05 1069 2252.8 1088.44 2254.61 1108.31 2256.42 1128.25 2256.42 1128.24 2258.3 1147.86 2260.11 1166.79 2261.86 1184.61 2262.67 1192.98 2262.67 1192.96 2263.48 1200.9 2263.48 1200.88 2264.29 1208.38 2265.04 1215.38 2265.04 1215.36 2268.04 1241.61 2268.04 1241.59 2271.04 1266.84 2271.04 1266.82 2274.1 1291.2 2274.1 1291.17 2277.22 1314.8 2277.22 1314.78 2280.41 1337.84 2283.53 1360.47 2283.53 1360.45 2289.9 1405.01ZM2228.18 1005.09 2239.5 976.5 2255.58 1002.71Z"/><path d="M2047.18 830.414 2047.2 1716.95 2042.62 1712.37 2929.03 1712.37 2929.03 1721.53 2038.04 1721.53 2038.02 830.414ZM2028.87 835.059 2042.5 807.5 2056.37 834.94ZM2924.45 1703.2 2951.95 1716.95 2924.45 1730.7Z"/><path d="M2229 965.5C2229 954.73 2237.73 946 2248.5 946 2259.27 946 2268 954.73 2268 965.5 2268 976.269 2259.27 985 2248.5 985 2237.73 985 2229 976.269 2229 965.5Z" fill="#4472C4" fill-rule="evenodd"/><path d="M2518 1241.5C2518 1230.73 2526.73 1222 2537.5 1222 2548.27 1222 2557 1230.73 2557 1241.5 2557 1252.27 2548.27 1261 2537.5 1261 2526.73 1261 2518 1252.27 2518 1241.5Z" fill="#4472C4" fill-rule="evenodd"/><path d="M2734 1619.5C2734 1608.73 2742.73 1600 2753.5 1600 2764.27 1600 2773 1608.73 2773 1619.5 2773 1630.27 2764.27 1639 2753.5 1639 2742.73 1639 2734 1630.27 2734 1619.5Z" fill="#4472C4" fill-rule="evenodd"/><path d="M2542.78 1259.48 2549.1 1279.86 2549.09 1279.83 2555.59 1300.21 2555.57 1300.15 2562.51 1320.65 2562.48 1320.58 2569.98 1341.2 2569.95 1341.11 2578.2 1361.92 2578.15 1361.81 2587.4 1382.93 2587.34 1382.8 2597.78 1404.18 2597.72 1404.07 2603.47 1414.89 2603.44 1414.83 2609.51 1425.77 2609.46 1425.69 2615.96 1436.69 2615.93 1436.64 2622.74 1447.77 2622.69 1447.68 2637.38 1470.18 2637.32 1470.1 2653.19 1492.85 2653.15 1492.78 2670.02 1515.85 2669.99 1515.8 2687.61 1539.05 2687.59 1539.01 2705.78 1562.39 2705.76 1562.36 2724.38 1585.86 2724.37 1585.85 2728.86 1591.46 2723.49 1595.76 2719 1590.14 2700.36 1566.62 2682.15 1543.22 2664.49 1519.93 2647.58 1496.81 2631.65 1473.99 2616.91 1451.4 2610.05 1440.21 2603.52 1429.15 2597.42 1418.14 2591.62 1407.25 2581.13 1385.76 2571.83 1364.51 2563.54 1343.6 2556.01 1322.89 2549.05 1302.32 2542.53 1281.91 2536.22 1261.52ZM2734.05 1581.44 2740.5 1611.5 2712.58 1598.62Z"/><path d="M2729.96 1621.95 2698.57 1615.4 2667.82 1608.2 2637.66 1600.32 2608.1 1591.72 2579.18 1582.57 2550.91 1572.73 2523.25 1562.21 2496.34 1551.12 2470.17 1539.33 2444.63 1526.99 2419.9 1514.04 2395.91 1500.46 2372.68 1486.3 2350.26 1471.53 2326.31 1454.35 2330.32 1448.77 2354.21 1465.9 2354.1 1465.83 2376.41 1480.52 2376.31 1480.46 2399.44 1494.56 2399.35 1494.51 2423.24 1508.03 2423.14 1507.98 2447.77 1520.87 2447.67 1520.82 2473.12 1533.12 2473.03 1533.08 2499.12 1544.83 2499.02 1544.79 2525.83 1555.84 2525.74 1555.8 2553.31 1566.28 2553.22 1566.25 2581.39 1576.06 2581.3 1576.03 2610.14 1585.15 2610.06 1585.13 2639.54 1593.71 2639.45 1593.68 2669.51 1601.54 2669.43 1601.52 2700.1 1608.7 2700.02 1608.68 2731.36 1615.22ZM2323.62 1465.27 2310.1 1437.66 2340.3 1443.41Z"/><path d="M2918.58 1420.52C2535.77 1296.1 2266.13 1086.47 2199.11 861.173" stroke="#5B9BD5" stroke-width="6.875" stroke-miterlimit="8" stroke-dasharray="6.875 6.875" fill="none" fill-rule="evenodd"/><path d="M2911.62 1641.95C2481.98 1612.69 2171.88 1414.74 2112.7 1131.95" stroke="#4472C4" stroke-width="6.875" stroke-miterlimit="8" stroke-dasharray="6.875 6.875" fill="none" fill-rule="evenodd"/><path d="M2500.41 1226.1 2476.78 1209.79 2456.35 1194.97 2436.57 1179.9 2417.51 1164.66 2399.03 1149.23 2381.27 1133.56 2364.22 1117.78 2347.87 1101.82 2332.17 1085.67 2317.18 1069.35 2302.96 1052.93 2289.44 1036.39 2276.63 1019.66 2264.6 1002.77 2253.39 985.906 2259.11 982.1 2270.29 998.917 2270.23 998.825 2282.2 1015.62 2282.13 1015.53 2294.87 1032.16 2294.8 1032.08 2308.25 1048.54 2308.19 1048.46 2322.35 1064.82 2322.28 1064.74 2337.2 1080.99 2337.13 1080.92 2352.77 1096.99 2352.7 1096.93 2368.98 1112.82 2368.92 1112.76 2385.91 1128.48 2385.85 1128.43 2403.55 1144.04 2403.48 1143.98 2421.89 1159.36 2421.83 1159.31 2440.83 1174.5 2440.77 1174.45 2460.48 1189.47 2460.42 1189.43 2480.79 1204.2 2480.72 1204.16 2504.31 1220.44ZM2506.17 1209.28 2521.43 1235.98 2490.92 1232.17Z"/><path d="M2277 1421.5C2277 1410.73 2285.73 1402 2296.5 1402 2307.27 1402 2316 1410.73 2316 1421.5 2316 1432.27 2307.27 1441 2296.5 1441 2285.73 1441 2277 1432.27 2277 1421.5Z" fill="#4472C4" fill-rule="evenodd"/><text font-family="Tw Cen MT,Tw Cen MT_MSFontService,sans-serif" font-weight="400" font-size="83" transform="matrix(-1.83697e-16 -1 1 -1.83697e-16 2006.62 1082)">P</text><text font-family="Tw Cen MT,Tw Cen MT_MSFontService,sans-serif" font-weight="400" font-size="83" transform="matrix(-1.83697e-16 -1 1 -1.83697e-16 2006.62 1041)">ressure</text><text font-family="Tw Cen MT,Tw Cen MT_MSFontService,sans-serif" font-weight="400" font-size="83" transform="matrix(1 0 0 1 2714.18 1812)">V</text><text font-family="Tw Cen MT,Tw Cen MT_MSFontService,sans-serif" font-weight="400" font-size="83" transform="matrix(1 0 0 1 2759.07 1812)">olume</text><text font-family="Tw Cen MT,Tw Cen MT_MSFontService,sans-serif" font-weight="400" font-size="83" transform="matrix(1 0 0 1 2925.02 1397)">T</text><text font-family="Tw Cen MT,Tw Cen MT_MSFontService,sans-serif" font-weight="400" font-size="55" transform="matrix(1 0 0 1 2961.12 1417)">Hot</text><text font-family="Tw Cen MT,Tw Cen MT_MSFontService,sans-serif" font-weight="400" font-size="83" transform="matrix(1 0 0 1 2925.74 1630)">T</text><text font-family="Tw Cen MT,Tw Cen MT_MSFontService,sans-serif" font-weight="400" font-size="55" transform="matrix(1 0 0 1 2959.38 1650)">Cold</text><path d="M3.4375-3.28612e-06 3.43784 354.6-3.43716 354.6-3.4375 3.28612e-06ZM13.7503 350.017 0.000360892 377.517-13.7497 350.017Z" transform="matrix(1 0 0 -1 3656.5 1469.02)"/><path d="M4181 928 4181 1718.08" stroke="#000000" stroke-width="2.29167" stroke-miterlimit="8" stroke-dasharray="9.16667 6.875" fill="none" fill-rule="evenodd"/><path d="M3442 1072 4356.66 1072" stroke="#000000" stroke-width="2.29167" stroke-miterlimit="8" stroke-dasharray="9.16667 6.875" fill="none" fill-rule="evenodd"/><path d="M3655 925 3655 1715.08" stroke="#000000" stroke-width="2.29167" stroke-miterlimit="8" stroke-dasharray="9.16667 6.875" fill="none" fill-rule="evenodd"/><path d="M3449.18 829.414 3449.2 1715.95 3444.62 1711.37 4331.03 1711.37 4331.03 1720.53 3440.03 1720.53 3440.02 829.414ZM3430.87 834.059 3444.5 806.5 3458.37 833.94ZM4326.45 1702.2 4353.95 1715.95 4326.45 1729.7Z"/><path d="M3637 1071.5C3637 1060.73 3645.73 1052 3656.5 1052 3667.27 1052 3676 1060.73 3676 1071.5 3676 1082.27 3667.27 1091 3656.5 1091 3645.73 1091 3637 1082.27 3637 1071.5Z" fill="#4472C4" fill-rule="evenodd"/><path d="M3442 1488 4356.66 1488" stroke="#000000" stroke-width="2.29167" stroke-miterlimit="8" stroke-dasharray="9.16667 6.875" fill="none" fill-rule="evenodd"/><text font-family="Tw Cen MT,Tw Cen MT_MSFontService,sans-serif" font-weight="400" font-size="83" transform="matrix(1 0 0 1 3618.64 1806)">S</text><text font-family="Tw Cen MT,Tw Cen MT_MSFontService,sans-serif" font-weight="400" font-size="55" transform="matrix(1 0 0 1 3659.89 1826)">1</text><path d="M4161 1071.5C4161 1060.73 4169.73 1052 4180.5 1052 4191.27 1052 4200 1060.73 4200 1071.5 4200 1082.27 4191.27 1091 4180.5 1091 4169.73 1091 4161 1082.27 4161 1071.5Z" fill="#4472C4" fill-rule="evenodd"/><path d="M3676.5 1069.06 4138.84 1069.06 4138.84 1075.94 3676.5 1075.94ZM4134.25 1058.75 4161.75 1072.5 4134.25 1086.25Z"/><path d="M4161 1488.5C4161 1477.73 4169.73 1469 4180.5 1469 4191.27 1469 4200 1477.73 4200 1488.5 4200 1499.27 4191.27 1508 4180.5 1508 4169.73 1508 4161 1499.27 4161 1488.5Z" fill="#4472C4" fill-rule="evenodd"/><path d="M4184.94 1091.5 4184.94 1446.1 4178.06 1446.1 4178.06 1091.5ZM4195.25 1441.52 4181.5 1469.02 4167.75 1441.52Z"/><path d="M3636 1488.5C3636 1477.73 3644.73 1469 3655.5 1469 3666.27 1469 3675 1477.73 3675 1488.5 3675 1499.27 3666.27 1508 3655.5 1508 3644.73 1508 3636 1499.27 3636 1488.5Z" fill="#4472C4" fill-rule="evenodd"/><path d="M2.55049e-06-3.4375 463.486-3.43716 463.486 3.43784-2.55049e-06 3.4375ZM458.903-13.7497 486.403 0.000360892 458.903 13.7503Z" transform="matrix(-1 0 0 1 4161.9 1488.5)"/><text font-family="Tw Cen MT,Tw Cen MT_MSFontService,sans-serif" font-weight="400" font-size="83" transform="matrix(1 0 0 1 3297.29 1101)">T</text><text font-family="Tw Cen MT,Tw Cen MT_MSFontService,sans-serif" font-weight="400" font-size="55" transform="matrix(1 0 0 1 3333.39 1121)">Hot</text><text font-family="Tw Cen MT,Tw Cen MT_MSFontService,sans-serif" font-weight="400" font-size="83" transform="matrix(1 0 0 1 3271.57 1516)">T</text><text font-family="Tw Cen MT,Tw Cen MT_MSFontService,sans-serif" font-weight="400" font-size="55" transform="matrix(1 0 0 1 3305.21 1536)">Cold</text><text font-family="Tw Cen MT,Tw Cen MT_MSFontService,sans-serif" font-weight="400" font-size="83" transform="matrix(-1.83697e-16 -1 1 -1.83697e-16 3241.52 1215)">T</text><text font-family="Tw Cen MT,Tw Cen MT_MSFontService,sans-serif" font-weight="400" font-size="83" transform="matrix(-1.83697e-16 -1 1 -1.83697e-16 3241.52 1185)">emperature</text><text font-family="Tw Cen MT,Tw Cen MT_MSFontService,sans-serif" font-weight="400" font-size="83" transform="matrix(1 0 0 1 4111.48 1905)">Entrop</text><text font-family="Tw Cen MT,Tw Cen MT_MSFontService,sans-serif" font-weight="400" font-size="83" transform="matrix(1 0 0 1 4320.02 1905)">y</text><text font-family="Tw Cen MT,Tw Cen MT_MSFontService,sans-serif" font-weight="400" font-size="83" transform="matrix(1 0 0 1 4147.11 1809)">S</text><text font-family="Tw Cen MT,Tw Cen MT_MSFontService,sans-serif" font-weight="400" font-size="55" transform="matrix(1 0 0 1 4188.36 1829)">2</text></g></svg>