<svg width="4116" height="1405" xmlns="http://www.w3.org/2000/svg" xmlns:xlink="http://www.w3.org/1999/xlink" xml:space="preserve" overflow="hidden"><defs><clipPath id="clip0"><rect x="295" y="571" width="4116" height="1405"/></clipPath></defs><g clip-path="url(#clip0)" transform="translate(-295 -571)"><rect x="295" y="813" width="454" height="909" fill="#2FA3EE"/><text font-family="Tw Cen MT,Tw Cen MT_MSFontService,sans-serif" font-weight="400" font-size="83" transform="matrix(1 0 0 1 454.229 1273)">T</text><text font-family="Tw Cen MT,Tw Cen MT_MSFontService,sans-serif" font-weight="400" font-size="55" transform="matrix(1 0 0 1 490.323 1293)">Cold</text><text font-family="Tw Cen MT,Tw Cen MT_MSFontService,sans-serif" font-weight="400" font-size="83" transform="matrix(1 0 0 1 444.65 676)">Cold</text><text font-family="Tw Cen MT,Tw Cen MT_MSFontService,sans-serif" font-weight="400" font-size="83" transform="matrix(1 0 0 1 371.042 775)">Reservoir</text><rect x="749" y="813" width="38.9998" height="455"/><rect x="1397" y="813" width="454" height="909" fill="#CE6633"/><text font-family="Tw Cen MT,Tw Cen MT_MSFontService,sans-serif" font-weight="400" font-size="83" transform="matrix(1 0 0 1 1569.25 1272)">T</text><text font-family="Tw Cen MT,Tw Cen MT_MSFontService,sans-serif" font-weight="400" font-size="55" transform="matrix(1 0 0 1 1605.34 1292)">Hot</text><text font-family="Tw Cen MT,Tw Cen MT_MSFontService,sans-serif" font-weight="400" font-size="83" transform="matrix(1 0 0 1 1569.41 674)">Hot</text><text font-family="Tw Cen MT,Tw Cen MT_MSFontService,sans-serif" font-weight="400" font-size="83" transform="matrix(1 0 0 1 1475.17 773)">Reservoir</text><rect x="1359" y="813" width="38.0001" height="455"/><rect x="788" y="1105" width="571" height="37.9998" fill="#A5A5A5"/><rect x="1054" y="823" width="39.0002" height="282" fill="#A5A5A5"/><text font-family="Tw Cen MT,Tw Cen MT_MSFontService,sans-serif" font-weight="400" font-size="83" transform="matrix(1 0 0 1 983.294 783)">Piston</text><rect x="749" y="1268" width="38.9998" height="454"/><rect x="788" y="1143" width="571" height="547" fill="#CE6633"/><rect x="788" y="1684" width="571" height="37.9998"/><text font-family="Tw Cen MT,Tw Cen MT_MSFontService,sans-serif" font-weight="400" font-size="83" transform="matrix(1 0 0 1 1017.17 1433)">T</text><text font-family="Tw Cen MT,Tw Cen MT_MSFontService,sans-serif" font-weight="400" font-size="55" transform="matrix(1 0 0 1 1053.27 1453)">Hot</text><rect x="1359" y="1311" width="39.0002" height="65" fill="#CE6633"/><rect x="1359" y="1402" width="39.0002" height="65" fill="#CE6633"/><rect x="1359" y="1503" width="39.0002" height="65" fill="#CE6633"/><rect x="1359" y="1609" width="39.0002" height="65" fill="#CE6633"/><rect x="1359" y="1268" width="38.0001" height="65"/><rect x="1359" y="1657" width="38.0001" height="65"/><rect x="1359" y="1463" width="38.0001" height="65"/><rect x="1359" y="1560" width="38.0001" height="65"/><rect x="1359" y="1365" width="38.0001" height="65"/><path d="M6.875-8.75193e-06 6.87532 249.121-6.87468 249.121-6.875 8.75193e-06ZM20.6253 242.246 0.000360892 283.496-20.6247 242.246Z" transform="matrix(1 0 0 -1 919 1105.5)"/><path d="M6.875-8.75193e-06 6.87532 249.121-6.87468 249.121-6.875 8.75193e-06ZM20.6253 242.246 0.000360892 283.496-20.6247 242.246Z" transform="matrix(1 0 0 -1 1229 1105.5)"/><path d="M1269.89 1476.57 1282.25 1467.85 1291.12 1462.9 1300 1458.51 1309.05 1454.58 1318.21 1451.09 1327.5 1448.12 1336.94 1445.55 1346.54 1443.52 1365.6 1440.75 1384.96 1439.79 1404.32 1440.75 1423.38 1443.52 1432.98 1445.55 1442.42 1448.12 1451.72 1451.1 1460.92 1454.62 1469.92 1458.5 1478.8 1462.9 1487.5 1467.75 1496.02 1473.06 1504.3 1478.88 1512.34 1485.09 1520.13 1491.78 1527.49 1498.85 1517.97 1508.77 1510.75 1501.83 1511.03 1502.09 1503.52 1495.64 1503.79 1495.86 1496.02 1489.85 1496.27 1490.04 1488.27 1484.43 1488.58 1484.63 1480.36 1479.51 1480.65 1479.68 1472.25 1474.99 1472.55 1475.15 1463.98 1470.91 1464.31 1471.06 1455.6 1467.3 1455.86 1467.41 1446.98 1464.01 1447.34 1464.13 1438.37 1461.26 1438.66 1461.35 1429.56 1458.87 1429.94 1458.96 1420.75 1457.02 1421.18 1457.1 1402.66 1454.4 1403.31 1454.46 1384.62 1453.54 1385.3 1453.54 1366.61 1454.46 1367.26 1454.4 1348.74 1457.1 1349.17 1457.02 1339.98 1458.96 1340.36 1458.87 1331.26 1461.35 1331.55 1461.26 1322.58 1464.13 1322.92 1464.01 1314.08 1467.37 1314.38 1467.25 1305.63 1471.05 1305.94 1470.91 1297.37 1475.15 1297.67 1474.99 1289.27 1479.68 1289.89 1479.29 1277.81 1487.81ZM1292.17 1493.9 1247.12 1503.81 1266.23 1461.83Z"/><text font-family="Tw Cen MT,Tw Cen MT_MSFontService,sans-serif" font-weight="400" font-size="83" transform="matrix(1 0 0 1 1556.71 1529)">Q</text><text font-family="Tw Cen MT,Tw Cen MT_MSFontService,sans-serif" font-weight="400" font-size="55" transform="matrix(1 0 0 1 1620.31 1549)">Hot</text><path d="M2922.48 1421.32C2539.67 1296.9 2270.03 1087.26 2203.01 861.97" stroke="#5B9BD5" stroke-width="6.875" stroke-miterlimit="8" stroke-dasharray="6.875 6.875" fill="none" fill-rule="evenodd"/><path d="M2504.31 1226.89 2480.68 1210.59 2460.25 1195.76 2440.48 1180.7 2421.41 1165.46 2402.94 1150.02 2385.17 1134.35 2368.12 1118.57 2351.77 1102.61 2336.07 1086.47 2321.08 1070.15 2306.86 1053.72 2293.35 1037.18 2280.54 1020.46 2268.5 1003.57 2257.29 986.703 2263.02 982.897 2274.2 999.713 2274.13 999.622 2286.1 1016.42 2286.03 1016.33 2298.77 1032.96 2298.71 1032.87 2312.16 1049.34 2312.09 1049.26 2326.25 1065.61 2326.18 1065.54 2341.1 1081.78 2341.04 1081.71 2356.67 1097.79 2356.61 1097.73 2372.89 1113.62 2372.82 1113.56 2389.81 1129.28 2389.75 1129.23 2407.45 1144.84 2407.38 1144.78 2425.79 1160.16 2425.74 1160.11 2444.74 1175.3 2444.67 1175.25 2464.39 1190.27 2464.32 1190.22 2484.69 1205 2484.62 1204.95 2508.22 1221.23ZM2510.08 1210.08 2525.33 1236.77 2494.82 1232.96Z"/><path d="M2051.18 831.414 2051.2 1717.95 2046.62 1713.37 2933.03 1713.37 2933.03 1722.53 2042.04 1722.53 2042.02 831.414ZM2032.87 836.059 2046.5 808.5 2060.37 835.941ZM2928.45 1704.2 2955.95 1717.95 2928.45 1731.7Z"/><text font-family="Tw Cen MT,Tw Cen MT_MSFontService,sans-serif" font-weight="400" font-size="83" transform="matrix(-1.83697e-16 -1 1 -1.83697e-16 2006.62 1082)">P</text><text font-family="Tw Cen MT,Tw Cen MT_MSFontService,sans-serif" font-weight="400" font-size="83" transform="matrix(-1.83697e-16 -1 1 -1.83697e-16 2006.62 1041)">ressure</text><text font-family="Tw Cen MT,Tw Cen MT_MSFontService,sans-serif" font-weight="400" font-size="83" transform="matrix(1 0 0 1 2714.18 1812)">V</text><text font-family="Tw Cen MT,Tw Cen MT_MSFontService,sans-serif" font-weight="400" font-size="83" transform="matrix(1 0 0 1 2759.07 1812)">olume</text><path d="M2233 966.5C2233 955.73 2241.73 947 2252.5 947 2263.27 947 2272 955.73 2272 966.5 2272 977.269 2263.27 986 2252.5 986 2241.73 986 2233 977.269 2233 966.5Z" fill="#4472C4" fill-rule="evenodd"/><path d="M2915.52 1642.75C2485.88 1613.49 2175.78 1415.54 2116.6 1132.75" stroke="#4472C4" stroke-width="6.875" stroke-miterlimit="8" stroke-dasharray="6.875 6.875" fill="none" fill-rule="evenodd"/><path d="M2522 1242.5C2522 1231.73 2530.73 1223 2541.5 1223 2552.27 1223 2561 1231.73 2561 1242.5 2561 1253.27 2552.27 1262 2541.5 1262 2530.73 1262 2522 1253.27 2522 1242.5Z" fill="#4472C4" fill-rule="evenodd"/><text font-family="Tw Cen MT,Tw Cen MT_MSFontService,sans-serif" font-weight="400" font-size="83" transform="matrix(1 0 0 1 2925.02 1397)">T</text><text font-family="Tw Cen MT,Tw Cen MT_MSFontService,sans-serif" font-weight="400" font-size="55" transform="matrix(1 0 0 1 2961.12 1417)">Hot</text><text font-family="Tw Cen MT,Tw Cen MT_MSFontService,sans-serif" font-weight="400" font-size="83" transform="matrix(1 0 0 1 2925.74 1630)">T</text><text font-family="Tw Cen MT,Tw Cen MT_MSFontService,sans-serif" font-weight="400" font-size="55" transform="matrix(1 0 0 1 2959.38 1650)">Cold</text><path d="M4181 929 4181 1719.08" stroke="#000000" stroke-width="2.29167" stroke-miterlimit="8" stroke-dasharray="9.16667 6.875" fill="none" fill-rule="evenodd"/><text font-family="Tw Cen MT,Tw Cen MT_MSFontService,sans-serif" font-weight="400" font-size="83" transform="matrix(1 0 0 1 3297.29 1101)">T</text><text font-family="Tw Cen MT,Tw Cen MT_MSFontService,sans-serif" font-weight="400" font-size="55" transform="matrix(1 0 0 1 3333.39 1121)">Hot</text><text font-family="Tw Cen MT,Tw Cen MT_MSFontService,sans-serif" font-weight="400" font-size="83" transform="matrix(1 0 0 1 3271.57 1516)">T</text><text font-family="Tw Cen MT,Tw Cen MT_MSFontService,sans-serif" font-weight="400" font-size="55" transform="matrix(1 0 0 1 3305.21 1536)">Cold</text><path d="M3442 1073 4356.66 1073" stroke="#000000" stroke-width="2.29167" stroke-miterlimit="8" stroke-dasharray="9.16667 6.875" fill="none" fill-rule="evenodd"/><path d="M3656 926 3656 1716.08" stroke="#000000" stroke-width="2.29167" stroke-miterlimit="8" stroke-dasharray="9.16667 6.875" fill="none" fill-rule="evenodd"/><path d="M3449.18 831.414 3449.2 1717.95 3444.62 1713.37 4331.03 1713.37 4331.03 1722.53 3440.03 1722.53 3440.02 831.414ZM3430.87 836.059 3444.5 808.5 3458.37 835.941ZM4326.45 1704.2 4353.95 1717.95 4326.45 1731.7Z"/><text font-family="Tw Cen MT,Tw Cen MT_MSFontService,sans-serif" font-weight="400" font-size="83" transform="matrix(-1.83697e-16 -1 1 -1.83697e-16 3241.52 1215)">T</text><text font-family="Tw Cen MT,Tw Cen MT_MSFontService,sans-serif" font-weight="400" font-size="83" transform="matrix(-1.83697e-16 -1 1 -1.83697e-16 3241.52 1185)">emperature</text><text font-family="Tw Cen MT,Tw Cen MT_MSFontService,sans-serif" font-weight="400" font-size="83" transform="matrix(1 0 0 1 4111.48 1905)">Entrop</text><text font-family="Tw Cen MT,Tw Cen MT_MSFontService,sans-serif" font-weight="400" font-size="83" transform="matrix(1 0 0 1 4320.02 1905)">y</text><path d="M3637 1072.5C3637 1061.73 3645.73 1053 3656.5 1053 3667.27 1053 3676 1061.73 3676 1072.5 3676 1083.27 3667.27 1092 3656.5 1092 3645.73 1092 3637 1083.27 3637 1072.5Z" fill="#4472C4" fill-rule="evenodd"/><path d="M3442 1489 4356.66 1489" stroke="#000000" stroke-width="2.29167" stroke-miterlimit="8" stroke-dasharray="9.16667 6.875" fill="none" fill-rule="evenodd"/><text font-family="Tw Cen MT,Tw Cen MT_MSFontService,sans-serif" font-weight="400" font-size="83" transform="matrix(1 0 0 1 3618.96 1807)">S</text><text font-family="Tw Cen MT,Tw Cen MT_MSFontService,sans-serif" font-weight="400" font-size="55" transform="matrix(1 0 0 1 3660.21 1827)">1</text><path d="M4164 1073.5C4164 1062.73 4172.73 1054 4183.5 1054 4194.27 1054 4203 1062.73 4203 1073.5 4203 1084.27 4194.27 1093 4183.5 1093 4172.73 1093 4164 1084.27 4164 1073.5Z" fill="#4472C4" fill-rule="evenodd"/><path d="M3676.5 1070.06 4141.61 1070.36 4141.6 1077.23 3676.5 1076.94ZM4137.03 1060.04 4164.52 1073.81 4137.01 1087.54Z"/><text font-family="Tw Cen MT,Tw Cen MT_MSFontService,sans-serif" font-weight="400" font-size="83" transform="matrix(1 0 0 1 4147.11 1817)">S</text><text font-family="Tw Cen MT,Tw Cen MT_MSFontService,sans-serif" font-weight="400" font-size="55" transform="matrix(1 0 0 1 4188.36 1837)">2</text></g></svg>