<svg width="1940" height="2168" xmlns="http://www.w3.org/2000/svg" xmlns:xlink="http://www.w3.org/1999/xlink" xml:space="preserve" overflow="hidden"><defs><clipPath id="clip0"><rect x="964" y="144" width="1940" height="2168"/></clipPath></defs><g clip-path="url(#clip0)" transform="translate(-964 -144)"><path d="M1537.05 664.637C1535 632.302 1759.13 367.266 1891.86 499.72 2024.59 632.173 2331.36 1427.02 2333.41 1459.36 2335.46 1491.69 2035.38 827.202 1904.17 693.729 1772.95 560.256 1539.1 696.972 1537.05 664.637Z" stroke="#000000" stroke-width="4.58333" stroke-miterlimit="8" fill-rule="evenodd"/><path d="M0.655969-0.939489 334.454 232.125 333.142 234.004-0.655969 0.939489ZM337.912 219.167 352.588 246.184 322.169 241.714Z" transform="matrix(1 0 0 -1 1064 1020.18)"/><path d="M1064 1018.85 1393.67 1018.85 1393.67 1021.15 1064 1021.15ZM1389.09 1006.25 1416.59 1020 1389.09 1033.75Z"/><path d="M1.14583-1.67973e-06 1.14616 223.267-1.14551 223.267-1.14583 1.67973e-06ZM13.7503 218.684 0.000360892 246.184-13.7497 218.684Z" transform="matrix(1 0 0 -1 1064 1020.18)"/><path d="M1440.92 1047.48 1457.7 1047.48 1457.26 1049.47C1456.07 1049.6 1455.14 1049.96 1454.48 1050.52 1453.82 1051.09 1453.35 1051.88 1453.08 1052.89 1452.81 1053.91 1452.68 1055.26 1452.68 1056.97 1452.68 1057.37 1452.72 1058.59 1452.8 1060.61L1453.93 1090.28 1453.93 1093.52 1454.34 1093.52 1471.89 1061.87C1472.91 1060.01 1473.68 1058.41 1474.2 1057.07 1474.71 1055.73 1474.97 1054.55 1474.97 1053.52 1474.97 1051.25 1473.61 1049.9 1470.91 1049.47L1471.36 1047.48 1487.93 1047.48 1487.49 1049.47C1486.76 1049.58 1486.06 1049.85 1485.4 1050.3 1484.74 1050.75 1484 1051.49 1483.17 1052.53 1482.35 1053.57 1481.07 1055.58 1479.34 1058.55L1453.41 1103.45 1448.02 1103.45 1445.3 1058.26C1445.19 1056.51 1445 1055 1444.71 1053.74 1444.43 1052.49 1443.98 1051.51 1443.37 1050.81 1442.77 1050.1 1441.8 1049.66 1440.48 1049.47Z" fill-rule="evenodd"/><text fill="#000000" fill-opacity="0" font-family="Arial,Arial_MSFontService,sans-serif" font-size="55.9683" x="1440.48" y="1096.46">ğ‘‰</text><path d="M1495.44 1081.28 1497.26 1081.28C1497.22 1082.38 1497.19 1083.35 1497.17 1084.22 1497.15 1085.08 1497.13 1085.92 1497.12 1086.73 1497.11 1087.55 1497.11 1088.35 1497.11 1089.15L1497.11 1111.78C1497.11 1112.4 1497.13 1112.93 1497.17 1113.38 1497.21 1113.82 1497.27 1114.2 1497.36 1114.51 1497.45 1114.82 1497.57 1115.08 1497.72 1115.3 1497.87 1115.52 1498.04 1115.71 1498.24 1115.86 1498.48 1116.1 1498.79 1116.29 1499.19 1116.42 1499.59 1116.54 1500.09 1116.65 1500.71 1116.74 1501.33 1116.83 1502.07 1116.9 1502.93 1116.95 1503.79 1117 1504.83 1117.04 1506.04 1117.06L1506.04 1119.65 1482.42 1119.65 1482.42 1117.06C1483.59 1117.02 1484.59 1116.97 1485.4 1116.92 1486.21 1116.87 1486.91 1116.8 1487.49 1116.71 1488.06 1116.62 1488.52 1116.52 1488.87 1116.42 1489.22 1116.31 1489.52 1116.17 1489.78 1116.01 1490.06 1115.83 1490.3 1115.64 1490.49 1115.43 1490.69 1115.22 1490.85 1114.96 1490.97 1114.64 1491.09 1114.33 1491.18 1113.94 1491.25 1113.48 1491.32 1113.02 1491.36 1112.46 1491.36 1111.78L1491.36 1090.43C1491.36 1089.65 1491.21 1089.11 1490.91 1088.79 1490.61 1088.47 1490.19 1088.31 1489.63 1088.31 1489.01 1088.31 1488.1 1088.63 1486.89 1089.27 1485.68 1089.9 1484.11 1090.84 1482.18 1092.1 1481.93 1091.64 1481.69 1091.18 1481.47 1090.73 1481.25 1090.27 1481.02 1089.8 1480.78 1089.33 1483.25 1087.98 1485.68 1086.63 1488.1 1085.29 1490.51 1083.95 1492.96 1082.61 1495.44 1081.28Z" fill-rule="evenodd"/><text fill="#000000" fill-opacity="0" font-family="Arial,Arial_MSFontService,sans-serif" font-size="38.3633" x="1480.78" y="1114.85">1</text><path d="M1514.27 1112.74 1519.48 1112.74C1519.76 1114.13 1519.9 1115.5 1519.9 1116.85 1519.9 1118.24 1519.66 1119.51 1519.19 1120.66 1518.71 1121.81 1517.95 1122.96 1516.91 1124.1 1515.87 1125.24 1514.43 1126.5 1512.6 1127.87L1511 1126.05C1512.01 1125.1 1512.74 1124.24 1513.2 1123.47 1513.66 1122.71 1513.98 1121.84 1514.18 1120.87 1514.38 1119.9 1514.48 1118.67 1514.48 1117.2 1514.48 1115.7 1514.41 1114.21 1514.27 1112.74Z" fill-rule="evenodd"/><text fill="#000000" fill-opacity="0" font-family="Arial,Arial_MSFontService,sans-serif" font-size="15.1309" x="1511" y="1125.98">,</text><path d="M1536.11 1089.24C1537.2 1089.24 1538.1 1089.47 1538.79 1089.95 1539.49 1090.43 1540.06 1091.12 1540.52 1092.04 1540.97 1092.95 1541.35 1094.08 1541.65 1095.42 1541.95 1096.76 1542.27 1098.29 1542.6 1100.02L1542.99 1100.02C1544.18 1098.45 1545.21 1097.09 1546.09 1095.94 1546.96 1094.79 1547.74 1093.81 1548.43 1093.02 1549.11 1092.22 1549.73 1091.58 1550.27 1091.08 1550.82 1090.59 1551.35 1090.2 1551.87 1089.94 1552.38 1089.67 1552.91 1089.48 1553.46 1089.39 1554.01 1089.29 1554.62 1089.24 1555.29 1089.24 1556.28 1089.24 1557.19 1089.42 1558 1089.77L1556.51 1095.64 1554.04 1095.64C1553.98 1094.79 1553.66 1094.36 1553.09 1094.36 1552.87 1094.36 1552.63 1094.4 1552.37 1094.48 1552.11 1094.56 1551.81 1094.72 1551.45 1094.96 1551.09 1095.19 1550.68 1095.53 1550.21 1095.95 1549.75 1096.38 1549.2 1096.94 1548.56 1097.62 1547.92 1098.31 1547.2 1099.14 1546.39 1100.14 1545.57 1101.13 1544.64 1102.3 1543.59 1103.65 1544.12 1106.39 1544.58 1108.59 1544.97 1110.23 1545.36 1111.88 1545.73 1113.14 1546.09 1114.02 1546.45 1114.89 1546.8 1115.46 1547.16 1115.73 1547.52 1116 1547.92 1116.13 1548.38 1116.13 1548.72 1116.13 1549.03 1116.09 1549.32 1116.01 1549.61 1115.93 1549.91 1115.76 1550.21 1115.49 1550.52 1115.22 1550.86 1114.84 1551.24 1114.33 1551.62 1113.82 1552.06 1113.15 1552.58 1112.32L1554.82 1113.78C1553.94 1115.09 1553.17 1116.16 1552.49 1117 1551.82 1117.83 1551.16 1118.49 1550.53 1118.96 1549.89 1119.44 1549.24 1119.76 1548.56 1119.93 1547.89 1120.1 1547.11 1120.18 1546.24 1120.18 1545.48 1120.18 1544.81 1120.08 1544.21 1119.87 1543.62 1119.66 1543.1 1119.28 1542.66 1118.72 1542.36 1118.39 1542.09 1117.93 1541.83 1117.37 1541.57 1116.8 1541.33 1116.19 1541.11 1115.54 1540.9 1114.88 1540.7 1114.2 1540.52 1113.5 1540.34 1112.79 1540.19 1112.13 1540.07 1111.52 1539.95 1110.9 1539.86 1110.35 1539.79 1109.86 1539.72 1109.38 1539.67 1109.01 1539.65 1108.78L1539.33 1108.78C1538.14 1110.36 1537.1 1111.75 1536.21 1112.93 1535.33 1114.11 1534.53 1115.12 1533.82 1115.97 1533.1 1116.81 1532.46 1117.51 1531.88 1118.05 1531.3 1118.6 1530.74 1119.03 1530.18 1119.35 1529.63 1119.67 1529.06 1119.89 1528.47 1120 1527.88 1120.12 1527.23 1120.18 1526.52 1120.18 1525.49 1120.18 1524.6 1120 1523.87 1119.65L1525.24 1113.84 1527.77 1113.84C1527.83 1114.71 1528.16 1115.15 1528.75 1115.15 1528.97 1115.13 1529.18 1115.09 1529.39 1115.03 1529.6 1114.97 1529.85 1114.85 1530.12 1114.66 1530.4 1114.47 1530.75 1114.17 1531.18 1113.76 1531.61 1113.36 1532.15 1112.79 1532.8 1112.07 1533.46 1111.34 1534.26 1110.43 1535.22 1109.34 1536.17 1108.25 1537.31 1106.9 1538.64 1105.29 1538.28 1103.62 1537.97 1102.17 1537.7 1100.94 1537.44 1099.71 1537.19 1098.65 1536.96 1097.77 1536.73 1096.89 1536.51 1096.17 1536.29 1095.61 1536.07 1095.05 1535.85 1094.61 1535.62 1094.28 1535.39 1093.96 1535.14 1093.72 1534.87 1093.58 1534.61 1093.45 1534.29 1093.37 1533.94 1093.35 1533.6 1093.35 1533.29 1093.4 1533 1093.51 1532.71 1093.62 1532.41 1093.81 1532.1 1094.09 1531.8 1094.37 1531.46 1094.76 1531.09 1095.25 1530.72 1095.75 1530.3 1096.39 1529.83 1097.19L1527.53 1095.7C1528.35 1094.49 1529.08 1093.47 1529.74 1092.63 1530.39 1091.8 1531.04 1091.13 1531.67 1090.64 1532.31 1090.14 1532.98 1089.78 1533.68 1089.56 1534.39 1089.35 1535.2 1089.24 1536.11 1089.24Z" fill-rule="evenodd"/><text fill="#000000" fill-opacity="0" font-family="Arial,Arial_MSFontService,sans-serif" font-size="30.9468" x="1523.87" y="1116.31">ğ‘¥</text><path d="M1000.88 698.051 1017.66 698.051 1017.21 700.037C1016.02 700.172 1015.1 700.523 1014.44 701.091 1013.77 701.658 1013.31 702.448 1013.04 703.461 1012.77 704.475 1012.63 705.832 1012.63 707.534 1012.63 707.94 1012.67 709.156 1012.75 711.182L1013.89 740.848 1013.89 744.09 1014.29 744.09 1031.84 712.438C1032.87 710.574 1033.64 708.973 1034.15 707.636 1034.67 706.298 1034.92 705.116 1034.92 704.09 1034.92 701.82 1033.57 700.469 1030.87 700.037L1031.32 698.051 1047.89 698.051 1047.45 700.037C1046.72 700.145 1046.02 700.422 1045.36 700.868 1044.7 701.314 1043.95 702.057 1043.13 703.097 1042.31 704.137 1041.03 706.143 1039.3 709.115L1013.36 754.019 1007.97 754.019 1005.26 708.831C1005.15 707.075 1004.95 705.569 1004.67 704.313 1004.39 703.056 1003.94 702.077 1003.33 701.374 1002.72 700.672 1001.76 700.226 1000.43 700.037Z" fill-rule="evenodd"/><text fill="#000000" fill-opacity="0" font-family="Arial,Arial_MSFontService,sans-serif" font-size="55.9683" x="1000.43" y="747.023">ğ‘‰</text><path d="M1055.4 731.851 1057.21 731.851C1057.17 732.943 1057.14 733.921 1057.12 734.785 1057.1 735.649 1057.09 736.488 1057.08 737.302 1057.07 738.116 1057.06 738.92 1057.06 739.715L1057.06 762.351C1057.06 762.967 1057.08 763.498 1057.12 763.945 1057.16 764.392 1057.23 764.769 1057.32 765.077 1057.41 765.385 1057.52 765.648 1057.67 765.866 1057.82 766.084 1058 766.273 1058.2 766.432 1058.43 766.67 1058.75 766.854 1059.15 766.983 1059.55 767.112 1060.05 767.221 1060.67 767.311 1061.28 767.4 1062.02 767.469 1062.89 767.519 1063.75 767.569 1064.79 767.604 1066 767.623L1066 770.215 1042.38 770.215 1042.38 767.623C1043.55 767.584 1044.54 767.539 1045.36 767.489 1046.17 767.44 1046.87 767.37 1047.44 767.281 1048.02 767.191 1048.48 767.092 1048.83 766.983 1049.18 766.874 1049.48 766.74 1049.74 766.581 1050.01 766.402 1050.25 766.209 1050.45 766 1050.65 765.792 1050.81 765.528 1050.93 765.211 1051.05 764.893 1051.14 764.506 1051.21 764.049 1051.28 763.592 1051.31 763.026 1051.31 762.351L1051.31 740.995C1051.31 740.221 1051.17 739.675 1050.87 739.357 1050.57 739.04 1050.14 738.881 1049.59 738.881 1048.97 738.881 1048.06 739.198 1046.85 739.834 1045.64 740.469 1044.07 741.412 1042.14 742.663 1041.88 742.207 1041.64 741.75 1041.43 741.293 1041.21 740.837 1040.98 740.37 1040.74 739.893 1043.2 738.543 1045.64 737.198 1048.05 735.857 1050.47 734.517 1052.91 733.182 1055.4 731.851Z" fill-rule="evenodd"/><text fill="#000000" fill-opacity="0" font-family="Arial,Arial_MSFontService,sans-serif" font-size="38.3633" x="1040.74" y="765.419">1</text><path d="M1074.23 763.305 1079.44 763.305C1079.72 764.694 1079.86 766.065 1079.86 767.415 1079.86 768.805 1079.62 770.076 1079.14 771.227 1078.67 772.379 1077.91 773.526 1076.87 774.668 1075.82 775.809 1074.39 777.065 1072.56 778.435L1070.95 776.618C1071.97 775.665 1072.7 774.807 1073.16 774.042 1073.61 773.278 1073.94 772.409 1074.14 771.436 1074.34 770.463 1074.44 769.242 1074.44 767.772 1074.44 766.263 1074.37 764.774 1074.23 763.305Z" fill-rule="evenodd"/><text fill="#000000" fill-opacity="0" font-family="Arial,Arial_MSFontService,sans-serif" font-size="15.1309" x="1070.95" y="776.544">,</text><path d="M1094.49 739.804C1095.2 739.804 1095.82 739.878 1096.34 740.027 1096.85 740.176 1097.32 740.41 1097.73 740.727 1098.15 741.045 1098.52 741.457 1098.85 741.963 1099.18 742.47 1099.51 743.08 1099.85 743.795 1100.03 744.232 1100.22 744.858 1100.42 745.672 1100.61 746.486 1100.82 747.429 1101.04 748.501 1101.26 749.574 1101.48 750.755 1101.7 752.046 1101.91 753.336 1102.13 754.687 1102.35 756.096 1102.57 757.506 1102.78 758.951 1102.98 760.43 1103.18 761.91 1103.36 763.364 1103.54 764.794 1105.03 762.848 1106.37 760.877 1107.56 758.881 1108.76 756.886 1109.76 754.999 1110.59 753.222 1111.41 751.445 1112.04 749.827 1112.48 748.367 1112.92 746.908 1113.12 745.741 1113.1 744.867 1113.1 743.994 1112.88 743.368 1112.42 742.991 1111.96 742.614 1111.2 742.395 1110.13 742.336L1110.51 740.43 1119 740.43 1120.04 742.157C1118.06 747.062 1115.74 751.793 1113.09 756.35 1110.44 760.907 1107.44 765.33 1104.11 769.619 1102.66 771.346 1101.35 772.836 1100.19 774.087 1099.03 775.338 1097.96 776.415 1096.98 777.318 1095.99 778.222 1095.08 778.962 1094.24 779.537 1093.39 780.113 1092.57 780.575 1091.78 780.922 1090.98 781.27 1090.19 781.518 1089.41 781.667 1088.63 781.816 1087.81 781.91 1086.95 781.95 1086.5 781.95 1085.95 781.9 1085.3 781.801 1084.65 781.702 1084.08 781.573 1083.59 781.414L1085.08 774.891 1087.79 774.891 1087.79 775.07C1087.79 776.42 1088.33 777.095 1089.42 777.095 1090.87 777.095 1092.34 776.534 1093.83 775.412 1095.32 774.29 1097.12 772.498 1099.22 770.036 1098.57 766.263 1097.99 763.002 1097.5 760.252 1097 757.501 1096.55 755.158 1096.14 753.222 1095.73 751.286 1095.36 749.713 1095.02 748.501 1094.69 747.29 1094.36 746.347 1094.04 745.672 1093.72 744.997 1093.4 744.535 1093.07 744.287 1092.75 744.038 1092.39 743.914 1092.02 743.914 1091.66 743.914 1091.33 743.959 1091.03 744.048 1090.74 744.138 1090.43 744.321 1090.11 744.599 1089.79 744.877 1089.45 745.27 1089.08 745.776 1088.72 746.282 1088.26 746.943 1087.73 747.757L1085.43 746.267C1086.29 745.016 1087.07 743.974 1087.79 743.14 1088.5 742.306 1089.21 741.646 1089.92 741.159 1090.62 740.673 1091.34 740.325 1092.08 740.117 1092.81 739.908 1093.61 739.804 1094.49 739.804Z" fill-rule="evenodd"/><text fill="#000000" fill-opacity="0" font-family="Arial,Arial_MSFontService,sans-serif" font-size="42.146" x="1083.59" y="776.682">ğ‘¦</text><path d="M1433.19 711.759 1449.97 711.759 1449.52 713.744C1448.34 713.879 1447.41 714.231 1446.75 714.798 1446.09 715.365 1445.62 716.156 1445.35 717.169 1445.08 718.182 1444.94 719.54 1444.94 721.242 1444.94 721.647 1444.98 722.863 1445.07 724.889L1446.2 754.555 1446.2 757.798 1446.61 757.798 1464.15 726.146C1465.18 724.281 1465.95 722.681 1466.46 721.343 1466.98 720.006 1467.23 718.824 1467.23 717.797 1467.23 715.528 1465.88 714.177 1463.18 713.744L1463.63 711.759 1480.2 711.759 1479.76 713.744C1479.03 713.852 1478.33 714.129 1477.67 714.575 1477.01 715.021 1476.27 715.764 1475.44 716.804 1474.62 717.844 1473.34 719.851 1471.61 722.823L1445.67 767.727 1440.28 767.727 1437.57 722.539C1437.46 720.783 1437.26 719.276 1436.98 718.02 1436.7 716.764 1436.25 715.784 1435.64 715.082 1435.04 714.379 1434.07 713.934 1432.75 713.744Z" fill-rule="evenodd"/><text fill="#000000" fill-opacity="0" font-family="Arial,Arial_MSFontService,sans-serif" font-size="55.9683" x="1432.75" y="760.731">ğ‘‰</text><path d="M1487.71 745.559 1489.52 745.559C1489.48 746.651 1489.45 747.629 1489.43 748.493 1489.41 749.356 1489.4 750.195 1489.39 751.01 1489.38 751.824 1489.37 752.628 1489.37 753.422L1489.37 776.059C1489.37 776.674 1489.39 777.206 1489.43 777.652 1489.47 778.099 1489.54 778.476 1489.63 778.784 1489.72 779.092 1489.84 779.355 1489.99 779.573 1490.13 779.792 1490.31 779.981 1490.51 780.139 1490.74 780.378 1491.06 780.561 1491.46 780.69 1491.86 780.82 1492.36 780.929 1492.98 781.018 1493.59 781.107 1494.33 781.177 1495.2 781.227 1496.06 781.276 1497.1 781.311 1498.31 781.331L1498.31 783.922 1474.69 783.922 1474.69 781.331C1475.86 781.291 1476.86 781.246 1477.67 781.197 1478.48 781.147 1479.18 781.078 1479.75 780.988 1480.33 780.899 1480.79 780.8 1481.14 780.69 1481.49 780.581 1481.79 780.447 1482.05 780.288 1482.33 780.11 1482.56 779.916 1482.76 779.708 1482.96 779.499 1483.12 779.236 1483.24 778.918 1483.36 778.601 1483.45 778.213 1483.52 777.757 1483.59 777.3 1483.63 776.734 1483.63 776.059L1483.63 754.703C1483.63 753.928 1483.48 753.382 1483.18 753.065 1482.88 752.747 1482.45 752.588 1481.9 752.588 1481.28 752.588 1480.37 752.906 1479.16 753.541 1477.95 754.177 1476.38 755.12 1474.45 756.371 1474.19 755.914 1473.96 755.457 1473.74 755.001 1473.52 754.544 1473.29 754.077 1473.05 753.601 1475.51 752.251 1477.95 750.905 1480.36 749.565 1482.78 748.225 1485.22 746.889 1487.71 745.559Z" fill-rule="evenodd"/><text fill="#000000" fill-opacity="0" font-family="Arial,Arial_MSFontService,sans-serif" font-size="38.3633" x="1473.05" y="779.127">1</text><path d="M2388 1517.85 2717.67 1517.85 2717.67 1520.15 2388 1520.15ZM2713.09 1505.25 2740.59 1519 2713.09 1532.75Z"/><path d="M2764.29 1546.16 2781.06 1546.16 2780.62 1548.15C2779.43 1548.28 2778.5 1548.63 2777.84 1549.2 2777.18 1549.77 2776.71 1550.56 2776.44 1551.57 2776.17 1552.58 2776.04 1553.94 2776.04 1555.64 2776.04 1556.05 2776.08 1557.26 2776.16 1559.29L2777.29 1588.96 2777.29 1592.2 2777.7 1592.2 2795.25 1560.55C2796.28 1558.68 2797.05 1557.08 2797.56 1555.75 2798.07 1554.41 2798.33 1553.23 2798.33 1552.2 2798.33 1549.93 2796.98 1548.58 2794.28 1548.15L2794.72 1546.16 2811.3 1546.16 2810.85 1548.15C2810.12 1548.25 2809.43 1548.53 2808.76 1548.98 2808.1 1549.42 2807.36 1550.17 2806.54 1551.21 2805.71 1552.25 2804.43 1554.25 2802.71 1557.22L2776.77 1602.13 2771.38 1602.13 2768.66 1556.94C2768.55 1555.18 2768.36 1553.68 2768.07 1552.42 2767.79 1551.17 2767.35 1550.19 2766.74 1549.48 2766.13 1548.78 2765.16 1548.34 2763.84 1548.15Z" fill-rule="evenodd"/><text fill="#000000" fill-opacity="0" font-family="Arial,Arial_MSFontService,sans-serif" font-size="55.9683" x="2763.84" y="1595.13">ğ‘‰</text><path d="M2818.38 1579.75C2820.45 1579.75 2822.21 1579.99 2823.67 1580.45 2825.13 1580.92 2826.31 1581.55 2827.23 1582.34 2828.14 1583.14 2828.8 1584.09 2829.21 1585.2 2829.61 1586.31 2829.82 1587.52 2829.82 1588.81 2829.82 1589.58 2829.76 1590.3 2829.65 1590.97 2829.54 1591.63 2829.36 1592.29 2829.09 1592.93 2828.82 1593.58 2828.47 1594.23 2828.03 1594.88 2827.59 1595.54 2827.05 1596.23 2826.39 1596.97 2825.9 1597.6 2825.25 1598.34 2824.46 1599.17 2823.66 1600.01 2822.79 1600.9 2821.85 1601.85 2820.91 1602.81 2819.92 1603.8 2818.89 1604.83 2817.85 1605.86 2816.85 1606.89 2815.88 1607.9 2814.91 1608.91 2814.01 1609.89 2813.2 1610.85 2812.38 1611.8 2811.72 1612.67 2811.2 1613.47L2822.22 1613.47C2823.16 1613.47 2823.9 1613.43 2824.46 1613.36 2825.01 1613.3 2825.47 1613.14 2825.84 1612.9 2826.21 1612.66 2826.52 1612.3 2826.78 1611.82 2827.04 1611.33 2827.34 1610.66 2827.67 1609.81L2830.44 1609.81C2830.34 1611.22 2830.25 1612.64 2830.16 1614.06 2830.07 1615.49 2829.98 1616.91 2829.88 1618.32L2804.65 1618.32 2804.65 1616.78C2805.13 1615.7 2805.68 1614.65 2806.32 1613.6 2806.95 1612.56 2807.67 1611.5 2808.46 1610.43 2809.26 1609.36 2810.16 1608.25 2811.17 1607.11 2812.18 1605.97 2813.31 1604.78 2814.54 1603.55 2816.4 1601.68 2817.92 1600.09 2819.09 1598.77 2820.27 1597.45 2821.19 1596.27 2821.86 1595.24 2822.54 1594.21 2823 1593.25 2823.25 1592.38 2823.5 1591.51 2823.62 1590.57 2823.62 1589.58 2823.62 1588.57 2823.48 1587.64 2823.19 1586.78 2822.9 1585.93 2822.49 1585.2 2821.95 1584.61 2821.42 1584.01 2820.74 1583.54 2819.91 1583.21 2819.09 1582.87 2818.14 1582.7 2817.07 1582.7 2815.22 1582.7 2813.67 1583.2 2812.42 1584.21 2811.17 1585.21 2810.2 1586.66 2809.5 1588.57L2805.6 1588.57 2805.6 1582.76C2808.14 1581.71 2810.48 1580.94 2812.62 1580.47 2814.75 1579.99 2816.67 1579.75 2818.38 1579.75Z" fill-rule="evenodd"/><text fill="#000000" fill-opacity="0" font-family="Arial,Arial_MSFontService,sans-serif" font-size="38.5718" x="2804.65" y="1613.5">2</text><path d="M2839.54 1611.41 2844.75 1611.41C2845.03 1612.8 2845.17 1614.17 2845.17 1615.52 2845.17 1616.91 2844.93 1618.18 2844.45 1619.34 2843.98 1620.49 2843.22 1621.64 2842.17 1622.78 2841.13 1623.92 2839.7 1625.17 2837.87 1626.54L2836.26 1624.73C2837.27 1623.77 2838.01 1622.92 2838.46 1622.15 2838.92 1621.39 2839.25 1620.52 2839.45 1619.55 2839.65 1618.57 2839.75 1617.35 2839.75 1615.88 2839.75 1614.37 2839.68 1612.88 2839.54 1611.41Z" fill-rule="evenodd"/><text fill="#000000" fill-opacity="0" font-family="Arial,Arial_MSFontService,sans-serif" font-size="15.1309" x="2836.26" y="1624.65">,</text><path d="M2861.37 1587.91C2862.47 1587.91 2863.36 1588.15 2864.06 1588.63 2864.75 1589.1 2865.33 1589.8 2865.78 1590.71 2866.24 1591.63 2866.62 1592.75 2866.91 1594.09 2867.21 1595.43 2867.53 1596.97 2867.87 1598.7L2868.26 1598.7C2869.45 1597.13 2870.48 1595.77 2871.35 1594.61 2872.23 1593.46 2873.01 1592.49 2873.69 1591.7 2874.38 1590.9 2874.99 1590.26 2875.54 1589.76 2876.08 1589.26 2876.61 1588.88 2877.13 1588.61 2877.65 1588.35 2878.18 1588.16 2878.72 1588.06 2879.27 1587.96 2879.88 1587.91 2880.56 1587.91 2881.55 1587.91 2882.45 1588.09 2883.27 1588.45L2881.78 1594.32 2879.31 1594.32C2879.25 1593.46 2878.93 1593.04 2878.35 1593.04 2878.13 1593.04 2877.9 1593.08 2877.64 1593.16 2877.38 1593.23 2877.07 1593.39 2876.71 1593.63 2876.36 1593.87 2875.94 1594.2 2875.48 1594.63 2875.01 1595.06 2874.46 1595.61 2873.82 1596.3 2873.19 1596.98 2872.46 1597.82 2871.65 1598.81 2870.84 1599.81 2869.9 1600.98 2868.85 1602.33 2869.39 1605.07 2869.85 1607.26 2870.24 1608.91 2870.62 1610.56 2871 1611.82 2871.35 1612.69 2871.71 1613.57 2872.07 1614.14 2872.43 1614.41 2872.78 1614.68 2873.19 1614.81 2873.65 1614.81 2873.98 1614.81 2874.3 1614.77 2874.58 1614.69 2874.87 1614.61 2875.17 1614.44 2875.48 1614.17 2875.79 1613.9 2876.13 1613.51 2876.51 1613.01 2876.88 1612.5 2877.33 1611.83 2877.85 1611L2880.08 1612.46C2879.21 1613.77 2878.43 1614.84 2877.76 1615.67 2877.08 1616.51 2876.43 1617.16 2875.79 1617.64 2875.16 1618.12 2874.5 1618.44 2873.82 1618.61 2873.15 1618.78 2872.38 1618.86 2871.5 1618.86 2870.75 1618.86 2870.07 1618.76 2869.48 1618.55 2868.88 1618.34 2868.36 1617.96 2867.93 1617.4 2867.63 1617.06 2867.35 1616.61 2867.09 1616.05 2866.84 1615.48 2866.6 1614.87 2866.38 1614.21 2866.16 1613.56 2865.96 1612.88 2865.78 1612.17 2865.6 1611.47 2865.46 1610.81 2865.34 1610.19 2865.22 1609.58 2865.12 1609.03 2865.05 1608.54 2864.98 1608.05 2864.94 1607.69 2864.92 1607.45L2864.59 1607.45C2863.4 1609.04 2862.36 1610.43 2861.48 1611.61 2860.6 1612.79 2859.8 1613.8 2859.08 1614.65 2858.37 1615.49 2857.72 1616.18 2857.15 1616.73 2856.57 1617.28 2856 1617.71 2855.45 1618.03 2854.89 1618.34 2854.32 1618.56 2853.73 1618.68 2853.15 1618.8 2852.5 1618.86 2851.78 1618.86 2850.75 1618.86 2849.87 1618.68 2849.13 1618.32L2850.5 1612.52 2853.03 1612.52C2853.09 1613.39 2853.42 1613.83 2854.02 1613.83 2854.24 1613.81 2854.45 1613.77 2854.66 1613.71 2854.87 1613.65 2855.11 1613.52 2855.39 1613.33 2855.67 1613.15 2856.02 1612.85 2856.45 1612.44 2856.87 1612.03 2857.41 1611.47 2858.07 1610.74 2858.72 1610.02 2859.53 1609.11 2860.48 1608.02 2861.43 1606.93 2862.58 1605.58 2863.91 1603.97 2863.55 1602.3 2863.24 1600.85 2862.97 1599.62 2862.7 1598.39 2862.45 1597.33 2862.22 1596.45 2862 1595.56 2861.77 1594.84 2861.55 1594.29 2861.33 1593.73 2861.11 1593.29 2860.88 1592.96 2860.66 1592.63 2860.41 1592.4 2860.14 1592.26 2859.87 1592.12 2859.56 1592.04 2859.2 1592.02 2858.86 1592.02 2858.55 1592.08 2858.26 1592.19 2857.97 1592.3 2857.68 1592.49 2857.37 1592.77 2857.06 1593.05 2856.72 1593.43 2856.36 1593.93 2855.99 1594.43 2855.57 1595.07 2855.09 1595.87L2852.8 1594.38C2853.61 1593.17 2854.35 1592.14 2855 1591.31 2855.66 1590.47 2856.3 1589.81 2856.94 1589.31 2857.57 1588.82 2858.24 1588.46 2858.95 1588.24 2859.65 1588.02 2860.46 1587.91 2861.37 1587.91Z" fill-rule="evenodd"/><text fill="#000000" fill-opacity="0" font-family="Arial,Arial_MSFontService,sans-serif" font-size="30.9468" x="2849.13" y="1614.99">ğ‘¥</text><path d="M2389.04 1518.52 2718.57 2224.59 2716.49 2225.56 2386.96 1519.48ZM2728.05 2215.1 2727.22 2245.83 2703.13 2226.73Z"/><path d="M2389.15 1522 2389.15 2225.92 2386.85 2225.92 2386.85 1522ZM2401.75 2221.34 2388 2248.84 2374.25 2221.34Z"/><path d="M2422.23 2227.72 2439.01 2227.72 2438.56 2229.71C2437.38 2229.84 2436.45 2230.19 2435.79 2230.76 2435.13 2231.33 2434.66 2232.12 2434.39 2233.13 2434.12 2234.14 2433.98 2235.5 2433.98 2237.2 2433.98 2237.61 2434.02 2238.83 2434.11 2240.85L2435.24 2270.52 2435.24 2273.76 2435.65 2273.76 2453.19 2242.11C2454.22 2240.24 2454.99 2238.64 2455.5 2237.31 2456.02 2235.97 2456.27 2234.79 2456.27 2233.76 2456.27 2231.49 2454.92 2230.14 2452.22 2229.71L2452.67 2227.72 2469.24 2227.72 2468.8 2229.71C2468.07 2229.81 2467.37 2230.09 2466.71 2230.54 2466.05 2230.98 2465.31 2231.73 2464.48 2232.77 2463.66 2233.81 2462.38 2235.81 2460.65 2238.78L2434.71 2283.69 2429.32 2283.69 2426.61 2238.5C2426.5 2236.75 2426.3 2235.24 2426.02 2233.98 2425.74 2232.73 2425.29 2231.75 2424.68 2231.04 2424.08 2230.34 2423.11 2229.9 2421.79 2229.71Z" fill-rule="evenodd"/><text fill="#000000" fill-opacity="0" font-family="Arial,Arial_MSFontService,sans-serif" font-size="55.9683" x="2421.79" y="2276.69">ğ‘‰</text><path d="M2476.33 2261.31C2478.39 2261.31 2480.15 2261.55 2481.61 2262.01 2483.07 2262.48 2484.26 2263.11 2485.17 2263.9 2486.09 2264.7 2486.75 2265.65 2487.15 2266.76 2487.56 2267.88 2487.76 2269.08 2487.76 2270.37 2487.76 2271.14 2487.71 2271.86 2487.6 2272.53 2487.49 2273.19 2487.3 2273.85 2487.03 2274.49 2486.77 2275.14 2486.41 2275.79 2485.98 2276.44 2485.54 2277.1 2484.99 2277.79 2484.34 2278.53 2483.84 2279.16 2483.2 2279.9 2482.4 2280.73 2481.61 2281.57 2480.74 2282.46 2479.8 2283.41 2478.85 2284.37 2477.86 2285.36 2476.83 2286.39 2475.8 2287.42 2474.8 2288.45 2473.82 2289.46 2472.85 2290.47 2471.96 2291.46 2471.14 2292.41 2470.33 2293.36 2469.66 2294.24 2469.15 2295.03L2480.17 2295.03C2481.1 2295.03 2481.85 2294.99 2482.4 2294.93 2482.96 2294.86 2483.42 2294.7 2483.79 2294.46 2484.15 2294.23 2484.47 2293.86 2484.73 2293.38 2484.98 2292.89 2485.28 2292.22 2485.62 2291.37L2488.39 2291.37C2488.29 2292.78 2488.2 2294.2 2488.11 2295.63 2488.02 2297.05 2487.92 2298.47 2487.82 2299.88L2462.59 2299.88 2462.59 2298.34C2463.07 2297.26 2463.63 2296.21 2464.26 2295.16 2464.9 2294.12 2465.61 2293.06 2466.41 2291.99 2467.2 2290.92 2468.1 2289.81 2469.12 2288.67 2470.13 2287.53 2471.25 2286.34 2472.48 2285.11 2474.35 2283.24 2475.87 2281.65 2477.04 2280.33 2478.21 2279.01 2479.14 2277.83 2479.81 2276.8 2480.49 2275.77 2480.95 2274.82 2481.2 2273.94 2481.44 2273.07 2481.57 2272.13 2481.57 2271.14 2481.57 2270.13 2481.42 2269.2 2481.14 2268.34 2480.85 2267.49 2480.44 2266.76 2479.9 2266.17 2479.36 2265.57 2478.68 2265.11 2477.86 2264.77 2477.04 2264.43 2476.09 2264.26 2475.02 2264.26 2473.17 2264.26 2471.62 2264.76 2470.37 2265.77 2469.12 2266.77 2468.14 2268.22 2467.45 2270.13L2463.55 2270.13 2463.55 2264.32C2466.09 2263.27 2468.43 2262.5 2470.56 2262.03 2472.7 2261.55 2474.62 2261.31 2476.33 2261.31Z" fill-rule="evenodd"/><text fill="#000000" fill-opacity="0" font-family="Arial,Arial_MSFontService,sans-serif" font-size="38.5718" x="2462.59" y="2295.06">2</text><path d="M2497.48 2292.97 2502.7 2292.97C2502.97 2294.36 2503.11 2295.73 2503.11 2297.08 2503.11 2298.47 2502.87 2299.75 2502.4 2300.9 2501.92 2302.05 2501.16 2303.2 2500.12 2304.34 2499.08 2305.48 2497.64 2306.74 2495.81 2308.11L2494.21 2306.29C2495.22 2305.34 2495.95 2304.48 2496.41 2303.71 2496.87 2302.95 2497.2 2302.08 2497.39 2301.11 2497.59 2300.13 2497.69 2298.91 2497.69 2297.44 2497.69 2295.93 2497.62 2294.44 2497.48 2292.97Z" fill-rule="evenodd"/><text fill="#000000" fill-opacity="0" font-family="Arial,Arial_MSFontService,sans-serif" font-size="15.1309" x="2494.21" y="2306.21">,</text><path d="M2517.74 2269.47C2518.46 2269.47 2519.07 2269.55 2519.59 2269.7 2520.1 2269.85 2520.57 2270.08 2520.99 2270.4 2521.41 2270.71 2521.78 2271.13 2522.11 2271.63 2522.43 2272.14 2522.77 2272.75 2523.1 2273.47 2523.28 2273.9 2523.47 2274.53 2523.67 2275.34 2523.87 2276.16 2524.08 2277.1 2524.29 2278.17 2524.51 2279.24 2524.73 2280.42 2524.95 2281.72 2525.17 2283.01 2525.39 2284.36 2525.61 2285.77 2525.82 2287.18 2526.03 2288.62 2526.23 2290.1 2526.43 2291.58 2526.62 2293.03 2526.8 2294.46 2528.29 2292.52 2529.63 2290.55 2530.82 2288.55 2532.01 2286.56 2533.02 2284.67 2533.84 2282.89 2534.66 2281.11 2535.3 2279.5 2535.73 2278.04 2536.17 2276.58 2536.38 2275.41 2536.36 2274.54 2536.36 2273.66 2536.13 2273.04 2535.67 2272.66 2535.22 2272.28 2534.45 2272.07 2533.38 2272.01L2533.77 2270.1 2542.26 2270.1 2543.3 2271.83C2541.31 2276.73 2538.99 2281.46 2536.34 2286.02 2533.69 2290.58 2530.7 2295 2527.36 2299.29 2525.91 2301.02 2524.61 2302.51 2523.45 2303.76 2522.28 2305.01 2521.21 2306.08 2520.23 2306.99 2519.25 2307.89 2518.33 2308.63 2517.49 2309.21 2516.64 2309.78 2515.83 2310.24 2515.03 2310.59 2514.24 2310.94 2513.45 2311.19 2512.66 2311.34 2511.88 2311.49 2511.06 2311.58 2510.21 2311.62 2509.75 2311.62 2509.2 2311.57 2508.55 2311.47 2507.91 2311.37 2507.34 2311.24 2506.84 2311.08L2508.33 2304.56 2511.04 2304.56 2511.04 2304.74C2511.04 2306.09 2511.59 2306.76 2512.68 2306.76 2514.13 2306.76 2515.6 2306.2 2517.09 2305.08 2518.58 2303.96 2520.37 2302.17 2522.48 2299.71 2521.82 2295.93 2521.25 2292.67 2520.75 2289.92 2520.25 2287.17 2519.8 2284.83 2519.4 2282.89 2518.99 2280.96 2518.62 2279.38 2518.28 2278.17 2517.94 2276.96 2517.61 2276.02 2517.3 2275.34 2516.98 2274.67 2516.65 2274.2 2516.33 2273.96 2516 2273.71 2515.65 2273.58 2515.27 2273.58 2514.91 2273.58 2514.58 2273.63 2514.29 2273.72 2513.99 2273.81 2513.68 2273.99 2513.36 2274.27 2513.05 2274.55 2512.7 2274.94 2512.34 2275.45 2511.97 2275.95 2511.52 2276.61 2510.98 2277.43L2508.69 2275.94C2509.54 2274.69 2510.33 2273.64 2511.04 2272.81 2511.76 2271.98 2512.47 2271.32 2513.17 2270.83 2513.87 2270.34 2514.59 2270 2515.33 2269.79 2516.06 2269.58 2516.87 2269.47 2517.74 2269.47Z" fill-rule="evenodd"/><text fill="#000000" fill-opacity="0" font-family="Arial,Arial_MSFontService,sans-serif" font-size="42.146" x="2506.84" y="2306.35">ğ‘¦</text><path d="M2782.03 2235.22 2798.81 2235.22 2798.36 2237.2C2797.17 2237.34 2796.25 2237.69 2795.59 2238.26 2794.92 2238.83 2794.46 2239.62 2794.19 2240.63 2793.92 2241.64 2793.78 2243 2793.78 2244.7 2793.78 2245.11 2793.82 2246.32 2793.9 2248.35L2795.04 2278.02 2795.04 2281.26 2795.44 2281.26 2812.99 2249.61C2814.02 2247.74 2814.79 2246.14 2815.3 2244.8 2815.82 2243.47 2816.07 2242.28 2816.07 2241.26 2816.07 2238.99 2814.72 2237.64 2812.02 2237.2L2812.47 2235.22 2829.04 2235.22 2828.6 2237.2C2827.87 2237.31 2827.17 2237.59 2826.51 2238.04 2825.85 2238.48 2825.1 2239.22 2824.28 2240.26 2823.46 2241.3 2822.18 2243.31 2820.45 2246.28L2794.51 2291.19 2789.12 2291.19 2786.41 2246C2786.3 2244.24 2786.1 2242.74 2785.82 2241.48 2785.54 2240.22 2785.09 2239.24 2784.48 2238.54 2783.87 2237.84 2782.91 2237.39 2781.58 2237.2Z" fill-rule="evenodd"/><text fill="#000000" fill-opacity="0" font-family="Arial,Arial_MSFontService,sans-serif" font-size="55.9683" x="2781.58" y="2284.19">ğ‘‰</text><path d="M2836.12 2268.81C2838.19 2268.81 2839.95 2269.04 2841.41 2269.51 2842.87 2269.98 2844.06 2270.61 2844.97 2271.4 2845.88 2272.2 2846.54 2273.15 2846.95 2274.26 2847.36 2275.37 2847.56 2276.57 2847.56 2277.87 2847.56 2278.64 2847.51 2279.36 2847.4 2280.02 2847.29 2280.69 2847.1 2281.35 2846.83 2281.99 2846.56 2282.64 2846.21 2283.29 2845.77 2283.94 2845.34 2284.6 2844.79 2285.29 2844.14 2286.03 2843.64 2286.66 2842.99 2287.4 2842.2 2288.23 2841.41 2289.06 2840.54 2289.96 2839.59 2290.91 2838.65 2291.86 2837.66 2292.86 2836.63 2293.89 2835.6 2294.92 2834.59 2295.94 2833.62 2296.96 2832.65 2297.97 2831.76 2298.95 2830.94 2299.91 2830.13 2300.86 2829.46 2301.73 2828.95 2302.53L2839.97 2302.53C2840.9 2302.53 2841.64 2302.49 2842.2 2302.42 2842.76 2302.35 2843.22 2302.2 2843.59 2301.96 2843.95 2301.72 2844.27 2301.36 2844.52 2300.87 2844.78 2300.39 2845.08 2299.72 2845.42 2298.86L2848.19 2298.86C2848.09 2300.27 2847.99 2301.69 2847.9 2303.12 2847.81 2304.55 2847.72 2305.97 2847.62 2307.38L2822.39 2307.38 2822.39 2305.83C2822.87 2304.76 2823.43 2303.7 2824.06 2302.66 2824.7 2301.62 2825.41 2300.56 2826.21 2299.49 2827 2298.42 2827.9 2297.31 2828.92 2296.17 2829.93 2295.03 2831.05 2293.84 2832.28 2292.61 2834.15 2290.74 2835.67 2289.15 2836.84 2287.83 2838.01 2286.51 2838.93 2285.33 2839.61 2284.3 2840.28 2283.27 2840.75 2282.31 2840.99 2281.44 2841.24 2280.57 2841.37 2279.63 2841.37 2278.64 2841.37 2277.63 2841.22 2276.69 2840.93 2275.84 2840.65 2274.99 2840.23 2274.26 2839.7 2273.67 2839.16 2273.07 2838.48 2272.6 2837.66 2272.27 2836.83 2271.93 2835.89 2271.76 2834.81 2271.76 2832.97 2271.76 2831.42 2272.26 2830.17 2273.26 2828.92 2274.27 2827.94 2275.72 2827.25 2277.63L2823.35 2277.63 2823.35 2271.82C2825.89 2270.77 2828.23 2270 2830.36 2269.53 2832.5 2269.05 2834.42 2268.81 2836.12 2268.81Z" fill-rule="evenodd"/><text fill="#000000" fill-opacity="0" font-family="Arial,Arial_MSFontService,sans-serif" font-size="38.5718" x="2822.39" y="2302.56">2</text><path d="M1.14583-1.67973e-06 1.14616 223.267-1.14551 223.267-1.14583 1.67973e-06ZM13.7503 218.684 0.000360892 246.184-13.7497 218.684Z" transform="matrix(1 0 0 -1 1817 418.184)"/><path d="M1949.48 297.623C1946.67 297.623 1944.21 298.799 1942.12 301.149 1940.03 303.5 1938.38 306.863 1937.18 311.24 1935.97 315.617 1935.37 319.386 1935.37 322.548 1935.37 325.52 1935.99 327.715 1937.22 329.133 1938.45 330.552 1940.3 331.261 1942.79 331.261 1945.44 331.261 1947.79 330.072 1949.84 327.695 1951.89 325.317 1953.51 321.987 1954.7 317.705 1955.89 313.422 1956.49 309.66 1956.49 306.418 1956.49 303.5 1955.92 301.305 1954.78 299.832 1953.65 298.359 1951.88 297.623 1949.48 297.623ZM2070.88 297.542C2068.15 297.542 2065.52 298.92 2063 301.676 2060.47 304.432 2058.53 308.16 2057.18 312.862 2060.99 312.835 2064.26 312.49 2066.99 311.828 2069.72 311.166 2071.81 310.112 2073.27 308.667 2074.73 307.221 2075.46 305.269 2075.46 302.811 2075.46 301.163 2075.08 299.873 2074.31 298.94 2073.54 298.008 2072.39 297.542 2070.88 297.542ZM2033.65 294.381C2037.24 294.381 2040.55 294.786 2043.58 295.597L2041.59 304.756 2037.34 304.756C2037.28 302.703 2037.12 301.217 2036.83 300.298 2036.55 299.379 2036.09 298.69 2035.45 298.231 2034.82 297.772 2033.92 297.542 2032.76 297.542 2030.03 297.542 2027.58 298.63 2025.4 300.805 2023.23 302.98 2021.45 306.06 2020.07 310.045 2018.7 314.03 2018.01 317.86 2018.01 321.534 2018.01 324.29 2018.55 326.337 2019.63 327.674 2020.71 329.012 2022.33 329.68 2024.49 329.68 2026.95 329.68 2029.08 329.214 2030.87 328.282 2032.67 327.35 2034.57 325.884 2036.57 323.885L2039.04 326.357C2036.5 329.167 2033.94 331.22 2031.36 332.517 2028.78 333.814 2026 334.463 2023.03 334.463 2019.12 334.463 2016.14 333.301 2014.12 330.977 2012.09 328.654 2011.08 325.276 2011.08 320.845 2011.08 317.954 2011.62 314.78 2012.7 311.322 2013.78 307.863 2015.36 304.824 2017.44 302.203 2019.52 299.582 2021.95 297.623 2024.73 296.326 2027.52 295.03 2030.49 294.381 2033.65 294.381ZM1950.29 294.381C1954.61 294.381 1957.91 295.563 1960.17 297.927 1962.44 300.291 1963.58 303.675 1963.58 308.079 1963.58 311.213 1963.03 314.564 1961.94 318.13 1960.84 321.697 1959.34 324.696 1957.44 327.127 1955.53 329.559 1953.26 331.389 1950.61 332.619 1947.96 333.848 1944.92 334.463 1941.49 334.463 1937.3 334.463 1934.05 333.287 1931.74 330.937 1929.43 328.586 1928.28 325.209 1928.28 320.805 1928.28 318.643 1928.6 316.144 1929.25 313.307 1930.09 309.471 1931.49 306.12 1933.47 303.257 1935.44 300.393 1937.87 298.197 1940.76 296.671 1943.65 295.144 1946.83 294.381 1950.29 294.381ZM2072.34 294.341C2075.61 294.341 2078.06 295.003 2079.7 296.326 2081.33 297.65 2082.15 299.717 2082.15 302.527 2082.15 307.12 2079.99 310.565 2075.68 312.862 2071.37 315.158 2064.98 316.306 2056.49 316.306 2056.17 317.927 2056.01 319.684 2056.01 321.575 2056.01 324.412 2056.56 326.472 2057.67 327.755 2058.78 329.039 2060.59 329.68 2063.1 329.68 2065.59 329.68 2067.83 329.14 2069.85 328.059 2071.86 326.979 2073.99 325.317 2076.23 323.074L2078.74 325.709C2076.12 328.6 2073.47 330.775 2070.78 332.234 2068.09 333.693 2064.96 334.422 2061.4 334.422 2057.48 334.422 2054.45 333.227 2052.3 330.835 2050.15 328.444 2049.08 325.114 2049.08 320.845 2049.08 317.954 2049.6 314.854 2050.64 311.544 2051.68 308.235 2053.25 305.263 2055.36 302.628 2057.47 299.994 2059.99 297.954 2062.94 296.509 2065.88 295.063 2069.02 294.341 2072.34 294.341ZM1981.55 294.341C1983.25 294.341 1984.59 294.901 1985.58 296.022 1986.57 297.144 1987.06 298.609 1987.06 300.42 1987.06 301.771 1986.8 303.162 1986.29 304.594L1986.82 304.797C1989.46 301.203 1992.01 298.569 1994.46 296.894 1996.9 295.219 1999.38 294.381 2001.89 294.381 2003.86 294.381 2005.51 294.53 2006.84 294.827L2004.89 303.905 2000.72 303.905C2000.55 302.77 2000.33 301.892 2000.03 301.271 1999.73 300.649 1999.38 300.217 1998.97 299.974 1998.57 299.731 1998.06 299.609 1997.43 299.609 1996.46 299.609 1995.4 300.028 1994.25 300.865 1993.1 301.703 1991.81 303.013 1990.38 304.797 1988.95 306.58 1987.81 308.295 1986.96 309.944 1986.11 311.592 1985.4 313.686 1984.83 316.225L1980.98 333.774 1973.97 333.774 1979.85 308.079C1980.22 306.458 1980.47 305.202 1980.57 304.31 1980.68 303.419 1980.74 302.676 1980.74 302.081 1980.74 301.001 1980.56 300.217 1980.21 299.731 1979.86 299.244 1979.3 299.001 1978.55 299.001 1977.71 299.001 1976.83 299.346 1975.89 300.035 1974.96 300.724 1973.69 301.973 1972.06 303.783L1969.75 301.514C1972.24 298.92 1974.32 297.076 1976 295.982 1977.67 294.888 1979.52 294.341 1981.55 294.341ZM1886.75 278.454 1923.31 278.454 1920.51 290.896 1916.62 290.896C1916.51 288.815 1916.34 287.174 1916.11 285.972 1915.88 284.769 1915.56 283.905 1915.14 283.378 1914.72 282.851 1914.21 282.493 1913.62 282.304 1913.03 282.115 1912.13 282.02 1910.94 282.02L1898.46 282.02 1893.64 304.067 1901.22 304.067C1902.41 304.067 1903.39 303.905 1904.18 303.581 1904.96 303.257 1905.69 302.669 1906.37 301.818 1907.04 300.967 1907.88 299.515 1908.88 297.461L1912.57 297.461 1908.63 314.564 1905.07 314.564C1905.07 311.835 1904.98 310.126 1904.8 309.437 1904.63 308.748 1904.29 308.275 1903.79 308.019 1903.29 307.762 1902.3 307.634 1900.81 307.634L1892.87 307.634 1889.67 321.98C1889.1 324.52 1888.82 326.627 1888.82 328.302 1888.82 329.14 1888.95 329.795 1889.22 330.268 1889.49 330.741 1889.9 331.085 1890.44 331.301 1890.98 331.518 1891.91 331.68 1893.23 331.788L1892.79 333.774 1876.13 333.774 1876.58 331.788C1877.6 331.626 1878.37 331.362 1878.89 330.998 1879.4 330.633 1879.83 330.126 1880.18 329.478 1880.54 328.829 1880.86 328.039 1881.16 327.107 1881.45 326.175 1881.9 324.371 1882.49 321.697L1889.38 290.49C1889.98 287.789 1890.28 285.654 1890.28 284.087 1890.28 282.763 1889.97 281.845 1889.34 281.331 1888.72 280.818 1887.71 280.521 1886.3 280.44Z" fill-rule="evenodd"/><text fill="#000000" fill-opacity="0" font-family="Arial,Arial_MSFontService,sans-serif" font-size="56.0088" x="1876.13" y="327.462">ğ¹ğ‘œğ‘Ÿğ‘ğ‘’</text><path d="M1.14583-1.67973e-06 1.14616 223.267-1.14551 223.267-1.14583 1.67973e-06ZM13.7503 218.684 0.000360892 246.184-13.7497 218.684Z" fill="#4472C4" transform="matrix(1 0 0 -1 2121 418.184)"/><text fill="#4472C4" font-family="Arial,Arial_MSFontService,sans-serif" font-weight="400" font-size="83" transform="matrix(1 0 0 1 2155.96 334)">Turbine</text><path d="M2475.15 181 2475.15 404.267 2472.85 404.267 2472.85 181ZM2487.75 399.684 2474 427.184 2460.25 399.684Z" fill="#FF0000"/><text fill="#FF0000" font-family="Arial,Arial_MSFontService,sans-serif" font-weight="400" font-size="83" transform="matrix(1 0 0 1 2524.87 334)">Pump</text></g></svg>