<svg width="5320" height="2116" xmlns="http://www.w3.org/2000/svg" xmlns:xlink="http://www.w3.org/1999/xlink" xml:space="preserve" overflow="hidden"><defs><clipPath id="clip0"><rect x="-790" y="-225" width="5320" height="2116"/></clipPath></defs><g clip-path="url(#clip0)" transform="translate(790 225)"><path d="M-11 1056 154 1056 121 1186 22 1186Z" stroke="#000000" stroke-width="10.3125" stroke-miterlimit="8" fill="none" fill-rule="evenodd"/><path d="M0 144 0 81.0003C-1.37498e-14 46.2063 28.206 18.0002 63 18.0002L180 18 180 0 216 36 180 72.0003 180 54 63 54C48.0883 54 36 66.0883 36 81L36 144Z" stroke="#000000" stroke-width="10.3125" stroke-miterlimit="8" fill="#FFFFFF" fill-rule="evenodd" transform="matrix(-1.83697e-16 -1 -1 1.83697e-16 99.0002 1166)"/><rect x="0" y="0" width="13.0001" height="79.0001" stroke="#000000" stroke-width="10.3125" stroke-miterlimit="8" fill="#FFFFFF" transform="matrix(1 0 0 -1 -58.0001 1186)"/><path d="M-45.0003 151 17.9998 151C52.7939 151 81 179.206 81 214L81 331 99 331 62.9999 367 26.9999 331 44.9999 331 44.9999 214C44.9999 199.088 32.9116 187 17.9998 187L-45.0003 187Z" stroke="#000000" stroke-width="10.3125" stroke-miterlimit="8" fill="none" fill-rule="evenodd"/><rect x="210" y="364" width="4040" height="45" stroke="#000000" stroke-width="10.3125" stroke-miterlimit="8" fill="none"/><rect x="245.5" y="322.5" width="7.00023" height="130" stroke="#000000" stroke-width="4.58333" stroke-miterlimit="8"/><rect x="300.5" y="322.5" width="7.00024" height="130" stroke="#000000" stroke-width="4.58333" stroke-miterlimit="8"/><rect x="355.5" y="322.5" width="7.00024" height="130" stroke="#000000" stroke-width="4.58333" stroke-miterlimit="8"/><rect x="410.5" y="322.5" width="7.00024" height="130" stroke="#000000" stroke-width="4.58333" stroke-miterlimit="8"/><rect x="465.5" y="322.5" width="7.00024" height="130" stroke="#000000" stroke-width="4.58333" stroke-miterlimit="8"/><rect x="520.5" y="322.5" width="7.00024" height="130" stroke="#000000" stroke-width="4.58333" stroke-miterlimit="8"/><rect x="575.5" y="322.5" width="7.00024" height="130" stroke="#000000" stroke-width="4.58333" stroke-miterlimit="8"/><rect x="630.5" y="322.5" width="7.00024" height="130" stroke="#000000" stroke-width="4.58333" stroke-miterlimit="8"/><rect x="685.5" y="322.5" width="7.00024" height="130" stroke="#000000" stroke-width="4.58333" stroke-miterlimit="8"/><rect x="740.5" y="322.5" width="7.00024" height="130" stroke="#000000" stroke-width="4.58333" stroke-miterlimit="8"/><rect x="795.5" y="322.5" width="7.00024" height="130" stroke="#000000" stroke-width="4.58333" stroke-miterlimit="8"/><rect x="850.5" y="322.5" width="7.00024" height="130" stroke="#000000" stroke-width="4.58333" stroke-miterlimit="8"/><rect x="905.5" y="322.5" width="7.00024" height="130" stroke="#000000" stroke-width="4.58333" stroke-miterlimit="8"/><rect x="960.5" y="322.5" width="7.00024" height="130" stroke="#000000" stroke-width="4.58333" stroke-miterlimit="8"/><rect x="1015.5" y="322.5" width="7.00024" height="130" stroke="#000000" stroke-width="4.58333" stroke-miterlimit="8"/><rect x="1070.5" y="322.5" width="7.00024" height="130" stroke="#000000" stroke-width="4.58333" stroke-miterlimit="8"/><rect x="1125.5" y="322.5" width="7.00024" height="130" stroke="#000000" stroke-width="4.58333" stroke-miterlimit="8"/><rect x="1180.5" y="322.5" width="7.00024" height="130" stroke="#000000" stroke-width="4.58333" stroke-miterlimit="8"/><rect x="1235.5" y="322.5" width="7.00024" height="130" stroke="#000000" stroke-width="4.58333" stroke-miterlimit="8"/><rect x="1290.5" y="322.5" width="7.00024" height="130" stroke="#000000" stroke-width="4.58333" stroke-miterlimit="8"/><rect x="1345.5" y="322.5" width="7.00024" height="130" stroke="#000000" stroke-width="4.58333" stroke-miterlimit="8"/><rect x="1400.5" y="322.5" width="7.00024" height="130" stroke="#000000" stroke-width="4.58333" stroke-miterlimit="8"/><rect x="1455.5" y="322.5" width="7.00024" height="130" stroke="#000000" stroke-width="4.58333" stroke-miterlimit="8"/><rect x="1510.5" y="322.5" width="7.00024" height="130" stroke="#000000" stroke-width="4.58333" stroke-miterlimit="8"/><rect x="1565.5" y="322.5" width="7.00024" height="130" stroke="#000000" stroke-width="4.58333" stroke-miterlimit="8"/><rect x="1620.5" y="322.5" width="7.00024" height="130" stroke="#000000" stroke-width="4.58333" stroke-miterlimit="8"/><rect x="1675.5" y="322.5" width="7.00024" height="130" stroke="#000000" stroke-width="4.58333" stroke-miterlimit="8"/><rect x="1730.5" y="322.5" width="7.00024" height="130" stroke="#000000" stroke-width="4.58333" stroke-miterlimit="8"/><rect x="1785.5" y="322.5" width="7.00024" height="130" stroke="#000000" stroke-width="4.58333" stroke-miterlimit="8"/><rect x="1840.5" y="322.5" width="7.00024" height="130" stroke="#000000" stroke-width="4.58333" stroke-miterlimit="8"/><rect x="1895.5" y="322.5" width="7.00024" height="130" stroke="#000000" stroke-width="4.58333" stroke-miterlimit="8"/><rect x="1950.5" y="322.5" width="7.00024" height="130" stroke="#000000" stroke-width="4.58333" stroke-miterlimit="8"/><rect x="2005.5" y="322.5" width="7.00024" height="130" stroke="#000000" stroke-width="4.58333" stroke-miterlimit="8"/><rect x="2060.5" y="322.5" width="7.00024" height="130" stroke="#000000" stroke-width="4.58333" stroke-miterlimit="8"/><rect x="2115.5" y="322.5" width="7.00024" height="130" stroke="#000000" stroke-width="4.58333" stroke-miterlimit="8"/><rect x="2170.5" y="322.5" width="7.00024" height="130" stroke="#000000" stroke-width="4.58333" stroke-miterlimit="8"/><rect x="2225.5" y="322.5" width="7.00024" height="130" stroke="#000000" stroke-width="4.58333" stroke-miterlimit="8"/><rect x="2280.5" y="322.5" width="7.00024" height="130" stroke="#000000" stroke-width="4.58333" stroke-miterlimit="8"/><rect x="2335.5" y="322.5" width="7.00024" height="130" stroke="#000000" stroke-width="4.58333" stroke-miterlimit="8"/><rect x="2390.5" y="322.5" width="7.00024" height="130" stroke="#000000" stroke-width="4.58333" stroke-miterlimit="8"/><rect x="2445.5" y="322.5" width="7.00024" height="130" stroke="#000000" stroke-width="4.58333" stroke-miterlimit="8"/><rect x="2500.5" y="322.5" width="7.00024" height="130" stroke="#000000" stroke-width="4.58333" stroke-miterlimit="8"/><rect x="2555.5" y="322.5" width="7.00024" height="130" stroke="#000000" stroke-width="4.58333" stroke-miterlimit="8"/><rect x="2610.5" y="322.5" width="7.00024" height="130" stroke="#000000" stroke-width="4.58333" stroke-miterlimit="8"/><rect x="2665.5" y="322.5" width="7.00024" height="130" stroke="#000000" stroke-width="4.58333" stroke-miterlimit="8"/><rect x="2720.5" y="322.5" width="7.00024" height="130" stroke="#000000" stroke-width="4.58333" stroke-miterlimit="8"/><rect x="2775.5" y="322.5" width="7.00024" height="130" stroke="#000000" stroke-width="4.58333" stroke-miterlimit="8"/><rect x="2830.5" y="322.5" width="7.00024" height="130" stroke="#000000" stroke-width="4.58333" stroke-miterlimit="8"/><rect x="2885.5" y="322.5" width="7.00024" height="130" stroke="#000000" stroke-width="4.58333" stroke-miterlimit="8"/><rect x="2940.5" y="322.5" width="7.00024" height="130" stroke="#000000" stroke-width="4.58333" stroke-miterlimit="8"/><rect x="2995.5" y="322.5" width="7.00024" height="130" stroke="#000000" stroke-width="4.58333" stroke-miterlimit="8"/><rect x="3050.5" y="322.5" width="7.00024" height="130" stroke="#000000" stroke-width="4.58333" stroke-miterlimit="8"/><rect x="3105.5" y="322.5" width="7.00024" height="130" stroke="#000000" stroke-width="4.58333" stroke-miterlimit="8"/><rect x="3160.5" y="322.5" width="7.00024" height="130" stroke="#000000" stroke-width="4.58333" stroke-miterlimit="8"/><rect x="3215.5" y="322.5" width="7.00024" height="130" stroke="#000000" stroke-width="4.58333" stroke-miterlimit="8"/><rect x="3270.5" y="322.5" width="7.00024" height="130" stroke="#000000" stroke-width="4.58333" stroke-miterlimit="8"/><rect x="3325.5" y="322.5" width="7.00024" height="130" stroke="#000000" stroke-width="4.58333" stroke-miterlimit="8"/><rect x="3380.5" y="322.5" width="7.00024" height="130" stroke="#000000" stroke-width="4.58333" stroke-miterlimit="8"/><rect x="3435.5" y="322.5" width="7.00024" height="130" stroke="#000000" stroke-width="4.58333" stroke-miterlimit="8"/><rect x="3490.5" y="322.5" width="7.00024" height="130" stroke="#000000" stroke-width="4.58333" stroke-miterlimit="8"/><rect x="3545.5" y="322.5" width="7.00024" height="130" stroke="#000000" stroke-width="4.58333" stroke-miterlimit="8"/><rect x="3600.5" y="322.5" width="7.00024" height="130" stroke="#000000" stroke-width="4.58333" stroke-miterlimit="8"/><rect x="3655.5" y="322.5" width="7.00024" height="130" stroke="#000000" stroke-width="4.58333" stroke-miterlimit="8"/><rect x="3710.5" y="322.5" width="7.00024" height="130" stroke="#000000" stroke-width="4.58333" stroke-miterlimit="8"/><rect x="3765.5" y="322.5" width="7.00024" height="130" stroke="#000000" stroke-width="4.58333" stroke-miterlimit="8"/><rect x="3820.5" y="322.5" width="7.00024" height="130" stroke="#000000" stroke-width="4.58333" stroke-miterlimit="8"/><rect x="3875.5" y="322.5" width="7.00024" height="130" stroke="#000000" stroke-width="4.58333" stroke-miterlimit="8"/><rect x="3930.5" y="322.5" width="7.00024" height="130" stroke="#000000" stroke-width="4.58333" stroke-miterlimit="8"/><rect x="3985.5" y="322.5" width="7.00024" height="130" stroke="#000000" stroke-width="4.58333" stroke-miterlimit="8"/><rect x="4040.5" y="322.5" width="7.00024" height="130" stroke="#000000" stroke-width="4.58333" stroke-miterlimit="8"/><rect x="4095.5" y="322.5" width="7" height="130" stroke="#000000" stroke-width="4.58333" stroke-miterlimit="8"/><rect x="4150.5" y="322.5" width="7" height="130" stroke="#000000" stroke-width="4.58333" stroke-miterlimit="8"/><rect x="4205.5" y="322.5" width="7" height="130" stroke="#000000" stroke-width="4.58333" stroke-miterlimit="8"/><rect x="210" y="552" width="4040" height="45.0001" stroke="#000000" stroke-width="10.3125" stroke-miterlimit="8" fill="none"/><rect x="245.5" y="510.5" width="7.00023" height="130" stroke="#000000" stroke-width="4.58333" stroke-miterlimit="8"/><rect x="300.5" y="510.5" width="7.00024" height="130" stroke="#000000" stroke-width="4.58333" stroke-miterlimit="8"/><rect x="355.5" y="510.5" width="7.00024" height="130" stroke="#000000" stroke-width="4.58333" stroke-miterlimit="8"/><rect x="410.5" y="510.5" width="7.00024" height="130" stroke="#000000" stroke-width="4.58333" stroke-miterlimit="8"/><rect x="465.5" y="510.5" width="7.00024" height="130" stroke="#000000" stroke-width="4.58333" stroke-miterlimit="8"/><rect x="520.5" y="510.5" width="7.00024" height="130" stroke="#000000" stroke-width="4.58333" stroke-miterlimit="8"/><rect x="575.5" y="510.5" width="7.00024" height="130" stroke="#000000" stroke-width="4.58333" stroke-miterlimit="8"/><rect x="630.5" y="510.5" width="7.00024" height="130" stroke="#000000" stroke-width="4.58333" stroke-miterlimit="8"/><rect x="685.5" y="510.5" width="7.00024" height="130" stroke="#000000" stroke-width="4.58333" stroke-miterlimit="8"/><rect x="740.5" y="510.5" width="7.00024" height="130" stroke="#000000" stroke-width="4.58333" stroke-miterlimit="8"/><rect x="795.5" y="510.5" width="7.00024" height="130" stroke="#000000" stroke-width="4.58333" stroke-miterlimit="8"/><rect x="850.5" y="510.5" width="7.00024" height="130" stroke="#000000" stroke-width="4.58333" stroke-miterlimit="8"/><rect x="905.5" y="510.5" width="7.00024" height="130" stroke="#000000" stroke-width="4.58333" stroke-miterlimit="8"/><rect x="960.5" y="510.5" width="7.00024" height="130" stroke="#000000" stroke-width="4.58333" stroke-miterlimit="8"/><rect x="1015.5" y="510.5" width="7.00024" height="130" stroke="#000000" stroke-width="4.58333" stroke-miterlimit="8"/><rect x="1070.5" y="510.5" width="7.00024" height="130" stroke="#000000" stroke-width="4.58333" stroke-miterlimit="8"/><rect x="1125.5" y="510.5" width="7.00024" height="130" stroke="#000000" stroke-width="4.58333" stroke-miterlimit="8"/><rect x="1180.5" y="510.5" width="7.00024" height="130" stroke="#000000" stroke-width="4.58333" stroke-miterlimit="8"/><rect x="1235.5" y="510.5" width="7.00024" height="130" stroke="#000000" stroke-width="4.58333" stroke-miterlimit="8"/><rect x="1290.5" y="510.5" width="7.00024" height="130" stroke="#000000" stroke-width="4.58333" stroke-miterlimit="8"/><rect x="1345.5" y="510.5" width="7.00024" height="130" stroke="#000000" stroke-width="4.58333" stroke-miterlimit="8"/><rect x="1400.5" y="510.5" width="7.00024" height="130" stroke="#000000" stroke-width="4.58333" stroke-miterlimit="8"/><rect x="1455.5" y="510.5" width="7.00024" height="130" stroke="#000000" stroke-width="4.58333" stroke-miterlimit="8"/><rect x="1510.5" y="510.5" width="7.00024" height="130" stroke="#000000" stroke-width="4.58333" stroke-miterlimit="8"/><rect x="1565.5" y="510.5" width="7.00024" height="130" stroke="#000000" stroke-width="4.58333" stroke-miterlimit="8"/><rect x="1620.5" y="510.5" width="7.00024" height="130" stroke="#000000" stroke-width="4.58333" stroke-miterlimit="8"/><rect x="1675.5" y="510.5" width="7.00024" height="130" stroke="#000000" stroke-width="4.58333" stroke-miterlimit="8"/><rect x="1730.5" y="510.5" width="7.00024" height="130" stroke="#000000" stroke-width="4.58333" stroke-miterlimit="8"/><rect x="1785.5" y="510.5" width="7.00024" height="130" stroke="#000000" stroke-width="4.58333" stroke-miterlimit="8"/><rect x="1840.5" y="510.5" width="7.00024" height="130" stroke="#000000" stroke-width="4.58333" stroke-miterlimit="8"/><rect x="1895.5" y="510.5" width="7.00024" height="130" stroke="#000000" stroke-width="4.58333" stroke-miterlimit="8"/><rect x="1950.5" y="510.5" width="7.00024" height="130" stroke="#000000" stroke-width="4.58333" stroke-miterlimit="8"/><rect x="2005.5" y="510.5" width="7.00024" height="130" stroke="#000000" stroke-width="4.58333" stroke-miterlimit="8"/><rect x="2060.5" y="510.5" width="7.00024" height="130" stroke="#000000" stroke-width="4.58333" stroke-miterlimit="8"/><rect x="2115.5" y="510.5" width="7.00024" height="130" stroke="#000000" stroke-width="4.58333" stroke-miterlimit="8"/><rect x="2170.5" y="510.5" width="7.00024" height="130" stroke="#000000" stroke-width="4.58333" stroke-miterlimit="8"/><rect x="2225.5" y="510.5" width="7.00024" height="130" stroke="#000000" stroke-width="4.58333" stroke-miterlimit="8"/><rect x="2280.5" y="510.5" width="7.00024" height="130" stroke="#000000" stroke-width="4.58333" stroke-miterlimit="8"/><rect x="2335.5" y="510.5" width="7.00024" height="130" stroke="#000000" stroke-width="4.58333" stroke-miterlimit="8"/><rect x="2390.5" y="510.5" width="7.00024" height="130" stroke="#000000" stroke-width="4.58333" stroke-miterlimit="8"/><rect x="2445.5" y="510.5" width="7.00024" height="130" stroke="#000000" stroke-width="4.58333" stroke-miterlimit="8"/><rect x="2500.5" y="510.5" width="7.00024" height="130" stroke="#000000" stroke-width="4.58333" stroke-miterlimit="8"/><rect x="2555.5" y="510.5" width="7.00024" height="130" stroke="#000000" stroke-width="4.58333" stroke-miterlimit="8"/><rect x="2610.5" y="510.5" width="7.00024" height="130" stroke="#000000" stroke-width="4.58333" stroke-miterlimit="8"/><rect x="2665.5" y="510.5" width="7.00024" height="130" stroke="#000000" stroke-width="4.58333" stroke-miterlimit="8"/><rect x="2720.5" y="510.5" width="7.00024" height="130" stroke="#000000" stroke-width="4.58333" stroke-miterlimit="8"/><rect x="2775.5" y="510.5" width="7.00024" height="130" stroke="#000000" stroke-width="4.58333" stroke-miterlimit="8"/><rect x="2830.5" y="510.5" width="7.00024" height="130" stroke="#000000" stroke-width="4.58333" stroke-miterlimit="8"/><rect x="2885.5" y="510.5" width="7.00024" height="130" stroke="#000000" stroke-width="4.58333" stroke-miterlimit="8"/><rect x="2940.5" y="510.5" width="7.00024" height="130" stroke="#000000" stroke-width="4.58333" stroke-miterlimit="8"/><rect x="2995.5" y="510.5" width="7.00024" height="130" stroke="#000000" stroke-width="4.58333" stroke-miterlimit="8"/><rect x="3050.5" y="510.5" width="7.00024" height="130" stroke="#000000" stroke-width="4.58333" stroke-miterlimit="8"/><rect x="3105.5" y="510.5" width="7.00024" height="130" stroke="#000000" stroke-width="4.58333" stroke-miterlimit="8"/><rect x="3160.5" y="510.5" width="7.00024" height="130" stroke="#000000" stroke-width="4.58333" stroke-miterlimit="8"/><rect x="3215.5" y="510.5" width="7.00024" height="130" stroke="#000000" stroke-width="4.58333" stroke-miterlimit="8"/><rect x="3270.5" y="510.5" width="7.00024" height="130" stroke="#000000" stroke-width="4.58333" stroke-miterlimit="8"/><rect x="3325.5" y="510.5" width="7.00024" height="130" stroke="#000000" stroke-width="4.58333" stroke-miterlimit="8"/><rect x="3380.5" y="510.5" width="7.00024" height="130" stroke="#000000" stroke-width="4.58333" stroke-miterlimit="8"/><rect x="3435.5" y="510.5" width="7.00024" height="130" stroke="#000000" stroke-width="4.58333" stroke-miterlimit="8"/><rect x="3490.5" y="510.5" width="7.00024" height="130" stroke="#000000" stroke-width="4.58333" stroke-miterlimit="8"/><rect x="3545.5" y="510.5" width="7.00024" height="130" stroke="#000000" stroke-width="4.58333" stroke-miterlimit="8"/><rect x="3600.5" y="510.5" width="7.00024" height="130" stroke="#000000" stroke-width="4.58333" stroke-miterlimit="8"/><rect x="3655.5" y="510.5" width="7.00024" height="130" stroke="#000000" stroke-width="4.58333" stroke-miterlimit="8"/><rect x="3710.5" y="510.5" width="7.00024" height="130" stroke="#000000" stroke-width="4.58333" stroke-miterlimit="8"/><rect x="3765.5" y="510.5" width="7.00024" height="130" stroke="#000000" stroke-width="4.58333" stroke-miterlimit="8"/><rect x="3820.5" y="510.5" width="7.00024" height="130" stroke="#000000" stroke-width="4.58333" stroke-miterlimit="8"/><rect x="3875.5" y="510.5" width="7.00024" height="130" stroke="#000000" stroke-width="4.58333" stroke-miterlimit="8"/><rect x="3930.5" y="510.5" width="7.00024" height="130" stroke="#000000" stroke-width="4.58333" stroke-miterlimit="8"/><rect x="3985.5" y="510.5" width="7.00024" height="130" stroke="#000000" stroke-width="4.58333" stroke-miterlimit="8"/><rect x="4040.5" y="510.5" width="7.00024" height="130" stroke="#000000" stroke-width="4.58333" stroke-miterlimit="8"/><rect x="4095.5" y="510.5" width="7" height="130" stroke="#000000" stroke-width="4.58333" stroke-miterlimit="8"/><rect x="4150.5" y="510.5" width="7" height="130" stroke="#000000" stroke-width="4.58333" stroke-miterlimit="8"/><rect x="4205.5" y="510.5" width="7" height="130" stroke="#000000" stroke-width="4.58333" stroke-miterlimit="8"/><rect x="210" y="740" width="4040" height="45.0001" stroke="#000000" stroke-width="10.3125" stroke-miterlimit="8" fill="none"/><rect x="245.5" y="698.5" width="7.00023" height="130" stroke="#000000" stroke-width="4.58333" stroke-miterlimit="8"/><rect x="300.5" y="698.5" width="7.00024" height="130" stroke="#000000" stroke-width="4.58333" stroke-miterlimit="8"/><rect x="355.5" y="698.5" width="7.00024" height="130" stroke="#000000" stroke-width="4.58333" stroke-miterlimit="8"/><rect x="410.5" y="698.5" width="7.00024" height="130" stroke="#000000" stroke-width="4.58333" stroke-miterlimit="8"/><rect x="465.5" y="698.5" width="7.00024" height="130" stroke="#000000" stroke-width="4.58333" stroke-miterlimit="8"/><rect x="520.5" y="698.5" width="7.00024" height="130" stroke="#000000" stroke-width="4.58333" stroke-miterlimit="8"/><rect x="575.5" y="698.5" width="7.00024" height="130" stroke="#000000" stroke-width="4.58333" stroke-miterlimit="8"/><rect x="630.5" y="698.5" width="7.00024" height="130" stroke="#000000" stroke-width="4.58333" stroke-miterlimit="8"/><rect x="685.5" y="698.5" width="7.00024" height="130" stroke="#000000" stroke-width="4.58333" stroke-miterlimit="8"/><rect x="740.5" y="698.5" width="7.00024" height="130" stroke="#000000" stroke-width="4.58333" stroke-miterlimit="8"/><rect x="795.5" y="698.5" width="7.00024" height="130" stroke="#000000" stroke-width="4.58333" stroke-miterlimit="8"/><rect x="850.5" y="698.5" width="7.00024" height="130" stroke="#000000" stroke-width="4.58333" stroke-miterlimit="8"/><rect x="905.5" y="698.5" width="7.00024" height="130" stroke="#000000" stroke-width="4.58333" stroke-miterlimit="8"/><rect x="960.5" y="698.5" width="7.00024" height="130" stroke="#000000" stroke-width="4.58333" stroke-miterlimit="8"/><rect x="1015.5" y="698.5" width="7.00024" height="130" stroke="#000000" stroke-width="4.58333" stroke-miterlimit="8"/><rect x="1070.5" y="698.5" width="7.00024" height="130" stroke="#000000" stroke-width="4.58333" stroke-miterlimit="8"/><rect x="1125.5" y="698.5" width="7.00024" height="130" stroke="#000000" stroke-width="4.58333" stroke-miterlimit="8"/><rect x="1180.5" y="698.5" width="7.00024" height="130" stroke="#000000" stroke-width="4.58333" stroke-miterlimit="8"/><rect x="1235.5" y="698.5" width="7.00024" height="130" stroke="#000000" stroke-width="4.58333" stroke-miterlimit="8"/><rect x="1290.5" y="698.5" width="7.00024" height="130" stroke="#000000" stroke-width="4.58333" stroke-miterlimit="8"/><rect x="1345.5" y="698.5" width="7.00024" height="130" stroke="#000000" stroke-width="4.58333" stroke-miterlimit="8"/><rect x="1400.5" y="698.5" width="7.00024" height="130" stroke="#000000" stroke-width="4.58333" stroke-miterlimit="8"/><rect x="1455.5" y="698.5" width="7.00024" height="130" stroke="#000000" stroke-width="4.58333" stroke-miterlimit="8"/><rect x="1510.5" y="698.5" width="7.00024" height="130" stroke="#000000" stroke-width="4.58333" stroke-miterlimit="8"/><rect x="1565.5" y="698.5" width="7.00024" height="130" stroke="#000000" stroke-width="4.58333" stroke-miterlimit="8"/><rect x="1620.5" y="698.5" width="7.00024" height="130" stroke="#000000" stroke-width="4.58333" stroke-miterlimit="8"/><rect x="1675.5" y="698.5" width="7.00024" height="130" stroke="#000000" stroke-width="4.58333" stroke-miterlimit="8"/><rect x="1730.5" y="698.5" width="7.00024" height="130" stroke="#000000" stroke-width="4.58333" stroke-miterlimit="8"/><rect x="1785.5" y="698.5" width="7.00024" height="130" stroke="#000000" stroke-width="4.58333" stroke-miterlimit="8"/><rect x="1840.5" y="698.5" width="7.00024" height="130" stroke="#000000" stroke-width="4.58333" stroke-miterlimit="8"/><rect x="1895.5" y="698.5" width="7.00024" height="130" stroke="#000000" stroke-width="4.58333" stroke-miterlimit="8"/><rect x="1950.5" y="698.5" width="7.00024" height="130" stroke="#000000" stroke-width="4.58333" stroke-miterlimit="8"/><rect x="2005.5" y="698.5" width="7.00024" height="130" stroke="#000000" stroke-width="4.58333" stroke-miterlimit="8"/><rect x="2060.5" y="698.5" width="7.00024" height="130" stroke="#000000" stroke-width="4.58333" stroke-miterlimit="8"/><rect x="2115.5" y="698.5" width="7.00024" height="130" stroke="#000000" stroke-width="4.58333" stroke-miterlimit="8"/><rect x="2170.5" y="698.5" width="7.00024" height="130" stroke="#000000" stroke-width="4.58333" stroke-miterlimit="8"/><rect x="2225.5" y="698.5" width="7.00024" height="130" stroke="#000000" stroke-width="4.58333" stroke-miterlimit="8"/><rect x="2280.5" y="698.5" width="7.00024" height="130" stroke="#000000" stroke-width="4.58333" stroke-miterlimit="8"/><rect x="2335.5" y="698.5" width="7.00024" height="130" stroke="#000000" stroke-width="4.58333" stroke-miterlimit="8"/><rect x="2390.5" y="698.5" width="7.00024" height="130" stroke="#000000" stroke-width="4.58333" stroke-miterlimit="8"/><rect x="2445.5" y="698.5" width="7.00024" height="130" stroke="#000000" stroke-width="4.58333" stroke-miterlimit="8"/><rect x="2500.5" y="698.5" width="7.00024" height="130" stroke="#000000" stroke-width="4.58333" stroke-miterlimit="8"/><rect x="2555.5" y="698.5" width="7.00024" height="130" stroke="#000000" stroke-width="4.58333" stroke-miterlimit="8"/><rect x="2610.5" y="698.5" width="7.00024" height="130" stroke="#000000" stroke-width="4.58333" stroke-miterlimit="8"/><rect x="2665.5" y="698.5" width="7.00024" height="130" stroke="#000000" stroke-width="4.58333" stroke-miterlimit="8"/><rect x="2720.5" y="698.5" width="7.00024" height="130" stroke="#000000" stroke-width="4.58333" stroke-miterlimit="8"/><rect x="2775.5" y="698.5" width="7.00024" height="130" stroke="#000000" stroke-width="4.58333" stroke-miterlimit="8"/><rect x="2830.5" y="698.5" width="7.00024" height="130" stroke="#000000" stroke-width="4.58333" stroke-miterlimit="8"/><rect x="2885.5" y="698.5" width="7.00024" height="130" stroke="#000000" stroke-width="4.58333" stroke-miterlimit="8"/><rect x="2940.5" y="698.5" width="7.00024" height="130" stroke="#000000" stroke-width="4.58333" stroke-miterlimit="8"/><rect x="2995.5" y="698.5" width="7.00024" height="130" stroke="#000000" stroke-width="4.58333" stroke-miterlimit="8"/><rect x="3050.5" y="698.5" width="7.00024" height="130" stroke="#000000" stroke-width="4.58333" stroke-miterlimit="8"/><rect x="3105.5" y="698.5" width="7.00024" height="130" stroke="#000000" stroke-width="4.58333" stroke-miterlimit="8"/><rect x="3160.5" y="698.5" width="7.00024" height="130" stroke="#000000" stroke-width="4.58333" stroke-miterlimit="8"/><rect x="3215.5" y="698.5" width="7.00024" height="130" stroke="#000000" stroke-width="4.58333" stroke-miterlimit="8"/><rect x="3270.5" y="698.5" width="7.00024" height="130" stroke="#000000" stroke-width="4.58333" stroke-miterlimit="8"/><rect x="3325.5" y="698.5" width="7.00024" height="130" stroke="#000000" stroke-width="4.58333" stroke-miterlimit="8"/><rect x="3380.5" y="698.5" width="7.00024" height="130" stroke="#000000" stroke-width="4.58333" stroke-miterlimit="8"/><rect x="3435.5" y="698.5" width="7.00024" height="130" stroke="#000000" stroke-width="4.58333" stroke-miterlimit="8"/><rect x="3490.5" y="698.5" width="7.00024" height="130" stroke="#000000" stroke-width="4.58333" stroke-miterlimit="8"/><rect x="3545.5" y="698.5" width="7.00024" height="130" stroke="#000000" stroke-width="4.58333" stroke-miterlimit="8"/><rect x="3600.5" y="698.5" width="7.00024" height="130" stroke="#000000" stroke-width="4.58333" stroke-miterlimit="8"/><rect x="3655.5" y="698.5" width="7.00024" height="130" stroke="#000000" stroke-width="4.58333" stroke-miterlimit="8"/><rect x="3710.5" y="698.5" width="7.00024" height="130" stroke="#000000" stroke-width="4.58333" stroke-miterlimit="8"/><rect x="3765.5" y="698.5" width="7.00024" height="130" stroke="#000000" stroke-width="4.58333" stroke-miterlimit="8"/><rect x="3820.5" y="698.5" width="7.00024" height="130" stroke="#000000" stroke-width="4.58333" stroke-miterlimit="8"/><rect x="3875.5" y="698.5" width="7.00024" height="130" stroke="#000000" stroke-width="4.58333" stroke-miterlimit="8"/><rect x="3930.5" y="698.5" width="7.00024" height="130" stroke="#000000" stroke-width="4.58333" stroke-miterlimit="8"/><rect x="3985.5" y="698.5" width="7.00024" height="130" stroke="#000000" stroke-width="4.58333" stroke-miterlimit="8"/><rect x="4040.5" y="698.5" width="7.00024" height="130" stroke="#000000" stroke-width="4.58333" stroke-miterlimit="8"/><rect x="4095.5" y="698.5" width="7" height="130" stroke="#000000" stroke-width="4.58333" stroke-miterlimit="8"/><rect x="4150.5" y="698.5" width="7" height="130" stroke="#000000" stroke-width="4.58333" stroke-miterlimit="8"/><rect x="4205.5" y="698.5" width="7" height="130" stroke="#000000" stroke-width="4.58333" stroke-miterlimit="8"/><rect x="210" y="928" width="4040" height="45.0001" stroke="#000000" stroke-width="10.3125" stroke-miterlimit="8" fill="none"/><rect x="245.5" y="886.5" width="7.00023" height="129" stroke="#000000" stroke-width="4.58333" stroke-miterlimit="8"/><rect x="300.5" y="886.5" width="7.00024" height="129" stroke="#000000" stroke-width="4.58333" stroke-miterlimit="8"/><rect x="355.5" y="886.5" width="7.00024" height="129" stroke="#000000" stroke-width="4.58333" stroke-miterlimit="8"/><rect x="410.5" y="886.5" width="7.00024" height="129" stroke="#000000" stroke-width="4.58333" stroke-miterlimit="8"/><rect x="465.5" y="886.5" width="7.00024" height="129" stroke="#000000" stroke-width="4.58333" stroke-miterlimit="8"/><rect x="520.5" y="886.5" width="7.00024" height="129" stroke="#000000" stroke-width="4.58333" stroke-miterlimit="8"/><rect x="575.5" y="886.5" width="7.00024" height="129" stroke="#000000" stroke-width="4.58333" stroke-miterlimit="8"/><rect x="630.5" y="886.5" width="7.00024" height="129" stroke="#000000" stroke-width="4.58333" stroke-miterlimit="8"/><rect x="685.5" y="886.5" width="7.00024" height="129" stroke="#000000" stroke-width="4.58333" stroke-miterlimit="8"/><rect x="740.5" y="886.5" width="7.00024" height="129" stroke="#000000" stroke-width="4.58333" stroke-miterlimit="8"/><rect x="795.5" y="886.5" width="7.00024" height="129" stroke="#000000" stroke-width="4.58333" stroke-miterlimit="8"/><rect x="850.5" y="886.5" width="7.00024" height="129" stroke="#000000" stroke-width="4.58333" stroke-miterlimit="8"/><rect x="905.5" y="886.5" width="7.00024" height="129" stroke="#000000" stroke-width="4.58333" stroke-miterlimit="8"/><rect x="960.5" y="886.5" width="7.00024" height="129" stroke="#000000" stroke-width="4.58333" stroke-miterlimit="8"/><rect x="1015.5" y="886.5" width="7.00024" height="129" stroke="#000000" stroke-width="4.58333" stroke-miterlimit="8"/><rect x="1070.5" y="886.5" width="7.00024" height="129" stroke="#000000" stroke-width="4.58333" stroke-miterlimit="8"/><rect x="1125.5" y="886.5" width="7.00024" height="129" stroke="#000000" stroke-width="4.58333" stroke-miterlimit="8"/><rect x="1180.5" y="886.5" width="7.00024" height="129" stroke="#000000" stroke-width="4.58333" stroke-miterlimit="8"/><rect x="1235.5" y="886.5" width="7.00024" height="129" stroke="#000000" stroke-width="4.58333" stroke-miterlimit="8"/><rect x="1290.5" y="886.5" width="7.00024" height="129" stroke="#000000" stroke-width="4.58333" stroke-miterlimit="8"/><rect x="1345.5" y="886.5" width="7.00024" height="129" stroke="#000000" stroke-width="4.58333" stroke-miterlimit="8"/><rect x="1400.5" y="886.5" width="7.00024" height="129" stroke="#000000" stroke-width="4.58333" stroke-miterlimit="8"/><rect x="1455.5" y="886.5" width="7.00024" height="129" stroke="#000000" stroke-width="4.58333" stroke-miterlimit="8"/><rect x="1510.5" y="886.5" width="7.00024" height="129" stroke="#000000" stroke-width="4.58333" stroke-miterlimit="8"/><rect x="1565.5" y="886.5" width="7.00024" height="129" stroke="#000000" stroke-width="4.58333" stroke-miterlimit="8"/><rect x="1620.5" y="886.5" width="7.00024" height="129" stroke="#000000" stroke-width="4.58333" stroke-miterlimit="8"/><rect x="1675.5" y="886.5" width="7.00024" height="129" stroke="#000000" stroke-width="4.58333" stroke-miterlimit="8"/><rect x="1730.5" y="886.5" width="7.00024" height="129" stroke="#000000" stroke-width="4.58333" stroke-miterlimit="8"/><rect x="1785.5" y="886.5" width="7.00024" height="129" stroke="#000000" stroke-width="4.58333" stroke-miterlimit="8"/><rect x="1840.5" y="886.5" width="7.00024" height="129" stroke="#000000" stroke-width="4.58333" stroke-miterlimit="8"/><rect x="1895.5" y="886.5" width="7.00024" height="129" stroke="#000000" stroke-width="4.58333" stroke-miterlimit="8"/><rect x="1950.5" y="886.5" width="7.00024" height="129" stroke="#000000" stroke-width="4.58333" stroke-miterlimit="8"/><rect x="2005.5" y="886.5" width="7.00024" height="129" stroke="#000000" stroke-width="4.58333" stroke-miterlimit="8"/><rect x="2060.5" y="886.5" width="7.00024" height="129" stroke="#000000" stroke-width="4.58333" stroke-miterlimit="8"/><rect x="2115.5" y="886.5" width="7.00024" height="129" stroke="#000000" stroke-width="4.58333" stroke-miterlimit="8"/><rect x="2170.5" y="886.5" width="7.00024" height="129" stroke="#000000" stroke-width="4.58333" stroke-miterlimit="8"/><rect x="2225.5" y="886.5" width="7.00024" height="129" stroke="#000000" stroke-width="4.58333" stroke-miterlimit="8"/><rect x="2280.5" y="886.5" width="7.00024" height="129" stroke="#000000" stroke-width="4.58333" stroke-miterlimit="8"/><rect x="2335.5" y="886.5" width="7.00024" height="129" stroke="#000000" stroke-width="4.58333" stroke-miterlimit="8"/><rect x="2390.5" y="886.5" width="7.00024" height="129" stroke="#000000" stroke-width="4.58333" stroke-miterlimit="8"/><rect x="2445.5" y="886.5" width="7.00024" height="129" stroke="#000000" stroke-width="4.58333" stroke-miterlimit="8"/><rect x="2500.5" y="886.5" width="7.00024" height="129" stroke="#000000" stroke-width="4.58333" stroke-miterlimit="8"/><rect x="2555.5" y="886.5" width="7.00024" height="129" stroke="#000000" stroke-width="4.58333" stroke-miterlimit="8"/><rect x="2610.5" y="886.5" width="7.00024" height="129" stroke="#000000" stroke-width="4.58333" stroke-miterlimit="8"/><rect x="2665.5" y="886.5" width="7.00024" height="129" stroke="#000000" stroke-width="4.58333" stroke-miterlimit="8"/><rect x="2720.5" y="886.5" width="7.00024" height="129" stroke="#000000" stroke-width="4.58333" stroke-miterlimit="8"/><rect x="2775.5" y="886.5" width="7.00024" height="129" stroke="#000000" stroke-width="4.58333" stroke-miterlimit="8"/><rect x="2830.5" y="886.5" width="7.00024" height="129" stroke="#000000" stroke-width="4.58333" stroke-miterlimit="8"/><rect x="2885.5" y="886.5" width="7.00024" height="129" stroke="#000000" stroke-width="4.58333" stroke-miterlimit="8"/><rect x="2940.5" y="886.5" width="7.00024" height="129" stroke="#000000" stroke-width="4.58333" stroke-miterlimit="8"/><rect x="2995.5" y="886.5" width="7.00024" height="129" stroke="#000000" stroke-width="4.58333" stroke-miterlimit="8"/><rect x="3050.5" y="886.5" width="7.00024" height="129" stroke="#000000" stroke-width="4.58333" stroke-miterlimit="8"/><rect x="3105.5" y="886.5" width="7.00024" height="129" stroke="#000000" stroke-width="4.58333" stroke-miterlimit="8"/><rect x="3160.5" y="886.5" width="7.00024" height="129" stroke="#000000" stroke-width="4.58333" stroke-miterlimit="8"/><rect x="3215.5" y="886.5" width="7.00024" height="129" stroke="#000000" stroke-width="4.58333" stroke-miterlimit="8"/><rect x="3270.5" y="886.5" width="7.00024" height="129" stroke="#000000" stroke-width="4.58333" stroke-miterlimit="8"/><rect x="3325.5" y="886.5" width="7.00024" height="129" stroke="#000000" stroke-width="4.58333" stroke-miterlimit="8"/><rect x="3380.5" y="886.5" width="7.00024" height="129" stroke="#000000" stroke-width="4.58333" stroke-miterlimit="8"/><rect x="3435.5" y="886.5" width="7.00024" height="129" stroke="#000000" stroke-width="4.58333" stroke-miterlimit="8"/><rect x="3490.5" y="886.5" width="7.00024" height="129" stroke="#000000" stroke-width="4.58333" stroke-miterlimit="8"/><rect x="3545.5" y="886.5" width="7.00024" height="129" stroke="#000000" stroke-width="4.58333" stroke-miterlimit="8"/><rect x="3600.5" y="886.5" width="7.00024" height="129" stroke="#000000" stroke-width="4.58333" stroke-miterlimit="8"/><rect x="3655.5" y="886.5" width="7.00024" height="129" stroke="#000000" stroke-width="4.58333" stroke-miterlimit="8"/><rect x="3710.5" y="886.5" width="7.00024" height="129" stroke="#000000" stroke-width="4.58333" stroke-miterlimit="8"/><rect x="3765.5" y="886.5" width="7.00024" height="129" stroke="#000000" stroke-width="4.58333" stroke-miterlimit="8"/><rect x="3820.5" y="886.5" width="7.00024" height="129" stroke="#000000" stroke-width="4.58333" stroke-miterlimit="8"/><rect x="3875.5" y="886.5" width="7.00024" height="129" stroke="#000000" stroke-width="4.58333" stroke-miterlimit="8"/><rect x="3930.5" y="886.5" width="7.00024" height="129" stroke="#000000" stroke-width="4.58333" stroke-miterlimit="8"/><rect x="3985.5" y="886.5" width="7.00024" height="129" stroke="#000000" stroke-width="4.58333" stroke-miterlimit="8"/><rect x="4040.5" y="886.5" width="7.00024" height="129" stroke="#000000" stroke-width="4.58333" stroke-miterlimit="8"/><rect x="4095.5" y="886.5" width="7" height="129" stroke="#000000" stroke-width="4.58333" stroke-miterlimit="8"/><rect x="4150.5" y="886.5" width="7" height="129" stroke="#000000" stroke-width="4.58333" stroke-miterlimit="8"/><rect x="4205.5" y="886.5" width="7" height="129" stroke="#000000" stroke-width="4.58333" stroke-miterlimit="8"/><rect x="-65" y="275" width="275" height="780" stroke="#000000" stroke-width="10.3125" stroke-miterlimit="8" fill="#FFFFFF"/><rect x="4250" y="275" width="275" height="780" stroke="#000000" stroke-width="10.3125" stroke-miterlimit="8" fill="none"/><rect x="-58.0001" y="130" width="13.0001" height="79.0001" stroke="#000000" stroke-width="10.3125" stroke-miterlimit="8" fill="none"/><rect x="49.9998" y="1188" width="44" height="698" stroke="#000000" stroke-width="10.3125" stroke-miterlimit="8" fill="none"/><path d="M4306 1054 4471 1054 4438 1185 4339 1185Z" stroke="#000000" stroke-width="10.3125" stroke-miterlimit="8" fill="none" fill-rule="evenodd"/><rect x="4366" y="1186" width="45" height="699" stroke="#000000" stroke-width="10.3125" stroke-miterlimit="8" fill="none"/><path d="M211 115.5C211 90.9234 351.583 71.0002 525 71.0002 698.417 71.0002 839 90.9234 839 115.5 839 140.077 698.417 160 525 160 351.583 160 211 140.077 211 115.5Z" stroke="#000000" stroke-width="10.3125" stroke-miterlimit="8" fill="none" fill-rule="evenodd"/><rect x="839" y="113" width="42.9999" height="169" stroke="#000000" stroke-width="10.3125" stroke-miterlimit="8" fill="none"/><path d="M881 115.5C881 90.9234 1021.58 71.0002 1195 71.0002 1368.42 71.0002 1509 90.9234 1509 115.5 1509 140.077 1368.42 160 1195 160 1021.58 160 881 140.077 881 115.5Z" stroke="#000000" stroke-width="10.3125" stroke-miterlimit="8" fill="none" fill-rule="evenodd"/><path d="M839 113C839 105.82 848.402 100 860 100 871.598 100 881 105.82 881 113 881 120.18 871.598 126 860 126 848.402 126 839 120.18 839 113Z" stroke="#000000" stroke-width="10.3125" stroke-miterlimit="8" fill="#FFFFFF" fill-rule="evenodd"/><path d="M1581 115.5C1581 90.9234 1721.81 71.0002 1895.5 71.0002 2069.19 71.0002 2210 90.9234 2210 115.5 2210 140.077 2069.19 160 1895.5 160 1721.81 160 1581 140.077 1581 115.5Z" stroke="#000000" stroke-width="10.3125" stroke-miterlimit="8" fill="none" fill-rule="evenodd"/><rect x="2210" y="113" width="43" height="169" stroke="#000000" stroke-width="10.3125" stroke-miterlimit="8" fill="none"/><path d="M2251 115.5C2251 90.9234 2391.81 71.0002 2565.5 71.0002 2739.19 71.0002 2880 90.9234 2880 115.5 2880 140.077 2739.19 160 2565.5 160 2391.81 160 2251 140.077 2251 115.5Z" stroke="#000000" stroke-width="10.3125" stroke-miterlimit="8" fill="none" fill-rule="evenodd"/><path d="M2210 113C2210 105.82 2219.18 100 2230.5 100 2241.82 100 2251 105.82 2251 113 2251 120.18 2241.82 126 2230.5 126 2219.18 126 2210 120.18 2210 113Z" stroke="#000000" stroke-width="10.3125" stroke-miterlimit="8" fill="#FFFFFF" fill-rule="evenodd"/><path d="M2952 115.5C2952 90.9234 3092.58 71.0002 3266 71.0002 3439.42 71.0002 3580 90.9234 3580 115.5 3580 140.077 3439.42 160 3266 160 3092.58 160 2952 140.077 2952 115.5Z" stroke="#000000" stroke-width="10.3125" stroke-miterlimit="8" fill="none" fill-rule="evenodd"/><rect x="3580" y="113" width="43" height="169" stroke="#000000" stroke-width="10.3125" stroke-miterlimit="8" fill="none"/><path d="M3622 115.5C3622 90.9234 3762.58 71.0002 3936 71.0002 4109.42 71.0002 4250 90.9234 4250 115.5 4250 140.077 4109.42 160 3936 160 3762.58 160 3622 140.077 3622 115.5Z" stroke="#000000" stroke-width="10.3125" stroke-miterlimit="8" fill="none" fill-rule="evenodd"/><path d="M3580 113C3580 105.82 3589.4 100 3601 100 3612.6 100 3622 105.82 3622 113 3622 120.18 3612.6 126 3601 126 3589.4 126 3580 120.18 3580 113Z" stroke="#000000" stroke-width="10.3125" stroke-miterlimit="8" fill="#FFFFFF" fill-rule="evenodd"/><rect x="839" y="1057" width="42.9999" height="691" stroke="#000000" stroke-width="10.3125" stroke-miterlimit="8" fill="none"/><rect x="776" y="1748" width="162" height="137" stroke="#000000" stroke-width="10.3125" stroke-miterlimit="8" fill="none"/><rect x="2210" y="1057" width="43" height="691" stroke="#000000" stroke-width="10.3125" stroke-miterlimit="8" fill="none"/><rect x="2146" y="1748" width="163" height="137" stroke="#000000" stroke-width="10.3125" stroke-miterlimit="8" fill="none"/><rect x="3579" y="1057" width="43" height="691" stroke="#000000" stroke-width="10.3125" stroke-miterlimit="8" fill="none"/><rect x="3516" y="1748" width="162" height="137" stroke="#000000" stroke-width="10.3125" stroke-miterlimit="8" fill="none"/><text font-family="Calibri,Calibri_MSFontService,sans-serif" font-weight="400" font-size="101" transform="matrix(1 0 0 1 -704.102 122)">Condensing </text><text font-family="Calibri,Calibri_MSFontService,sans-serif" font-weight="400" font-size="101" transform="matrix(1 0 0 1 -704.102 243)">Fluid Inlet</text><path d="M-206 164.844-101.86 164.844-101.86 175.157-206 175.156ZM-107.016 154.532-76.0786 170.001-107.016 185.469Z"/><text font-family="Calibri,Calibri_MSFontService,sans-serif" font-weight="400" font-size="101" transform="matrix(1 0 0 1 -729.311 1115)">Condensing </text><text font-family="Calibri,Calibri_MSFontService,sans-serif" font-weight="400" font-size="101" transform="matrix(1 0 0 1 -729.311 1236)">Fluid Outlet</text><path d="M1.43229e-05-5.15625 104.14-5.15596 104.14 5.15654-1.43229e-05 5.15625ZM98.9838-15.4685 129.921 0.000360892 98.9837 15.469Z" transform="matrix(-1 0 0 1 -83.0789 1143)"/><path d="M3.4375-8.45842e-06 3.4378 123.75-3.4372 123.75-3.4375 8.45842e-06ZM13.7503 119.167 0.000360892 146.667-13.7497 119.167Z" transform="matrix(1 0 0 -1 212.5 -49.8335)"/><path d="M3.4375-8.45842e-06 3.4378 123.75-3.4372 123.75-3.4375 8.45842e-06ZM13.7503 119.167 0.000360892 146.667-13.7497 119.167Z" transform="matrix(1 0 0 -1 339.5 -49.8335)"/><path d="M3.4375-8.45842e-06 3.4378 123.75-3.4372 123.75-3.4375 8.45842e-06ZM13.7503 119.167 0.000360892 146.667-13.7497 119.167Z" transform="matrix(1 0 0 -1 465.5 -49.8335)"/><path d="M3.4375-8.45842e-06 3.4378 123.75-3.4372 123.75-3.4375 8.45842e-06ZM13.7503 119.167 0.000360892 146.667-13.7497 119.167Z" transform="matrix(1 0 0 -1 591.5 -49.8335)"/><path d="M3.4375-8.45842e-06 3.4378 123.75-3.4372 123.75-3.4375 8.45842e-06ZM13.7503 119.167 0.000360892 146.667-13.7497 119.167Z" transform="matrix(1 0 0 -1 718.5 -49.8335)"/><path d="M3.4375-8.45842e-06 3.4378 123.75-3.4372 123.75-3.4375 8.45842e-06ZM13.7503 119.167 0.000360892 146.667-13.7497 119.167Z" transform="matrix(1 0 0 -1 844.5 -49.8335)"/><path d="M3.4375-8.45842e-06 3.4378 123.75-3.4372 123.75-3.4375 8.45842e-06ZM13.7503 119.167 0.000360892 146.667-13.7497 119.167Z" transform="matrix(1 0 0 -1 971.5 -49.8335)"/><path d="M3.4375-8.45842e-06 3.4378 123.75-3.4372 123.75-3.4375 8.45842e-06ZM13.7503 119.167 0.000360892 146.667-13.7497 119.167Z" transform="matrix(1 0 0 -1 1097.5 -49.8335)"/><path d="M3.4375-8.45842e-06 3.4378 123.75-3.4372 123.75-3.4375 8.45842e-06ZM13.7503 119.167 0.000360892 146.667-13.7497 119.167Z" transform="matrix(1 0 0 -1 1224.5 -49.8335)"/><path d="M3.4375-8.45842e-06 3.4378 123.75-3.4372 123.75-3.4375 8.45842e-06ZM13.7503 119.167 0.000360892 146.667-13.7497 119.167Z" transform="matrix(1 0 0 -1 1350.5 -49.8335)"/><path d="M3.4375-8.45842e-06 3.4378 123.75-3.4372 123.75-3.4375 8.45842e-06ZM13.7503 119.167 0.000360892 146.667-13.7497 119.167Z" transform="matrix(1 0 0 -1 1476.5 -49.8335)"/><path d="M3.4375-8.45842e-06 3.4378 123.75-3.4372 123.75-3.4375 8.45842e-06ZM13.7503 119.167 0.000360892 146.667-13.7497 119.167Z" transform="matrix(1 0 0 -1 1603.5 -49.8335)"/><path d="M3.4375-8.45842e-06 3.4378 123.75-3.4372 123.75-3.4375 8.45842e-06ZM13.7503 119.167 0.000360892 146.667-13.7497 119.167Z" transform="matrix(1 0 0 -1 1729.5 -49.8335)"/><path d="M3.4375-8.45842e-06 3.4378 123.75-3.4372 123.75-3.4375 8.45842e-06ZM13.7503 119.167 0.000360892 146.667-13.7497 119.167Z" transform="matrix(1 0 0 -1 1856.5 -49.8335)"/><path d="M3.4375-8.45842e-06 3.4378 123.75-3.4372 123.75-3.4375 8.45842e-06ZM13.7503 119.167 0.000360892 146.667-13.7497 119.167Z" transform="matrix(1 0 0 -1 1982.5 -49.8335)"/><path d="M3.4375-8.45842e-06 3.4378 123.75-3.4372 123.75-3.4375 8.45842e-06ZM13.7503 119.167 0.000360892 146.667-13.7497 119.167Z" transform="matrix(1 0 0 -1 2108.5 -49.8335)"/><path d="M3.4375-8.45842e-06 3.4378 123.75-3.4372 123.75-3.4375 8.45842e-06ZM13.7503 119.167 0.000360892 146.667-13.7497 119.167Z" transform="matrix(1 0 0 -1 2235.5 -49.8335)"/><path d="M3.4375-8.45842e-06 3.4378 123.75-3.4372 123.75-3.4375 8.45842e-06ZM13.7503 119.167 0.000360892 146.667-13.7497 119.167Z" transform="matrix(1 0 0 -1 2361.5 -49.8335)"/><path d="M3.4375-8.45842e-06 3.4378 123.75-3.4372 123.75-3.4375 8.45842e-06ZM13.7503 119.167 0.000360892 146.667-13.7497 119.167Z" transform="matrix(1 0 0 -1 2488.5 -49.8335)"/><path d="M3.4375-8.45842e-06 3.4378 123.75-3.4372 123.75-3.4375 8.45842e-06ZM13.7503 119.167 0.000360892 146.667-13.7497 119.167Z" transform="matrix(1 0 0 -1 2614.5 -49.8335)"/><path d="M3.4375-8.45842e-06 3.4378 123.75-3.4372 123.75-3.4375 8.45842e-06ZM13.7503 119.167 0.000360892 146.667-13.7497 119.167Z" transform="matrix(1 0 0 -1 2740.5 -49.8335)"/><path d="M3.4375-8.45842e-06 3.4378 123.75-3.4372 123.75-3.4375 8.45842e-06ZM13.7503 119.167 0.000360892 146.667-13.7497 119.167Z" transform="matrix(1 0 0 -1 2867.5 -49.8335)"/><path d="M3.4375-8.45842e-06 3.4378 123.75-3.4372 123.75-3.4375 8.45842e-06ZM13.7503 119.167 0.000360892 146.667-13.7497 119.167Z" transform="matrix(1 0 0 -1 2993.5 -49.8335)"/><path d="M3.4375-8.45842e-06 3.4378 123.75-3.4372 123.75-3.4375 8.45842e-06ZM13.7503 119.167 0.000360892 146.667-13.7497 119.167Z" transform="matrix(1 0 0 -1 3120.5 -49.8335)"/><path d="M3.4375-8.45842e-06 3.4378 123.75-3.4372 123.75-3.4375 8.45842e-06ZM13.7503 119.167 0.000360892 146.667-13.7497 119.167Z" transform="matrix(1 0 0 -1 3246.5 -49.8335)"/><path d="M3.4375-8.45842e-06 3.4378 123.75-3.4372 123.75-3.4375 8.45842e-06ZM13.7503 119.167 0.000360892 146.667-13.7497 119.167Z" transform="matrix(1 0 0 -1 3372.5 -49.8335)"/><path d="M3.4375-8.45842e-06 3.4378 123.75-3.4372 123.75-3.4375 8.45842e-06ZM13.7503 119.167 0.000360892 146.667-13.7497 119.167Z" transform="matrix(1 0 0 -1 3499.5 -49.8335)"/><path d="M3.4375-8.45842e-06 3.4378 123.75-3.4372 123.75-3.4375 8.45842e-06ZM13.7503 119.167 0.000360892 146.667-13.7497 119.167Z" transform="matrix(1 0 0 -1 3625.5 -49.8335)"/><path d="M3.4375-8.45842e-06 3.4378 123.75-3.4372 123.75-3.4375 8.45842e-06ZM13.7503 119.167 0.000360892 146.667-13.7497 119.167Z" transform="matrix(1 0 0 -1 3752.5 -49.8335)"/><path d="M3.4375-8.45842e-06 3.4378 123.75-3.4372 123.75-3.4375 8.45842e-06ZM13.7503 119.167 0.000360892 146.667-13.7497 119.167Z" transform="matrix(1 0 0 -1 3878.5 -49.8335)"/><path d="M3.4375-8.45842e-06 3.4378 123.75-3.4372 123.75-3.4375 8.45842e-06ZM13.7503 119.167 0.000360892 146.667-13.7497 119.167Z" transform="matrix(1 0 0 -1 4005.5 -49.8335)"/><path d="M3.4375-8.45842e-06 3.4378 123.75-3.4372 123.75-3.4375 8.45842e-06ZM13.7503 119.167 0.000360892 146.667-13.7497 119.167Z" transform="matrix(1 0 0 -1 4131.5 -49.8335)"/><path d="M3.4375-8.45842e-06 3.4378 123.75-3.4372 123.75-3.4375 8.45842e-06ZM13.7503 119.167 0.000360892 146.667-13.7497 119.167Z" transform="matrix(1 0 0 -1 4257.5 -49.8335)"/><text font-family="Calibri,Calibri_MSFontService,sans-serif" font-weight="400" font-size="101" transform="matrix(1 0 0 1 9.98986 -91)">Air</text><path d="M1361.44 234.252 1268.06 202.193 1270.29 195.69 1363.67 227.75ZM1269.04 213.435 1247.5 191.5 1277.97 187.425Z"/><text font-family="Calibri,Calibri_MSFontService,sans-serif" font-weight="400" font-size="101" transform="matrix(1 0 0 1 1395.24 264)">Fan</text><path d="M1186.17 1298.34 1006.73 1064.77 1012.19 1060.58 1191.62 1294.15ZM1001.35 1074.68 995.5 1044.5 1023.16 1057.93Z"/><text font-family="Calibri,Calibri_MSFontService,sans-serif" font-weight="400" font-size="101" transform="matrix(1 0 0 1 946.148 1393)">Finned Tubes</text></g></svg>