<svg width="1269" height="1223" xmlns="http://www.w3.org/2000/svg" xmlns:xlink="http://www.w3.org/1999/xlink" xml:space="preserve" overflow="hidden"><g transform="translate(-1442 -636)"><rect x="1960.5" y="954.5" width="524" height="646" stroke="#AE5A21" stroke-width="4.58333" stroke-miterlimit="8" fill="#ED7D31"/><path d="M2187.41 1153.03C2184.49 1153.03 2181.77 1154.07 2179.24 1156.15 2176.71 1158.23 2174.5 1161.21 2172.59 1165.07 2170.69 1168.93 2169.21 1173.18 2168.16 1177.8 2167.1 1182.42 2166.57 1186.5 2166.57 1190.04 2166.57 1198.38 2169.61 1202.56 2175.69 1202.56 2179.45 1202.56 2182.89 1200.81 2186.03 1197.31 2189.16 1193.81 2191.69 1188.97 2193.61 1182.78 2195.52 1176.59 2196.48 1170.81 2196.48 1165.44 2196.48 1161.41 2195.74 1158.34 2194.26 1156.22 2192.77 1154.09 2190.49 1153.03 2187.41 1153.03ZM2187.85 1149.47C2193.07 1149.47 2197.09 1150.98 2199.91 1154.01 2202.73 1157.03 2204.14 1161.41 2204.14 1167.14 2204.14 1170.92 2203.55 1175.15 2202.36 1179.82 2201.17 1184.5 2199.54 1188.62 2197.46 1192.2 2195.38 1195.78 2192.97 1198.67 2190.22 1200.86 2187.48 1203.04 2184.5 1204.56 2181.29 1205.4 2181.91 1207.37 2182.49 1209 2183.03 1210.28 2183.57 1211.56 2184.09 1212.6 2184.59 1213.4 2185.09 1214.2 2185.58 1214.79 2186.07 1215.18 2186.55 1215.57 2187.04 1215.84 2187.53 1215.97 2188.01 1216.11 2188.58 1216.18 2189.23 1216.18 2190.26 1216.18 2191.3 1215.88 2192.35 1215.28 2193.4 1214.69 2194.58 1213.66 2195.88 1212.2L2197.98 1214.47C2195.82 1216.82 2193.81 1218.49 2191.95 1219.46 2190.08 1220.43 2188.16 1220.92 2186.19 1220.92 2183.95 1220.92 2182.12 1220.42 2180.7 1219.42 2179.28 1218.42 2178.05 1216.82 2177.01 1214.64 2175.97 1212.45 2174.96 1209.58 2173.99 1206.04 2169.1 1205.77 2165.37 1204.15 2162.81 1201.18 2160.24 1198.21 2158.96 1194.02 2158.96 1188.62 2158.96 1184.56 2159.64 1179.98 2161 1174.88 2162.37 1169.77 2164.34 1165.27 2166.92 1161.36 2169.5 1157.46 2172.58 1154.5 2176.16 1152.49 2179.74 1150.47 2183.64 1149.47 2187.85 1149.47Z" fill="#FFFFFF" fill-rule="evenodd"/><text fill="#000000" fill-opacity="0" font-family="Arial,Arial_MSFontService,sans-serif" font-size="71.4497" x="2158.96" y="1211.99">ğ‘„</text><path d="M2220.74 1192.17 2222.2 1192.17 2217.79 1212C2217.52 1213.17 2217.32 1214.11 2217.21 1214.8 2217.1 1215.5 2217.05 1216.12 2217.05 1216.68 2217.05 1217.43 2217.2 1217.98 2217.51 1218.32 2217.82 1218.66 2218.28 1218.82 2218.9 1218.82 2219.25 1218.82 2219.61 1218.75 2219.97 1218.62 2220.32 1218.48 2220.71 1218.26 2221.11 1217.96 2221.52 1217.66 2221.97 1217.28 2222.45 1216.81 2222.94 1216.35 2223.48 1215.79 2224.08 1215.13L2226.1 1217.1C2225.07 1218.15 2224.13 1219.04 2223.29 1219.76 2222.44 1220.49 2221.65 1221.08 2220.89 1221.53 2220.14 1221.99 2219.4 1222.32 2218.67 1222.52 2217.95 1222.72 2217.18 1222.82 2216.36 1222.82 2215.61 1222.82 2214.93 1222.68 2214.32 1222.4 2213.72 1222.12 2213.2 1221.74 2212.76 1221.25 2212.32 1220.77 2211.99 1220.18 2211.75 1219.51 2211.51 1218.83 2211.39 1218.09 2211.39 1217.28 2211.39 1216.62 2211.47 1215.81 2211.63 1214.83 2211.79 1213.86 2211.99 1212.8 2212.24 1211.66 2212.49 1210.52 2212.76 1209.32 2213.06 1208.07 2213.36 1206.82 2213.65 1205.58 2213.94 1204.35 2214.22 1203.12 2214.48 1201.93 2214.71 1200.79 2214.94 1199.65 2215.1 1198.61 2215.2 1197.68 2215.24 1197.52 2215.26 1197.36 2215.26 1197.22 2215.26 1197.07 2215.26 1196.93 2215.26 1196.81 2215.22 1196.04 2214.95 1195.47 2214.44 1195.12 2213.94 1194.76 2213.04 1194.56 2211.75 1194.52L2212.1 1192.49ZM2238.29 1191.87C2239.76 1191.87 2240.89 1192.35 2241.7 1193.31 2242.5 1194.28 2242.9 1195.54 2242.9 1197.11 2242.9 1197.51 2242.87 1197.92 2242.8 1198.36 2242.73 1198.8 2242.61 1199.22 2242.43 1199.61L2242.84 1199.76C2244.77 1197.12 2246.67 1195.15 2248.55 1193.83 2250.42 1192.52 2252.37 1191.87 2254.37 1191.87 2256.48 1191.87 2258.05 1192.43 2259.09 1193.57 2260.13 1194.7 2260.66 1196.29 2260.66 1198.33 2260.66 1198.95 2260.57 1199.8 2260.39 1200.89 2260.21 1201.99 2259.98 1203.18 2259.7 1204.47 2259.42 1205.76 2259.13 1207.08 2258.81 1208.44 2258.49 1209.8 2258.19 1211.06 2257.92 1212.21 2257.64 1213.36 2257.41 1214.35 2257.23 1215.16 2257.05 1215.97 2256.96 1216.48 2256.96 1216.68 2256.96 1217.43 2257.1 1217.98 2257.38 1218.32 2257.66 1218.66 2258.1 1218.82 2258.72 1218.82 2259.1 1218.82 2259.47 1218.75 2259.84 1218.62 2260.2 1218.48 2260.59 1218.26 2260.98 1217.96 2261.38 1217.66 2261.82 1217.28 2262.29 1216.81 2262.77 1216.35 2263.31 1215.79 2263.9 1215.13L2265.96 1217.1C2264.98 1218.09 2264.09 1218.94 2263.28 1219.66 2262.46 1220.37 2261.67 1220.96 2260.91 1221.43 2260.14 1221.9 2259.38 1222.24 2258.63 1222.47 2257.88 1222.7 2257.07 1222.82 2256.22 1222.82 2255.5 1222.82 2254.84 1222.68 2254.24 1222.4 2253.63 1222.12 2253.11 1221.74 2252.67 1221.25 2252.24 1220.77 2251.9 1220.19 2251.66 1219.52 2251.42 1218.86 2251.3 1218.13 2251.3 1217.33 2251.3 1216.54 2251.39 1215.61 2251.56 1214.55 2251.72 1213.49 2251.98 1212.32 2252.32 1211.05 2252.67 1209.76 2253.01 1208.52 2253.31 1207.34 2253.62 1206.16 2253.89 1205.07 2254.12 1204.07 2254.35 1203.06 2254.52 1202.17 2254.65 1201.39 2254.78 1200.6 2254.85 1199.95 2254.85 1199.43 2254.85 1198.2 2254.61 1197.3 2254.15 1196.72 2253.68 1196.15 2252.93 1195.86 2251.9 1195.86 2251.3 1195.86 2250.66 1196.01 2249.98 1196.32 2249.29 1196.63 2248.6 1197.06 2247.91 1197.6 2247.21 1198.15 2246.53 1198.79 2245.87 1199.54 2245.2 1200.28 2244.59 1201.08 2244.04 1201.92 2243.48 1202.77 2242.99 1203.65 2242.56 1204.57 2242.13 1205.5 2241.82 1206.41 2241.62 1207.33L2238.29 1222.28 2232.45 1222.28 2236.92 1202.86C2237.17 1201.83 2237.36 1200.9 2237.48 1200.09 2237.6 1199.28 2237.66 1198.61 2237.66 1198.09 2237.66 1196.64 2237.08 1195.92 2235.9 1195.92 2235.55 1195.92 2235.18 1195.99 2234.82 1196.14 2234.45 1196.29 2234.06 1196.52 2233.66 1196.81 2233.25 1197.11 2232.81 1197.49 2232.33 1197.94 2231.85 1198.4 2231.32 1198.94 2230.72 1199.55L2228.67 1197.62C2229.66 1196.6 2230.57 1195.74 2231.39 1195.01 2232.22 1194.29 2233 1193.69 2233.74 1193.22 2234.49 1192.76 2235.23 1192.41 2235.96 1192.2 2236.7 1191.98 2237.47 1191.87 2238.29 1191.87ZM2219.01 1180.16 2224.97 1180.16 2223.51 1186.57 2217.61 1186.57Z" fill="#FFFFFF" fill-rule="evenodd"/><text fill="#000000" fill-opacity="0" font-family="Arial,Arial_MSFontService,sans-serif" font-size="42.6523" x="2211.39" y="1217.48">ğ‘–ğ‘›</text><rect x="1964.5" y="1375.5" width="524" height="224" stroke="#AE5A21" stroke-width="4.58333" stroke-miterlimit="8" fill="#203864"/><path d="M2171.09 1461.92C2168.17 1461.92 2165.45 1462.96 2162.92 1465.04 2160.4 1467.12 2158.18 1470.09 2156.28 1473.96 2154.37 1477.82 2152.89 1482.06 2151.84 1486.68 2150.79 1491.3 2150.26 1495.38 2150.26 1498.92 2150.26 1507.27 2153.3 1511.44 2159.38 1511.44 2163.13 1511.44 2166.58 1509.7 2169.71 1506.2 2172.85 1502.7 2175.37 1497.85 2177.29 1491.67 2179.21 1485.48 2180.17 1479.7 2180.17 1474.32 2180.17 1470.3 2179.43 1467.22 2177.94 1465.1 2176.45 1462.98 2174.17 1461.92 2171.09 1461.92ZM2171.54 1458.35C2176.75 1458.35 2180.77 1459.87 2183.59 1462.89 2186.42 1465.92 2187.83 1470.3 2187.83 1476.02 2187.83 1479.81 2187.23 1484.03 2186.04 1488.71 2184.86 1493.38 2183.22 1497.51 2181.14 1501.09 2179.06 1504.67 2176.65 1507.55 2173.91 1509.74 2171.16 1511.93 2168.19 1513.44 2164.97 1514.28 2165.59 1516.25 2166.17 1517.88 2166.71 1519.16 2167.25 1520.45 2167.77 1521.49 2168.27 1522.29 2168.77 1523.08 2169.27 1523.68 2169.75 1524.07 2170.24 1524.46 2170.73 1524.72 2171.21 1524.86 2171.7 1524.99 2172.27 1525.06 2172.91 1525.06 2173.94 1525.06 2174.98 1524.76 2176.03 1524.17 2177.09 1523.58 2178.26 1522.55 2179.56 1521.09L2181.67 1523.36C2179.51 1525.71 2177.49 1527.37 2175.63 1528.34 2173.76 1529.32 2171.85 1529.8 2169.87 1529.8 2167.63 1529.8 2165.8 1529.3 2164.38 1528.3 2162.96 1527.3 2161.73 1525.71 2160.69 1523.52 2159.65 1521.33 2158.65 1518.47 2157.68 1514.93 2152.78 1514.66 2149.06 1513.04 2146.49 1510.07 2143.92 1507.09 2142.64 1502.91 2142.64 1497.5 2142.64 1493.45 2143.32 1488.87 2144.69 1483.76 2146.05 1478.66 2148.02 1474.15 2150.6 1470.25 2153.18 1466.34 2156.26 1463.39 2159.84 1461.37 2163.42 1459.36 2167.32 1458.35 2171.54 1458.35Z" fill="#FFFFFF" fill-rule="evenodd"/><text fill="#000000" fill-opacity="0" font-family="Arial,Arial_MSFontService,sans-serif" font-size="71.4497" x="2142.64" y="1520.87">ğ‘„</text><path d="M2210.89 1503.7C2209.78 1503.7 2208.73 1503.95 2207.76 1504.45 2206.79 1504.94 2205.9 1505.63 2205.08 1506.5 2204.27 1507.38 2203.54 1508.41 2202.89 1509.6 2202.25 1510.79 2201.7 1512.07 2201.25 1513.44 2200.81 1514.81 2200.46 1516.24 2200.23 1517.73 2199.99 1519.22 2199.87 1520.71 2199.87 1522.2 2199.87 1524.48 2200.34 1526.17 2201.28 1527.25 2202.23 1528.33 2203.66 1528.87 2205.59 1528.87 2206.66 1528.87 2207.67 1528.61 2208.63 1528.08 2209.58 1527.56 2210.45 1526.85 2211.25 1525.95 2212.04 1525.06 2212.75 1524.01 2213.38 1522.81 2214 1521.61 2214.53 1520.32 2214.97 1518.95 2215.41 1517.58 2215.74 1516.17 2215.97 1514.71 2216.2 1513.25 2216.31 1511.83 2216.31 1510.44 2216.31 1508.23 2215.87 1506.56 2215 1505.42 2214.13 1504.27 2212.76 1503.7 2210.89 1503.7ZM2237.12 1500.76C2238.55 1500.76 2239.69 1501.24 2240.54 1502.2 2241.4 1503.16 2241.83 1504.45 2241.83 1506.06 2241.83 1506.93 2241.75 1507.9 2241.59 1508.98 2241.43 1510.05 2241.16 1511.25 2240.78 1512.58 2240.03 1515.3 2239.43 1517.68 2239 1519.73 2238.56 1521.77 2238.34 1523.27 2238.34 1524.23 2238.34 1525.42 2238.57 1526.31 2239.04 1526.89 2239.51 1527.48 2240.26 1527.77 2241.29 1527.77 2242.22 1527.77 2243.22 1527.42 2244.28 1526.73 2245.34 1526.03 2246.36 1525.13 2247.34 1524.03 2248.31 1522.93 2249.18 1521.7 2249.94 1520.34 2250.71 1518.98 2251.27 1517.63 2251.62 1516.3L2254.9 1501.38 2260.77 1501.38 2256.18 1520.83C2255.94 1521.84 2255.77 1522.75 2255.68 1523.54 2255.58 1524.33 2255.53 1525.01 2255.53 1525.57 2255.53 1526.32 2255.67 1526.87 2255.94 1527.2 2256.22 1527.54 2256.67 1527.71 2257.28 1527.71 2257.66 1527.71 2258.03 1527.64 2258.39 1527.5 2258.74 1527.36 2259.13 1527.14 2259.53 1526.85 2259.94 1526.55 2260.38 1526.17 2260.86 1525.7 2261.33 1525.23 2261.87 1524.67 2262.47 1524.02L2264.52 1525.98C2263.53 1527 2262.62 1527.86 2261.78 1528.59 2260.95 1529.31 2260.15 1529.91 2259.4 1530.38 2258.64 1530.84 2257.89 1531.18 2257.15 1531.39 2256.41 1531.6 2255.64 1531.7 2254.84 1531.7 2253.41 1531.7 2252.29 1531.24 2251.49 1530.32 2250.69 1529.39 2250.28 1528.13 2250.28 1526.52 2250.28 1526.1 2250.31 1525.68 2250.37 1525.25 2250.43 1524.83 2250.54 1524.41 2250.7 1524.02L2250.34 1523.9C2248.38 1526.5 2246.47 1528.45 2244.61 1529.75 2242.75 1531.05 2240.82 1531.7 2238.82 1531.7 2236.71 1531.7 2235.13 1531.15 2234.07 1530.03 2233 1528.92 2232.47 1527.32 2232.47 1525.24 2232.47 1524.7 2232.57 1523.96 2232.76 1523 2232.94 1522.05 2233.18 1520.99 2233.46 1519.82 2233.73 1518.65 2234.03 1517.42 2234.35 1516.14 2234.67 1514.86 2234.96 1513.63 2235.24 1512.45 2235.52 1511.26 2235.75 1510.19 2235.94 1509.23 2236.13 1508.27 2236.23 1507.52 2236.23 1506.98 2236.23 1505.53 2235.63 1504.81 2234.44 1504.81 2234.06 1504.81 2233.69 1504.88 2233.34 1505.03 2232.98 1505.18 2232.6 1505.4 2232.19 1505.7 2231.78 1506 2231.34 1506.37 2230.86 1506.83 2230.39 1507.29 2229.85 1507.82 2229.26 1508.44L2227.23 1506.5C2228.3 1505.43 2229.26 1504.53 2230.1 1503.79 2230.95 1503.06 2231.75 1502.47 2232.5 1502.02 2233.26 1501.57 2234 1501.25 2234.74 1501.05 2235.47 1500.85 2236.27 1500.76 2237.12 1500.76ZM2211.45 1500.76C2213.24 1500.76 2214.81 1501.04 2216.15 1501.62 2217.49 1502.19 2218.6 1502.97 2219.5 1503.96 2220.39 1504.94 2221.06 1506.1 2221.51 1507.43 2221.95 1508.76 2222.18 1510.18 2222.18 1511.69 2222.18 1514.7 2221.73 1517.44 2220.84 1519.89 2219.94 1522.34 2218.71 1524.45 2217.13 1526.21 2215.55 1527.96 2213.69 1529.32 2211.56 1530.27 2209.42 1531.23 2207.11 1531.7 2204.6 1531.7 2202.96 1531.7 2201.48 1531.45 2200.17 1530.96 2198.86 1530.46 2197.74 1529.75 2196.83 1528.81 2195.92 1527.88 2195.22 1526.75 2194.73 1525.43 2194.24 1524.11 2194 1522.62 2194 1520.95 2194 1518.13 2194.44 1515.49 2195.33 1513.04 2196.21 1510.59 2197.43 1508.45 2198.99 1506.64 2200.55 1504.82 2202.39 1503.39 2204.51 1502.33 2206.64 1501.28 2208.95 1500.76 2211.45 1500.76ZM2276.94 1493.82 2281.58 1493.82 2279.89 1501.38 2290.01 1501.38 2289.33 1504.69 2279.23 1504.69 2276.19 1517.17C2275.99 1518 2275.83 1518.75 2275.7 1519.42 2275.57 1520.08 2275.47 1520.68 2275.39 1521.22 2275.31 1521.75 2275.25 1522.24 2275.22 1522.68 2275.19 1523.11 2275.18 1523.52 2275.18 1523.9 2275.18 1525.09 2275.43 1526.02 2275.92 1526.7 2276.42 1527.37 2277.23 1527.71 2278.37 1527.71 2279.32 1527.71 2280.33 1527.36 2281.4 1526.65 2282.48 1525.95 2283.7 1524.84 2285.07 1523.33L2287.12 1525.42C2286.11 1526.55 2285.15 1527.51 2284.23 1528.31 2283.32 1529.1 2282.43 1529.75 2281.55 1530.26 2280.68 1530.76 2279.82 1531.13 2278.96 1531.36 2278.11 1531.59 2277.23 1531.7 2276.34 1531.7 2273.98 1531.7 2272.22 1531.15 2271.05 1530.03 2269.89 1528.92 2269.31 1527.28 2269.31 1525.12 2269.31 1524.38 2269.37 1523.58 2269.48 1522.69 2269.58 1521.81 2269.74 1520.95 2269.94 1520.12L2273.48 1504.69 2268.36 1504.69 2268.95 1502.39C2270.15 1502.39 2271.07 1502.28 2271.74 1502.05 2272.4 1501.82 2272.96 1501.51 2273.42 1501.11 2273.72 1500.83 2274.01 1500.49 2274.29 1500.08 2274.56 1499.68 2274.84 1499.19 2275.12 1498.61 2275.4 1498.03 2275.68 1497.35 2275.97 1496.57 2276.26 1495.79 2276.58 1494.87 2276.94 1493.82Z" fill="#FFFFFF" fill-rule="evenodd"/><text fill="#000000" fill-opacity="0" font-family="Arial,Arial_MSFontService,sans-serif" font-size="37.8867" x="2194" y="1526.97">ğ‘œğ‘¢ğ‘¡</text><path d="M3.4375-3.28612e-06 3.43784 354.6-3.43716 354.6-3.4375 3.28612e-06ZM13.7503 350.017 0.000360892 377.517-13.7497 350.017Z" transform="matrix(1 0 0 -1 1960.5 1352.02)"/><path d="M2485 810 2485 1600.08" stroke="#000000" stroke-width="2.29167" stroke-miterlimit="8" stroke-dasharray="9.16667 6.875" fill="none" fill-rule="evenodd"/><path d="M1746 954 2660.66 954" stroke="#000000" stroke-width="2.29167" stroke-miterlimit="8" stroke-dasharray="9.16667 6.875" fill="none" fill-rule="evenodd"/><path d="M1960 807 1960 1597.08" stroke="#000000" stroke-width="2.29167" stroke-miterlimit="8" stroke-dasharray="9.16667 6.875" fill="none" fill-rule="evenodd"/><path d="M1753.18 712.414 1753.2 1598.95 1748.62 1594.37 2635.03 1594.37 2635.03 1603.53 1744.04 1603.53 1744.02 712.414ZM1734.87 717.059 1748.5 689.5 1762.37 716.941ZM2630.45 1585.2 2657.95 1598.95 2630.45 1612.7Z"/><path d="M1941 954.5C1941 943.73 1949.73 935 1960.5 935 1971.27 935 1980 943.73 1980 954.5 1980 965.269 1971.27 974 1960.5 974 1949.73 974 1941 965.269 1941 954.5Z" fill="#4472C4" fill-rule="evenodd"/><path d="M1746 1371 2660.66 1371" stroke="#000000" stroke-width="2.29167" stroke-miterlimit="8" stroke-dasharray="9.16667 6.875" fill="none" fill-rule="evenodd"/><text font-family="Tw Cen MT,Tw Cen MT_MSFontService,sans-serif" font-weight="400" font-size="83" transform="matrix(1 0 0 1 1922.84 1688)">S</text><text font-family="Tw Cen MT,Tw Cen MT_MSFontService,sans-serif" font-weight="400" font-size="55" transform="matrix(1 0 0 1 1964.09 1708)">1</text><path d="M2465 954.5C2465 943.73 2473.73 935 2484.5 935 2495.27 935 2504 943.73 2504 954.5 2504 965.269 2495.27 974 2484.5 974 2473.73 974 2465 965.269 2465 954.5Z" fill="#4472C4" fill-rule="evenodd"/><path d="M1980.5 951.063 2442.84 951.063 2442.84 957.938 1980.5 957.938ZM2438.25 940.75 2465.75 954.5 2438.25 968.25Z"/><path d="M2465 1370.5C2465 1359.73 2473.73 1351 2484.5 1351 2495.27 1351 2504 1359.73 2504 1370.5 2504 1381.27 2495.27 1390 2484.5 1390 2473.73 1390 2465 1381.27 2465 1370.5Z" fill="#4472C4" fill-rule="evenodd"/><path d="M2488.94 974.5 2488.94 1329.1 2482.06 1329.1 2482.06 974.5ZM2499.25 1324.52 2485.5 1352.02 2471.75 1324.52Z"/><path d="M1940 1370.5C1940 1359.73 1948.73 1351 1959.5 1351 1970.27 1351 1979 1359.73 1979 1370.5 1979 1381.27 1970.27 1390 1959.5 1390 1948.73 1390 1940 1381.27 1940 1370.5Z" fill="#4472C4" fill-rule="evenodd"/><path d="M2.55049e-06-3.4375 463.486-3.43716 463.486 3.43784-2.55049e-06 3.4375ZM458.903-13.7497 486.403 0.000360892 458.903 13.7503Z" transform="matrix(-1 0 0 1 2465.9 1371.5)"/><text font-family="Tw Cen MT,Tw Cen MT_MSFontService,sans-serif" font-weight="400" font-size="83" transform="matrix(1 0 0 1 1601.49 983)">T</text><text font-family="Tw Cen MT,Tw Cen MT_MSFontService,sans-serif" font-weight="400" font-size="55" transform="matrix(1 0 0 1 1637.58 1003)">Hot</text><text font-family="Tw Cen MT,Tw Cen MT_MSFontService,sans-serif" font-weight="400" font-size="83" transform="matrix(1 0 0 1 1575.76 1398)">T</text><text font-family="Tw Cen MT,Tw Cen MT_MSFontService,sans-serif" font-weight="400" font-size="55" transform="matrix(1 0 0 1 1609.41 1418)">Cold</text><text font-family="Tw Cen MT,Tw Cen MT_MSFontService,sans-serif" font-weight="400" font-size="83" transform="matrix(-1.83697e-16 -1 1 -1.83697e-16 1545.71 1097)">T</text><text font-family="Tw Cen MT,Tw Cen MT_MSFontService,sans-serif" font-weight="400" font-size="83" transform="matrix(-1.83697e-16 -1 1 -1.83697e-16 1545.71 1068)">emperature</text><text font-family="Tw Cen MT,Tw Cen MT_MSFontService,sans-serif" font-weight="400" font-size="83" transform="matrix(1 0 0 1 2415.67 1788)">Entropy</text><text font-family="Tw Cen MT,Tw Cen MT_MSFontService,sans-serif" font-weight="400" font-size="83" transform="matrix(1 0 0 1 2451.3 1692)">S</text><text font-family="Tw Cen MT,Tw Cen MT_MSFontService,sans-serif" font-weight="400" font-size="55" transform="matrix(1 0 0 1 2492.55 1712)">2</text><text font-family="Tw Cen MT,Tw Cen MT_MSFontService,sans-serif" font-weight="400" font-size="83" transform="matrix(1 0 0 1 1792.68 1122)">W</text><text font-family="Tw Cen MT,Tw Cen MT_MSFontService,sans-serif" font-weight="400" font-size="55" transform="matrix(1 0 0 1 1875.18 1142)">in</text><path d="M165.724-1.11247 182.938 3.75695 195.134 9.63183 206.414 16.4846 216.944 24.3588 226.656 33.1862 235.484 42.8987 243.358 53.4288 250.211 64.7087 255.973 76.6703 260.575 89.2441 263.947 102.359 266.02 115.944 266.709 129.575 252.976 130.268 252.305 116.984 252.375 117.675 250.407 104.775 250.545 105.45 247.343 92.9987 247.545 93.6496 243.177 81.713 243.439 82.3338 237.968 70.9768 238.286 71.5626 231.778 60.8506 232.148 61.3982 224.669 51.3965 225.087 51.9033 216.702 42.677 217.165 43.1407 207.939 34.7554 208.446 35.1735 198.444 27.6944 198.992 28.0642 188.28 21.5565 188.866 21.8746 177.509 16.4037 178.621 16.8253 161.982 12.1184ZM167.337 26.9625 129.921 0 173.941-13.7555Z" transform="matrix(-0.707107 -0.707107 -0.707107 0.707107 2152.8 1296.95)"/><text font-family="Tw Cen MT,Tw Cen MT_MSFontService,sans-serif" font-weight="400" font-size="83" transform="matrix(1 0 0 1 2521.19 1274)">W</text><text font-family="Tw Cen MT,Tw Cen MT_MSFontService,sans-serif" font-weight="400" font-size="55" transform="matrix(1 0 0 1 2603.69 1294)">out</text><path d="M165.724-1.11247 182.938 3.75695 195.134 9.63183 206.414 16.4846 216.944 24.3588 226.656 33.1862 235.484 42.8987 243.358 53.4288 250.211 64.7087 255.973 76.6703 260.575 89.2441 263.947 102.359 266.02 115.944 266.709 129.575 252.976 130.268 252.305 116.984 252.375 117.675 250.407 104.775 250.545 105.45 247.343 92.9987 247.545 93.6496 243.177 81.713 243.439 82.3338 237.968 70.9768 238.286 71.5626 231.778 60.8506 232.148 61.3982 224.669 51.3965 225.087 51.9033 216.702 42.677 217.165 43.1407 207.939 34.7554 208.446 35.1735 198.444 27.6944 198.992 28.0642 188.28 21.5565 188.866 21.8746 177.509 16.4037 178.621 16.8253 161.982 12.1184ZM167.337 26.9625 129.921 0 173.941-13.7555Z" transform="matrix(-0.707107 -0.707107 -0.707107 0.707107 2676.16 1275.63)"/></g></svg>