<svg width="3718" height="1394" xmlns="http://www.w3.org/2000/svg" xmlns:xlink="http://www.w3.org/1999/xlink" xml:space="preserve" overflow="hidden"><defs><clipPath id="clip0"><rect x="335" y="790" width="3718" height="1394"/></clipPath><linearGradient x1="2441.5" y1="1435.5" x2="3930.5" y2="1435.5" gradientUnits="userSpaceOnUse" spreadMethod="reflect" id="fill1"><stop offset="0" stop-color="#8FAADC"/><stop offset="0.5" stop-color="#AFADAD"/><stop offset="1" stop-color="#F4B183"/></linearGradient></defs><g clip-path="url(#clip0)" transform="translate(-335 -790)"><path d="M3173.71 818.5 3225.47 833.297 3278.71 867.823 3321.6 927.011 3383.72 1055.25 3432.52 1193.36 3507.94 1405.45 3593.72 1620 3680.97 1767.97 3726.82 1841.96 3803.72 1938.14 3877.67 2007.19 3930.5 2052.5 2441.5 2052.5 2493.42 1984.99 2598.42 1817.3 2663.49 1703.85 2740.4 1558.35 2818.78 1393.12 2898.64 1220.48 2962.23 1082.38 3022.87 954.139 3080.54 865.357 3121.95 830.831 3173.71 818.5Z" stroke="#000000" stroke-width="4.58333" stroke-miterlimit="8" fill="url(#fill1)" fill-rule="evenodd"/><path d="M3176.73 818.5 3215.77 833.297 3255.92 867.823 3288.27 927.011 3335.12 1055.25 3371.92 1193.36 3428.81 1405.45 3493.5 1620 3559.31 1767.97 3593.88 1841.96 3651.88 1938.14 3707.65 2007.19 3747.5 2052.5 2624.5 2052.5 2663.66 1984.99 2742.85 1817.3 2791.93 1703.85 2849.93 1558.35 2909.04 1393.12 2969.27 1220.48 3017.23 1082.38 3062.96 954.139 3106.46 865.357 3137.69 830.831 3176.73 818.5Z" stroke="#767171" stroke-width="4.58333" stroke-miterlimit="8" fill="none" fill-rule="evenodd"/><path d="M3178.75 818.5 3207.19 833.297 3236.43 867.823 3259.99 927.011 3294.12 1055.25 3320.93 1193.36 3362.36 1405.45 3409.49 1620 3457.42 1767.97 3482.61 1841.96 3524.85 1938.14 3565.48 2007.19 3594.5 2052.5 2776.5 2052.5 2805.02 1984.99 2862.71 1817.3 2898.46 1703.85 2940.7 1558.35 2983.76 1393.12 3027.63 1220.48 3062.57 1082.38 3095.88 954.139 3127.57 865.357 3150.31 830.831 3178.75 818.5Z" stroke="#767171" stroke-width="4.58333" stroke-miterlimit="8" fill="none" fill-rule="evenodd"/><path d="M3181.55 818.5 3200.29 833.297 3219.56 867.823 3235.09 927.011 3257.57 1055.25 3275.24 1193.36 3302.54 1405.45 3333.59 1620 3365.17 1767.97 3381.77 1841.96 3409.61 1938.14 3436.37 2007.19 3455.5 2052.5 2916.5 2052.5 2935.29 1984.99 2973.3 1817.3 2996.86 1703.85 3024.7 1558.35 3053.07 1393.12 3081.98 1220.48 3105 1082.38 3126.95 954.139 3147.83 865.357 3162.81 830.831 3181.55 818.5Z" stroke="#767171" stroke-width="4.58333" stroke-miterlimit="8" fill="none" fill-rule="evenodd"/><path d="M3184.2 818.5 3189.69 833.297 3195.34 867.823 3199.89 927.011 3206.48 1055.25 3211.66 1193.36 3219.66 1405.45 3228.76 1620 3238.02 1767.97 3242.89 1841.96 3251.05 1938.14 3258.89 2007.19 3264.5 2052.5 3106.5 2052.5 3112.01 1984.99 3123.15 1817.3 3130.06 1703.85 3138.22 1558.35 3146.53 1393.12 3155.01 1220.48 3161.76 1082.38 3168.19 954.139 3174.31 865.357 3178.7 830.831 3184.2 818.5Z" stroke="#767171" stroke-width="4.58333" stroke-miterlimit="8" fill="none" fill-rule="evenodd"/><path d="M244.483 388.589C248.847 447.433 251.072 509.122 251.072 571.227" stroke="#A5A5A5" stroke-width="2.29167" stroke-miterlimit="8" fill="none" fill-rule="evenodd" transform="matrix(0.833926 0.551876 0.551876 -0.833926 2084.24 2131.74)"/><path d="M3600.5 1799.9 2620 1799" stroke="#A5A5A5" stroke-width="2.29167" stroke-miterlimit="8" fill="none" fill-rule="evenodd"/><path d="M143.228 5.70102C177.996 28.2217 209.101 115.982 228.993 247.677" stroke="#A5A5A5" stroke-width="2.29167" stroke-miterlimit="8" fill="none" fill-rule="evenodd" transform="matrix(0.890247 0.455478 0.455478 -0.890247 3364.9 1249.2)"/><path d="M3.4375-1.00548e-06 3.43785 1210.9-3.43715 1210.9-3.4375 1.00548e-06ZM13.7504 1206.31 0.000360892 1233.81-13.7496 1206.31Z" transform="matrix(1 0 0 -1 2438.5 2052.31)"/><path d="M7.96451e-07-3.4375 1534.7-3.43714 1534.7 3.43786-7.96451e-07 3.4375ZM1530.12-13.7496 1557.62 0.000360892 1530.12 13.7504Z" transform="matrix(1 0 0 -1 2438.5 2050.5)"/><text font-family="Arial,Arial_MSFontService,sans-serif" font-weight="400" font-size="64" transform="matrix(-1.83697e-16 -1 1 -1.83697e-16 2400.07 1195)">T</text><text font-family="Arial,Arial_MSFontService,sans-serif" font-weight="400" font-size="64" transform="matrix(-1.83697e-16 -1 1 -1.83697e-16 2400.07 1156)">emperature</text><text font-family="Arial,Arial_MSFontService,sans-serif" font-weight="400" font-size="64" transform="matrix(1 0 0 1 3733.29 2130)">Entropy</text><path d="M143.228 5.70102C205.101 45.7785 251.072 286.847 251.072 571.226" stroke="#A5A5A5" stroke-width="2.29167" stroke-miterlimit="8" fill="none" fill-rule="evenodd" transform="matrix(0.890247 0.455478 0.455478 -0.890247 3567.39 1737.98)"/><text font-family="Arial,Arial_MSFontService,sans-serif" font-weight="400" font-size="64" transform="matrix(1 0 0 1 3563.03 1071)">P</text><text font-family="Arial,Arial_MSFontService,sans-serif" font-weight="400" font-size="43" transform="matrix(1 0 0 1 3605.99 1086)">high</text><text font-family="Arial,Arial_MSFontService,sans-serif" font-weight="400" font-size="64" transform="matrix(1 0 0 1 3802.59 1358)">P</text><text font-family="Arial,Arial_MSFontService,sans-serif" font-weight="400" font-size="43" transform="matrix(1 0 0 1 3845.56 1373)">low</text><path d="M2592 1799.5C2592 1791.49 2598.27 1785 2606 1785 2613.73 1785 2620 1791.49 2620 1799.5 2620 1807.51 2613.73 1814 2606 1814 2598.27 1814 2592 1807.51 2592 1799.5Z" fill="#002060" fill-rule="evenodd"/><path d="M3459 1309.5C3459 1301.49 3465.49 1295 3473.5 1295 3481.51 1295 3488 1301.49 3488 1309.5 3488 1317.51 3481.51 1324 3473.5 1324 3465.49 1324 3459 1317.51 3459 1309.5Z" fill="#002060" fill-rule="evenodd"/><path d="M3601 1803.83 2643.41 1802.96 2643.42 1796.08 3601.01 1796.96ZM2647.99 1813.28 2620.5 1799.5 2648.01 1785.78Z"/><path d="M0.0295476-3.43737 21.8717-3.24962 43.6938-2.68525 87.0402-0.492876 129.714 3.01625 171.372 7.83981 191.685 10.6611 211.68 13.7324 231.179 17.1181 250.237 20.7542 268.795 24.6412 286.795 28.718 304.174 33.047 320.992 37.5653 337.063 42.2737 352.394 47.1118 367.049 52.2062 380.827 57.4283 393.81 62.7851 405.93 68.3401 417.06 73.9683 427.28 79.7448 436.452 85.6683 444.65 91.6893 451.862 97.975 458.951 107.696 453.396 111.747 446.535 102.338 447.054 102.904 440.241 96.9664 440.465 97.1456 432.465 91.2706 432.635 91.3876 423.635 85.5751 423.809 85.6801 413.746 79.9926 413.886 80.0676 402.886 74.5051 403.005 74.5624 391.005 69.0624 391.126 69.1151 378.251 63.8026 378.344 63.8394 364.657 58.6519 364.746 58.6844 350.184 53.6219 350.278 53.6531 335.028 48.8406 335.096 48.8613 319.096 44.1738 319.171 44.1948 302.421 39.6948 302.482 39.7106 285.169 35.3981 285.241 35.4151 267.303 31.3526 267.358 31.3645 248.858 27.4895 248.918 27.5016 229.918 23.8766 229.974 23.8868 210.537 20.5118 210.603 20.5226 190.666 17.4602 190.715 17.4673 170.465 14.6548 170.542 14.6647 128.98 9.85219 129.093 9.86344 86.5308 6.36344 86.6389 6.37061 43.3889 4.18311 43.4736 4.18635 21.7236 3.62385 21.783 3.62487-0.0295476 3.43737ZM466.883 99.9561 465.467 130.669 441.746 111.108Z" transform="matrix(1.83697e-16 1 1 -1.83697e-16 3474.5 1324.5)"/><text font-family="Arial,Arial_MSFontService,sans-serif" font-weight="400" font-size="64" transform="matrix(1 0 0 1 2586.69 1745)">C</text><text font-family="Arial,Arial_MSFontService,sans-serif" font-weight="400" font-size="64" transform="matrix(1 0 0 1 3475.59 1263)">A</text><path d="M3604.56 1789.65C3609.83 1783.68 3618.95 1783.11 3624.92 1788.38 3630.89 1793.66 3631.46 1802.77 3626.19 1808.74 3620.92 1814.71 3611.8 1815.28 3605.83 1810.01 3599.86 1804.74 3599.29 1795.62 3604.56 1789.65Z" fill="#002060" fill-rule="evenodd"/><text font-family="Arial,Arial_MSFontService,sans-serif" font-weight="400" font-size="64" transform="matrix(1 0 0 1 3631.32 1868)">B</text><path d="M0 0 6.68878 0.402395" stroke="#A5A5A5" stroke-width="2.29167" stroke-miterlimit="8" fill="none" fill-rule="evenodd" transform="matrix(-1 0 0 1 3494.69 1309)"/><path d="M0 0 67.7308 0.153018" stroke="#A5A5A5" stroke-width="2.29167" stroke-miterlimit="8" fill="none" fill-rule="evenodd" transform="matrix(-1 0 0 1 3697.73 1798)"/><text font-family="Arial,Arial_MSFontService,sans-serif" font-weight="400" font-size="64" transform="matrix(1 0 0 1 2501.47 1152)">Liquid Phase</text><text font-family="Arial,Arial_MSFontService,sans-serif" font-weight="400" font-size="64" transform="matrix(1 0 0 1 2857.56 2005)">Liquid &amp; Vapour Phase</text><text font-family="Arial,Arial_MSFontService,sans-serif" font-weight="400" font-size="64" transform="matrix(1 0 0 1 3369.73 890)">Vapour Phase</text><path d="M1861.5 1973.5C1861.5 1973.5 1861.5 1973.5 1861.5 1973.5 1861.5 1973.5 1861.5 1973.5 1861.5 1973.5 1861.5 1973.5 1861.5 1973.5 1861.5 1973.5 1861.5 1973.5 1861.5 1973.5 1861.5 1973.5Z" stroke="#2F528F" stroke-width="4.58333" stroke-miterlimit="8" fill="#4472C4" fill-rule="evenodd"/><path d="M1542.5 1433.5C1597.73 1433.5 1642.5 1478.29 1642.5 1533.55 1642.5 1561.18 1631.31 1586.19 1613.21 1604.29L1612.17 1605.15 1642.5 1635.5 1442.5 1635.5 1472.83 1605.15 1471.79 1604.29C1453.69 1586.19 1442.5 1561.18 1442.5 1533.55 1442.5 1478.29 1487.27 1433.5 1542.5 1433.5Z" stroke="#787878" stroke-width="4.58333" stroke-miterlimit="8" fill="#A5A5A5" fill-rule="evenodd"/><path d="M1534.5 1534.5C1534.5 1530.08 1538.08 1526.5 1542.5 1526.5 1546.92 1526.5 1550.5 1530.08 1550.5 1534.5 1550.5 1538.92 1546.92 1542.5 1542.5 1542.5 1538.08 1542.5 1534.5 1538.92 1534.5 1534.5Z" stroke="#000000" stroke-width="4.58333" stroke-miterlimit="8" fill-rule="evenodd"/><path d="M0-4.58333 378.483-4.58333 378.483 79.632 369.316 79.632 369.316 0 373.9 4.58333 0 4.58333ZM387.65 75.0487 373.9 102.549 360.15 75.0487Z" fill="#0E2680" transform="matrix(-1 1.22465e-16 1.22465e-16 1 1491.4 1299.5)"/><path d="M4.59104 22.9151 4.62664 128.81-4.54003 128.813-4.57563 22.9182ZM-13.7408 27.5046 0 0 13.7592 27.4954Z" fill="#FF6600" transform="matrix(1 0 0 -1 1117.5 1790.31)"/><text fill="#002060" font-family="Arial,Arial_MSFontService,sans-serif" font-weight="400" font-size="64" transform="matrix(1 0 0 1 1185.99 1270)">Coolant</text><path d="M1261.56 1526.92 1511.16 1530.02 1511.05 1539.18 1261.44 1536.08ZM1506.69 1520.79 1534.02 1534.89 1506.35 1548.29Z" fill="#2E75B6"/><path d="M1542.55 1428.92 1879.98 1432.25 1879.89 1441.41 1542.45 1438.08ZM1875.49 1423.03 1902.85 1437.06 1875.21 1450.53Z" fill="#2E75B6"/><path d="M784.5 1256.92 792.375 1256.92 792.375 1530.76 787.792 1526.17 949.063 1526.17 949.063 1535.34 783.209 1535.34 783.209 1261.5 787.792 1266.08 784.5 1266.08ZM944.479 1517.01 971.979 1530.76 944.479 1544.51Z" fill="#C00000"/><path d="M335.5 923.917 530.833 923.917 530.724 993.797 521.557 993.783 521.659 928.493 526.242 933.083 335.5 933.083ZM539.989 989.514 525.63 1016.7 512.496 988.902Z" fill="#C00000"/><rect x="386.5" y="880.5" width="104" height="104" stroke="#2F528F" stroke-width="4.58333" stroke-miterlimit="8" fill="#FFFFFF"/><text fill="#002060" font-family="Calibri,Calibri_MSFontService,sans-serif" font-weight="400" font-size="83" transform="matrix(1 0 0 1 413.847 959)">A</text><path d="M797.5 977.5 797.5 1208.42 797.5 1245.1 797.5 1253.25 797.5 1253.25C797.5 1257.8 791.471 1261.5 784.034 1261.5 776.597 1261.5 770.568 1257.8 770.568 1253.25L770.568 1253.25 770.568 1238.77 512.5 1178.2 512.5 1068.74 512.5 1044.4 512.5 1024.09 512.5 1023.92 512.612 1023.92 516.444 1018.25C518.881 1016.76 522.248 1015.83 525.966 1015.83 529.685 1015.83 533.051 1016.76 535.488 1018.25L539.32 1023.92 539.432 1023.92 539.432 1024.09 539.432 1038.08Z" stroke="#FFC000" stroke-width="4.58333" stroke-miterlimit="8" fill="#FFFF00" fill-rule="evenodd"/><text fill="#002060" font-family="Calibri,Calibri_MSFontService,sans-serif" font-weight="400" font-size="64" transform="matrix(1 0 0 1 553.478 1141)">Turbine</text><rect x="813.5" y="1479.5" width="104" height="104" stroke="#2F528F" stroke-width="4.58333" stroke-miterlimit="8" fill="#FFFFFF"/><text fill="#002060" font-family="Calibri,Calibri_MSFontService,sans-serif" font-weight="400" font-size="83" transform="matrix(1 0 0 1 842.509 1559)">B</text><text fill="#002060" font-family="Arial,Arial_MSFontService,sans-serif" font-weight="400" font-size="64" transform="matrix(1 0 0 1 1686.13 1403)">To Reinjection</text><rect x="1298.5" y="1480.5" width="104" height="104" stroke="#2F528F" stroke-width="4.58333" stroke-miterlimit="8" fill="#FFFFFF"/><text fill="#002060" font-family="Calibri,Calibri_MSFontService,sans-serif" font-weight="400" font-size="83" transform="matrix(1 0 0 1 1328.12 1560)">C</text><text fill="#002060" font-family="Arial,Arial_MSFontService,sans-serif" font-weight="400" font-size="64" transform="matrix(1 0 0 1 1661.44 1568)">Pump</text><text fill="#002060" font-family="Arial,Arial_MSFontService,sans-serif" font-weight="400" font-size="64" transform="matrix(1 0 0 1 710.759 1712)">Condenser</text><path d="M0 0 175.734 0.930381" stroke="#000000" stroke-width="36.6667" stroke-miterlimit="8" fill="none" fill-rule="evenodd" transform="matrix(1 0 0 -1 800.5 1124.43)"/><path d="M976.5 1123.5C976.5 1085.94 1006.94 1055.5 1044.5 1055.5 1082.06 1055.5 1112.5 1085.94 1112.5 1123.5 1112.5 1161.06 1082.06 1191.5 1044.5 1191.5 1006.94 1191.5 976.5 1161.06 976.5 1123.5Z" stroke="#2F528F" stroke-width="4.58333" stroke-miterlimit="8" fill="#4472C4" fill-rule="evenodd"/><text fill="#002060" font-family="Arial,Arial_MSFontService,sans-serif" font-weight="400" font-size="64" transform="matrix(1 0 0 1 888.649 1022)">Generator</text><path d="M987.5 1531.5C987.5 1459.7 1045.7 1401.5 1117.5 1401.5 1189.3 1401.5 1247.5 1459.7 1247.5 1531.5 1247.5 1603.3 1189.3 1661.5 1117.5 1661.5 1045.7 1661.5 987.5 1603.3 987.5 1531.5Z" stroke="#000000" stroke-width="6.875" stroke-miterlimit="8" fill="#8FAADC" fill-rule="evenodd"/><path d="M1196.68 1489 1213.22 1489 1213.22 1522.63 1262 1522.63 1261.42 1530.23 1262 1539.06 1213.22 1539.06 1211.58 1539.06 1196.68 1539.06 1196.68 1508.98 1037.03 1572.12 1037.03 1572.7 1035.56 1572.7 1034.79 1573 1034.67 1572.7 1020.48 1572.7 1020.48 1539.06 971.794 1539.06 971 1530.23 971.794 1522.63 1020.48 1522.63 1022.21 1522.63 1037.03 1522.63 1037.03 1554.43 1196.68 1491.3 1196.68 1489Z" fill="#C00000" fill-rule="evenodd"/><text font-family="Arial,Arial_MSFontService,sans-serif" font-weight="400" font-size="64" transform="matrix(1 0 0 1 3432.33 1570)">1</text><text font-family="Arial,Arial_MSFontService,sans-serif" font-weight="400" font-size="64" transform="matrix(1 0 0 1 3134.62 1868)">2</text></g></svg>