<svg width="2034" height="1950" xmlns="http://www.w3.org/2000/svg" xmlns:xlink="http://www.w3.org/1999/xlink" xml:space="preserve" overflow="hidden"><defs><clipPath id="clip0"><rect x="1295" y="463" width="2034" height="1950"/></clipPath></defs><g clip-path="url(#clip0)" transform="translate(-1295 -463)"><path d="M431.718 27.8566C811.098-39.5807 1266.68 19.3269 1449.29 159.431 1495.97 195.246 1521.59 234.307 1524.45 274.042" stroke="#4472C4" stroke-width="2.29167" stroke-miterlimit="8" fill="none" fill-rule="evenodd" transform="matrix(-0.426883 -0.904307 -0.904307 0.426883 2877.67 2545)"/><path d="M1534.41 2119.23C1682.74 1632.87 1895.32 1260.68 2016.33 1275.48" stroke="#4472C4" stroke-width="2.29167" stroke-miterlimit="8" fill="none" fill-rule="evenodd"/><path d="M244.483 388.589C248.847 447.433 251.073 509.122 251.073 571.227" stroke="#A5A5A5" stroke-width="2.29167" stroke-miterlimit="8" fill="none" fill-rule="evenodd" transform="matrix(0.890247 0.455478 0.455478 -0.890247 1094.39 2380.11)"/><path d="M0 0 1018.61 0.000360892" stroke="#A5A5A5" stroke-width="2.29167" stroke-miterlimit="8" fill="none" fill-rule="evenodd" transform="matrix(-1 0 0 1 2609.61 1987)"/><path d="M143.228 5.70101C205.101 45.7785 251.072 286.847 251.072 571.226" stroke="#A5A5A5" stroke-width="2.29167" stroke-miterlimit="8" fill="none" fill-rule="evenodd" transform="matrix(0.890247 0.455478 0.455478 -0.890247 2220.38 1443.1)"/><path d="M3.4375-1.00548e-06 3.43785 1210.9-3.43715 1210.9-3.4375 1.00548e-06ZM13.7504 1206.31 0.000360892 1233.81-13.7496 1206.31Z" transform="matrix(1 0 0 -1 1461.5 2245.31)"/><path d="M7.96451e-07-3.4375 1534.7-3.43714 1534.7 3.43786-7.96451e-07 3.4375ZM1530.12-13.7496 1557.62 0.000360892 1530.12 13.7504Z" transform="matrix(1 0 0 -1 1461.5 2242.5)"/><text font-family="Arial,Arial_MSFontService,sans-serif" font-weight="400" font-size="64" transform="matrix(1 0 0 1 1373.73 1089)">T</text><text font-family="Arial,Arial_MSFontService,sans-serif" font-weight="400" font-size="64" transform="matrix(1 0 0 1 2948.53 2322)">S</text><path d="M143.228 5.70101C205.101 45.7785 251.072 286.847 251.072 571.226" stroke="#A5A5A5" stroke-width="2.29167" stroke-miterlimit="8" fill="none" fill-rule="evenodd" transform="matrix(0.890247 0.455478 0.455478 -0.890247 2473.96 1926.7)"/><text font-family="Arial,Arial_MSFontService,sans-serif" font-weight="400" font-size="64" transform="matrix(1 0 0 1 2727.95 1119)">P</text><text font-family="Arial,Arial_MSFontService,sans-serif" font-weight="400" font-size="43" transform="matrix(1 0 0 1 2770.92 1134)">high</text><text font-family="Arial,Arial_MSFontService,sans-serif" font-weight="400" font-size="64" transform="matrix(1 0 0 1 2825.57 1550)">P</text><text font-family="Arial,Arial_MSFontService,sans-serif" font-weight="400" font-size="43" transform="matrix(1 0 0 1 2868.54 1565)">low</text><path d="M1562 1986.5C1562 1978.49 1568.49 1972 1576.5 1972 1584.51 1972 1591 1978.49 1591 1986.5 1591 1994.51 1584.51 2001 1576.5 2001 1568.49 2001 1562 1994.51 1562 1986.5Z" fill="#4472C4" fill-rule="evenodd"/><path d="M2323 1502.5C2323 1494.49 2329.49 1488 2337.5 1488 2345.51 1488 2352 1494.49 2352 1502.5 2352 1510.51 2345.51 1517 2337.5 1517 2329.49 1517 2323 1510.51 2323 1502.5Z" fill="#4472C4" fill-rule="evenodd"/><path d="M0.00810052-3.43749 815.566-1.51561 815.549 5.35937-0.00810052 3.43749ZM811.008-11.8389 838.475 1.97589 810.943 15.661Z" transform="matrix(-1 0 0 1 2429.98 1985.5)"/><path d="M2340.94 1517.5 2340.94 1950.3 2334.06 1950.3 2334.06 1517.5ZM2351.25 1945.72 2337.5 1973.22 2323.75 1945.72Z"/><path d="M2323 1986.5C2323 1978.49 2329.49 1972 2337.5 1972 2345.51 1972 2352 1978.49 2352 1986.5 2352 1994.51 2345.51 2001 2337.5 2001 2329.49 2001 2323 1994.51 2323 1986.5Z" fill="#4472C4" fill-rule="evenodd"/><text font-family="Arial,Arial_MSFontService,sans-serif" font-weight="400" font-size="64" transform="matrix(1 0 0 1 1620.47 1962)">3</text><text font-family="Arial,Arial_MSFontService,sans-serif" font-weight="400" font-size="64" transform="matrix(1 0 0 1 2203.04 1962)">2s</text><text font-family="Arial,Arial_MSFontService,sans-serif" font-weight="400" font-size="64" transform="matrix(1 0 0 1 2330.98 1469)">1</text><path d="M2430 1984.5C2430 1976.49 2436.49 1970 2444.5 1970 2452.51 1970 2459 1976.49 2459 1984.5 2459 1992.51 2452.51 1999 2444.5 1999 2436.49 1999 2430 1992.51 2430 1984.5Z" fill="#4472C4" fill-rule="evenodd"/><path d="M2347.93 1512.29 2350.37 1552.86 2352.87 1593.04 2352.87 1593.02 2355.55 1632.45 2355.55 1632.42 2358.55 1670.73 2358.55 1670.69 2360.24 1689.31 2360.23 1689.3 2361.98 1707.55 2361.98 1707.51 2363.86 1725.26 2363.85 1725.22 2365.91 1742.47 2365.91 1742.43 2368.1 1759.12 2368.09 1759.07 2370.4 1775.14 2370.39 1775.06 2372.95 1790.5 2372.94 1790.45 2375.63 1805.2 2375.61 1805.11 2378.55 1819.11 2378.54 1819.04 2381.6 1832.35 2381.58 1832.26 2384.89 1844.94 2384.87 1844.87 2388.31 1856.93 2388.28 1856.86 2391.85 1868.36 2391.82 1868.27 2395.57 1879.27 2395.54 1879.19 2399.41 1889.75 2399.39 1889.69 2403.33 1899.82 2403.28 1899.7 2411.53 1918.83 2411.48 1918.72 2420.04 1936.78 2420 1936.69 2427.06 1950.57 2420.93 1953.69 2413.85 1939.77 2405.24 1921.6 2396.94 1902.37 2392.97 1892.15 2389.07 1881.52 2385.29 1870.44 2381.7 1858.85 2378.25 1846.72 2374.91 1833.94 2371.83 1820.55 2368.88 1806.47 2366.18 1791.65 2363.6 1776.15 2361.28 1760.03 2359.09 1743.3 2357.02 1726.01 2355.14 1708.22 2353.39 1689.94 2351.7 1671.29 2348.7 1632.94 2346.01 1593.47 2343.51 1553.27 2341.07 1512.71ZM2434.12 1941.76 2434.5 1972.5 2409.67 1954.36Z"/><text font-family="Arial,Arial_MSFontService,sans-serif" font-weight="400" font-size="64" transform="matrix(1 0 0 1 2459.28 1954)">2</text><path d="M2536.5 873.5 2636.5 773.5 2736.5 873.5Z" stroke="#2F528F" stroke-width="4.58333" stroke-miterlimit="8" fill="#4472C4" fill-rule="evenodd"/><path d="M2536.5 771.5C2536.5 716.271 2581.27 671.5 2636.5 671.5 2691.73 671.5 2736.5 716.271 2736.5 771.5 2736.5 826.728 2691.73 871.5 2636.5 871.5 2581.27 871.5 2536.5 826.728 2536.5 771.5Z" stroke="#2F528F" stroke-width="4.58333" stroke-miterlimit="8" fill="#4472C4" fill-rule="evenodd"/><path d="M2636.5 854.5C2636.5 854.5 2636.5 854.5 2636.5 854.5 2636.5 854.5 2636.5 854.5 2636.5 854.5 2636.5 854.5 2636.5 854.5 2636.5 854.5 2636.5 854.5 2636.5 854.5 2636.5 854.5Z" stroke="#2F528F" stroke-width="4.58333" stroke-miterlimit="8" fill="#4472C4" fill-rule="evenodd"/><path d="M2254.5 772.5C2254.5 734.944 2284.94 704.5 2322.5 704.5 2360.06 704.5 2390.5 734.944 2390.5 772.5 2390.5 810.055 2360.06 840.5 2322.5 840.5 2284.94 840.5 2254.5 810.055 2254.5 772.5Z" fill="#A6A6A6" fill-rule="evenodd"/><path d="M2274.42 724.417 2370.58 820.583M2370.58 724.417 2274.42 820.583" stroke="#7F7F7F" stroke-width="4.58333" stroke-miterlimit="8" fill="none" fill-rule="evenodd"/><path d="M2254.5 772.5C2254.5 734.944 2284.94 704.5 2322.5 704.5 2360.06 704.5 2390.5 734.944 2390.5 772.5 2390.5 810.055 2360.06 840.5 2322.5 840.5 2284.94 840.5 2254.5 810.055 2254.5 772.5Z" stroke="#7F7F7F" stroke-width="4.58333" stroke-miterlimit="8" fill="none" fill-rule="evenodd"/><path d="M0-4.58333 371.923-4.58333 371.923 77.2754 362.757 77.2754 362.757 0 367.34 4.58333 0 4.58333ZM381.09 72.692 367.34 100.192 353.59 72.692Z" fill="#0E2680" transform="matrix(-1 1.22465e-16 1.22465e-16 1 2689.84 604.5)"/><path d="M0.0326091-4.58322 234.741-2.91329 234.676 6.25314-0.0326091 4.58322ZM230.223-12.1123 257.625 1.83297 230.028 15.387Z" fill="#C00000" transform="matrix(1 0 0 -1 1437.5 774.333)"/><path d="M0 285 67 0 201 0 268 285Z" stroke="#FFC000" stroke-width="4.58333" stroke-miterlimit="8" fill="#FFFF00" fill-rule="evenodd" transform="matrix(1.83697e-16 1 1 -1.83697e-16 1695.5 638.5)"/><path d="M4.5834 22.9167 4.58369 126.694-4.58297 126.694-4.58327 22.9167ZM-13.7499 27.5 0 0 13.7501 27.5Z" fill="#FF6600" transform="matrix(1 0 0 -1 2322.5 967.194)"/><text fill="#002060" font-family="Arial,Arial_MSFontService,sans-serif" font-weight="400" font-size="83" transform="matrix(1 0 0 1 2582.13 569)">Coolant</text><text fill="#002060" font-family="Arial,Arial_MSFontService,sans-serif" font-weight="400" font-size="83" transform="matrix(1 0 0 1 1702.29 798)">Turbine</text><text fill="#002060" font-family="Arial,Arial_MSFontService,sans-serif" font-weight="400" font-size="83" transform="matrix(1 0 0 1 2870.7 770)">Reinjection</text><path d="M0.0029348-4.58333 222.258-4.44102 222.252 4.72565-0.0029348 4.58333ZM217.68-13.6106 245.172 0.156988 217.663 13.8894Z" fill="#2E75B6" transform="matrix(1 0 0 -1 2390.5 772.657)"/><path d="M2636.5 666.917 3206.57 666.917 3206.57 676.083 2636.5 676.083ZM3201.99 657.75 3229.49 671.5 3201.99 685.25Z" fill="#2E75B6"/><text fill="#002060" font-family="Arial,Arial_MSFontService,sans-serif" font-weight="400" font-size="83" transform="matrix(1 0 0 1 1412.47 702)">Dry </text><text fill="#002060" font-family="Arial,Arial_MSFontService,sans-serif" font-weight="400" font-size="83" transform="matrix(1 0 0 1 1357.47 801)">Steam</text><text fill="#002060" font-family="Arial,Arial_MSFontService,sans-serif" font-weight="400" font-size="83" transform="matrix(1 0 0 1 2552.86 906)">Pum</text><text fill="#002060" font-family="Arial,Arial_MSFontService,sans-serif" font-weight="400" font-size="83" transform="matrix(1 0 0 1 2614.73 1005)">p</text><path d="M1980.5 767.917 2231.57 767.917 2231.57 777.084 1980.5 777.083ZM2226.99 758.75 2254.49 772.5 2226.99 786.25Z" fill="#C00000"/><path d="M1460.5 855.5C1460.5 826.781 1483.78 803.5 1512.5 803.5 1541.22 803.5 1564.5 826.781 1564.5 855.5 1564.5 884.219 1541.22 907.5 1512.5 907.5 1483.78 907.5 1460.5 884.219 1460.5 855.5Z" stroke="#2F528F" stroke-width="4.58333" stroke-miterlimit="8" fill="#4472C4" fill-rule="evenodd"/><text fill="#FFFFFF" font-family="Calibri,Calibri_MSFontService,sans-serif" font-weight="400" font-size="83" transform="matrix(1 0 0 1 1490.71 883)">1</text><path d="M2053.5 846.5C2053.5 817.781 2076.78 794.5 2105.5 794.5 2134.22 794.5 2157.5 817.781 2157.5 846.5 2157.5 875.219 2134.22 898.5 2105.5 898.5 2076.78 898.5 2053.5 875.219 2053.5 846.5Z" stroke="#2F528F" stroke-width="4.58333" stroke-miterlimit="8" fill="#4472C4" fill-rule="evenodd"/><text fill="#FFFFFF" font-family="Calibri,Calibri_MSFontService,sans-serif" font-weight="400" font-size="83" transform="matrix(1 0 0 1 2083.91 874)">2</text><path d="M2410.5 846.5C2410.5 817.781 2433.78 794.5 2462.5 794.5 2491.22 794.5 2514.5 817.781 2514.5 846.5 2514.5 875.219 2491.22 898.5 2462.5 898.5 2433.78 898.5 2410.5 875.219 2410.5 846.5Z" stroke="#2F528F" stroke-width="4.58333" stroke-miterlimit="8" fill="#4472C4" fill-rule="evenodd"/><text fill="#FFFFFF" font-family="Calibri,Calibri_MSFontService,sans-serif" font-weight="400" font-size="83" transform="matrix(1 0 0 1 2441.02 874)">3</text></g></svg>