<svg width="1897" height="1021" xmlns="http://www.w3.org/2000/svg" xmlns:xlink="http://www.w3.org/1999/xlink" xml:space="preserve" overflow="hidden"><defs><clipPath id="clip0"><rect x="1257" y="496" width="1897" height="1021"/></clipPath></defs><g clip-path="url(#clip0)" transform="translate(-1257 -496)"><path d="M1296.37 705 1337.62 705 1337.62 921.562 1381.32 921.562 1381.32 705 1422.56 705 1422.56 921.562 1466.27 921.562 1466.27 705 1507.51 705 1507.51 921.562 1551.21 921.562 1551.21 705 1592.46 705 1592.46 921.562 1636.16 921.562 1636.16 705 1677.41 705 1677.41 921.562 1721.11 921.562 1721.11 705 1762.35 705 1762.35 921.562 1806.05 921.562 1806.05 705 1847.3 705 1847.3 921.562 1891 921.562 1891 705 1932.25 705 1932.25 921.562 1975.95 921.562 1975.95 705 2017.19 705 2017.19 921.562 2060.9 921.562 2060.9 705 2102.14 705 2102.14 921.562 2145.84 921.562 2145.84 705 2187.09 705 2187.09 921.562 2230.79 921.562 2230.79 705 2272.04 705 2272.04 921.562 2315.74 921.562 2315.74 705 2356.98 705 2356.98 921.562 2400.68 921.562 2400.68 705 2441.93 705 2441.93 921.562 2485.63 921.562 2485.63 705 2526.88 705 2526.88 921.562 2570.58 921.562 2570.58 705 2611.82 705 2611.82 921.562 2655.52 921.562 2655.52 705 2696.77 705 2696.77 921.562 2740.47 921.562 2740.47 705 2781.72 705 2781.72 921.562 2825.42 921.562 2825.42 705 2866.66 705 2866.66 921.562 2910.37 921.562 2910.37 705 2951.61 705 2951.61 921.562 2995.31 921.562 2995.31 705 3036.56 705 3036.56 921.562 3080.26 921.562 3080.26 705 3121.5 705 3121.5 921.562 3149 921.562 3149 980 1262 980 1262 921.562 1296.37 921.562Z" stroke="#000000" stroke-width="10.3125" stroke-miterlimit="8" fill="none" fill-rule="evenodd"/><path d="M34.3716 0 75.6175 0 75.6175 215.775 119.319 215.775 119.319 0 160.565 0 160.565 215.775 204.266 215.775 204.266 0 245.512 0 245.512 215.775 289.213 215.775 289.213 0 330.459 0 330.459 215.775 374.16 215.775 374.16 0 415.406 0 415.406 215.775 459.107 215.775 459.107 0 500.353 0 500.353 215.775 544.054 215.775 544.054 0 585.3 0 585.3 215.775 629.001 215.775 629.001 0 670.247 0 670.247 215.775 713.948 215.775 713.948 0 755.194 0 755.194 215.775 798.895 215.775 798.895 0 840.141 0 840.141 215.775 883.842 215.775 883.842 0 925.088 0 925.088 215.775 968.789 215.775 968.789 0 1010.04 0 1010.04 215.775 1053.74 215.775 1053.74 0 1094.98 0 1094.98 215.775 1138.68 215.775 1138.68 0 1179.93 0 1179.93 215.775 1223.63 215.775 1223.63 0 1264.88 0 1264.88 215.775 1308.58 215.775 1308.58 0 1349.82 0 1349.82 215.775 1393.52 215.775 1393.52 0 1434.77 0 1434.77 215.775 1478.47 215.775 1478.47 0 1519.72 0 1519.72 215.775 1563.42 215.775 1563.42 0 1604.66 0 1604.66 215.775 1648.37 215.775 1648.37 0 1689.61 0 1689.61 215.775 1733.31 215.775 1733.31 0 1774.56 0 1774.56 215.775 1818.26 215.775 1818.26 0 1859.5 0 1859.5 215.775 1887 215.775 1887 274 0 274 0 215.775 34.3716 215.775Z" stroke="#000000" stroke-width="10.3125" stroke-miterlimit="8" fill="none" fill-rule="evenodd" transform="matrix(1 0 0 -1 1262 1512)"/><path d="M1262.5 1018.06 1441.32 1018.06 1441.32 1024.94 1262.5 1024.94ZM1415.55 1002.49 1448.14 1021.5 1415.55 1040.51C1413.91 1041.47 1411.81 1040.91 1410.85 1039.27 1409.89 1037.63 1410.45 1035.53 1412.09 1034.57L1439.59 1018.53 1439.59 1024.47 1412.09 1008.43C1410.45 1007.47 1409.89 1005.37 1410.85 1003.73 1411.81 1002.09 1413.91 1001.53 1415.55 1002.49Z"/><path d="M1262.5 1064.06 1441.32 1064.06 1441.32 1070.94 1262.5 1070.94ZM1415.55 1048.49 1448.14 1067.5 1415.55 1086.51C1413.91 1087.47 1411.81 1086.91 1410.85 1085.27 1409.89 1083.63 1410.45 1081.53 1412.09 1080.57L1439.59 1064.53 1439.59 1070.47 1412.09 1054.43C1410.45 1053.47 1409.89 1051.37 1410.85 1049.73 1411.81 1048.09 1413.91 1047.53 1415.55 1048.49Z"/><path d="M1262.5 1111.06 1441.32 1111.06 1441.32 1117.94 1262.5 1117.94ZM1415.55 1095.49 1448.14 1114.5 1415.55 1133.51C1413.91 1134.47 1411.81 1133.91 1410.85 1132.27 1409.89 1130.63 1410.45 1128.53 1412.09 1127.57L1439.59 1111.53 1439.59 1117.47 1412.09 1101.43C1410.45 1100.47 1409.89 1098.37 1410.85 1096.73 1411.81 1095.09 1413.91 1094.53 1415.55 1095.49Z"/><path d="M1262.5 1203.06 1441.32 1203.06 1441.32 1209.94 1262.5 1209.94ZM1415.55 1187.49 1448.14 1206.5 1415.55 1225.51C1413.91 1226.47 1411.81 1225.91 1410.85 1224.27 1409.89 1222.63 1410.45 1220.53 1412.09 1219.57L1439.59 1203.53 1439.59 1209.47 1412.09 1193.43C1410.45 1192.47 1409.89 1190.37 1410.85 1188.73 1411.81 1187.09 1413.91 1186.53 1415.55 1187.49Z"/><path d="M1262.5 1157.06 1441.32 1157.06 1441.32 1163.94 1262.5 1163.94ZM1415.55 1141.49 1448.14 1160.5 1415.55 1179.51C1413.91 1180.47 1411.81 1179.91 1410.85 1178.27 1409.89 1176.63 1410.45 1174.53 1412.09 1173.57L1439.59 1157.53 1439.59 1163.47 1412.09 1147.43C1410.45 1146.47 1409.89 1144.37 1410.85 1142.73 1411.81 1141.09 1413.91 1140.53 1415.55 1141.49Z"/><path d="M1677.79 1096.82C1675.67 1096.82 1673.76 1097.68 1672.07 1099.4 1670.39 1101.12 1669.06 1103.43 1668.09 1106.35 1667.12 1109.27 1666.64 1112.17 1666.64 1115.07 1666.64 1117.24 1666.93 1118.86 1667.53 1119.93 1668.12 1121 1669.11 1121.54 1670.51 1121.54 1671.16 1121.54 1671.81 1121.4 1672.48 1121.12 1673.15 1120.83 1673.84 1120.38 1674.56 1119.76 1675.28 1119.13 1675.98 1118.37 1676.68 1117.47 1677.38 1116.58 1678.02 1115.68 1678.6 1114.77 1679.19 1113.87 1679.73 1112.79 1680.23 1111.55 1680.73 1110.31 1681.16 1108.82 1681.51 1107.07L1681.79 1105.72C1682.1 1104.22 1682.26 1102.81 1682.26 1101.47 1682.26 1099.85 1681.92 1098.67 1681.23 1097.93 1680.54 1097.19 1679.4 1096.82 1677.79 1096.82ZM1585.79 1096.82C1583.67 1096.82 1581.76 1097.68 1580.07 1099.4 1578.39 1101.12 1577.06 1103.43 1576.09 1106.35 1575.12 1109.27 1574.64 1112.17 1574.64 1115.07 1574.64 1117.24 1574.93 1118.86 1575.53 1119.93 1576.12 1121 1577.11 1121.54 1578.51 1121.54 1579.16 1121.54 1579.81 1121.4 1580.48 1121.12 1581.15 1120.83 1581.84 1120.38 1582.56 1119.76 1583.28 1119.13 1583.98 1118.37 1584.68 1117.47 1585.38 1116.58 1586.02 1115.68 1586.6 1114.77 1587.19 1113.87 1587.73 1112.79 1588.23 1111.55 1588.73 1110.31 1589.16 1108.82 1589.51 1107.07L1589.79 1105.72C1590.1 1104.22 1590.26 1102.81 1590.26 1101.47 1590.26 1099.85 1589.92 1098.67 1589.23 1097.93 1588.54 1097.19 1587.4 1096.82 1585.79 1096.82ZM1649.79 1094.6 1651.64 1094.6 1647.14 1114.66C1646.68 1116.7 1646.45 1118.25 1646.45 1119.29 1646.45 1120.12 1646.58 1120.72 1646.85 1121.1 1647.12 1121.47 1647.55 1121.66 1648.14 1121.66 1648.76 1121.66 1649.43 1121.41 1650.14 1120.9 1650.84 1120.39 1651.84 1119.41 1653.14 1117.97L1654.92 1119.72C1652.87 1121.87 1651.22 1123.33 1649.95 1124.1 1648.68 1124.87 1647.25 1125.26 1645.67 1125.26 1644.31 1125.26 1643.23 1124.76 1642.42 1123.77 1641.6 1122.78 1641.2 1121.52 1641.2 1119.97 1641.2 1118.39 1641.49 1116.37 1642.07 1113.91L1644.42 1103.69C1644.9 1101.61 1645.14 1100.05 1645.14 1099.01 1645.14 1098.07 1644.91 1097.43 1644.46 1097.1 1644.02 1096.77 1643.14 1096.58 1641.82 1096.54L1642.17 1094.88ZM1558.79 1094.6 1560.64 1094.6 1556.14 1114.66C1555.68 1116.7 1555.45 1118.25 1555.45 1119.29 1555.45 1120.12 1555.58 1120.72 1555.85 1121.1 1556.12 1121.47 1556.55 1121.66 1557.14 1121.66 1557.76 1121.66 1558.43 1121.41 1559.14 1120.9 1559.84 1120.39 1560.84 1119.41 1562.14 1117.97L1563.92 1119.72C1561.87 1121.87 1560.22 1123.33 1558.95 1124.1 1557.68 1124.87 1556.25 1125.26 1554.67 1125.26 1553.31 1125.26 1552.23 1124.76 1551.42 1123.77 1550.6 1122.78 1550.2 1121.52 1550.2 1119.97 1550.2 1118.39 1550.49 1116.37 1551.07 1113.91L1553.42 1103.69C1553.9 1101.61 1554.14 1100.05 1554.14 1099.01 1554.14 1098.07 1553.91 1097.43 1553.46 1097.1 1553.02 1096.77 1552.14 1096.58 1550.82 1096.54L1551.17 1094.88ZM1610.92 1094.35C1612.25 1094.35 1613.3 1094.8 1614.07 1095.69 1614.84 1096.59 1615.23 1097.8 1615.23 1099.32 1615.23 1100.96 1614.91 1103.02 1614.26 1105.47L1612.89 1110.88C1612.53 1112.26 1612.28 1113.33 1612.12 1114.1 1611.96 1114.87 1611.85 1115.54 1611.78 1116.1 1611.7 1116.66 1611.67 1117.13 1611.67 1117.51 1611.67 1118.94 1611.91 1119.98 1612.39 1120.62 1612.86 1121.25 1613.65 1121.57 1614.73 1121.57 1615.6 1121.57 1616.55 1121.22 1617.56 1120.52 1618.57 1119.82 1619.64 1118.77 1620.78 1117.37 1621.91 1115.96 1622.82 1114.59 1623.51 1113.27 1624.2 1111.95 1624.76 1110.32 1625.2 1108.38L1628.17 1094.85 1633.57 1094.85 1629.01 1114.66C1628.55 1116.66 1628.32 1118.2 1628.32 1119.29 1628.32 1120.12 1628.46 1120.72 1628.73 1121.1 1629 1121.47 1629.43 1121.66 1630.01 1121.66 1630.64 1121.66 1631.3 1121.41 1632.01 1120.9 1632.72 1120.39 1633.72 1119.41 1635.01 1117.97L1636.79 1119.72C1634.9 1121.75 1633.28 1123.17 1631.95 1124.01 1630.61 1124.84 1629.2 1125.26 1627.7 1125.26 1626.41 1125.26 1625.37 1124.83 1624.6 1123.97 1623.83 1123.12 1623.45 1121.99 1623.45 1120.57 1623.45 1119.44 1623.7 1118.21 1624.2 1116.88L1623.82 1116.76C1621.76 1119.65 1619.81 1121.79 1617.96 1123.16 1616.12 1124.54 1614.23 1125.22 1612.29 1125.22 1610.35 1125.22 1608.86 1124.67 1607.82 1123.55 1606.78 1122.44 1606.26 1120.89 1606.26 1118.91 1606.26 1117.6 1606.56 1115.74 1607.17 1113.32L1609.2 1105.13C1609.76 1102.86 1610.04 1101.26 1610.04 1100.32 1610.04 1099.49 1609.91 1098.88 1609.64 1098.51 1609.36 1098.13 1608.94 1097.94 1608.35 1097.94 1607.71 1097.94 1607.03 1098.21 1606.31 1098.74 1605.59 1099.27 1604.6 1100.24 1603.35 1101.63L1601.57 1099.88C1603.34 1098.09 1604.68 1096.86 1605.57 1096.19 1606.47 1095.53 1607.33 1095.05 1608.15 1094.77 1608.97 1094.49 1609.9 1094.35 1610.92 1094.35ZM1585.23 1094.35C1586.52 1094.35 1587.75 1094.5 1588.92 1094.8 1590.08 1095.11 1591.29 1095.64 1592.54 1096.41L1595.42 1094.35 1597.42 1094.85 1589.42 1130.38C1589.06 1131.96 1588.89 1133.15 1588.89 1133.94 1588.89 1134.86 1589.12 1135.51 1589.59 1135.9 1590.06 1136.28 1590.98 1136.54 1592.35 1136.66L1592.07 1138.19 1582.32 1138.19 1587.7 1117.69 1587.26 1117.51C1585.47 1120.03 1583.64 1121.94 1581.78 1123.26 1579.91 1124.57 1578.09 1125.22 1576.32 1125.22 1574.03 1125.22 1572.25 1124.36 1570.99 1122.63 1569.73 1120.9 1569.1 1118.47 1569.1 1115.35 1569.1 1111.77 1569.81 1108.32 1571.21 1105.02 1572.62 1101.72 1574.55 1099.12 1577.01 1097.21 1579.47 1095.3 1582.21 1094.35 1585.23 1094.35ZM1648.95 1082.63 1654.48 1082.63 1653.04 1088.69 1647.51 1088.69ZM1557.95 1082.63 1563.48 1082.63 1562.04 1088.69 1556.51 1088.69ZM1521.79 1082.1 1534.29 1082.1 1533.95 1083.63C1533.16 1083.8 1532.59 1083.99 1532.24 1084.19 1531.9 1084.4 1531.59 1084.71 1531.32 1085.13 1531.05 1085.55 1530.77 1086.2 1530.48 1087.08 1530.19 1087.97 1529.82 1089.41 1529.39 1091.41L1522.7 1121.88 1530.39 1121.88C1531.78 1121.88 1532.88 1121.75 1533.68 1121.47 1534.48 1121.2 1535.24 1120.71 1535.96 1119.99 1536.68 1119.27 1537.39 1118.3 1538.07 1117.07 1538.76 1115.84 1539.46 1114.31 1540.17 1112.47L1543.2 1112.47 1540.04 1124.76 1513.6 1124.76 1513.95 1123.22C1514.74 1123.1 1515.33 1122.9 1515.73 1122.62 1516.12 1122.33 1516.46 1121.94 1516.73 1121.44 1517 1120.94 1517.25 1120.33 1517.48 1119.62 1517.71 1118.9 1518.05 1117.51 1518.51 1115.44L1523.82 1091.38C1524.28 1089.3 1524.51 1087.62 1524.51 1086.35 1524.51 1085.37 1524.27 1084.69 1523.78 1084.3 1523.29 1083.92 1522.51 1083.69 1521.45 1083.63ZM1690.89 1080.07 1692.73 1080.07 1684.95 1114.66C1684.49 1116.7 1684.26 1118.25 1684.26 1119.29 1684.26 1120.12 1684.4 1120.72 1684.67 1121.1 1684.94 1121.47 1685.36 1121.66 1685.95 1121.66 1686.57 1121.66 1687.24 1121.41 1687.95 1120.9 1688.66 1120.39 1689.66 1119.41 1690.95 1117.97L1692.73 1119.72C1690.81 1121.75 1689.2 1123.17 1687.89 1124.01 1686.57 1124.84 1685.16 1125.26 1683.64 1125.26 1682.34 1125.26 1681.31 1124.83 1680.54 1123.97 1679.77 1123.12 1679.39 1121.99 1679.39 1120.57 1679.39 1119.42 1679.62 1118.2 1680.1 1116.91L1679.7 1116.79C1677.7 1119.7 1675.8 1121.84 1674.01 1123.19 1672.22 1124.55 1670.32 1125.22 1668.32 1125.22 1666.03 1125.22 1664.25 1124.36 1662.99 1122.63 1661.73 1120.9 1661.1 1118.47 1661.1 1115.35 1661.1 1111.77 1661.81 1108.32 1663.21 1105.02 1664.62 1101.72 1666.55 1099.12 1669.01 1097.21 1671.47 1095.3 1674.21 1094.35 1677.23 1094.35 1678.5 1094.35 1679.67 1094.48 1680.74 1094.74 1681.82 1095 1682.92 1095.45 1684.04 1096.1L1685.67 1088.88C1685.83 1088.19 1685.98 1087.43 1686.1 1086.6 1686.23 1085.77 1686.29 1085.04 1686.29 1084.41 1686.29 1083.79 1686.18 1083.31 1685.95 1082.99 1685.72 1082.67 1685.39 1082.43 1684.96 1082.29 1684.54 1082.14 1683.77 1082.04 1682.67 1081.97L1683.04 1080.35Z" fill-rule="evenodd"/><text fill="#000000" fill-opacity="0" font-family="Arial,Arial_MSFontService,sans-serif" font-size="58.125" x="1513.6" y="1130.93">𝐿𝑖𝑞𝑢𝑖𝑑</text><path d="M1789.73 1096.88C1787.56 1096.88 1785.67 1097.79 1784.05 1099.6 1782.44 1101.41 1781.17 1104.01 1780.24 1107.38 1779.32 1110.76 1778.85 1113.66 1778.85 1116.1 1778.85 1118.39 1779.33 1120.08 1780.27 1121.18 1781.22 1122.27 1782.65 1122.82 1784.57 1122.82 1786.61 1122.82 1788.42 1121.9 1790.01 1120.07 1791.59 1118.24 1792.84 1115.67 1793.76 1112.37 1794.67 1109.06 1795.13 1106.16 1795.13 1103.66 1795.13 1101.41 1794.7 1099.72 1793.82 1098.58 1792.95 1097.45 1791.58 1096.88 1789.73 1096.88ZM1806.01 1094.88 1814.2 1094.88 1816.07 1119.54C1819.01 1114.75 1821.13 1111.1 1822.43 1108.6 1823.73 1106.1 1824.7 1103.94 1825.32 1102.12 1825.95 1100.29 1826.42 1098.39 1826.76 1096.41L1827.1 1094.88 1831.6 1094.88 1833.88 1119.57C1837.13 1114.94 1839.61 1110.91 1841.3 1107.46 1843 1104.01 1843.85 1101.2 1843.85 1099.04 1843.85 1098.06 1843.64 1097.39 1843.23 1097.04 1842.81 1096.68 1842.1 1096.47 1841.1 1096.41L1841.41 1094.88 1849.48 1094.88 1850.32 1096.44C1849.59 1098.3 1849.01 1099.72 1848.57 1100.72 1848.13 1101.72 1847.56 1102.93 1846.85 1104.33 1846.14 1105.74 1845.39 1107.14 1844.6 1108.54 1843.81 1109.93 1842.88 1111.47 1841.8 1113.15 1840.73 1114.82 1839.53 1116.65 1838.2 1118.62 1836.86 1120.58 1835.29 1122.8 1833.48 1125.26L1829.76 1125.26 1828.48 1112.19C1828.37 1111.17 1828.26 1109.84 1828.15 1108.19 1828.03 1106.55 1827.96 1105.28 1827.91 1104.38L1827.57 1104.35C1826.45 1107.12 1824.91 1110.2 1822.98 1113.6 1821.04 1117 1818.64 1120.88 1815.79 1125.26L1811.6 1125.26 1809.23 1101.72C1809.1 1100.52 1808.95 1099.54 1808.76 1098.79 1808.57 1098.04 1808.26 1097.47 1807.82 1097.1 1807.38 1096.72 1806.66 1096.5 1805.66 1096.41ZM1790.35 1094.38C1793.69 1094.38 1796.23 1095.29 1797.98 1097.12 1799.73 1098.94 1800.6 1101.55 1800.6 1104.94 1800.6 1107.36 1800.18 1109.94 1799.34 1112.69 1798.49 1115.44 1797.34 1117.76 1795.87 1119.63 1794.4 1121.51 1792.64 1122.92 1790.6 1123.87 1788.56 1124.81 1786.22 1125.29 1783.57 1125.29 1780.34 1125.29 1777.84 1124.38 1776.05 1122.57 1774.27 1120.76 1773.38 1118.15 1773.38 1114.76 1773.38 1113.09 1773.63 1111.16 1774.13 1108.97 1774.78 1106.02 1775.86 1103.43 1777.38 1101.22 1778.9 1099.02 1780.78 1097.32 1783.01 1096.15 1785.24 1094.97 1787.69 1094.38 1790.35 1094.38ZM1720.91 1082.1 1749.1 1082.1 1746.95 1091.69 1743.95 1091.69C1743.86 1090.09 1743.73 1088.82 1743.55 1087.9 1743.38 1086.97 1743.13 1086.3 1742.8 1085.9 1742.48 1085.49 1742.09 1085.21 1741.63 1085.07 1741.17 1084.92 1740.49 1084.85 1739.57 1084.85L1729.95 1084.85 1726.23 1101.85 1732.07 1101.85C1732.99 1101.85 1733.75 1101.72 1734.35 1101.47 1734.96 1101.22 1735.52 1100.77 1736.04 1100.12 1736.56 1099.46 1737.21 1098.34 1737.98 1096.76L1740.82 1096.76 1737.79 1109.94 1735.04 1109.94C1735.04 1107.84 1734.97 1106.52 1734.84 1105.99 1734.7 1105.46 1734.44 1105.09 1734.05 1104.9 1733.67 1104.7 1732.9 1104.6 1731.76 1104.6L1725.63 1104.6 1723.16 1115.66C1722.73 1117.62 1722.51 1119.25 1722.51 1120.54 1722.51 1121.18 1722.61 1121.69 1722.82 1122.05 1723.03 1122.42 1723.34 1122.68 1723.76 1122.85 1724.17 1123.02 1724.89 1123.14 1725.91 1123.22L1725.57 1124.76 1712.73 1124.76 1713.07 1123.22C1713.86 1123.1 1714.46 1122.9 1714.85 1122.62 1715.25 1122.33 1715.58 1121.94 1715.85 1121.44 1716.12 1120.94 1716.37 1120.33 1716.6 1119.62 1716.83 1118.9 1717.17 1117.51 1717.63 1115.44L1722.95 1091.38C1723.4 1089.3 1723.63 1087.65 1723.63 1086.44 1723.63 1085.42 1723.39 1084.71 1722.91 1084.32 1722.44 1083.92 1721.65 1083.69 1720.57 1083.63ZM1766.04 1080.07 1767.88 1080.07 1760.2 1114.66C1759.74 1116.72 1759.51 1118.27 1759.51 1119.29 1759.51 1120.12 1759.64 1120.72 1759.91 1121.1 1760.19 1121.47 1760.61 1121.66 1761.2 1121.66 1761.82 1121.66 1762.49 1121.41 1763.2 1120.9 1763.9 1120.39 1764.9 1119.41 1766.2 1117.97L1767.98 1119.72C1765.96 1121.85 1764.3 1123.3 1763.02 1124.08 1761.74 1124.87 1760.31 1125.26 1758.73 1125.26 1757.37 1125.26 1756.29 1124.76 1755.48 1123.77 1754.66 1122.78 1754.26 1121.52 1754.26 1119.97 1754.26 1118.58 1754.55 1116.56 1755.13 1113.91L1760.73 1088.88C1760.98 1087.78 1761.15 1086.9 1761.26 1086.24 1761.36 1085.58 1761.41 1084.97 1761.41 1084.41 1761.41 1083.79 1761.3 1083.31 1761.07 1082.99 1760.84 1082.67 1760.51 1082.43 1760.09 1082.29 1759.66 1082.14 1758.89 1082.04 1757.79 1081.97L1758.16 1080.35Z" fill-rule="evenodd"/><text fill="#000000" fill-opacity="0" font-family="Arial,Arial_MSFontService,sans-serif" font-size="45.2188" x="1712.73" y="1119.64">𝐹𝑙𝑜𝑤</text><path d="M1359.58 629.345 1363.83 624.625 1369.5 629.728 1375.17 624.625 1379.42 629.345 1374.25 634 1379.42 638.655 1375.17 643.375 1369.5 638.272 1363.83 643.375 1359.58 638.655 1364.75 634Z" stroke="#000000" stroke-width="4.58333" stroke-miterlimit="8" fill="#4472C4" fill-rule="evenodd"/><path d="M1448.58 629.345 1452.83 624.625 1458.5 629.728 1464.17 624.625 1468.42 629.345 1463.25 634 1468.42 638.655 1464.17 643.375 1458.5 638.272 1452.83 643.375 1448.58 638.655 1453.75 634Z" stroke="#000000" stroke-width="4.58333" stroke-miterlimit="8" fill="#4472C4" fill-rule="evenodd"/><path d="M1537.58 629.345 1541.83 624.625 1547.5 629.728 1553.17 624.625 1557.42 629.345 1552.25 634 1557.42 638.655 1553.17 643.375 1547.5 638.272 1541.83 643.375 1537.58 638.655 1542.75 634Z" stroke="#000000" stroke-width="4.58333" stroke-miterlimit="8" fill="#4472C4" fill-rule="evenodd"/><path d="M1626.58 629.345 1630.83 624.625 1636.5 629.728 1642.17 624.625 1646.42 629.345 1641.25 634 1646.42 638.655 1642.17 643.375 1636.5 638.272 1630.83 643.375 1626.58 638.655 1631.75 634Z" stroke="#000000" stroke-width="4.58333" stroke-miterlimit="8" fill="#4472C4" fill-rule="evenodd"/><path d="M1715.58 629.345 1719.83 624.625 1725.5 629.728 1731.17 624.625 1735.42 629.345 1730.25 634 1735.42 638.655 1731.17 643.375 1725.5 638.272 1719.83 643.375 1715.58 638.655 1720.75 634Z" stroke="#000000" stroke-width="4.58333" stroke-miterlimit="8" fill="#4472C4" fill-rule="evenodd"/><path d="M1804.58 629.345 1808.83 624.625 1814.5 629.728 1820.17 624.625 1824.42 629.345 1819.25 634 1824.42 638.655 1820.17 643.375 1814.5 638.272 1808.83 643.375 1804.58 638.655 1809.75 634Z" stroke="#000000" stroke-width="4.58333" stroke-miterlimit="8" fill="#4472C4" fill-rule="evenodd"/><path d="M1893.58 629.345 1897.83 624.625 1903.5 629.728 1909.17 624.625 1913.42 629.345 1908.25 634 1913.42 638.655 1909.17 643.375 1903.5 638.272 1897.83 643.375 1893.58 638.655 1898.75 634Z" stroke="#000000" stroke-width="4.58333" stroke-miterlimit="8" fill="#4472C4" fill-rule="evenodd"/><path d="M1982.58 629.345 1986.83 624.625 1992.5 629.728 1998.17 624.625 2002.42 629.345 1997.25 634 2002.42 638.655 1998.17 643.375 1992.5 638.272 1986.83 643.375 1982.58 638.655 1987.75 634Z" stroke="#000000" stroke-width="4.58333" stroke-miterlimit="8" fill="#4472C4" fill-rule="evenodd"/><path d="M2071.58 629.345 2075.83 624.625 2081.5 629.728 2087.17 624.625 2091.42 629.345 2086.25 634 2091.42 638.655 2087.17 643.375 2081.5 638.272 2075.83 643.375 2071.58 638.655 2076.75 634Z" stroke="#000000" stroke-width="4.58333" stroke-miterlimit="8" fill="#4472C4" fill-rule="evenodd"/><path d="M2160.58 629.345 2164.83 624.625 2170.5 629.728 2176.17 624.625 2180.42 629.345 2175.25 634 2180.42 638.655 2176.17 643.375 2170.5 638.272 2164.83 643.375 2160.58 638.655 2165.75 634Z" stroke="#000000" stroke-width="4.58333" stroke-miterlimit="8" fill="#4472C4" fill-rule="evenodd"/><path d="M2250.3 629.309 2254.63 624.661 2260 629.662 2265.37 624.661 2269.7 629.309 2264.66 634 2269.7 638.691 2265.37 643.339 2260 638.338 2254.63 643.339 2250.3 638.691 2255.34 634Z" stroke="#000000" stroke-width="4.58333" stroke-miterlimit="8" fill="#4472C4" fill-rule="evenodd"/><path d="M2339.3 629.309 2343.63 624.661 2349 629.662 2354.37 624.661 2358.7 629.309 2353.66 634 2358.7 638.691 2354.37 643.339 2349 638.338 2343.63 643.339 2339.3 638.691 2344.34 634Z" stroke="#000000" stroke-width="4.58333" stroke-miterlimit="8" fill="#4472C4" fill-rule="evenodd"/><path d="M2428.3 629.309 2432.63 624.661 2438 629.662 2443.37 624.661 2447.7 629.309 2442.66 634 2447.7 638.691 2443.37 643.339 2438 638.338 2432.63 643.339 2428.3 638.691 2433.34 634Z" stroke="#000000" stroke-width="4.58333" stroke-miterlimit="8" fill="#4472C4" fill-rule="evenodd"/><path d="M2517.3 629.309 2521.63 624.661 2527 629.662 2532.37 624.661 2536.7 629.309 2531.66 634 2536.7 638.691 2532.37 643.339 2527 638.338 2521.63 643.339 2517.3 638.691 2522.34 634Z" stroke="#000000" stroke-width="4.58333" stroke-miterlimit="8" fill="#4472C4" fill-rule="evenodd"/><path d="M2606.3 629.309 2610.63 624.661 2616 629.662 2621.37 624.661 2625.7 629.309 2620.66 634 2625.7 638.691 2621.37 643.339 2616 638.338 2610.63 643.339 2606.3 638.691 2611.34 634Z" stroke="#000000" stroke-width="4.58333" stroke-miterlimit="8" fill="#4472C4" fill-rule="evenodd"/><path d="M2695.3 629.309 2699.63 624.661 2705 629.662 2710.37 624.661 2714.7 629.309 2709.66 634 2714.7 638.691 2710.37 643.339 2705 638.338 2699.63 643.339 2695.3 638.691 2700.34 634Z" stroke="#000000" stroke-width="4.58333" stroke-miterlimit="8" fill="#4472C4" fill-rule="evenodd"/><path d="M2784.3 629.309 2788.63 624.661 2794 629.662 2799.37 624.661 2803.7 629.309 2798.66 634 2803.7 638.691 2799.37 643.339 2794 638.338 2788.63 643.339 2784.3 638.691 2789.34 634Z" stroke="#000000" stroke-width="4.58333" stroke-miterlimit="8" fill="#4472C4" fill-rule="evenodd"/><path d="M2873.3 629.309 2877.63 624.661 2883 629.662 2888.37 624.661 2892.7 629.309 2887.66 634 2892.7 638.691 2888.37 643.339 2883 638.338 2877.63 643.339 2873.3 638.691 2878.34 634Z" stroke="#000000" stroke-width="4.58333" stroke-miterlimit="8" fill="#4472C4" fill-rule="evenodd"/><path d="M2962.3 629.309 2966.63 624.661 2972 629.662 2977.37 624.661 2981.7 629.309 2976.66 634 2981.7 638.691 2977.37 643.339 2972 638.338 2966.63 643.339 2962.3 638.691 2967.34 634Z" stroke="#000000" stroke-width="4.58333" stroke-miterlimit="8" fill="#4472C4" fill-rule="evenodd"/><path d="M3051.3 629.309 3055.63 624.661 3061 629.662 3066.37 624.661 3070.7 629.309 3065.66 634 3070.7 638.691 3066.37 643.339 3061 638.338 3055.63 643.339 3051.3 638.691 3056.34 634Z" stroke="#000000" stroke-width="4.58333" stroke-miterlimit="8" fill="#4472C4" fill-rule="evenodd"/><path d="M2172.33 527.725C2170.19 527.725 2168.26 528.589 2166.55 530.319 2164.84 532.048 2163.51 534.365 2162.55 537.272 2161.59 540.178 2161.11 543.079 2161.11 545.975 2161.11 548.142 2161.41 549.761 2162 550.834 2162.6 551.907 2163.59 552.444 2164.99 552.444 2166.36 552.444 2167.71 551.85 2169.03 550.662 2170.36 549.475 2171.72 547.782 2173.13 545.584 2174.53 543.386 2175.53 540.85 2176.11 537.975L2176.39 536.631C2176.58 535.777 2176.71 535.037 2176.77 534.412 2176.83 533.787 2176.86 533.11 2176.86 532.381 2176.86 530.777 2176.52 529.6 2175.83 528.85 2175.14 528.1 2173.98 527.725 2172.33 527.725ZM2204.74 525.287C2206.68 525.287 2208.44 525.402 2210.03 525.631 2211.63 525.86 2213.22 526.256 2214.8 526.819L2213.39 533.381 2210.86 533.381C2210.63 531.527 2210.02 530.121 2209.03 529.162 2208.04 528.204 2206.49 527.725 2204.36 527.725 2202.72 527.725 2201.38 528.147 2200.36 528.99 2199.34 529.834 2198.83 530.944 2198.83 532.319 2198.83 533.069 2198.96 533.73 2199.22 534.303 2199.48 534.876 2200.01 535.506 2200.8 536.194 2201.59 536.881 2202.82 537.725 2204.49 538.725 2205.8 539.517 2206.85 540.24 2207.64 540.897 2208.44 541.553 2209.06 542.204 2209.52 542.85 2209.98 543.496 2210.31 544.178 2210.52 544.897 2210.73 545.615 2210.83 546.485 2210.83 547.506 2210.83 549.36 2210.34 550.949 2209.35 552.272 2208.36 553.595 2207.01 554.579 2205.32 555.225 2203.62 555.871 2201.69 556.194 2199.52 556.194 2197.79 556.194 2196.09 556.063 2194.43 555.803 2192.76 555.543 2190.9 555.1 2188.86 554.475L2190.36 547.662 2192.8 547.662C2192.88 549.662 2193.45 551.173 2194.49 552.194 2195.53 553.214 2197.19 553.725 2199.46 553.725 2201.44 553.725 2202.98 553.282 2204.1 552.397 2205.21 551.511 2205.77 550.256 2205.77 548.631 2205.77 547.694 2205.61 546.886 2205.3 546.209 2204.99 545.532 2204.48 544.881 2203.77 544.256 2203.06 543.631 2201.94 542.85 2200.39 541.912 2198.77 540.933 2197.5 540.048 2196.6 539.256 2195.69 538.464 2195.01 537.605 2194.55 536.678 2194.09 535.751 2193.86 534.683 2193.86 533.475 2193.86 531.829 2194.31 530.386 2195.19 529.147 2196.08 527.907 2197.34 526.954 2198.99 526.287 2200.63 525.621 2202.55 525.287 2204.74 525.287ZM2171.71 525.256C2173.06 525.256 2174.33 525.407 2175.5 525.709 2176.68 526.011 2177.89 526.548 2179.14 527.319L2182.02 525.256 2184.02 525.756 2179.43 545.569C2178.97 547.548 2178.74 549.089 2178.74 550.194 2178.74 551.027 2178.87 551.631 2179.14 552.006 2179.41 552.381 2179.84 552.569 2180.43 552.569 2181.05 552.569 2181.72 552.313 2182.43 551.803 2183.13 551.293 2184.13 550.319 2185.43 548.881L2187.21 550.631C2185.33 552.631 2183.73 554.053 2182.41 554.897 2181.09 555.74 2179.65 556.162 2178.11 556.162 2176.82 556.162 2175.79 555.735 2175.02 554.881 2174.25 554.027 2173.86 552.892 2173.86 551.475 2173.86 550.329 2174.1 549.11 2174.58 547.819L2174.18 547.694C2172.18 550.61 2170.28 552.746 2168.49 554.1 2166.7 555.454 2164.8 556.131 2162.8 556.131 2160.51 556.131 2158.73 555.267 2157.47 553.537 2156.21 551.808 2155.58 549.381 2155.58 546.256 2155.58 542.673 2156.28 539.23 2157.69 535.928 2159.1 532.626 2161.03 530.022 2163.49 528.115 2165.95 526.209 2168.69 525.256 2171.71 525.256ZM2138.21 512.506C2140.19 512.506 2142 512.626 2143.64 512.865 2145.29 513.105 2147.09 513.537 2149.05 514.162L2147.14 522.569 2144.14 522.569C2143.96 519.964 2143.38 518.095 2142.43 516.959 2141.47 515.824 2139.9 515.256 2137.74 515.256 2135.99 515.256 2134.35 515.704 2132.83 516.6 2131.31 517.496 2129.87 518.834 2128.5 520.615 2127.14 522.397 2125.91 524.642 2124.82 527.35 2123.72 530.058 2122.87 532.881 2122.27 535.819 2121.66 538.756 2121.36 541.517 2121.36 544.1 2121.36 547.35 2121.92 549.72 2123.03 551.209 2124.15 552.699 2125.89 553.444 2128.27 553.444 2129.12 553.444 2130 553.345 2130.89 553.147 2131.79 552.949 2132.63 552.61 2133.41 552.131 2134.19 551.652 2134.88 551.006 2135.49 550.194 2136.09 549.381 2136.53 548.36 2136.8 547.131L2137.14 545.662C2137.6 543.704 2137.83 542.027 2137.83 540.631 2137.83 539.652 2137.59 538.97 2137.1 538.584 2136.61 538.199 2135.83 537.975 2134.77 537.912L2135.11 536.381 2147.61 536.381 2147.27 537.912C2146.48 538.079 2145.9 538.267 2145.55 538.475 2145.2 538.683 2144.88 539.001 2144.6 539.428 2144.32 539.855 2144.04 540.506 2143.77 541.381 2143.5 542.256 2143.14 543.694 2142.71 545.694L2140.55 555.506 2138.08 556.194 2136.46 553.725C2134.29 554.746 2132.58 555.407 2131.33 555.709 2130.08 556.011 2128.81 556.162 2127.52 556.162 2123.6 556.162 2120.62 555.037 2118.58 552.787 2116.54 550.537 2115.52 547.246 2115.52 542.912 2115.52 539.808 2116.04 536.324 2117.08 532.459 2118.12 528.595 2119.64 525.142 2121.63 522.1 2123.62 519.058 2126.02 516.699 2128.85 515.022 2131.67 513.345 2134.79 512.506 2138.21 512.506Z" fill-rule="evenodd"/><text fill="#000000" fill-opacity="0" font-family="Arial,Arial_MSFontService,sans-serif" font-size="43.6875" x="2115.52" y="550.733">𝐺𝑎𝑠</text><path d="M2311.7 527.787C2309.53 527.787 2307.64 528.694 2306.03 530.506 2304.41 532.319 2303.14 534.912 2302.22 538.287 2301.29 541.662 2300.82 544.569 2300.82 547.006 2300.82 549.298 2301.3 550.99 2302.25 552.084 2303.19 553.178 2304.63 553.725 2306.54 553.725 2308.59 553.725 2310.4 552.808 2311.98 550.975 2313.56 549.142 2314.81 546.574 2315.73 543.272 2316.65 539.97 2317.11 537.069 2317.11 534.569 2317.11 532.319 2316.67 530.626 2315.79 529.49 2314.92 528.355 2313.55 527.787 2311.7 527.787ZM2327.98 525.787 2336.17 525.787 2338.04 550.444C2340.98 545.652 2343.1 542.006 2344.4 539.506 2345.71 537.006 2346.67 534.845 2347.29 533.022 2347.92 531.199 2348.4 529.298 2348.73 527.319L2349.07 525.787 2353.57 525.787 2355.86 550.475C2359.11 545.85 2361.58 541.813 2363.28 538.365 2364.98 534.918 2365.82 532.11 2365.82 529.944 2365.82 528.964 2365.62 528.298 2365.2 527.944 2364.78 527.589 2364.07 527.381 2363.07 527.319L2363.39 525.787 2371.45 525.787 2372.29 527.35C2371.56 529.204 2370.98 530.631 2370.54 531.631 2370.11 532.631 2369.53 533.834 2368.82 535.24 2368.12 536.647 2367.37 538.048 2366.57 539.444 2365.78 540.839 2364.85 542.376 2363.78 544.053 2362.71 545.73 2361.5 547.553 2360.17 549.522 2358.84 551.49 2357.26 553.704 2355.45 556.162L2351.73 556.162 2350.45 543.1C2350.35 542.079 2350.24 540.746 2350.12 539.1 2350.01 537.454 2349.93 536.183 2349.89 535.287L2349.54 535.256C2348.42 538.027 2346.89 541.11 2344.95 544.506 2343.01 547.902 2340.62 551.787 2337.76 556.162L2333.57 556.162 2331.2 532.631C2331.07 531.423 2330.92 530.444 2330.73 529.694 2330.54 528.944 2330.23 528.381 2329.79 528.006 2329.36 527.631 2328.64 527.402 2327.64 527.319ZM2312.32 525.287C2315.66 525.287 2318.2 526.199 2319.95 528.022 2321.7 529.845 2322.57 532.454 2322.57 535.85 2322.57 538.267 2322.15 540.85 2321.31 543.6 2320.47 546.35 2319.31 548.662 2317.84 550.537 2316.37 552.412 2314.62 553.824 2312.57 554.772 2310.53 555.72 2308.19 556.194 2305.54 556.194 2302.31 556.194 2299.81 555.287 2298.03 553.475 2296.25 551.662 2295.36 549.058 2295.36 545.662 2295.36 543.996 2295.61 542.069 2296.11 539.881 2296.75 536.923 2297.84 534.339 2299.36 532.131 2300.88 529.923 2302.75 528.23 2304.98 527.053 2307.21 525.876 2309.66 525.287 2312.32 525.287ZM2242.89 513.006 2271.07 513.006 2268.92 522.6 2265.92 522.6C2265.84 520.996 2265.71 519.73 2265.53 518.803 2265.35 517.876 2265.1 517.209 2264.78 516.803 2264.46 516.397 2264.06 516.121 2263.61 515.975 2263.15 515.829 2262.46 515.756 2261.54 515.756L2251.92 515.756 2248.2 532.756 2254.04 532.756C2254.96 532.756 2255.72 532.631 2256.32 532.381 2256.93 532.131 2257.49 531.678 2258.01 531.022 2258.53 530.365 2259.18 529.246 2259.95 527.662L2262.79 527.662 2259.76 540.85 2257.01 540.85C2257.01 538.746 2256.94 537.428 2256.81 536.897 2256.67 536.365 2256.41 536.001 2256.03 535.803 2255.64 535.605 2254.88 535.506 2253.73 535.506L2247.61 535.506 2245.14 546.569C2244.7 548.527 2244.48 550.152 2244.48 551.444 2244.48 552.089 2244.59 552.595 2244.79 552.959 2245 553.324 2245.31 553.589 2245.73 553.756 2246.15 553.923 2246.87 554.048 2247.89 554.131L2247.54 555.662 2234.7 555.662 2235.04 554.131C2235.84 554.006 2236.43 553.803 2236.82 553.522 2237.22 553.24 2237.55 552.85 2237.82 552.35 2238.1 551.85 2238.35 551.24 2238.57 550.522 2238.8 549.803 2239.15 548.412 2239.61 546.35L2244.92 522.287C2245.38 520.204 2245.61 518.558 2245.61 517.35 2245.61 516.329 2245.37 515.621 2244.89 515.225 2244.41 514.829 2243.63 514.6 2242.54 514.537ZM2288.01 510.975 2289.86 510.975 2282.17 545.569C2281.71 547.631 2281.48 549.173 2281.48 550.194 2281.48 551.027 2281.62 551.631 2281.89 552.006 2282.16 552.381 2282.59 552.569 2283.17 552.569 2283.79 552.569 2284.46 552.313 2285.17 551.803 2285.88 551.293 2286.88 550.319 2288.17 548.881L2289.95 550.631C2287.93 552.756 2286.28 554.209 2285 554.99 2283.72 555.772 2282.28 556.162 2280.7 556.162 2279.35 556.162 2278.26 555.668 2277.45 554.678 2276.64 553.688 2276.23 552.423 2276.23 550.881 2276.23 549.485 2276.52 547.464 2277.11 544.819L2282.7 519.787C2282.95 518.683 2283.13 517.803 2283.23 517.147 2283.34 516.49 2283.39 515.881 2283.39 515.319 2283.39 514.694 2283.27 514.22 2283.04 513.897 2282.81 513.574 2282.49 513.339 2282.06 513.194 2281.63 513.048 2280.87 512.944 2279.76 512.881L2280.14 511.256Z" fill-rule="evenodd"/><text fill="#000000" fill-opacity="0" font-family="Arial,Arial_MSFontService,sans-serif" font-size="45.2188" x="2234.7" y="550.541">𝐹𝑙𝑜𝑤</text></g></svg>