<svg width="2366" height="2627" xmlns="http://www.w3.org/2000/svg" xmlns:xlink="http://www.w3.org/1999/xlink" xml:space="preserve" overflow="hidden"><defs><clipPath id="clip0"><rect x="986" y="18" width="2366" height="2627"/></clipPath></defs><g clip-path="url(#clip0)" transform="translate(-986 -18)"><path d="M1685.52 646.977C1683.02 607.544 1956.36 284.329 2118.22 445.858 2280.08 607.386 2654.19 1576.71 2656.69 1616.15 2659.19 1655.58 2293.24 845.227 2133.22 682.455 1973.2 519.682 1688.02 686.409 1685.52 646.977Z" stroke="#000000" stroke-width="4.58333" stroke-miterlimit="8" fill-rule="evenodd"/><path d="M0.655969-0.939489 411.852 286.165 410.54 288.044-0.655969 0.939489ZM415.31 273.207 429.986 300.224 399.567 295.755Z" transform="matrix(1 0 0 -1 1108 1080.22)"/><path d="M1109 1078.85 1516.07 1078.85 1516.07 1081.15 1109 1081.15ZM1511.49 1066.25 1538.99 1080 1511.49 1093.75Z"/><path d="M1.14583-1.37738e-06 1.14617 277.308-1.1455 277.308-1.14583 1.37738e-06ZM13.7503 272.724 0.000360892 300.224-13.7497 272.724Z" transform="matrix(1 0 0 -1 1109 1080.22)"/><path d="M1570.33 1104.06 1587.1 1104.06 1586.66 1106.04C1585.47 1106.18 1584.54 1106.53 1583.88 1107.1 1583.22 1107.67 1582.75 1108.46 1582.48 1109.47 1582.21 1110.48 1582.08 1111.84 1582.08 1113.54 1582.08 1113.95 1582.12 1115.16 1582.2 1117.19L1583.34 1146.86 1583.34 1150.1 1583.74 1150.1 1601.29 1118.45C1602.32 1116.58 1603.09 1114.98 1603.6 1113.64 1604.11 1112.31 1604.37 1111.12 1604.37 1110.1 1604.37 1107.83 1603.02 1106.48 1600.32 1106.04L1600.76 1104.06 1617.34 1104.06 1616.89 1106.04C1616.16 1106.15 1615.47 1106.43 1614.81 1106.88 1614.14 1107.32 1613.4 1108.06 1612.58 1109.1 1611.75 1110.14 1610.48 1112.15 1608.75 1115.12L1582.81 1160.03 1577.42 1160.03 1574.7 1114.84C1574.6 1113.08 1574.4 1111.58 1574.12 1110.32 1573.83 1109.06 1573.39 1108.08 1572.78 1107.38 1572.17 1106.68 1571.2 1106.23 1569.88 1106.04Z" fill-rule="evenodd"/><text fill="#000000" fill-opacity="0" font-family="Arial,Arial_MSFontService,sans-serif" font-size="55.9683" x="1569.88" y="1153.03">𝑉</text><path d="M1624.84 1137.86 1626.66 1137.86C1626.62 1138.95 1626.59 1139.93 1626.57 1140.79 1626.55 1141.66 1626.53 1142.5 1626.52 1143.31 1626.51 1144.12 1626.51 1144.93 1626.51 1145.72L1626.51 1168.36C1626.51 1168.97 1626.53 1169.51 1626.57 1169.95 1626.61 1170.4 1626.67 1170.78 1626.76 1171.08 1626.85 1171.39 1626.97 1171.66 1627.12 1171.87 1627.27 1172.09 1627.44 1172.28 1627.64 1172.44 1627.88 1172.68 1628.2 1172.86 1628.59 1172.99 1628.99 1173.12 1629.5 1173.23 1630.11 1173.32 1630.73 1173.41 1631.47 1173.48 1632.33 1173.53 1633.2 1173.58 1634.23 1173.61 1635.45 1173.63L1635.45 1176.22 1611.83 1176.22 1611.83 1173.63C1613 1173.59 1613.99 1173.55 1614.8 1173.5 1615.62 1173.45 1616.31 1173.38 1616.89 1173.29 1617.46 1173.2 1617.93 1173.1 1618.27 1172.99 1618.62 1172.88 1618.92 1172.75 1619.18 1172.59 1619.46 1172.41 1619.7 1172.22 1619.9 1172.01 1620.1 1171.8 1620.25 1171.54 1620.37 1171.22 1620.49 1170.9 1620.59 1170.51 1620.66 1170.06 1620.73 1169.6 1620.76 1169.03 1620.76 1168.36L1620.76 1147C1620.76 1146.23 1620.61 1145.68 1620.31 1145.36 1620.02 1145.05 1619.59 1144.89 1619.03 1144.89 1618.42 1144.89 1617.5 1145.21 1616.29 1145.84 1615.08 1146.48 1613.51 1147.42 1611.59 1148.67 1611.33 1148.21 1611.09 1147.76 1610.87 1147.3 1610.65 1146.84 1610.43 1146.38 1610.19 1145.9 1612.65 1144.55 1615.09 1143.21 1617.5 1141.86 1619.91 1140.52 1622.36 1139.19 1624.84 1137.86Z" fill-rule="evenodd"/><text fill="#000000" fill-opacity="0" font-family="Arial,Arial_MSFontService,sans-serif" font-size="38.3633" x="1610.19" y="1171.43">1</text><path d="M1643.68 1169.31 1648.89 1169.31C1649.17 1170.7 1649.31 1172.07 1649.31 1173.42 1649.31 1174.81 1649.07 1176.08 1648.59 1177.23 1648.11 1178.39 1647.35 1179.53 1646.31 1180.67 1645.27 1181.82 1643.83 1183.07 1642.01 1184.44L1640.4 1182.63C1641.41 1181.67 1642.15 1180.81 1642.6 1180.05 1643.06 1179.28 1643.39 1178.42 1643.59 1177.44 1643.79 1176.47 1643.88 1175.25 1643.88 1173.78 1643.88 1172.27 1643.81 1170.78 1643.68 1169.31Z" fill-rule="evenodd"/><text fill="#000000" fill-opacity="0" font-family="Arial,Arial_MSFontService,sans-serif" font-size="15.1309" x="1640.4" y="1182.55">,</text><path d="M1665.51 1145.81C1666.61 1145.81 1667.5 1146.05 1668.19 1146.53 1668.89 1147 1669.46 1147.7 1669.92 1148.61 1670.38 1149.52 1670.76 1150.65 1671.05 1151.99 1671.35 1153.33 1671.67 1154.87 1672.01 1156.59L1672.39 1156.59C1673.59 1155.02 1674.62 1153.66 1675.49 1152.51 1676.36 1151.36 1677.14 1150.39 1677.83 1149.59 1678.51 1148.8 1679.13 1148.15 1679.68 1147.66 1680.22 1147.16 1680.75 1146.78 1681.27 1146.51 1681.79 1146.24 1682.32 1146.06 1682.86 1145.96 1683.41 1145.86 1684.02 1145.81 1684.69 1145.81 1685.69 1145.81 1686.59 1145.99 1687.41 1146.35L1685.92 1152.22 1683.44 1152.22C1683.38 1151.36 1683.07 1150.93 1682.49 1150.93 1682.27 1150.93 1682.03 1150.97 1681.78 1151.05 1681.52 1151.13 1681.21 1151.29 1680.85 1151.53 1680.5 1151.77 1680.08 1152.1 1679.62 1152.53 1679.15 1152.95 1678.6 1153.51 1677.96 1154.2 1677.33 1154.88 1676.6 1155.72 1675.79 1156.71 1674.98 1157.71 1674.04 1158.88 1672.99 1160.23 1673.53 1162.97 1673.99 1165.16 1674.37 1166.81 1674.76 1168.46 1675.13 1169.72 1675.49 1170.59 1675.85 1171.47 1676.21 1172.04 1676.56 1172.31 1676.92 1172.57 1677.33 1172.71 1677.78 1172.71 1678.12 1172.71 1678.44 1172.67 1678.72 1172.59 1679.01 1172.51 1679.31 1172.34 1679.62 1172.07 1679.92 1171.8 1680.27 1171.41 1680.64 1170.91 1681.02 1170.4 1681.47 1169.73 1681.98 1168.89L1684.22 1170.35C1683.34 1171.66 1682.57 1172.74 1681.9 1173.57 1681.22 1174.41 1680.56 1175.06 1679.93 1175.54 1679.29 1176.01 1678.64 1176.34 1677.96 1176.51 1677.29 1176.67 1676.51 1176.76 1675.64 1176.76 1674.89 1176.76 1674.21 1176.65 1673.61 1176.45 1673.02 1176.24 1672.5 1175.85 1672.07 1175.3 1671.77 1174.96 1671.49 1174.51 1671.23 1173.94 1670.97 1173.38 1670.74 1172.77 1670.52 1172.11 1670.3 1171.46 1670.1 1170.78 1669.92 1170.07 1669.74 1169.37 1669.59 1168.71 1669.47 1168.09 1669.36 1167.48 1669.26 1166.92 1669.19 1166.44 1669.12 1165.95 1669.08 1165.59 1669.06 1165.35L1668.73 1165.35C1667.54 1166.94 1666.5 1168.32 1665.62 1169.51 1664.73 1170.69 1663.93 1171.7 1663.22 1172.54 1662.51 1173.39 1661.86 1174.08 1661.28 1174.63 1660.71 1175.17 1660.14 1175.61 1659.59 1175.92 1659.03 1176.24 1658.46 1176.46 1657.87 1176.58 1657.29 1176.7 1656.64 1176.76 1655.92 1176.76 1654.89 1176.76 1654.01 1176.58 1653.27 1176.22L1654.64 1170.41 1657.17 1170.41C1657.23 1171.29 1657.56 1171.72 1658.16 1171.72 1658.37 1171.7 1658.59 1171.66 1658.8 1171.61 1659.01 1171.55 1659.25 1171.42 1659.53 1171.23 1659.8 1171.04 1660.16 1170.75 1660.58 1170.34 1661.01 1169.93 1661.55 1169.37 1662.21 1168.64 1662.86 1167.92 1663.67 1167.01 1664.62 1165.92 1665.57 1164.82 1666.71 1163.47 1668.05 1161.87 1667.69 1160.2 1667.37 1158.75 1667.11 1157.52 1666.84 1156.29 1666.59 1155.23 1666.36 1154.34 1666.13 1153.46 1665.91 1152.74 1665.69 1152.19 1665.47 1151.63 1665.25 1151.19 1665.02 1150.86 1664.79 1150.53 1664.55 1150.3 1664.28 1150.16 1664.01 1150.02 1663.7 1149.94 1663.34 1149.92 1663 1149.92 1662.69 1149.98 1662.4 1150.09 1662.11 1150.19 1661.81 1150.39 1661.51 1150.67 1661.2 1150.94 1660.86 1151.33 1660.49 1151.83 1660.13 1152.32 1659.71 1152.97 1659.23 1153.76L1656.94 1152.27C1657.75 1151.06 1658.48 1150.04 1659.14 1149.21 1659.79 1148.37 1660.44 1147.71 1661.08 1147.21 1661.71 1146.71 1662.38 1146.36 1663.09 1146.14 1663.79 1145.92 1664.6 1145.81 1665.51 1145.81Z" fill-rule="evenodd"/><text fill="#000000" fill-opacity="0" font-family="Arial,Arial_MSFontService,sans-serif" font-size="30.9468" x="1653.27" y="1172.89">𝑥</text><path d="M1033.76 677.921 1050.54 677.921 1050.09 679.907C1048.9 680.042 1047.98 680.394 1047.31 680.961 1046.65 681.528 1046.19 682.319 1045.92 683.332 1045.65 684.345 1045.51 685.703 1045.51 687.405 1045.51 687.81 1045.55 689.026 1045.63 691.052L1046.77 720.718 1046.77 723.961 1047.17 723.961 1064.72 692.309C1065.75 690.444 1066.52 688.844 1067.03 687.506 1067.54 686.169 1067.8 684.987 1067.8 683.96 1067.8 681.69 1066.45 680.34 1063.75 679.907L1064.19 677.921 1080.77 677.921 1080.32 679.907C1079.59 680.015 1078.9 680.292 1078.24 680.738 1077.57 681.184 1076.83 681.927 1076.01 682.967 1075.18 684.007 1073.91 686.013 1072.18 688.985L1046.24 733.89 1040.85 733.89 1038.13 688.702C1038.03 686.946 1037.83 685.439 1037.55 684.183 1037.26 682.927 1036.82 681.947 1036.21 681.245 1035.6 680.542 1034.64 680.096 1033.31 679.907Z" fill-rule="evenodd"/><text fill="#000000" fill-opacity="0" font-family="Arial,Arial_MSFontService,sans-serif" font-size="55.9683" x="1033.31" y="726.894">𝑉</text><path d="M1088.27 711.722 1090.09 711.722C1090.05 712.814 1090.02 713.792 1090 714.656 1089.98 715.519 1089.97 716.358 1089.96 717.172 1089.95 717.987 1089.94 718.791 1089.94 719.585L1089.94 742.222C1089.94 742.837 1089.96 743.368 1090 743.815 1090.04 744.262 1090.1 744.639 1090.19 744.947 1090.28 745.255 1090.4 745.518 1090.55 745.736 1090.7 745.955 1090.87 746.143 1091.07 746.302 1091.31 746.541 1091.63 746.724 1092.03 746.853 1092.42 746.982 1092.93 747.092 1093.54 747.181 1094.16 747.27 1094.9 747.34 1095.76 747.389 1096.63 747.439 1097.66 747.474 1098.88 747.494L1098.88 750.085 1075.26 750.085 1075.26 747.494C1076.43 747.454 1077.42 747.409 1078.23 747.36 1079.05 747.31 1079.74 747.241 1080.32 747.151 1080.9 747.062 1081.36 746.963 1081.7 746.853 1082.05 746.744 1082.36 746.61 1082.61 746.451 1082.89 746.273 1083.13 746.079 1083.33 745.87 1083.53 745.662 1083.69 745.399 1083.8 745.081 1083.92 744.763 1084.02 744.376 1084.09 743.919 1084.16 743.463 1084.19 742.897 1084.19 742.222L1084.19 720.866C1084.19 720.091 1084.04 719.545 1083.75 719.228 1083.45 718.91 1083.02 718.751 1082.46 718.751 1081.85 718.751 1080.94 719.069 1079.72 719.704 1078.51 720.34 1076.94 721.283 1075.02 722.534 1074.76 722.077 1074.52 721.62 1074.3 721.164 1074.08 720.707 1073.86 720.24 1073.62 719.764 1076.08 718.413 1078.52 717.068 1080.93 715.728 1083.34 714.388 1085.79 713.052 1088.27 711.722Z" fill-rule="evenodd"/><text fill="#000000" fill-opacity="0" font-family="Arial,Arial_MSFontService,sans-serif" font-size="38.3633" x="1073.62" y="745.29">1</text><path d="M1107.11 743.175 1112.32 743.175C1112.6 744.565 1112.74 745.935 1112.74 747.285 1112.74 748.675 1112.5 749.946 1112.02 751.098 1111.54 752.249 1110.79 753.396 1109.74 754.538 1108.7 755.68 1107.27 756.936 1105.44 758.306L1103.83 756.489C1104.84 755.536 1105.58 754.677 1106.03 753.912 1106.49 753.148 1106.82 752.279 1107.02 751.306 1107.22 750.333 1107.32 749.112 1107.32 747.643 1107.32 746.134 1107.25 744.644 1107.11 743.175Z" fill-rule="evenodd"/><text fill="#000000" fill-opacity="0" font-family="Arial,Arial_MSFontService,sans-serif" font-size="15.1309" x="1103.83" y="756.414">,</text><path d="M1127.37 719.674C1128.08 719.674 1128.7 719.749 1129.21 719.898 1129.73 720.047 1130.2 720.28 1130.61 720.598 1131.03 720.915 1131.4 721.327 1131.73 721.834 1132.06 722.34 1132.39 722.951 1132.73 723.666 1132.91 724.102 1133.09 724.728 1133.29 725.542 1133.49 726.356 1133.7 727.299 1133.92 728.372 1134.14 729.444 1134.36 730.625 1134.57 731.916 1134.79 733.207 1135.01 734.557 1135.23 735.967 1135.45 737.377 1135.66 738.821 1135.85 740.301 1136.05 741.78 1136.24 743.234 1136.42 744.664 1137.91 742.718 1139.25 740.747 1140.44 738.752 1141.63 736.756 1142.64 734.87 1143.46 733.093 1144.29 731.315 1144.92 729.697 1145.36 728.238 1145.79 726.778 1146 725.612 1145.98 724.738 1145.98 723.864 1145.75 723.239 1145.3 722.861 1144.84 722.484 1144.07 722.266 1143 722.206L1143.39 720.3 1151.88 720.3 1152.92 722.027C1150.94 726.932 1148.62 731.663 1145.97 736.22 1143.32 740.777 1140.32 745.2 1136.99 749.489 1135.54 751.217 1134.23 752.706 1133.07 753.957 1131.91 755.208 1130.84 756.285 1129.85 757.189 1128.87 758.092 1127.96 758.832 1127.11 759.408 1126.27 759.984 1125.45 760.445 1124.66 760.793 1123.86 761.14 1123.07 761.388 1122.29 761.537 1121.5 761.686 1120.68 761.781 1119.83 761.82 1119.37 761.82 1118.82 761.771 1118.18 761.671 1117.53 761.572 1116.96 761.443 1116.46 761.284L1117.95 754.761 1120.66 754.761 1120.66 754.94C1120.66 756.29 1121.21 756.965 1122.3 756.965 1123.75 756.965 1125.22 756.404 1126.71 755.283 1128.2 754.161 1130 752.369 1132.1 749.906 1131.45 746.134 1130.87 742.872 1130.37 740.122 1129.88 737.372 1129.43 735.029 1129.02 733.093 1128.61 731.157 1128.24 729.583 1127.9 728.372 1127.56 727.16 1127.24 726.217 1126.92 725.542 1126.6 724.867 1126.28 724.405 1125.95 724.157 1125.62 723.909 1125.27 723.785 1124.89 723.785 1124.54 723.785 1124.21 723.829 1123.91 723.919 1123.61 724.008 1123.3 724.192 1122.99 724.47 1122.67 724.748 1122.33 725.14 1121.96 725.646 1121.59 726.153 1121.14 726.813 1120.6 727.627L1118.31 726.138C1119.16 724.887 1119.95 723.844 1120.66 723.01 1121.38 722.176 1122.09 721.516 1122.79 721.03 1123.5 720.543 1124.22 720.196 1124.95 719.987 1125.69 719.779 1126.49 719.674 1127.37 719.674Z" fill-rule="evenodd"/><text fill="#000000" fill-opacity="0" font-family="Arial,Arial_MSFontService,sans-serif" font-size="42.146" x="1116.46" y="756.552">𝑦</text><path d="M1560.83 692.4 1577.61 692.4 1577.16 694.386C1575.97 694.521 1575.05 694.872 1574.39 695.439 1573.72 696.007 1573.26 696.797 1572.99 697.81 1572.72 698.823 1572.58 700.181 1572.58 701.883 1572.58 702.288 1572.62 703.504 1572.7 705.531L1573.84 735.197 1573.84 738.439 1574.24 738.439 1591.79 706.787C1592.82 704.923 1593.59 703.322 1594.1 701.984 1594.62 700.647 1594.87 699.465 1594.87 698.438 1594.87 696.169 1593.52 694.818 1590.82 694.386L1591.26 692.4 1607.84 692.4 1607.39 694.386C1606.67 694.494 1605.97 694.771 1605.31 695.216 1604.65 695.662 1603.9 696.405 1603.08 697.445 1602.25 698.486 1600.98 700.492 1599.25 703.464L1573.31 748.368 1567.92 748.368 1565.21 703.18C1565.1 701.424 1564.9 699.918 1564.62 698.661 1564.33 697.405 1563.89 696.425 1563.28 695.723 1562.67 695.021 1561.71 694.575 1560.38 694.386Z" fill-rule="evenodd"/><text fill="#000000" fill-opacity="0" font-family="Arial,Arial_MSFontService,sans-serif" font-size="55.9683" x="1560.38" y="741.372">𝑉</text><path d="M1615.34 726.2 1617.16 726.2C1617.12 727.292 1617.09 728.27 1617.07 729.134 1617.05 729.998 1617.04 730.837 1617.03 731.651 1617.02 732.465 1617.01 733.269 1617.01 734.063L1617.01 756.7C1617.01 757.316 1617.03 757.847 1617.07 758.294 1617.11 758.74 1617.18 759.118 1617.27 759.425 1617.35 759.733 1617.47 759.996 1617.62 760.215 1617.77 760.433 1617.95 760.622 1618.14 760.781 1618.38 761.019 1618.7 761.203 1619.1 761.332 1619.49 761.461 1620 761.57 1620.62 761.659 1621.23 761.749 1621.97 761.818 1622.84 761.868 1623.7 761.917 1624.74 761.952 1625.95 761.972L1625.95 764.563 1602.33 764.563 1602.33 761.972C1603.5 761.932 1604.49 761.888 1605.31 761.838 1606.12 761.788 1606.82 761.719 1607.39 761.629 1607.97 761.54 1608.43 761.441 1608.78 761.332 1609.12 761.222 1609.43 761.088 1609.68 760.93 1609.96 760.751 1610.2 760.557 1610.4 760.349 1610.6 760.14 1610.76 759.877 1610.88 759.559 1611 759.242 1611.09 758.854 1611.16 758.398 1611.23 757.941 1611.26 757.375 1611.26 756.7L1611.26 735.344C1611.26 734.57 1611.11 734.024 1610.82 733.706 1610.52 733.388 1610.09 733.229 1609.54 733.229 1608.92 733.229 1608.01 733.547 1606.8 734.182 1605.58 734.818 1604.02 735.761 1602.09 737.012 1601.83 736.555 1601.59 736.099 1601.37 735.642 1601.16 735.185 1600.93 734.719 1600.69 734.242 1603.15 732.892 1605.59 731.546 1608 730.206 1610.41 728.866 1612.86 727.53 1615.34 726.2Z" fill-rule="evenodd"/><text fill="#000000" fill-opacity="0" font-family="Arial,Arial_MSFontService,sans-serif" font-size="38.3633" x="1600.69" y="759.768">1</text><path d="M2723 1686.85 3130.07 1686.85 3130.07 1689.15 2723 1689.15ZM3125.49 1674.25 3152.99 1688 3125.49 1701.75Z"/><path d="M3184.37 1712.2 3201.14 1712.2 3200.7 1714.19C3199.51 1714.32 3198.58 1714.67 3197.92 1715.24 3197.26 1715.81 3196.79 1716.6 3196.52 1717.61 3196.25 1718.62 3196.12 1719.98 3196.12 1721.68 3196.12 1722.09 3196.16 1723.31 3196.24 1725.33L3197.38 1755 3197.38 1758.24 3197.78 1758.24 3215.33 1726.59C3216.36 1724.72 3217.13 1723.12 3217.64 1721.79 3218.15 1720.45 3218.41 1719.27 3218.41 1718.24 3218.41 1715.97 3217.06 1714.62 3214.36 1714.19L3214.8 1712.2 3231.38 1712.2 3230.93 1714.19C3230.2 1714.29 3229.51 1714.57 3228.85 1715.02 3228.18 1715.46 3227.44 1716.21 3226.62 1717.25 3225.79 1718.29 3224.52 1720.29 3222.79 1723.27L3196.85 1768.17 3191.46 1768.17 3188.74 1722.98C3188.64 1721.23 3188.44 1719.72 3188.16 1718.46 3187.87 1717.21 3187.43 1716.23 3186.82 1715.52 3186.21 1714.82 3185.24 1714.38 3183.92 1714.19Z" fill-rule="evenodd"/><text fill="#000000" fill-opacity="0" font-family="Arial,Arial_MSFontService,sans-serif" font-size="55.9683" x="3183.92" y="1761.17">𝑉</text><path d="M3238.46 1745.79C3240.53 1745.79 3242.29 1746.03 3243.75 1746.49 3245.21 1746.96 3246.39 1747.59 3247.31 1748.38 3248.22 1749.18 3248.88 1750.13 3249.29 1751.24 3249.69 1752.36 3249.9 1753.56 3249.9 1754.85 3249.9 1755.62 3249.84 1756.34 3249.73 1757.01 3249.63 1757.67 3249.44 1758.33 3249.17 1758.97 3248.9 1759.62 3248.55 1760.27 3248.11 1760.92 3247.67 1761.58 3247.13 1762.27 3246.47 1763.01 3245.98 1763.64 3245.33 1764.38 3244.54 1765.21 3243.74 1766.05 3242.87 1766.94 3241.93 1767.89 3240.99 1768.85 3240 1769.84 3238.97 1770.87 3237.93 1771.9 3236.93 1772.93 3235.96 1773.94 3234.99 1774.95 3234.09 1775.94 3233.28 1776.89 3232.46 1777.84 3231.8 1778.72 3231.28 1779.51L3242.3 1779.51C3243.24 1779.51 3243.98 1779.47 3244.54 1779.41 3245.09 1779.34 3245.55 1779.18 3245.92 1778.94 3246.29 1778.71 3246.6 1778.34 3246.86 1777.86 3247.12 1777.37 3247.42 1776.7 3247.75 1775.85L3250.52 1775.85C3250.42 1777.26 3250.33 1778.68 3250.24 1780.11 3250.15 1781.54 3250.06 1782.95 3249.96 1784.36L3224.73 1784.36 3224.73 1782.82C3225.21 1781.74 3225.76 1780.69 3226.4 1779.64 3227.03 1778.6 3227.75 1777.54 3228.54 1776.47 3229.34 1775.4 3230.24 1774.29 3231.25 1773.15 3232.27 1772.01 3233.39 1770.82 3234.62 1769.59 3236.48 1767.72 3238 1766.13 3239.18 1764.81 3240.35 1763.49 3241.27 1762.31 3241.95 1761.28 3242.62 1760.25 3243.08 1759.3 3243.33 1758.42 3243.58 1757.55 3243.7 1756.61 3243.7 1755.62 3243.7 1754.61 3243.56 1753.68 3243.27 1752.82 3242.98 1751.97 3242.57 1751.24 3242.03 1750.65 3241.5 1750.05 3240.82 1749.59 3239.99 1749.25 3239.17 1748.91 3238.22 1748.74 3237.15 1748.74 3235.3 1748.74 3233.75 1749.24 3232.5 1750.25 3231.25 1751.25 3230.28 1752.7 3229.58 1754.61L3225.68 1754.61 3225.68 1748.8C3228.22 1747.75 3230.56 1746.98 3232.7 1746.51 3234.83 1746.03 3236.75 1745.79 3238.46 1745.79Z" fill-rule="evenodd"/><text fill="#000000" fill-opacity="0" font-family="Arial,Arial_MSFontService,sans-serif" font-size="38.5718" x="3224.73" y="1779.54">2</text><path d="M3259.62 1777.45 3264.83 1777.45C3265.11 1778.84 3265.25 1780.21 3265.25 1781.56 3265.25 1782.95 3265.01 1784.23 3264.53 1785.38 3264.06 1786.53 3263.3 1787.68 3262.25 1788.82 3261.21 1789.96 3259.78 1791.22 3257.95 1792.59L3256.34 1790.77C3257.35 1789.82 3258.09 1788.96 3258.55 1788.19 3259 1787.43 3259.33 1786.56 3259.53 1785.59 3259.73 1784.61 3259.83 1783.39 3259.83 1781.92 3259.83 1780.41 3259.76 1778.92 3259.62 1777.45Z" fill-rule="evenodd"/><text fill="#000000" fill-opacity="0" font-family="Arial,Arial_MSFontService,sans-serif" font-size="15.1309" x="3256.34" y="1790.69">,</text><path d="M3281.46 1753.95C3282.55 1753.95 3283.44 1754.19 3284.14 1754.67 3284.83 1755.15 3285.41 1755.84 3285.86 1756.75 3286.32 1757.67 3286.7 1758.79 3287 1760.13 3287.29 1761.47 3287.61 1763.01 3287.95 1764.74L3288.34 1764.74C3289.53 1763.17 3290.56 1761.81 3291.43 1760.66 3292.31 1759.5 3293.09 1758.53 3293.77 1757.74 3294.46 1756.94 3295.07 1756.3 3295.62 1755.8 3296.16 1755.3 3296.7 1754.92 3297.21 1754.65 3297.73 1754.39 3298.26 1754.2 3298.81 1754.1 3299.35 1754 3299.96 1753.95 3300.64 1753.95 3301.63 1753.95 3302.53 1754.13 3303.35 1754.49L3301.86 1760.36 3299.39 1760.36C3299.33 1759.5 3299.01 1759.08 3298.43 1759.08 3298.21 1759.08 3297.98 1759.12 3297.72 1759.2 3297.46 1759.28 3297.15 1759.43 3296.79 1759.67 3296.44 1759.91 3296.03 1760.24 3295.56 1760.67 3295.09 1761.1 3294.54 1761.65 3293.91 1762.34 3293.27 1763.02 3292.55 1763.86 3291.73 1764.86 3290.92 1765.85 3289.98 1767.02 3288.93 1768.37 3289.47 1771.11 3289.93 1773.3 3290.32 1774.95 3290.7 1776.6 3291.08 1777.86 3291.43 1778.74 3291.79 1779.61 3292.15 1780.18 3292.51 1780.45 3292.86 1780.72 3293.27 1780.85 3293.73 1780.85 3294.06 1780.85 3294.38 1780.81 3294.67 1780.73 3294.95 1780.65 3295.25 1780.48 3295.56 1780.21 3295.87 1779.94 3296.21 1779.55 3296.59 1779.05 3296.96 1778.54 3297.41 1777.87 3297.93 1777.04L3300.16 1778.5C3299.29 1779.81 3298.51 1780.88 3297.84 1781.71 3297.16 1782.55 3296.51 1783.2 3295.87 1783.68 3295.24 1784.16 3294.58 1784.48 3293.91 1784.65 3293.23 1784.82 3292.46 1784.9 3291.58 1784.9 3290.83 1784.9 3290.15 1784.8 3289.56 1784.59 3288.96 1784.38 3288.45 1784 3288.01 1783.44 3287.71 1783.1 3287.43 1782.65 3287.17 1782.09 3286.92 1781.52 3286.68 1780.91 3286.46 1780.25 3286.24 1779.6 3286.04 1778.92 3285.86 1778.21 3285.69 1777.51 3285.54 1776.85 3285.42 1776.23 3285.3 1775.62 3285.2 1775.07 3285.13 1774.58 3285.06 1774.09 3285.02 1773.73 3285 1773.49L3284.67 1773.49C3283.48 1775.08 3282.44 1776.47 3281.56 1777.65 3280.68 1778.83 3279.88 1779.84 3279.16 1780.69 3278.45 1781.53 3277.8 1782.23 3277.23 1782.77 3276.65 1783.32 3276.08 1783.75 3275.53 1784.07 3274.97 1784.38 3274.4 1784.6 3273.82 1784.72 3273.23 1784.84 3272.58 1784.9 3271.86 1784.9 3270.83 1784.9 3269.95 1784.72 3269.21 1784.36L3270.58 1778.56 3273.12 1778.56C3273.18 1779.43 3273.5 1779.87 3274.1 1779.87 3274.32 1779.85 3274.53 1779.81 3274.74 1779.75 3274.95 1779.69 3275.19 1779.56 3275.47 1779.38 3275.75 1779.19 3276.1 1778.89 3276.53 1778.48 3276.95 1778.07 3277.49 1777.51 3278.15 1776.78 3278.8 1776.06 3279.61 1775.15 3280.56 1774.06 3281.52 1772.97 3282.66 1771.62 3283.99 1770.01 3283.63 1768.34 3283.32 1766.89 3283.05 1765.66 3282.78 1764.43 3282.53 1763.37 3282.3 1762.49 3282.08 1761.6 3281.85 1760.88 3281.63 1760.33 3281.42 1759.77 3281.19 1759.33 3280.96 1759 3280.74 1758.67 3280.49 1758.44 3280.22 1758.3 3279.95 1758.16 3279.64 1758.08 3279.28 1758.06 3278.94 1758.06 3278.63 1758.12 3278.34 1758.23 3278.06 1758.34 3277.76 1758.53 3277.45 1758.81 3277.14 1759.09 3276.8 1759.47 3276.44 1759.97 3276.07 1760.47 3275.65 1761.11 3275.17 1761.91L3272.88 1760.42C3273.69 1759.21 3274.43 1758.18 3275.08 1757.35 3275.74 1756.52 3276.38 1755.85 3277.02 1755.35 3277.65 1754.86 3278.32 1754.5 3279.03 1754.28 3279.73 1754.06 3280.54 1753.95 3281.46 1753.95Z" fill-rule="evenodd"/><text fill="#000000" fill-opacity="0" font-family="Arial,Arial_MSFontService,sans-serif" font-size="30.9468" x="3269.21" y="1781.03">𝑥</text><path d="M2724.04 1687.52 3128.03 2553.14 3125.96 2554.11 2721.96 1688.48ZM3137.52 2543.65 3136.69 2574.38 3112.6 2555.28Z"/><path d="M2724.15 1693 2724.15 2556.47 2721.85 2556.47 2721.85 1693ZM2736.75 2551.88 2723 2579.38 2709.25 2551.88Z"/><path d="M2767.3 2543.37 2784.07 2543.37 2783.63 2545.36C2782.44 2545.49 2781.51 2545.84 2780.85 2546.41 2780.19 2546.98 2779.72 2547.77 2779.45 2548.78 2779.18 2549.8 2779.05 2551.15 2779.05 2552.86 2779.05 2553.26 2779.09 2554.48 2779.17 2556.5L2780.31 2586.17 2780.31 2589.41 2780.71 2589.41 2798.26 2557.76C2799.29 2555.9 2800.06 2554.29 2800.57 2552.96 2801.08 2551.62 2801.34 2550.44 2801.34 2549.41 2801.34 2547.14 2799.99 2545.79 2797.29 2545.36L2797.73 2543.37 2814.31 2543.37 2813.86 2545.36C2813.13 2545.47 2812.44 2545.74 2811.77 2546.19 2811.11 2546.63 2810.37 2547.38 2809.55 2548.42 2808.72 2549.46 2807.45 2551.46 2805.72 2554.44L2779.78 2599.34 2774.39 2599.34 2771.67 2554.15C2771.56 2552.4 2771.37 2550.89 2771.09 2549.63 2770.8 2548.38 2770.36 2547.4 2769.75 2546.7 2769.14 2545.99 2768.17 2545.55 2766.85 2545.36Z" fill-rule="evenodd"/><text fill="#000000" fill-opacity="0" font-family="Arial,Arial_MSFontService,sans-serif" font-size="55.9683" x="2766.85" y="2592.34">𝑉</text><path d="M2821.39 2576.96C2823.46 2576.96 2825.22 2577.2 2826.68 2577.66 2828.14 2578.13 2829.32 2578.76 2830.24 2579.56 2831.15 2580.35 2831.81 2581.3 2832.22 2582.41 2832.62 2583.53 2832.83 2584.73 2832.83 2586.02 2832.83 2586.79 2832.77 2587.51 2832.66 2588.18 2832.55 2588.84 2832.37 2589.5 2832.1 2590.14 2831.83 2590.79 2831.48 2591.44 2831.04 2592.09 2830.6 2592.75 2830.06 2593.45 2829.4 2594.18 2828.91 2594.82 2828.26 2595.55 2827.47 2596.38 2826.67 2597.22 2825.8 2598.11 2824.86 2599.06 2823.92 2600.02 2822.93 2601.01 2821.9 2602.04 2820.86 2603.08 2819.86 2604.1 2818.89 2605.11 2817.92 2606.12 2817.02 2607.11 2816.21 2608.06 2815.39 2609.01 2814.73 2609.89 2814.21 2610.68L2825.23 2610.68C2826.17 2610.68 2826.91 2610.65 2827.47 2610.58 2828.02 2610.51 2828.48 2610.35 2828.85 2610.11 2829.22 2609.88 2829.53 2609.51 2829.79 2609.03 2830.05 2608.54 2830.35 2607.87 2830.68 2607.02L2833.45 2607.02C2833.35 2608.43 2833.26 2609.85 2833.17 2611.28 2833.08 2612.71 2832.99 2614.13 2832.89 2615.54L2807.66 2615.54 2807.66 2613.99C2808.14 2612.91 2808.69 2611.86 2809.33 2610.81 2809.96 2609.77 2810.68 2608.72 2811.47 2607.64 2812.27 2606.57 2813.17 2605.46 2814.18 2604.32 2815.19 2603.18 2816.32 2601.99 2817.55 2600.76 2819.41 2598.9 2820.93 2597.3 2822.1 2595.98 2823.28 2594.66 2824.2 2593.48 2824.88 2592.45 2825.55 2591.42 2826.01 2590.47 2826.26 2589.59 2826.51 2588.72 2826.63 2587.79 2826.63 2586.79 2826.63 2585.78 2826.49 2584.85 2826.2 2583.99 2825.91 2583.14 2825.5 2582.41 2824.96 2581.82 2824.43 2581.22 2823.75 2580.76 2822.92 2580.42 2822.1 2580.08 2821.15 2579.91 2820.08 2579.91 2818.23 2579.91 2816.68 2580.41 2815.43 2581.42 2814.18 2582.42 2813.21 2583.87 2812.51 2585.78L2808.61 2585.78 2808.61 2579.97C2811.15 2578.92 2813.49 2578.16 2815.63 2577.68 2817.76 2577.2 2819.68 2576.96 2821.39 2576.96Z" fill-rule="evenodd"/><text fill="#000000" fill-opacity="0" font-family="Arial,Arial_MSFontService,sans-serif" font-size="38.5718" x="2807.66" y="2610.71">2</text><path d="M2842.55 2608.63 2847.76 2608.63C2848.04 2610.02 2848.18 2611.39 2848.18 2612.74 2848.18 2614.13 2847.94 2615.4 2847.46 2616.55 2846.99 2617.7 2846.23 2618.85 2845.18 2619.99 2844.14 2621.13 2842.71 2622.39 2840.88 2623.76L2839.27 2621.94C2840.28 2620.99 2841.02 2620.13 2841.48 2619.36 2841.93 2618.6 2842.26 2617.73 2842.46 2616.76 2842.66 2615.78 2842.76 2614.56 2842.76 2613.09 2842.76 2611.58 2842.69 2610.1 2842.55 2608.63Z" fill-rule="evenodd"/><text fill="#000000" fill-opacity="0" font-family="Arial,Arial_MSFontService,sans-serif" font-size="15.1309" x="2839.27" y="2621.87">,</text><path d="M2862.81 2585.13C2863.52 2585.13 2864.14 2585.2 2864.65 2585.35 2865.17 2585.5 2865.64 2585.73 2866.05 2586.05 2866.47 2586.37 2866.84 2586.78 2867.17 2587.28 2867.5 2587.79 2867.83 2588.4 2868.17 2589.12 2868.35 2589.55 2868.54 2590.18 2868.73 2590.99 2868.93 2591.81 2869.14 2592.75 2869.36 2593.82 2869.58 2594.89 2869.8 2596.08 2870.01 2597.37 2870.23 2598.66 2870.45 2600.01 2870.67 2601.42 2870.89 2602.83 2871.1 2604.27 2871.3 2605.75 2871.49 2607.23 2871.68 2608.69 2871.86 2610.11 2873.35 2608.17 2874.69 2606.2 2875.88 2604.2 2877.07 2602.21 2878.08 2600.32 2878.91 2598.54 2879.73 2596.77 2880.36 2595.15 2880.8 2593.69 2881.23 2592.23 2881.44 2591.06 2881.42 2590.19 2881.42 2589.31 2881.19 2588.69 2880.74 2588.31 2880.28 2587.94 2879.52 2587.72 2878.44 2587.66L2878.83 2585.75 2887.32 2585.75 2888.36 2587.48C2886.38 2592.38 2884.06 2597.11 2881.41 2601.67 2878.76 2606.23 2875.76 2610.65 2872.43 2614.94 2870.98 2616.67 2869.67 2618.16 2868.51 2619.41 2867.35 2620.66 2866.28 2621.74 2865.29 2622.64 2864.31 2623.54 2863.4 2624.28 2862.55 2624.86 2861.71 2625.43 2860.89 2625.9 2860.1 2626.24 2859.3 2626.59 2858.51 2626.84 2857.73 2626.99 2856.94 2627.14 2856.12 2627.23 2855.27 2627.27 2854.81 2627.27 2854.26 2627.22 2853.62 2627.12 2852.97 2627.02 2852.4 2626.89 2851.91 2626.74L2853.39 2620.21 2856.1 2620.21 2856.1 2620.39C2856.1 2621.74 2856.65 2622.42 2857.74 2622.42 2859.19 2622.42 2860.66 2621.86 2862.15 2620.73 2863.64 2619.61 2865.44 2617.82 2867.54 2615.36 2866.89 2611.58 2866.31 2608.32 2865.81 2605.57 2865.32 2602.82 2864.87 2600.48 2864.46 2598.54 2864.05 2596.61 2863.68 2595.03 2863.34 2593.82 2863 2592.61 2862.68 2591.67 2862.36 2590.99 2862.04 2590.32 2861.72 2589.86 2861.39 2589.61 2861.06 2589.36 2860.71 2589.24 2860.33 2589.24 2859.98 2589.24 2859.65 2589.28 2859.35 2589.37 2859.05 2589.46 2858.75 2589.64 2858.43 2589.92 2858.11 2590.2 2857.77 2590.59 2857.4 2591.1 2857.03 2591.6 2856.58 2592.26 2856.05 2593.08L2853.75 2591.59C2854.61 2590.34 2855.39 2589.3 2856.1 2588.46 2856.82 2587.63 2857.53 2586.97 2858.23 2586.48 2858.94 2585.99 2859.66 2585.65 2860.39 2585.44 2861.13 2585.23 2861.93 2585.13 2862.81 2585.13Z" fill-rule="evenodd"/><text fill="#000000" fill-opacity="0" font-family="Arial,Arial_MSFontService,sans-serif" font-size="42.146" x="2851.91" y="2622">𝑦</text><path d="M3205.66 2550.28 3222.44 2550.28 3222 2552.26C3220.81 2552.4 3219.88 2552.75 3219.22 2553.32 3218.56 2553.89 3218.09 2554.68 3217.82 2555.69 3217.55 2556.7 3217.42 2558.06 3217.42 2559.76 3217.42 2560.17 3217.46 2561.38 3217.54 2563.41L3218.67 2593.07 3218.67 2596.32 3219.08 2596.32 3236.63 2564.67C3237.65 2562.8 3238.42 2561.2 3238.94 2559.86 3239.45 2558.53 3239.71 2557.34 3239.71 2556.32 3239.71 2554.05 3238.35 2552.7 3235.65 2552.26L3236.1 2550.28 3252.67 2550.28 3252.23 2552.26C3251.5 2552.37 3250.8 2552.65 3250.14 2553.09 3249.48 2553.54 3248.74 2554.28 3247.91 2555.32 3247.09 2556.36 3245.81 2558.37 3244.08 2561.34L3218.15 2606.25 3212.75 2606.25 3210.04 2561.06C3209.93 2559.3 3209.74 2557.8 3209.45 2556.54 3209.17 2555.28 3208.72 2554.3 3208.11 2553.6 3207.51 2552.9 3206.54 2552.45 3205.22 2552.26Z" fill-rule="evenodd"/><text fill="#000000" fill-opacity="0" font-family="Arial,Arial_MSFontService,sans-serif" font-size="55.9683" x="3205.22" y="2599.25">𝑉</text><path d="M3259.76 2583.87C3261.82 2583.87 3263.58 2584.1 3265.04 2584.57 3266.5 2585.04 3267.69 2585.67 3268.6 2586.46 3269.52 2587.26 3270.18 2588.21 3270.58 2589.32 3270.99 2590.43 3271.19 2591.63 3271.19 2592.92 3271.19 2593.7 3271.14 2594.42 3271.03 2595.08 3270.92 2595.75 3270.73 2596.4 3270.46 2597.05 3270.2 2597.7 3269.84 2598.35 3269.41 2599 3268.97 2599.66 3268.42 2600.35 3267.77 2601.09 3267.27 2601.72 3266.63 2602.46 3265.83 2603.29 3265.04 2604.12 3264.17 2605.02 3263.23 2605.97 3262.28 2606.92 3261.3 2607.92 3260.26 2608.95 3259.23 2609.98 3258.23 2611 3257.25 2612.02 3256.28 2613.03 3255.39 2614.01 3254.57 2614.97 3253.76 2615.92 3253.09 2616.79 3252.58 2617.59L3263.6 2617.59C3264.53 2617.59 3265.28 2617.55 3265.83 2617.48 3266.39 2617.41 3266.85 2617.26 3267.22 2617.02 3267.59 2616.78 3267.9 2616.42 3268.16 2615.93 3268.41 2615.45 3268.71 2614.78 3269.05 2613.92L3271.82 2613.92C3271.72 2615.33 3271.63 2616.75 3271.54 2618.18 3271.45 2619.61 3271.35 2621.03 3271.25 2622.44L3246.03 2622.44 3246.03 2620.89C3246.5 2619.82 3247.06 2618.76 3247.69 2617.72 3248.33 2616.68 3249.04 2615.62 3249.84 2614.55 3250.63 2613.48 3251.54 2612.37 3252.55 2611.23 3253.56 2610.09 3254.68 2608.9 3255.91 2607.67 3257.78 2605.8 3259.3 2604.21 3260.47 2602.89 3261.64 2601.57 3262.57 2600.39 3263.24 2599.36 3263.92 2598.33 3264.38 2597.37 3264.63 2596.5 3264.88 2595.62 3265 2594.69 3265 2593.7 3265 2592.69 3264.85 2591.75 3264.57 2590.9 3264.28 2590.05 3263.87 2589.32 3263.33 2588.72 3262.79 2588.13 3262.11 2587.66 3261.29 2587.32 3260.47 2586.99 3259.52 2586.82 3258.45 2586.82 3256.6 2586.82 3255.05 2587.32 3253.8 2588.32 3252.55 2589.33 3251.58 2590.78 3250.88 2592.69L3246.98 2592.69 3246.98 2586.88C3249.52 2585.83 3251.86 2585.06 3253.99 2584.58 3256.13 2584.11 3258.05 2583.87 3259.76 2583.87Z" fill-rule="evenodd"/><text fill="#000000" fill-opacity="0" font-family="Arial,Arial_MSFontService,sans-serif" font-size="38.5718" x="3246.03" y="2617.62">2</text><path d="M1.14583-1.37738e-06 1.14617 277.308-1.1455 277.308-1.14583 1.37738e-06ZM13.7503 272.724 0.000360892 300.224-13.7497 272.724Z" transform="matrix(1 0 0 -1 2026 346.224)"/><path d="M2169.56 186.771C2166.75 186.771 2164.3 187.946 2162.2 190.297 2160.11 192.647 2158.46 196.011 2157.26 200.388 2156.05 204.765 2155.45 208.534 2155.45 211.695 2155.45 214.667 2156.07 216.862 2157.3 218.281 2158.53 219.699 2160.38 220.408 2162.87 220.408 2165.52 220.408 2167.87 219.22 2169.92 216.842 2171.98 214.464 2173.6 211.134 2174.79 206.852 2175.97 202.57 2176.57 198.807 2176.57 195.565 2176.57 192.647 2176 190.452 2174.87 188.979 2173.73 187.507 2171.96 186.771 2169.56 186.771ZM2290.96 186.69C2288.23 186.69 2285.61 188.068 2283.08 190.823 2280.55 193.579 2278.62 197.308 2277.26 202.009 2281.07 201.982 2284.34 201.637 2287.07 200.975 2289.8 200.314 2291.89 199.26 2293.35 197.814 2294.81 196.369 2295.54 194.417 2295.54 191.958 2295.54 190.31 2295.16 189.02 2294.39 188.088 2293.62 187.156 2292.48 186.69 2290.96 186.69ZM2253.73 183.528C2257.33 183.528 2260.64 183.934 2263.66 184.744L2261.68 193.903 2257.42 193.903C2257.37 191.85 2257.2 190.364 2256.91 189.445 2256.63 188.527 2256.17 187.838 2255.54 187.379 2254.9 186.919 2254 186.69 2252.84 186.69 2250.11 186.69 2247.66 187.777 2245.49 189.952 2243.31 192.127 2241.53 195.207 2240.16 199.192 2238.78 203.177 2238.09 207.007 2238.09 210.682 2238.09 213.438 2238.63 215.484 2239.71 216.822 2240.79 218.159 2242.41 218.828 2244.57 218.828 2247.03 218.828 2249.16 218.362 2250.96 217.43 2252.75 216.497 2254.65 215.032 2256.65 213.032L2259.12 215.505C2256.58 218.314 2254.02 220.368 2251.44 221.665 2248.86 222.962 2246.09 223.61 2243.11 223.61 2239.2 223.61 2236.22 222.448 2234.2 220.125 2232.17 217.801 2231.16 214.424 2231.16 209.993 2231.16 207.102 2231.7 203.927 2232.78 200.469 2233.86 197.011 2235.44 193.971 2237.52 191.35 2239.6 188.729 2242.03 186.771 2244.82 185.474 2247.6 184.177 2250.57 183.528 2253.73 183.528ZM2170.37 183.528C2174.69 183.528 2177.99 184.711 2180.26 187.075 2182.53 189.439 2183.66 192.823 2183.66 197.227 2183.66 200.361 2183.11 203.711 2182.02 207.277 2180.93 210.844 2179.43 213.843 2177.52 216.275 2175.62 218.706 2173.34 220.537 2170.69 221.766 2168.04 222.995 2165 223.61 2161.57 223.61 2157.39 223.61 2154.14 222.435 2151.83 220.084 2149.52 217.734 2148.36 214.356 2148.36 209.952 2148.36 207.791 2148.69 205.292 2149.33 202.455 2150.17 198.618 2151.58 195.268 2153.55 192.404 2155.52 189.54 2157.95 187.345 2160.84 185.818 2163.73 184.292 2166.91 183.528 2170.37 183.528ZM2292.42 183.488C2295.69 183.488 2298.14 184.15 2299.78 185.474 2301.41 186.798 2302.23 188.865 2302.23 191.674 2302.23 196.268 2300.07 199.712 2295.77 202.009 2291.46 204.305 2285.06 205.454 2276.58 205.454 2276.25 207.075 2276.09 208.831 2276.09 210.722 2276.09 213.559 2276.64 215.619 2277.75 216.903 2278.86 218.186 2280.67 218.828 2283.18 218.828 2285.67 218.828 2287.92 218.287 2289.93 217.207 2291.94 216.126 2294.07 214.464 2296.31 212.222L2298.82 214.856C2296.2 217.747 2293.55 219.922 2290.86 221.381 2288.17 222.84 2285.05 223.569 2281.48 223.569 2277.56 223.569 2274.53 222.374 2272.38 219.983 2270.23 217.592 2269.16 214.262 2269.16 209.993 2269.16 207.102 2269.68 204.002 2270.72 200.692 2271.76 197.382 2273.33 194.41 2275.44 191.776 2277.55 189.142 2280.07 187.102 2283.02 185.656 2285.96 184.211 2289.1 183.488 2292.42 183.488ZM2201.63 183.488C2203.33 183.488 2204.68 184.049 2205.66 185.17 2206.65 186.291 2207.14 187.757 2207.14 189.567 2207.14 190.918 2206.88 192.309 2206.37 193.741L2206.9 193.944C2209.55 190.351 2212.09 187.716 2214.54 186.041 2216.98 184.366 2219.46 183.528 2221.97 183.528 2223.95 183.528 2225.59 183.677 2226.92 183.974L2224.97 193.052 2220.8 193.052C2220.64 191.918 2220.41 191.04 2220.11 190.418 2219.81 189.797 2219.46 189.364 2219.06 189.121 2218.65 188.878 2218.14 188.757 2217.52 188.757 2216.54 188.757 2215.48 189.175 2214.33 190.013 2213.19 190.85 2211.9 192.161 2210.46 193.944 2209.03 195.727 2207.89 197.443 2207.04 199.091 2206.19 200.739 2205.48 202.833 2204.91 205.373L2201.06 222.921 2194.05 222.921 2199.93 197.227C2200.31 195.606 2200.55 194.349 2200.66 193.458 2200.76 192.566 2200.82 191.823 2200.82 191.229 2200.82 190.148 2200.64 189.364 2200.29 188.878 2199.94 188.392 2199.39 188.149 2198.63 188.149 2197.79 188.149 2196.91 188.493 2195.98 189.182 2195.04 189.871 2193.77 191.121 2192.15 192.931L2189.84 190.661C2192.32 188.068 2194.4 186.224 2196.08 185.129 2197.75 184.035 2199.6 183.488 2201.63 183.488ZM2106.83 167.601 2143.39 167.601 2140.59 180.043 2136.7 180.043C2136.59 177.963 2136.42 176.321 2136.19 175.119 2135.96 173.917 2135.64 173.052 2135.22 172.525 2134.8 171.998 2134.3 171.64 2133.7 171.451 2133.11 171.262 2132.22 171.168 2131.03 171.168L2118.54 171.168 2113.72 193.215 2121.3 193.215C2122.49 193.215 2123.48 193.052 2124.26 192.728 2125.04 192.404 2125.77 191.816 2126.45 190.965 2127.12 190.114 2127.96 188.662 2128.96 186.609L2132.65 186.609 2128.72 203.711 2125.15 203.711C2125.15 200.982 2125.06 199.273 2124.89 198.584 2124.71 197.895 2124.37 197.423 2123.87 197.166 2123.37 196.909 2122.38 196.781 2120.89 196.781L2112.95 196.781 2109.75 211.128C2109.18 213.667 2108.9 215.775 2108.9 217.45 2108.9 218.287 2109.03 218.943 2109.3 219.415 2109.57 219.888 2109.98 220.233 2110.52 220.449 2111.06 220.665 2111.99 220.827 2113.32 220.935L2112.87 222.921 2096.21 222.921 2096.66 220.935C2097.69 220.773 2098.46 220.51 2098.97 220.145 2099.48 219.78 2099.92 219.274 2100.27 218.625 2100.62 217.977 2100.94 217.186 2101.24 216.254 2101.54 215.322 2101.98 213.519 2102.58 210.844L2109.47 179.638C2110.06 176.936 2110.36 174.802 2110.36 173.235 2110.36 171.911 2110.05 170.992 2109.43 170.479 2108.8 169.965 2107.79 169.668 2106.39 169.587Z" fill-rule="evenodd"/><text fill="#000000" fill-opacity="0" font-family="Arial,Arial_MSFontService,sans-serif" font-size="56.0088" x="2096.21" y="216.609">𝐹𝑜𝑟𝑐𝑒</text></g></svg>