<svg width="4062" height="1420" xmlns="http://www.w3.org/2000/svg" xmlns:xlink="http://www.w3.org/1999/xlink" xml:space="preserve" overflow="hidden"><defs><linearGradient x1="2361.02" y1="1051" x2="3775.98" y2="1566" gradientUnits="userSpaceOnUse" spreadMethod="reflect" id="fill0"><stop offset="0" stop-color="#8FAADC"/><stop offset="0.38" stop-color="#8FAADC"/><stop offset="0.57" stop-color="#AFADAD"/><stop offset="1" stop-color="#F4B183"/></linearGradient></defs><g transform="translate(-86 -613)"><path d="M201.36 189.652C234.268 375.233 252.808 669.365 250.945 976.308" stroke="#C7C7C7" stroke-width="2.29167" stroke-miterlimit="8" fill="none" fill-rule="evenodd" transform="matrix(0.75125 0.660017 0.660017 -0.75125 2277.58 1706.78)"/><path d="M244.483 388.589C248.847 447.433 251.072 509.122 251.072 571.227" stroke="#A5A5A5" stroke-width="2.29167" stroke-miterlimit="8" fill="none" fill-rule="evenodd" transform="matrix(0.833926 0.551876 0.551876 -0.833926 2174.25 1980.83)"/><path d="M143.228 5.70102C193.233 38.0916 234.102 203.698 246.946 425.978" stroke="#A5A5A5" stroke-width="2.29167" stroke-miterlimit="8" fill="none" fill-rule="evenodd" transform="matrix(0.890247 0.455478 0.455478 -0.890247 3470.68 1085.21)"/><path d="M226.847 382.524C243.734 554.251 252.235 763.732 250.946 976.307" stroke="#000000" stroke-width="6.875" stroke-miterlimit="8" fill="none" fill-rule="evenodd" transform="matrix(0.75125 0.660017 0.660017 -0.75125 2277.58 1706.78)"/><path d="M153.784 9.78077 157.216 13.2829 160.672 17.2645 164.073 21.6362 167.423 26.3929 170.722 31.53 173.972 37.0432 177.173 42.9281 180.337 49.2009 186.487 62.7683 192.449 77.7773 198.207 94.1682 203.752 111.904 209.075 130.947 214.165 151.26 219.011 172.803 223.602 195.537 227.928 219.424 231.977 244.427 236.281 274.795 229.474 275.76 225.175 245.425 225.185 245.492 221.147 220.554 221.157 220.617 216.844 196.796 216.857 196.864 212.279 174.201 212.295 174.275 207.466 152.809 207.486 152.89 202.417 132.663 202.441 132.753 197.145 113.805 197.175 113.906 191.663 96.2768 191.701 96.3904 185.986 80.1214 186.034 80.2512 180.127 65.3824 180.191 65.5324 174.104 52.1042 174.166 52.2329 171.059 46.0716 171.109 46.1665 167.961 40.3805 168.019 40.4835 164.833 35.0779 164.902 35.1898 161.678 30.1696 161.759 30.2912 158.499 25.6615 158.597 25.7933 155.302 21.5592 155.419 21.7015 152.092 17.8679 152.233 18.0205 148.873 14.5925ZM245.936 268.989 235.781 298.009 218.658 272.473Z" transform="matrix(0.890247 0.455478 0.455478 -0.890247 3470.68 1085.21)"/><path d="M1435.89 1504.45 521.917 1504.45 521.917 1387.42 531.083 1387.42 531.083 1499.86 526.5 1495.28 1435.89 1495.28ZM512.75 1392 526.5 1364.5 540.25 1392Z" fill="#2E75B6"/><path d="M2056.5 767.5C2056.5 767.5 2056.5 767.5 2056.5 767.5 2056.5 767.5 2056.5 767.5 2056.5 767.5 2056.5 767.5 2056.5 767.5 2056.5 767.5 2056.5 767.5 2056.5 767.5 2056.5 767.5Z" stroke="#2F528F" stroke-width="4.58333" stroke-miterlimit="8" fill="#4472C4" fill-rule="evenodd"/><path d="M0-4.58333 239.952-4.58333 239.952 77.9488 230.786 77.9488 230.786 0 235.369 4.58333 0 4.58333ZM249.119 73.3655 235.369 100.865 221.619 73.3655Z" fill="#0E2680" transform="matrix(-1 1.22465e-16 1.22465e-16 1 2048.87 1063.5)"/><path d="M4.58346 22.9166 4.58369 67.8524-4.58297 67.8525-4.58321 22.9167ZM-13.7499 27.5001 0 0 13.7501 27.4999Z" fill="#FF6600" transform="matrix(1 0 0 -1 1811.5 1492.35)"/><text fill="#002060" font-family="Arial,Arial_MSFontService,sans-serif" font-weight="400" font-size="64" transform="matrix(1 0 0 1 1810.91 1037)">Coolant</text><path d="M1557.5 921.5 1557.5 1152.42 1557.5 1189.1 1557.5 1197.25 1557.5 1197.25C1557.5 1201.8 1551.45 1205.5 1543.99 1205.5 1536.52 1205.5 1530.47 1201.8 1530.47 1197.25L1530.47 1197.25 1530.47 1182.77 1271.5 1122.2 1271.5 1012.74 1271.5 988.399 1271.5 968.086 1271.5 967.92 1271.61 967.92 1275.46 962.25C1277.9 960.756 1281.28 959.832 1285.01 959.832 1288.74 959.832 1292.12 960.756 1294.57 962.25L1298.41 967.92 1298.53 967.92 1298.53 968.086 1298.53 982.077Z" stroke="#FFC000" stroke-width="4.58333" stroke-miterlimit="8" fill="#FFFF00" fill-rule="evenodd"/><text fill="#002060" font-family="Calibri,Calibri_MSFontService,sans-serif" font-weight="400" font-size="64" transform="matrix(1 0 0 1 1312.77 1085)">Turbine</text><rect x="829.5" y="1453.5" width="104" height="103" stroke="#2F528F" stroke-width="4.58333" stroke-miterlimit="8" fill="#FFFFFF"/><text fill="#002060" font-family="Calibri,Calibri_MSFontService,sans-serif" font-weight="400" font-size="83" transform="matrix(1 0 0 1 858.946 1532)">B</text><path d="M521.917 1074.75 521.917 801.396 1293.88 801.396 1293.19 936.856 1284.02 936.809 1284.69 805.956 1289.28 810.563 526.5 810.563 531.083 805.979 531.083 1074.75ZM1302.88 934.321 1285.23 959.5 1275.68 930.277Z" fill="#C00000"/><rect x="870.5" y="753.5" width="104" height="104" stroke="#2F528F" stroke-width="4.58333" stroke-miterlimit="8" fill="#FFFFFF"/><text fill="#002060" font-family="Calibri,Calibri_MSFontService,sans-serif" font-weight="400" font-size="83" transform="matrix(1 0 0 1 899.536 833)">C</text><path d="M1543.5 1200.92 1548.16 1200.92 1548.16 1293.73 1543.58 1289.15 1644.69 1289.15 1644.69 1298.32 1538.99 1298.32 1538.99 1205.5 1543.58 1210.08 1543.5 1210.08ZM1640.11 1279.98 1667.61 1293.73 1640.11 1307.48Z" fill="#C00000"/><path d="M100 0C155.229 0 200 44.5713 200 99.5525 200 127.043 188.807 151.931 170.711 169.947L169.668 170.804 200 201 0 201 30.3322 170.804 29.2892 169.947C11.1931 151.931 0 127.043 0 99.5525 0 44.5713 44.7715 0 100 0Z" stroke="#787878" stroke-width="4.58333" stroke-miterlimit="8" fill="#A5A5A5" fill-rule="evenodd" transform="matrix(-1 0 0 1 1535.5 1500.5)"/><path d="M0 8.49992C-1.01849e-15 3.80554 3.58168-1.08215e-15 7.9999-2.16431e-15 12.4181-4.32861e-15 15.9998 3.80554 15.9998 8.49992 15.9998 13.1943 12.4181 16.9998 7.9999 16.9998 3.58168 16.9998-5.09247e-15 13.1943 0 8.49992Z" stroke="#000000" stroke-width="4.58333" stroke-miterlimit="8" fill-rule="evenodd" transform="matrix(-1 0 0 1 1443.5 1592.5)"/><path d="M0 4.58333-83.0765 4.58333-78.4932 0-78.4932 307.325-83.0765 302.741 490.566 302.741 490.566 311.908-87.6598 311.908-87.6598-4.58333 0-4.58333ZM485.983 293.575 513.483 307.325 485.983 321.075Z" fill="#2E75B6" transform="matrix(-1 0 0 1 1956.98 1293.5)"/><rect x="1495.5" y="1240.5" width="104" height="104" stroke="#2F528F" stroke-width="4.58333" stroke-miterlimit="8" fill="#FFFFFF"/><text fill="#002060" font-family="Calibri,Calibri_MSFontService,sans-serif" font-weight="400" font-size="83" transform="matrix(1 0 0 1 1521.66 1320)">D</text><path d="M1683.5 1294.5C1683.5 1222.7 1741.7 1164.5 1813.5 1164.5 1885.3 1164.5 1943.5 1222.7 1943.5 1294.5 1943.5 1366.3 1885.3 1424.5 1813.5 1424.5 1741.7 1424.5 1683.5 1366.3 1683.5 1294.5Z" stroke="#000000" stroke-width="6.875" stroke-miterlimit="8" fill="#8FAADC" fill-rule="evenodd"/><path d="M1892.68 1252 1909.22 1252 1909.22 1285.63 1958 1285.63 1957.42 1293.23 1958 1302.06 1909.22 1302.06 1907.58 1302.06 1892.68 1302.06 1892.68 1271.98 1733.03 1335.12 1733.03 1335.7 1731.56 1335.7 1730.79 1336 1730.67 1335.7 1716.48 1335.7 1716.48 1302.06 1667.79 1302.06 1667 1293.23 1667.79 1285.63 1716.48 1285.63 1718.21 1285.63 1733.03 1285.63 1733.03 1317.43 1892.68 1254.3 1892.68 1252Z" fill="#C00000" fill-rule="evenodd"/><rect x="1769.5" y="1547.5" width="104" height="104" stroke="#2F528F" stroke-width="4.58333" stroke-miterlimit="8" fill="#FFFFFF"/><text fill="#002060" font-family="Calibri,Calibri_MSFontService,sans-serif" font-weight="400" font-size="83" transform="matrix(1 0 0 1 1797.07 1626)">A</text><text fill="#002060" font-family="Arial,Arial_MSFontService,sans-serif" font-weight="400" font-size="64" transform="matrix(1 0 0 1 1130.95 1614)">Pump</text><text fill="#002060" font-family="Arial,Arial_MSFontService,sans-serif" font-weight="400" font-size="64" transform="matrix(1 0 0 1 1958.33 1215)">Condenser</text><path d="M525.5 1090.5C597.297 1090.5 655.5 1148.7 655.5 1220.5 655.5 1292.3 597.297 1350.5 525.5 1350.5 453.703 1350.5 395.5 1292.3 395.5 1220.5 395.5 1148.7 453.703 1090.5 525.5 1090.5Z" stroke="#000000" stroke-width="6.875" stroke-miterlimit="8" fill="#F4B183" fill-rule="evenodd"/><path d="M567 1299.9 567 1316.39 533.366 1316.39 533.366 1365 525.773 1364.42 516.938 1365 516.938 1316.39 516.938 1314.75 516.938 1299.9 547.021 1299.9 483.884 1140.8 483.304 1140.8 483.304 1139.34 483 1138.57 483.304 1138.45 483.304 1124.31 516.938 1124.31 516.938 1075.79 525.773 1075 533.366 1075.79 533.366 1124.31 533.366 1126.04 533.366 1140.8 501.568 1140.8 564.704 1299.9 567 1299.9Z" fill="#2E75B6" fill-rule="evenodd"/><path d="M142.5 1215.92 372.778 1215.92 372.778 1225.08 142.5 1225.08ZM368.194 1206.75 395.694 1220.5 368.194 1234.25Z" fill="#C00000"/><path d="M655.511 1215.92 1007.13 1216.76 1007.11 1225.93 655.489 1225.08ZM1002.57 1207.58 1030.04 1221.4 1002.51 1235.08Z" fill="#2E75B6"/><text fill="#002060" font-family="Arial,Arial_MSFontService,sans-serif" font-weight="400" font-size="64" transform="matrix(1 0 0 1 910.601 1302)">To </text><text fill="#002060" font-family="Arial,Arial_MSFontService,sans-serif" font-weight="400" font-size="64" transform="matrix(1 0 0 1 1002.84 1302)">Reinjection Well</text><rect x="187.5" y="1166.5" width="104" height="103" stroke="#2F528F" stroke-width="4.58333" stroke-miterlimit="8" fill="#FFFFFF"/><text fill="#002060" font-family="Calibri,Calibri_MSFontService,sans-serif" font-weight="400" font-size="83" transform="matrix(1 0 0 1 215.216 1245)">α</text><rect x="786.5" y="1170.5" width="103" height="104" stroke="#2F528F" stroke-width="4.58333" stroke-miterlimit="8" fill="#FFFFFF"/><text fill="#002060" font-family="Calibri,Calibri_MSFontService,sans-serif" font-weight="400" font-size="83" transform="matrix(1 0 0 1 815.416 1249)">β</text><path d="M3531.11 714.5 3553.62 714.5 3578.94 714.5 3604.26 733.661 3623.96 765.597 3642.25 794.339 3652.09 842.242 3653.5 896.533 3646.47 963.597 3639.43 1037.05 3622.55 1110.5 3605.67 1193.53 3594.42 1257.4 3571.91 1359.6 3549.4 1439.44 3531.11 1528.85 3512.82 1611.89 3491.72 1688.53 3479.06 1765.18 3463.59 1825.85 3449.43 1902.5 2483.5 1902.5 2564.66 1806.69 2734.88 1599.11 2936.05 1350.02 3107.67 1142.44 3197.71 1046.63 3280.71 944.436 3380.59 832.662 3435.45 778.371 3479.06 746.436 3502.98 724.081 3531.11 714.5Z" stroke="#000000" stroke-width="4.58333" stroke-miterlimit="8" fill="url(#fill0)" fill-rule="evenodd"/><path d="M3538.81 713.084 3552.63 714.464 3573.76 716.574 3592.38 743.878 3604.63 787.508 3616.12 826.822 3618.05 890.624 3612.1 962.122 3597.42 1049.71 3581.91 1145.7 3558.17 1240.86 3533.18 1348.62 3515.4 1431.66 3483.2 1564.15 3453.93 1667.24 3426.92 1783.29 3400.76 1890.93 3397.77 1901.63 3280.09 1901.63 3288.19 1875.17 3318.41 1769.37 3350.33 1655.31 3381.59 1554.03 3418.79 1423.82 3440.77 1342.17 3470.36 1236.25 3497.41 1142.72 3520.05 1048.29 3541 962.128 3554.77 891.725 3563.07 828.815 3562.51 789.933 3562.17 746.787 3555.91 719.661 3545.01 717.426 3545.29 715.038 3540.94 713.726ZM3533.84 712.588 3536.81 712.885 3534.86 715.344 3534.5 715.271 3519.36 725.09 3502.72 751.83 3474.72 789.165 3435.75 854.403 3361.36 989.915 3297.08 1114.58 3231.35 1230.32 3099.42 1483.26 2943.25 1787.23 2883.89 1901.63 2692.68 1901.63 2753.11 1809.29 2953.72 1498.55 3124.23 1239.94 3211.95 1121.48 3294.65 994.032 3392.69 855.398 3445.61 788.591 3486.2 750.238 3509.1 722.84Z" stroke="#767171" stroke-width="4.58333" stroke-miterlimit="8" fill="none" fill-rule="evenodd"/><path d="M3536.27 712.939 3540.14 714.106 3544.49 715.418 3541.52 740.969 3532.72 782.387 3524.89 819.694 3508.29 880.801 3487.81 949.551 3461.01 1034.02 3431.76 1126.57 3400.83 1218.61 3366.23 1322.77 3339.92 1402.99 3297.05 1531.09 3262.71 1630.92 3225.44 1743.09 3190.6 1847.18 3171.93 1901.63 3014.45 1901.63 3061.87 1790.7 3191.5 1486.02 3300.21 1232.33 3352.24 1115.8 3405.5 990.828 3465.32 854.611 3495.47 788.778 3515.15 750.64 3527.79 723.601Z" stroke="#767171" stroke-width="4.58333" stroke-miterlimit="8" fill="none" fill-rule="evenodd"/><path d="M143.228 5.70102C205.101 45.7785 251.072 286.847 251.072 571.226" stroke="#A5A5A5" stroke-width="2.29167" stroke-miterlimit="8" fill="none" fill-rule="evenodd" transform="matrix(0.890247 0.455478 0.455478 -0.890247 3387.95 1585.65)"/><path d="M3.4375-1.00548e-06 3.43785 1210.9-3.43715 1210.9-3.4375 1.00548e-06ZM13.7504 1206.31 0.000360892 1233.81-13.7496 1206.31Z" transform="matrix(1 0 0 -1 2477.5 1901.31)"/><path d="M7.96451e-07-3.4375 1534.7-3.43714 1534.7 3.43786-7.96451e-07 3.4375ZM1530.12-13.7496 1557.62 0.000360892 1530.12 13.7504Z" transform="matrix(1 0 0 -1 2477.5 1899.5)"/><text font-family="Arial,Arial_MSFontService,sans-serif" font-weight="400" font-size="64" transform="matrix(-1.83697e-16 -1 1 -1.83697e-16 2439.38 1017)">T</text><text font-family="Arial,Arial_MSFontService,sans-serif" font-weight="400" font-size="64" transform="matrix(-1.83697e-16 -1 1 -1.83697e-16 2439.38 978)">emperature</text><text font-family="Arial,Arial_MSFontService,sans-serif" font-weight="400" font-size="64" transform="matrix(1 0 0 1 3769.81 1979)">Entropy</text><text font-family="Arial,Arial_MSFontService,sans-serif" font-weight="400" font-size="64" transform="matrix(1 0 0 1 3887.88 878)">P</text><text font-family="Arial,Arial_MSFontService,sans-serif" font-weight="400" font-size="43" transform="matrix(1 0 0 1 3930.85 893)">high</text><text font-family="Arial,Arial_MSFontService,sans-serif" font-weight="400" font-size="64" transform="matrix(1 0 0 1 3870.84 1267)">P</text><text font-family="Arial,Arial_MSFontService,sans-serif" font-weight="400" font-size="43" transform="matrix(1 0 0 1 3913.81 1282)">low</text><path d="M2682 1648.5C2682 1640.49 2688.27 1634 2696 1634 2703.73 1634 2710 1640.49 2710 1648.5 2710 1656.51 2703.73 1663 2696 1663 2688.27 1663 2682 1656.51 2682 1648.5Z" fill="#002060" fill-rule="evenodd"/><path d="M3811 915.5C3811 907.492 3817.49 901 3825.5 901 3833.51 901 3840 907.492 3840 915.5 3840 923.508 3833.51 930 3825.5 930 3817.49 930 3811 923.508 3811 915.5Z" fill="#002060" fill-rule="evenodd"/><path d="M0.0149481-3.43747 771.404-0.0830165 771.374 6.79192-0.0149481 3.43747ZM766.865-10.4154 794.305 3.4541 766.745 17.0844Z" transform="matrix(-1 0 0 1 3504.8 1645.5)"/><path d="M3.43748-0.0130065 4.60992 309.851-2.26503 309.877-3.43748 0.0130065ZM14.905 305.228 1.25915 332.78-12.5948 305.333Z" transform="matrix(-1 0 0 1 3826.76 930.5)"/><text font-family="Arial,Arial_MSFontService,sans-serif" font-weight="400" font-size="64" transform="matrix(1 0 0 1 3777.16 891)">C</text><text font-family="Arial,Arial_MSFontService,sans-serif" font-weight="400" font-size="64" transform="matrix(1 0 0 1 2659.9 1534)">B</text><path d="M3814.72 1267.49C3819.99 1261.52 3829.11 1260.95 3835.08 1266.22 3841.05 1271.49 3841.62 1280.6 3836.35 1286.57 3831.08 1292.54 3821.96 1293.11 3815.99 1287.84 3810.02 1282.57 3809.45 1273.46 3814.72 1267.49Z" fill="#002060" fill-rule="evenodd"/><text font-family="Arial,Arial_MSFontService,sans-serif" font-weight="400" font-size="64" transform="matrix(1 0 0 1 2563.87 781)">Liquid Phase</text><text font-family="Arial,Arial_MSFontService,sans-serif" font-weight="400" font-size="64" transform="matrix(1 0 0 1 2675.01 1836)">Liquid &amp; Vapour Phase</text><text font-family="Arial,Arial_MSFontService,sans-serif" font-weight="400" font-size="64" transform="matrix(1 0 0 1 3631.79 1805)">Vapour Phase</text><path d="M3.43697-0.0605394 3.89446 25.9125-2.97947 26.0335-3.43697 0.0605394ZM14.1246 21.1482 0.861089 48.8861-13.3711 21.6325Z" transform="matrix(1 0 0 -1 2696.5 1634.39)"/><path d="M3611.18 1144.19 3107.5 1142.5" stroke="#000000" stroke-width="6.875" stroke-miterlimit="8" fill="none" fill-rule="evenodd"/><text font-family="Arial,Arial_MSFontService,sans-serif" font-weight="400" font-size="64" transform="matrix(1 0 0 1 3828.39 1382)">D</text><text font-family="Arial,Arial_MSFontService,sans-serif" font-weight="400" font-size="64" transform="matrix(1 0 0 1 2686.45 1726)">A</text><path d="M2683 1570.5C2683 1562.49 2689.27 1556 2697 1556 2704.73 1556 2711 1562.49 2711 1570.5 2711 1578.51 2704.73 1585 2697 1585 2689.27 1585 2683 1578.51 2683 1570.5Z" fill="#002060" fill-rule="evenodd"/><path d="M130.977 0.537242C188.881 11.9672 237.539 202.288 248.716 461.066" stroke="#000000" stroke-width="6.875" stroke-miterlimit="8" fill="none" fill-rule="evenodd" transform="matrix(0.890247 0.455478 0.455478 -0.890247 3387.95 1585.65)"/><path d="M2669 1122C2669 1114.27 2675.27 1108 2683 1108 2690.73 1108 2697 1114.27 2697 1122 2697 1129.73 2690.73 1136 2683 1136 2675.27 1136 2669 1129.73 2669 1122Z" fill="#002060" fill-rule="evenodd"/><path d="M3810 812.5C3810 804.492 3816.49 798 3824.5 798 3832.51 798 3839 804.492 3839 812.5 3839 820.508 3832.51 827 3824.5 827 3816.49 827 3810 820.508 3810 812.5Z" fill="#002060" fill-rule="evenodd"/><path d="M0.919989-3.3121 1091.59 299.637 1089.75 306.262-0.919989 3.3121ZM1089.93 288.474 1112.74 309.082 1082.57 314.97Z" transform="matrix(-1 0 0 1 3810.24 813.5)"/><text font-family="Arial,Arial_MSFontService,sans-serif" font-weight="400" font-size="64" transform="matrix(1 0 0 1 2659.8 1086)">β</text><text font-family="Arial,Arial_MSFontService,sans-serif" font-weight="400" font-size="64" transform="matrix(1 0 0 1 3812.62 763)">α</text><text font-family="Arial,Arial_MSFontService,sans-serif" font-weight="400" font-size="64" transform="matrix(0.963189 -0.268826 0.268826 0.963189 2915.86 1025)">Geofluid</text><text font-family="Arial,Arial_MSFontService,sans-serif" font-weight="400" font-size="64" transform="matrix(1 0 0 1 2618.6 1654)">1</text><text font-family="Arial,Arial_MSFontService,sans-serif" font-weight="400" font-size="64" transform="matrix(1 0 0 1 3110.57 1221)">2</text><text font-family="Arial,Arial_MSFontService,sans-serif" font-weight="400" font-size="64" transform="matrix(1 0 0 1 3767.59 1176)">3</text><text font-family="Arial,Arial_MSFontService,sans-serif" font-weight="400" font-size="64" transform="matrix(1 0 0 1 3406.71 1618)">4</text><text fill="#002060" font-family="Arial,Arial_MSFontService,sans-serif" font-weight="400" font-size="64" transform="matrix(1 0 0 1 124.663 968)">From </text><text fill="#002060" font-family="Arial,Arial_MSFontService,sans-serif" font-weight="400" font-size="64" transform="matrix(1 0 0 1 124.663 1045)">Production </text><text fill="#002060" font-family="Arial,Arial_MSFontService,sans-serif" font-weight="400" font-size="64" transform="matrix(1 0 0 1 124.663 1122)">Well</text></g></svg>