<svg width="1892" height="1579" xmlns="http://www.w3.org/2000/svg" xmlns:xlink="http://www.w3.org/1999/xlink" xml:space="preserve" overflow="hidden"><defs><clipPath id="clip0"><rect x="1080" y="30" width="1892" height="1579"/></clipPath></defs><g clip-path="url(#clip0)" transform="translate(-1080 -30)"><path d="M1248.5 1404.59C1360.11 1135.2 1471.72 865.816 1570.09 706.135 1668.47 546.453 1724.11 446.5 1838.77 446.5 1953.43 446.5 2138.65 590.945 2258.06 706.135 2377.47 821.325 2483.99 1015.75 2555.23 1137.64 2626.47 1259.53 2655.99 1348.52 2685.5 1437.5" stroke="#C00000" stroke-width="4.58333" stroke-miterlimit="8" fill="none" fill-rule="evenodd"/><path d="M4.58333-1.24507e-06 4.58369 1305.6-4.58298 1305.6-4.58333 1.24507e-06ZM13.7504 1301.01 0.000360892 1328.51-13.7496 1301.01Z" transform="matrix(1 0 0 -1 1248.5 1445.01)"/><path d="M9.86233e-07-4.58333 1654.26-4.58298 1654.26 4.58369-9.86233e-07 4.58333ZM1649.68-13.7496 1677.18 0.000360892 1649.68 13.7504Z" transform="matrix(1 0 0 -1 1248.5 1442.5)"/><text font-family="Arial,Arial_MSFontService,sans-serif" font-weight="400" font-size="83" transform="matrix(-1.83697e-16 -1 1 -1.83697e-16 1185.63 552)">T</text><text font-family="Arial,Arial_MSFontService,sans-serif" font-weight="400" font-size="83" transform="matrix(-1.83697e-16 -1 1 -1.83697e-16 1185.63 501)">emperature</text><text font-family="Arial,Arial_MSFontService,sans-serif" font-weight="400" font-size="83" transform="matrix(1 0 0 1 2637.34 1540)">Entrop</text><text font-family="Arial,Arial_MSFontService,sans-serif" font-weight="400" font-size="83" transform="matrix(1 0 0 1 2880.25 1540)">y</text><path d="M1587 1166.5C1587 1157.94 1593.94 1151 1602.5 1151 1611.06 1151 1618 1157.94 1618 1166.5 1618 1175.06 1611.06 1182 1602.5 1182 1593.94 1182 1587 1175.06 1587 1166.5Z" fill="#4472C4" fill-rule="evenodd"/><path d="M1587 646.5C1587 637.94 1593.94 631 1602.5 631 1611.06 631 1618 637.94 1618 646.5 1618 655.06 1611.06 662 1602.5 662 1593.94 662 1587 655.06 1587 646.5Z" fill="#4472C4" fill-rule="evenodd"/><path d="M2176 646.5C2176 637.94 2182.94 631 2191.5 631 2200.06 631 2207 637.94 2207 646.5 2207 655.06 2200.06 662 2191.5 662 2182.94 662 2176 655.06 2176 646.5Z" fill="#4472C4" fill-rule="evenodd"/><path d="M2176 1166.5C2176 1157.94 2182.94 1151 2191.5 1151 2200.06 1151 2207 1157.94 2207 1166.5 2207 1175.06 2200.06 1182 2191.5 1182 2182.94 1182 2176 1175.06 2176 1166.5Z" fill="#4472C4" fill-rule="evenodd"/><path d="M2.22493e-06-3.4375 534.659-3.43715 534.659 3.43785-2.22493e-06 3.4375ZM530.076-13.7497 557.576 0.000360892 530.076 13.7503Z" transform="matrix(-1 0 0 1 2176.08 1166.5)"/><path d="M3.4375-2.53547e-06 3.43784 466.369-3.43716 466.369-3.4375 2.53547e-06ZM13.7503 461.786 0.000360892 489.286-13.7497 461.786Z" transform="matrix(1 0 0 -1 1603.5 1151.79)"/><path d="M4.44986e-06-3.4375 534.659-3.43681 534.659 3.43819-4.44986e-06 3.4375ZM530.076-13.7493 557.576 0.000721785 530.076 13.7507Z" transform="matrix(1 0 0 -1 1618.5 646.501)"/><path d="M2194.94 662.5 2194.94 1128.87 2188.06 1128.87 2188.06 662.5ZM2205.25 1124.29 2191.5 1151.79 2177.75 1124.29Z"/><path d="M1844.5 566.5C1844.5 537.781 1867.78 514.5 1896.5 514.5 1925.22 514.5 1948.5 537.781 1948.5 566.5 1948.5 595.219 1925.22 618.5 1896.5 618.5 1867.78 618.5 1844.5 595.219 1844.5 566.5Z" stroke="#2F528F" stroke-width="4.58333" stroke-miterlimit="8" fill="#4472C4" fill-rule="evenodd"/><text fill="#FFFFFF" font-family="Calibri,Calibri_MSFontService,sans-serif" font-weight="400" font-size="83" transform="matrix(1 0 0 1 1875.53 593)">1</text><path d="M1846.5 1234.5C1846.5 1205.78 1869.78 1182.5 1898.5 1182.5 1927.22 1182.5 1950.5 1205.78 1950.5 1234.5 1950.5 1263.22 1927.22 1286.5 1898.5 1286.5 1869.78 1286.5 1846.5 1263.22 1846.5 1234.5Z" stroke="#2F528F" stroke-width="4.58333" stroke-miterlimit="8" fill="#4472C4" fill-rule="evenodd"/><text fill="#FFFFFF" font-family="Calibri,Calibri_MSFontService,sans-serif" font-weight="400" font-size="83" transform="matrix(1 0 0 1 1877.07 1261)">3</text><path d="M2207.5 906.5C2207.5 877.781 2230.78 854.5 2259.5 854.5 2288.22 854.5 2311.5 877.781 2311.5 906.5 2311.5 935.219 2288.22 958.5 2259.5 958.5 2230.78 958.5 2207.5 935.219 2207.5 906.5Z" stroke="#2F528F" stroke-width="4.58333" stroke-miterlimit="8" fill="#4472C4" fill-rule="evenodd"/><text fill="#FFFFFF" font-family="Calibri,Calibri_MSFontService,sans-serif" font-weight="400" font-size="83" transform="matrix(1 0 0 1 2238.04 934)">2</text><path d="M1487.5 906.5C1487.5 877.781 1510.78 854.5 1539.5 854.5 1568.22 854.5 1591.5 877.781 1591.5 906.5 1591.5 935.219 1568.22 958.5 1539.5 958.5 1510.78 958.5 1487.5 935.219 1487.5 906.5Z" stroke="#2F528F" stroke-width="4.58333" stroke-miterlimit="8" fill="#4472C4" fill-rule="evenodd"/><text fill="#FFFFFF" font-family="Calibri,Calibri_MSFontService,sans-serif" font-weight="400" font-size="83" transform="matrix(1 0 0 1 1518.35 934)">4</text><text font-family="Arial,Arial_MSFontService,sans-serif" font-weight="400" font-size="64" transform="matrix(1 0 0 1 2012.38 1405)">Liquid + Vapour</text><text font-family="Arial,Arial_MSFontService,sans-serif" font-weight="400" font-size="64" transform="matrix(1 0 0 1 2533.31 933)">Vapour</text><text font-family="Arial,Arial_MSFontService,sans-serif" font-weight="400" font-size="64" transform="matrix(1 0 0 1 1351.97 552)">Liquid</text></g></svg>