<svg width="996" height="957" xmlns="http://www.w3.org/2000/svg" xmlns:xlink="http://www.w3.org/1999/xlink" xml:space="preserve" overflow="hidden"><defs><clipPath id="clip0"><rect x="2749" y="694" width="996" height="957"/></clipPath></defs><g clip-path="url(#clip0)" transform="translate(-2749 -694)"><path d="M3627.6 1219.35C3662.52 1221.07 3704.21 1266.61 3726.59 1330.8 3752.17 1404.17 3742.84 1474.12 3705.76 1487.05L3701.69 1487.62 3250.77 1644.83 3158.14 1379.15 3616.15 1219.47 3616.15 1219.47 3618.6 1220.61Z" stroke="#000000" stroke-width="6.875" stroke-miterlimit="8" fill="none" fill-rule="evenodd"/><path d="M3128.52 1535.86C3102.94 1462.49 3112.26 1392.54 3149.34 1379.61 3186.43 1366.68 3237.22 1415.67 3262.8 1489.04 3288.38 1562.41 3279.06 1632.36 3241.97 1645.29 3204.89 1658.22 3154.1 1609.22 3128.52 1535.86Z" stroke="#000000" stroke-width="6.875" stroke-miterlimit="8" fill="#FFFFFF" fill-rule="evenodd"/><path d="M3395.24 887.122C3391.9 886.463 3371.04 856.641 3388.02 846.735 3405.01 836.828 3493.8 827.023 3497.13 827.681 3500.47 828.339 3425.07 840.958 3408.02 850.685 3390.97 860.411 3398.57 887.78 3395.24 887.122Z" stroke="#000000" stroke-width="6.875" stroke-miterlimit="8" fill="#FFFFFF" fill-rule="evenodd"/><path d="M3395.5 887.5 3395.5 1343.08" stroke="#000000" stroke-width="6.875" stroke-miterlimit="8" fill="none" fill-rule="evenodd"/><path d="M3380.5 855.5 3381.04 1319.73" stroke="#000000" stroke-width="6.875" stroke-miterlimit="8" fill="none" fill-rule="evenodd"/><path d="M3497.5 824.5 3497.5 1286.19" stroke="#000000" stroke-width="6.875" stroke-miterlimit="8" fill="none" fill-rule="evenodd"/><path d="M3395.24 1345.7C3391.9 1345.04 3371.04 1315.22 3388.02 1305.32 3405 1295.41 3493.8 1285.6 3497.13 1286.26 3500.47 1286.92 3425.07 1299.54 3408.02 1309.27 3390.97 1318.99 3398.57 1346.36 3395.24 1345.7Z" stroke="#000000" stroke-width="6.875" stroke-miterlimit="8" fill="none" fill-rule="evenodd"/><path d="M3367.25 839.406 3164.92 773.868 3167.03 767.327 3369.37 832.865ZM3184.63 796.624 3159.48 768.495 3196.35 760.452C3198.2 760.047 3200.03 761.223 3200.44 763.078 3200.84 764.932 3199.67 766.764 3197.81 767.169L3166.71 773.956 3168.54 768.306 3189.76 792.042C3191.02 793.457 3190.9 795.63 3189.48 796.895 3188.07 798.161 3185.9 798.039 3184.63 796.624Z"/><text font-family="Cambria Math,Cambria Math_MSFontService,sans-serif" font-weight="400" font-size="46" transform="translate(3100.83 737)">𝑇𝑜𝑟𝑞𝑢𝑒</text><path d="M3210.22 1223.21 3213.75 1223.8 3223.96 1225.95 3234.07 1228.61 3243.91 1231.72 3253.56 1235.27 3262.97 1239.27 3272.16 1243.65 3281.18 1248.47 3289.89 1253.68 3298.35 1259.33 3314.4 1271.58 3329.38 1285.28 3343.1 1300.24 3355.54 1316.47 3366.53 1333.78 3371.51 1342.84 3376.14 1352.16 3380.33 1361.61 3384.14 1371.38 3387.5 1381.27 3390.49 1391.41 3393.02 1401.68 3395.12 1412.14 3396.77 1422.79 3397.98 1433.49 3398.93 1455.35 3392.07 1455.65 3391.15 1434.26 3389.98 1423.84 3388.38 1413.49 3386.35 1403.32 3383.89 1393.34 3381 1383.48 3377.73 1373.87 3374.04 1364.39 3369.98 1355.22 3365.49 1346.15 3360.72 1337.46 3350.08 1320.65 3338.03 1304.88 3324.74 1290.35 3310.23 1277.04 3294.53 1265.04 3286.36 1259.57 3277.94 1254.53 3269.21 1249.85 3260.28 1245.6 3251.19 1241.73 3241.84 1238.28 3232.31 1235.26 3222.54 1232.68 3212.63 1230.58 3209.09 1229.99ZM3231.97 1249.57 3202.92 1225.49 3238.18 1212.06C3239.96 1211.38 3241.94 1212.28 3242.62 1214.05 3243.29 1215.82 3242.4 1217.81 3240.63 1218.49L3210.88 1229.81 3211.85 1223.96 3236.35 1244.28C3237.82 1245.49 3238.02 1247.66 3236.81 1249.12 3235.59 1250.58 3233.43 1250.78 3231.97 1249.57ZM3409.24 1455.07C3409.48 1462.66 3403.52 1469 3395.93 1469.24 3388.34 1469.48 3382 1463.52 3381.76 1455.93 3381.52 1448.34 3387.48 1442 3395.07 1441.76 3402.66 1441.52 3409 1447.48 3409.24 1455.07Z"/><rect x="3368.5" y="1440.5" width="58" height="46.9998" stroke="#FFFFFF" stroke-width="4.58333" stroke-miterlimit="8" fill="#FFFFFF"/><text font-family="Cambria Math,Cambria Math_MSFontService,sans-serif" font-weight="400" font-size="46" transform="translate(3109.92 1199)">𝑅𝑜𝑡𝑎𝑡𝑖𝑜𝑛</text><path d="M0.997264-3.28966 211.241 60.446 209.247 67.0253-0.997264 3.28966ZM191.099 38.0667 216.773 65.7148 180.069 74.4533C178.222 74.893 176.368 73.7523 175.929 71.9054 175.489 70.0586 176.63 68.2049 178.477 67.7652L209.448 60.3916 207.725 66.0747 186.061 42.7448C184.77 41.3536 184.85 39.1786 186.241 37.8868 187.633 36.595 189.808 36.6755 191.099 38.0667Z" transform="matrix(1 0 0 -1 2824.5 1239.21)"/><text font-family="Cambria Math,Cambria Math_MSFontService,sans-serif" font-weight="400" font-size="46" transform="translate(2778.22 865)">𝑉𝑎𝑝𝑜𝑢𝑟</text><text font-family="Cambria Math,Cambria Math_MSFontService,sans-serif" font-weight="400" font-size="46" transform="translate(2932.2 865)"> </text><text font-family="Cambria Math,Cambria Math_MSFontService,sans-serif" font-weight="400" font-size="46" transform="translate(2942.51 865)">𝐹𝑙𝑜𝑤</text><path d="M0.997264-3.28966 211.241 60.446 209.247 67.0253-0.997264 3.28966ZM191.099 38.0667 216.773 65.7148 180.069 74.4533C178.222 74.893 176.368 73.7523 175.929 71.9054 175.489 70.0586 176.63 68.2049 178.477 67.7652L209.448 60.3916 207.725 66.0747 186.061 42.7448C184.77 41.3536 184.85 39.1786 186.241 37.8868 187.633 36.595 189.808 36.6755 191.099 38.0667Z" transform="matrix(1 0 0 -1 2824.5 1309.21)"/><path d="M0.997264-3.28966 211.241 60.446 209.247 67.0253-0.997264 3.28966ZM191.099 38.0667 216.773 65.7148 180.069 74.4533C178.222 74.893 176.368 73.7523 175.929 71.9054 175.489 70.0586 176.63 68.2049 178.477 67.7652L209.448 60.3916 207.725 66.0747 186.061 42.7448C184.77 41.3536 184.85 39.1786 186.241 37.8868 187.633 36.595 189.808 36.6755 191.099 38.0667Z" transform="matrix(1 0 0 -1 2824.5 1378.21)"/><path d="M0.997264-3.28966 211.241 60.446 209.247 67.0253-0.997264 3.28966ZM191.099 38.0667 216.773 65.7148 180.069 74.4533C178.222 74.893 176.368 73.7523 175.929 71.9054 175.489 70.0586 176.63 68.2049 178.477 67.7652L209.448 60.3916 207.725 66.0747 186.061 42.7448C184.77 41.3536 184.85 39.1786 186.241 37.8868 187.633 36.595 189.808 36.6755 191.099 38.0667Z" transform="matrix(1 0 0 -1 2824.5 1447.21)"/><path d="M0.997264-3.28966 211.241 60.446 209.247 67.0253-0.997264 3.28966ZM191.099 38.0667 216.773 65.7148 180.069 74.4533C178.222 74.893 176.368 73.7523 175.929 71.9054 175.489 70.0586 176.63 68.2049 178.477 67.7652L209.448 60.3916 207.725 66.0747 186.061 42.7448C184.77 41.3536 184.85 39.1786 186.241 37.8868 187.633 36.595 189.808 36.6755 191.099 38.0667Z" transform="matrix(1 0 0 -1 2824.5 1170.21)"/><path d="M0.997264-3.28966 211.241 60.446 209.247 67.0253-0.997264 3.28966ZM191.099 38.0667 216.773 65.7148 180.069 74.4533C178.222 74.893 176.368 73.7523 175.929 71.9054 175.489 70.0586 176.63 68.2049 178.477 67.7652L209.448 60.3916 207.725 66.0747 186.061 42.7448C184.77 41.3536 184.85 39.1786 186.241 37.8868 187.633 36.595 189.808 36.6755 191.099 38.0667Z" transform="matrix(1 0 0 -1 2824.5 962.21)"/><path d="M0.997264-3.28966 211.241 60.446 209.247 67.0253-0.997264 3.28966ZM191.099 38.0667 216.773 65.7148 180.069 74.4533C178.222 74.893 176.368 73.7523 175.929 71.9054 175.489 70.0586 176.63 68.2049 178.477 67.7652L209.448 60.3916 207.725 66.0747 186.061 42.7448C184.77 41.3536 184.85 39.1786 186.241 37.8868 187.633 36.595 189.808 36.6755 191.099 38.0667Z" transform="matrix(1 0 0 -1 2824.5 1031.21)"/><path d="M0.997264-3.28966 211.241 60.446 209.247 67.0253-0.997264 3.28966ZM191.099 38.0667 216.773 65.7148 180.069 74.4533C178.222 74.893 176.368 73.7523 175.929 71.9054 175.489 70.0586 176.63 68.2049 178.477 67.7652L209.448 60.3916 207.725 66.0747 186.061 42.7448C184.77 41.3536 184.85 39.1786 186.241 37.8868 187.633 36.595 189.808 36.6755 191.099 38.0667Z" transform="matrix(1 0 0 -1 2824.5 1101.21)"/></g></svg>