<svg width="4651" height="2073" xmlns="http://www.w3.org/2000/svg" xmlns:xlink="http://www.w3.org/1999/xlink" xml:space="preserve" overflow="hidden"><defs><clipPath id="clip0"><rect x="-147" y="83" width="4651" height="2073"/></clipPath></defs><g clip-path="url(#clip0)" transform="translate(147 -83)"><path d="M220 878.004C220 811.727 273.727 758 340.004 758L4170 758C4236.27 758 4290 811.727 4290 878.004L4290 1358C4290 1424.27 4236.27 1478 4170 1478L340.004 1478C273.727 1478 220 1424.27 220 1358Z" stroke="#000000" stroke-width="27.5" stroke-miterlimit="8" fill="none" fill-rule="evenodd"/><path d="M660 825 3854.23 825" stroke="#000000" stroke-width="13.75" stroke-miterlimit="8" fill="none" fill-rule="evenodd"/><path d="M660 880 3854.23 880" stroke="#000000" stroke-width="13.75" stroke-miterlimit="8" fill="none" fill-rule="evenodd"/><path d="M660 959 3854.23 959" stroke="#000000" stroke-width="13.75" stroke-miterlimit="8" fill="none" fill-rule="evenodd"/><path d="M660 1014 3854.23 1014" stroke="#000000" stroke-width="13.75" stroke-miterlimit="8" fill="none" fill-rule="evenodd"/><path d="M660 1093 3854.23 1093" stroke="#000000" stroke-width="13.75" stroke-miterlimit="8" fill="none" fill-rule="evenodd"/><path d="M660 1148 3854.23 1148" stroke="#000000" stroke-width="13.75" stroke-miterlimit="8" fill="none" fill-rule="evenodd"/><path d="M660 1226 3854.23 1226" stroke="#000000" stroke-width="13.75" stroke-miterlimit="8" fill="none" fill-rule="evenodd"/><path d="M660 1281 3854.23 1281" stroke="#000000" stroke-width="13.75" stroke-miterlimit="8" fill="none" fill-rule="evenodd"/><path d="M660 1360 3854.23 1360" stroke="#000000" stroke-width="13.75" stroke-miterlimit="8" fill="none" fill-rule="evenodd"/><path d="M660 1415 3854.23 1415" stroke="#000000" stroke-width="13.75" stroke-miterlimit="8" fill="none" fill-rule="evenodd"/><path d="M0 0 0.000360892 719.231" stroke="#000000" stroke-width="27.5" stroke-miterlimit="8" fill="none" fill-rule="evenodd" transform="matrix(1 0 0 -1 660 1477.23)"/><path d="M0 0 0.000360892 719.231" stroke="#000000" stroke-width="27.5" stroke-miterlimit="8" fill="none" fill-rule="evenodd" transform="matrix(1 0 0 -1 3854 1470.23)"/><path d="M0 0 0.000360892 511.394" stroke="#000000" stroke-width="27.5" stroke-miterlimit="8" fill="none" fill-rule="evenodd" transform="matrix(1 0 0 -1 1121 1269.39)"/><path d="M0 0 0.000360892 511.394" stroke="#000000" stroke-width="27.5" stroke-miterlimit="8" fill="none" fill-rule="evenodd" transform="matrix(1 0 0 -1 1681 1487.39)"/><path d="M0 0 0.000360892 511.394" stroke="#000000" stroke-width="27.5" stroke-miterlimit="8" fill="none" fill-rule="evenodd" transform="matrix(1 0 0 -1 2240 1262.39)"/><path d="M0 0 0.000360892 511.394" stroke="#000000" stroke-width="27.5" stroke-miterlimit="8" fill="none" fill-rule="evenodd" transform="matrix(1 0 0 -1 2800 1489.39)"/><path d="M0 0 0.000360892 511.394" stroke="#000000" stroke-width="27.5" stroke-miterlimit="8" fill="none" fill-rule="evenodd" transform="matrix(1 0 0 -1 3359 1262.39)"/><rect x="755" y="445" width="271" height="70.9998" stroke="#000000" stroke-width="27.5" stroke-miterlimit="8" fill="#FFFFFF"/><rect x="802" y="520" width="177" height="236" stroke="#000000" stroke-width="27.5" stroke-miterlimit="8" fill="#FFFFFF"/><rect x="3469" y="444" width="271" height="70.9998" stroke="#000000" stroke-width="27.5" stroke-miterlimit="8" fill="#FFFFFF"/><rect x="3516" y="519" width="177" height="236" stroke="#000000" stroke-width="27.5" stroke-miterlimit="8" fill="#FFFFFF"/><rect x="341" y="1721" width="270" height="70.9998" stroke="#000000" stroke-width="27.5" stroke-miterlimit="8" fill="#FFFFFF"/><rect x="387" y="1481" width="178" height="236" stroke="#000000" stroke-width="27.5" stroke-miterlimit="8" fill="#FFFFFF"/><rect x="3919" y="1718" width="271" height="70.9998" stroke="#000000" stroke-width="27.5" stroke-miterlimit="8" fill="#FFFFFF"/><rect x="3965" y="1478" width="178" height="236" stroke="#000000" stroke-width="27.5" stroke-miterlimit="8" fill="#FFFFFF"/><path d="M5.15625-7.06246e-06 5.15658 237.704-5.15592 237.704-5.15625 7.06246e-06ZM15.4691 232.547 0.000360892 263.485-15.4684 232.548Z" transform="matrix(1 0 0 -1 471 2125.49)"/><path d="M4077.16 1862 4077.16 2099.7 4066.84 2099.7 4066.84 1862ZM4087.47 2094.55 4072 2125.49 4056.53 2094.55Z"/><path d="M3607.16 114 3607.16 351.704 3596.84 351.704 3596.84 114ZM3617.47 346.548 3602 377.485 3586.53 346.548Z"/><path d="M5.15625-7.06246e-06 5.15658 237.704-5.15592 237.704-5.15625 7.06246e-06ZM15.4691 232.547 0.000360892 263.485-15.4684 232.548Z" transform="matrix(1 0 0 -1 890 377.485)"/><text font-family="Calibri,Calibri_MSFontService,sans-serif" font-weight="400" font-size="101" transform="matrix(1 0 0 1 279.837 271)">Fluid</text><text font-family="Calibri,Calibri_MSFontService,sans-serif" font-weight="400" font-size="101" transform="matrix(1 0 0 1 500.41 271)">2</text><text font-family="Calibri,Calibri_MSFontService,sans-serif" font-weight="400" font-size="101" transform="matrix(1 0 0 1 574.317 271)">outlet</text><text font-family="Calibri,Calibri_MSFontService,sans-serif" font-weight="400" font-size="101" transform="matrix(1 0 0 1 3662.48 271)">Fluid</text><text font-family="Calibri,Calibri_MSFontService,sans-serif" font-weight="400" font-size="101" transform="matrix(1 0 0 1 3883.05 271)">2</text><text font-family="Calibri,Calibri_MSFontService,sans-serif" font-weight="400" font-size="101" transform="matrix(1 0 0 1 3956.96 271)">i</text><text font-family="Calibri,Calibri_MSFontService,sans-serif" font-weight="400" font-size="101" transform="matrix(1 0 0 1 3979.87 271)">n</text><text font-family="Calibri,Calibri_MSFontService,sans-serif" font-weight="400" font-size="101" transform="matrix(1 0 0 1 4032.58 271)">let</text><text font-family="Calibri,Calibri_MSFontService,sans-serif" font-weight="400" font-size="101" transform="matrix(1 0 0 1 -86.1241 1991)">Fluid</text><text font-family="Calibri,Calibri_MSFontService,sans-serif" font-weight="400" font-size="101" transform="matrix(1 0 0 1 134.449 1991)">1 inlet</text><path d="M1931.17 1559.34 1751.73 1325.77 1757.19 1321.58 1936.62 1555.15ZM1746.35 1335.68 1740.5 1305.5 1768.16 1318.93Z"/><text font-family="Calibri,Calibri_MSFontService,sans-serif" font-weight="400" font-size="101" transform="matrix(1 0 0 1 1966.3 1621)">Baffle</text><text font-family="Calibri,Calibri_MSFontService,sans-serif" font-weight="400" font-size="101" transform="matrix(1 0 0 1 2203.05 1621)">s</text><text font-family="Calibri,Calibri_MSFontService,sans-serif" font-weight="400" font-size="101" transform="matrix(1 0 0 1 3135.63 1621)">Tube</text><text font-family="Calibri,Calibri_MSFontService,sans-serif" font-weight="400" font-size="101" transform="matrix(1 0 0 1 3334.48 1621)">s</text><path d="M3112.17 1560.34 2932.73 1326.77 2938.19 1322.58 3117.62 1556.15ZM2927.35 1336.68 2921.5 1306.5 2949.16 1319.93Z"/><text font-family="Calibri,Calibri_MSFontService,sans-serif" font-weight="400" font-size="101" transform="matrix(1 0 0 1 1300.99 1948)">Shell</text><path d="M1295.51 1863.46 1065.38 1519.46 1071.1 1515.64 1301.22 1859.64ZM1059.36 1529 1055.5 1498.5 1082.22 1513.71Z"/></g></svg>