<svg width="4116" height="1402" xmlns="http://www.w3.org/2000/svg" xmlns:xlink="http://www.w3.org/1999/xlink" xml:space="preserve" overflow="hidden"><defs><clipPath id="clip0"><rect x="295" y="574" width="4116" height="1402"/></clipPath></defs><g clip-path="url(#clip0)" transform="translate(-295 -574)"><rect x="295" y="816" width="454" height="910" fill="#2FA3EE"/><text font-family="Tw Cen MT,Tw Cen MT_MSFontService,sans-serif" font-weight="400" font-size="83" transform="matrix(1 0 0 1 454.229 1277)">T</text><text font-family="Tw Cen MT,Tw Cen MT_MSFontService,sans-serif" font-weight="400" font-size="55" transform="matrix(1 0 0 1 490.323 1297)">Cold</text><text font-family="Tw Cen MT,Tw Cen MT_MSFontService,sans-serif" font-weight="400" font-size="83" transform="matrix(1 0 0 1 444.65 679)">Cold</text><text font-family="Tw Cen MT,Tw Cen MT_MSFontService,sans-serif" font-weight="400" font-size="83" transform="matrix(1 0 0 1 371.041 778)">Reservoir</text><rect x="749" y="816" width="38.9998" height="455"/><rect x="1397" y="816" width="454" height="910" fill="#CE6633"/><text font-family="Tw Cen MT,Tw Cen MT_MSFontService,sans-serif" font-weight="400" font-size="83" transform="matrix(1 0 0 1 1569.25 1275)">T</text><text font-family="Tw Cen MT,Tw Cen MT_MSFontService,sans-serif" font-weight="400" font-size="55" transform="matrix(1 0 0 1 1605.34 1295)">Hot</text><text font-family="Tw Cen MT,Tw Cen MT_MSFontService,sans-serif" font-weight="400" font-size="83" transform="matrix(1 0 0 1 1569.41 678)">Hot</text><text font-family="Tw Cen MT,Tw Cen MT_MSFontService,sans-serif" font-weight="400" font-size="83" transform="matrix(1 0 0 1 1475.17 777)">Reservoir</text><rect x="1359" y="816" width="38.0001" height="455"/><rect x="788" y="994" width="571" height="37.9998" fill="#A5A5A5"/><rect x="1054" y="826" width="39.0002" height="168" fill="#A5A5A5"/><text font-family="Tw Cen MT,Tw Cen MT_MSFontService,sans-serif" font-weight="400" font-size="83" transform="matrix(1 0 0 1 983.293 786)">Piston</text><rect x="749" y="1271" width="38.9998" height="455"/><rect x="788" y="1032" width="571" height="655" fill="#2FA3EE"/><rect x="788" y="1680" width="571" height="46.0001"/><text font-family="Tw Cen MT,Tw Cen MT_MSFontService,sans-serif" font-weight="400" font-size="83" transform="matrix(1 0 0 1 1003.42 1436)">T</text><text font-family="Tw Cen MT,Tw Cen MT_MSFontService,sans-serif" font-weight="400" font-size="55" transform="matrix(1 0 0 1 1039.52 1456)">Cold</text><path d="M6.875-1.46902e-05 6.87529 134.523-6.87471 134.523-6.875 1.46902e-05ZM20.6253 127.648 0.000360892 168.898-20.6247 127.648Z" transform="matrix(1 0 0 -1 919 993.898)"/><path d="M6.875-1.46902e-05 6.87529 134.523-6.87471 134.523-6.875 1.46902e-05ZM20.6253 127.648 0.000360892 168.898-20.6247 127.648Z" transform="matrix(1 0 0 -1 1229 993.898)"/><rect x="1359" y="1271" width="38.0001" height="455"/><path d="M4181 929 4181 1719.08" stroke="#000000" stroke-width="2.29167" stroke-miterlimit="8" stroke-dasharray="9.16667 6.875" fill="none" fill-rule="evenodd"/><text font-family="Tw Cen MT,Tw Cen MT_MSFontService,sans-serif" font-weight="400" font-size="83" transform="matrix(1 0 0 1 3297.29 1101)">T</text><text font-family="Tw Cen MT,Tw Cen MT_MSFontService,sans-serif" font-weight="400" font-size="55" transform="matrix(1 0 0 1 3333.39 1121)">Hot</text><text font-family="Tw Cen MT,Tw Cen MT_MSFontService,sans-serif" font-weight="400" font-size="83" transform="matrix(1 0 0 1 3271.57 1516)">T</text><text font-family="Tw Cen MT,Tw Cen MT_MSFontService,sans-serif" font-weight="400" font-size="55" transform="matrix(1 0 0 1 3305.21 1536)">Cold</text><path d="M3442 1073 4356.66 1073" stroke="#000000" stroke-width="2.29167" stroke-miterlimit="8" stroke-dasharray="9.16667 6.875" fill="none" fill-rule="evenodd"/><path d="M3656 926 3656 1716.08" stroke="#000000" stroke-width="2.29167" stroke-miterlimit="8" stroke-dasharray="9.16667 6.875" fill="none" fill-rule="evenodd"/><path d="M3449.18 831.414 3449.2 1717.95 3444.62 1713.37 4331.03 1713.37 4331.03 1722.53 3440.03 1722.53 3440.02 831.414ZM3430.87 836.059 3444.5 808.5 3458.37 835.941ZM4326.45 1704.2 4353.95 1717.95 4326.45 1731.7Z"/><text font-family="Tw Cen MT,Tw Cen MT_MSFontService,sans-serif" font-weight="400" font-size="83" transform="matrix(-1.83697e-16 -1 1 -1.83697e-16 3241.52 1215)">T</text><text font-family="Tw Cen MT,Tw Cen MT_MSFontService,sans-serif" font-weight="400" font-size="83" transform="matrix(-1.83697e-16 -1 1 -1.83697e-16 3241.52 1185)">emperature</text><text font-family="Tw Cen MT,Tw Cen MT_MSFontService,sans-serif" font-weight="400" font-size="83" transform="matrix(1 0 0 1 4111.48 1905)">Entrop</text><text font-family="Tw Cen MT,Tw Cen MT_MSFontService,sans-serif" font-weight="400" font-size="83" transform="matrix(1 0 0 1 4320.02 1905)">y</text><path d="M3637 1072.5C3637 1061.73 3645.73 1053 3656.5 1053 3667.27 1053 3676 1061.73 3676 1072.5 3676 1083.27 3667.27 1092 3656.5 1092 3645.73 1092 3637 1083.27 3637 1072.5Z" fill="#4472C4" fill-rule="evenodd"/><path d="M3442 1489 4356.66 1489" stroke="#000000" stroke-width="2.29167" stroke-miterlimit="8" stroke-dasharray="9.16667 6.875" fill="none" fill-rule="evenodd"/><text font-family="Tw Cen MT,Tw Cen MT_MSFontService,sans-serif" font-weight="400" font-size="83" transform="matrix(1 0 0 1 4147.11 1809)">S</text><text font-family="Tw Cen MT,Tw Cen MT_MSFontService,sans-serif" font-weight="400" font-size="55" transform="matrix(1 0 0 1 4188.36 1829)">2</text><text font-family="Tw Cen MT,Tw Cen MT_MSFontService,sans-serif" font-weight="400" font-size="83" transform="matrix(1 0 0 1 3618.96 1806)">S</text><text font-family="Tw Cen MT,Tw Cen MT_MSFontService,sans-serif" font-weight="400" font-size="55" transform="matrix(1 0 0 1 3660.21 1826)">1</text><path d="M4161 1072.5C4161 1061.73 4169.73 1053 4180.5 1053 4191.27 1053 4200 1061.73 4200 1072.5 4200 1083.27 4191.27 1092 4180.5 1092 4169.73 1092 4161 1083.27 4161 1072.5Z" fill="#4472C4" fill-rule="evenodd"/><path d="M3676.5 1069.06 4138.84 1069.06 4138.84 1075.94 3676.5 1075.94ZM4134.25 1058.75 4161.75 1072.5 4134.25 1086.25Z"/><path d="M4161 1488.5C4161 1477.73 4169.73 1469 4180.5 1469 4191.27 1469 4200 1477.73 4200 1488.5 4200 1499.27 4191.27 1508 4180.5 1508 4169.73 1508 4161 1499.27 4161 1488.5Z" fill="#4472C4" fill-rule="evenodd"/><path d="M4184.94 1092.5 4184.94 1447.1 4178.06 1447.1 4178.06 1092.5ZM4195.25 1442.52 4181.5 1470.02 4167.75 1442.52Z"/><path d="M2922.39 1420.62C2539.58 1296.2 2269.93 1086.57 2202.92 861.276" stroke="#5B9BD5" stroke-width="6.875" stroke-miterlimit="8" stroke-dasharray="6.875 6.875" fill="none" fill-rule="evenodd"/><path d="M2050.18 830.414 2050.2 1716.95 2045.62 1712.37 2932.03 1712.37 2932.03 1721.53 2041.04 1721.53 2041.02 830.414ZM2031.87 835.059 2045.5 807.5 2059.37 834.94ZM2927.45 1703.2 2954.95 1716.95 2927.45 1730.7Z"/><path d="M2233 965.5C2233 954.73 2241.73 946 2252.5 946 2263.27 946 2272 954.73 2272 965.5 2272 976.269 2263.27 985 2252.5 985 2241.73 985 2233 976.269 2233 965.5Z" fill="#4472C4" fill-rule="evenodd"/><path d="M2915.43 1642.05C2485.78 1612.8 2175.68 1414.84 2116.51 1132.06" stroke="#4472C4" stroke-width="6.875" stroke-miterlimit="8" stroke-dasharray="6.875 6.875" fill="none" fill-rule="evenodd"/><path d="M2522 1241.5C2522 1230.73 2530.73 1222 2541.5 1222 2552.27 1222 2561 1230.73 2561 1241.5 2561 1252.27 2552.27 1261 2541.5 1261 2530.73 1261 2522 1252.27 2522 1241.5Z" fill="#4472C4" fill-rule="evenodd"/><path d="M2504.22 1226.2 2480.59 1209.89 2460.15 1195.07 2440.38 1180 2421.32 1164.76 2402.84 1149.33 2385.08 1133.66 2368.02 1117.88 2351.68 1101.92 2335.98 1085.78 2320.99 1069.46 2306.77 1053.03 2293.25 1036.49 2280.44 1019.76 2268.41 1002.87 2257.2 986.009 2262.92 982.202 2274.1 999.019 2274.04 998.928 2286.01 1015.73 2285.94 1015.63 2298.68 1032.27 2298.61 1032.18 2312.06 1048.64 2312 1048.57 2326.15 1064.92 2326.09 1064.84 2341.01 1081.09 2340.94 1081.02 2356.57 1097.09 2356.51 1097.03 2372.79 1112.93 2372.72 1112.86 2389.72 1128.59 2389.66 1128.53 2407.35 1144.14 2407.28 1144.08 2425.7 1159.46 2425.64 1159.41 2444.64 1174.61 2444.58 1174.56 2464.29 1189.58 2464.22 1189.53 2484.59 1204.3 2484.53 1204.26 2508.12 1220.54ZM2509.98 1209.39 2525.24 1236.08 2494.73 1232.27Z"/><path d="M2738 1620.5C2738 1609.73 2746.73 1601 2757.5 1601 2768.27 1601 2777 1609.73 2777 1620.5 2777 1631.27 2768.27 1640 2757.5 1640 2746.73 1640 2738 1631.27 2738 1620.5Z" fill="#4472C4" fill-rule="evenodd"/><path d="M2546.78 1259.48 2553.1 1279.86 2553.09 1279.83 2559.59 1300.21 2559.57 1300.15 2566.51 1320.65 2566.48 1320.58 2573.98 1341.2 2573.95 1341.11 2582.2 1361.92 2582.15 1361.81 2591.4 1382.93 2591.34 1382.8 2601.78 1404.18 2601.72 1404.07 2607.47 1414.89 2607.44 1414.83 2613.51 1425.77 2613.46 1425.69 2619.96 1436.69 2619.93 1436.64 2626.74 1447.77 2626.69 1447.68 2641.38 1470.18 2641.32 1470.1 2657.19 1492.85 2657.15 1492.78 2674.02 1515.85 2673.99 1515.8 2691.61 1539.05 2691.59 1539.01 2709.78 1562.39 2709.76 1562.36 2728.38 1585.86 2728.37 1585.85 2732.86 1591.46 2727.49 1595.76 2723 1590.14 2704.36 1566.62 2686.15 1543.22 2668.49 1519.93 2651.58 1496.81 2635.65 1473.99 2620.91 1451.4 2614.05 1440.21 2607.52 1429.15 2601.42 1418.14 2595.62 1407.25 2585.13 1385.76 2575.83 1364.51 2567.54 1343.6 2560.01 1322.89 2553.05 1302.32 2546.53 1281.91 2540.22 1261.52ZM2738.05 1581.44 2744.5 1611.5 2716.58 1598.62Z"/><text font-family="Tw Cen MT,Tw Cen MT_MSFontService,sans-serif" font-weight="400" font-size="83" transform="matrix(-1.83697e-16 -1 1 -1.83697e-16 2006.62 1082)">P</text><text font-family="Tw Cen MT,Tw Cen MT_MSFontService,sans-serif" font-weight="400" font-size="83" transform="matrix(-1.83697e-16 -1 1 -1.83697e-16 2006.62 1041)">ressure</text><text font-family="Tw Cen MT,Tw Cen MT_MSFontService,sans-serif" font-weight="400" font-size="83" transform="matrix(1 0 0 1 2714.18 1812)">V</text><text font-family="Tw Cen MT,Tw Cen MT_MSFontService,sans-serif" font-weight="400" font-size="83" transform="matrix(1 0 0 1 2759.07 1812)">olume</text><text font-family="Tw Cen MT,Tw Cen MT_MSFontService,sans-serif" font-weight="400" font-size="83" transform="matrix(1 0 0 1 2925.02 1397)">T</text><text font-family="Tw Cen MT,Tw Cen MT_MSFontService,sans-serif" font-weight="400" font-size="55" transform="matrix(1 0 0 1 2961.12 1417)">Hot</text><text font-family="Tw Cen MT,Tw Cen MT_MSFontService,sans-serif" font-weight="400" font-size="83" transform="matrix(1 0 0 1 2925.74 1630)">T</text><text font-family="Tw Cen MT,Tw Cen MT_MSFontService,sans-serif" font-weight="400" font-size="55" transform="matrix(1 0 0 1 2959.38 1650)">Cold</text></g></svg>