<svg width="3877" height="2363" xmlns="http://www.w3.org/2000/svg" xmlns:xlink="http://www.w3.org/1999/xlink" xml:space="preserve" overflow="hidden"><g transform="translate(-450 -18)"><path d="M1685.52 646.977C1683.02 607.544 1956.36 284.329 2118.22 445.858 2280.08 607.386 2654.19 1576.71 2656.69 1616.15 2659.19 1655.58 2293.24 845.227 2133.22 682.455 1973.2 519.682 1688.02 686.409 1685.52 646.977Z" stroke="#000000" stroke-width="4.58333" stroke-miterlimit="8" fill-rule="evenodd"/><path d="M0.655969-0.939489 411.852 286.165 410.54 288.044-0.655969 0.939489ZM415.31 273.207 429.986 300.224 399.567 295.755Z" transform="matrix(1 0 0 -1 904 791.224)"/><path d="M1.14583-1.37738e-06 1.14617 277.308-1.1455 277.308-1.14583 1.37738e-06ZM13.7503 272.724 0.000360892 300.224-13.7497 272.724Z" transform="matrix(1 0 0 -1 2026 346.224)"/><path d="M2233.41 139.388C2230.6 139.388 2228.15 140.563 2226.05 142.914 2223.96 145.265 2222.31 148.628 2221.11 153.005 2219.91 157.382 2219.3 161.151 2219.3 164.313 2219.3 167.285 2219.92 169.48 2221.15 170.898 2222.38 172.317 2224.24 173.026 2226.72 173.026 2229.37 173.026 2231.72 171.837 2233.77 169.459 2235.83 167.082 2237.45 163.752 2238.64 159.469 2239.83 155.187 2240.42 151.425 2240.42 148.183 2240.42 145.265 2239.85 143.069 2238.72 141.597 2237.58 140.124 2235.81 139.388 2233.41 139.388ZM2354.81 139.307C2352.08 139.307 2349.46 140.685 2346.93 143.441 2344.41 146.197 2342.47 149.925 2341.12 154.626 2344.93 154.599 2348.19 154.255 2350.92 153.593 2353.65 152.931 2355.75 151.877 2357.2 150.432 2358.66 148.986 2359.39 147.034 2359.39 144.576 2359.39 142.928 2359.01 141.637 2358.24 140.705 2357.47 139.773 2356.33 139.307 2354.81 139.307ZM2317.58 136.146C2321.18 136.146 2324.49 136.551 2327.51 137.362L2325.53 146.521 2321.27 146.521C2321.22 144.468 2321.05 142.982 2320.77 142.063 2320.48 141.144 2320.02 140.455 2319.39 139.996 2318.75 139.537 2317.85 139.307 2316.69 139.307 2313.96 139.307 2311.51 140.395 2309.34 142.57 2307.16 144.745 2305.39 147.825 2304.01 151.81 2302.63 155.795 2301.94 159.625 2301.94 163.299 2301.94 166.055 2302.48 168.102 2303.56 169.439 2304.64 170.777 2306.26 171.445 2308.42 171.445 2310.88 171.445 2313.01 170.979 2314.81 170.047 2316.6 169.115 2318.5 167.649 2320.5 165.65L2322.97 168.122C2320.43 170.932 2317.87 172.985 2315.29 174.282 2312.71 175.579 2309.94 176.228 2306.97 176.228 2303.05 176.228 2300.08 175.066 2298.05 172.742 2296.02 170.419 2295.01 167.041 2295.01 162.61 2295.01 159.719 2295.55 156.545 2296.63 153.086 2297.71 149.628 2299.29 146.589 2301.37 143.968 2303.45 141.347 2305.88 139.388 2308.67 138.091 2311.45 136.794 2314.42 136.146 2317.58 136.146ZM2234.22 136.146C2238.54 136.146 2241.84 137.328 2244.11 139.692 2246.38 142.056 2247.51 145.44 2247.51 149.844 2247.51 152.978 2246.96 156.329 2245.87 159.895 2244.78 163.461 2243.28 166.46 2241.37 168.892 2239.47 171.324 2237.19 173.154 2234.54 174.384 2231.9 175.613 2228.86 176.228 2225.42 176.228 2221.24 176.228 2217.99 175.052 2215.68 172.702 2213.37 170.351 2212.21 166.974 2212.21 162.57 2212.21 160.408 2212.54 157.909 2213.19 155.072 2214.02 151.236 2215.43 147.885 2217.4 145.021 2219.37 142.158 2221.8 139.962 2224.7 138.436 2227.59 136.909 2230.76 136.146 2234.22 136.146ZM2356.27 136.105C2359.54 136.105 2361.99 136.767 2363.63 138.091 2365.26 139.415 2366.08 141.482 2366.08 144.292 2366.08 148.885 2363.93 152.33 2359.62 154.626 2355.31 156.923 2348.91 158.071 2340.43 158.071 2340.1 159.692 2339.94 161.449 2339.94 163.34 2339.94 166.177 2340.49 168.237 2341.6 169.52 2342.71 170.804 2344.52 171.445 2347.03 171.445 2349.52 171.445 2351.77 170.905 2353.78 169.824 2355.79 168.743 2357.92 167.082 2360.16 164.839L2362.68 167.474C2360.06 170.365 2357.4 172.54 2354.71 173.999 2352.02 175.458 2348.9 176.187 2345.33 176.187 2341.41 176.187 2338.38 174.991 2336.23 172.6 2334.08 170.209 2333.01 166.879 2333.01 162.61 2333.01 159.719 2333.53 156.619 2334.57 153.309 2335.61 150 2337.18 147.028 2339.29 144.393 2341.4 141.759 2343.93 139.719 2346.87 138.274 2349.82 136.828 2352.95 136.105 2356.27 136.105ZM2265.48 136.105C2267.18 136.105 2268.53 136.666 2269.51 137.787 2270.5 138.909 2270.99 140.374 2270.99 142.185 2270.99 143.535 2270.74 144.927 2270.22 146.359L2270.75 146.562C2273.4 142.968 2275.94 140.334 2278.39 138.659 2280.83 136.984 2283.31 136.146 2285.82 136.146 2287.8 136.146 2289.45 136.295 2290.77 136.592L2288.82 145.67 2284.65 145.67C2284.49 144.535 2284.26 143.657 2283.96 143.036 2283.66 142.414 2283.31 141.982 2282.91 141.739 2282.5 141.496 2281.99 141.374 2281.37 141.374 2280.39 141.374 2279.33 141.793 2278.19 142.63 2277.04 143.468 2275.75 144.778 2274.32 146.562 2272.88 148.345 2271.74 150.06 2270.89 151.709 2270.04 153.357 2269.33 155.451 2268.76 157.99L2264.91 175.539 2257.9 175.539 2263.78 149.844C2264.16 148.223 2264.4 146.967 2264.51 146.075 2264.62 145.184 2264.67 144.441 2264.67 143.846 2264.67 142.765 2264.49 141.982 2264.14 141.496 2263.79 141.009 2263.24 140.766 2262.48 140.766 2261.64 140.766 2260.76 141.111 2259.83 141.8 2258.89 142.489 2257.62 143.738 2256 145.548L2253.69 143.279C2256.17 140.685 2258.25 138.841 2259.93 137.747 2261.6 136.653 2263.45 136.105 2265.48 136.105ZM2170.68 120.219 2207.24 120.219 2204.44 132.661 2200.55 132.661C2200.44 130.58 2200.27 128.939 2200.04 127.737 2199.82 126.534 2199.49 125.67 2199.07 125.143 2198.65 124.616 2198.15 124.258 2197.55 124.069 2196.96 123.88 2196.07 123.785 2194.88 123.785L2182.4 123.785 2177.57 145.832 2185.15 145.832C2186.34 145.832 2187.33 145.67 2188.11 145.346 2188.89 145.021 2189.62 144.434 2190.3 143.583 2190.97 142.732 2191.81 141.279 2192.81 139.226L2196.5 139.226 2192.57 156.329 2189 156.329C2189 153.6 2188.91 151.891 2188.74 151.202 2188.56 150.513 2188.22 150.04 2187.72 149.783 2187.22 149.527 2186.23 149.398 2184.75 149.398L2176.8 149.398 2173.6 163.745C2173.03 166.285 2172.75 168.392 2172.75 170.067 2172.75 170.905 2172.88 171.56 2173.16 172.033 2173.43 172.506 2173.83 172.85 2174.37 173.066 2174.91 173.283 2175.84 173.445 2177.17 173.553L2176.72 175.539 2160.06 175.539 2160.51 173.553C2161.54 173.391 2162.31 173.127 2162.82 172.762 2163.33 172.398 2163.77 171.891 2164.12 171.243 2164.47 170.594 2164.79 169.804 2165.09 168.872 2165.39 167.94 2165.83 166.136 2166.43 163.461L2173.32 132.255C2173.91 129.554 2174.21 127.419 2174.21 125.852 2174.21 124.528 2173.9 123.61 2173.28 123.096 2172.66 122.583 2171.64 122.286 2170.24 122.205Z" fill-rule="evenodd"/><text fill="#000000" fill-opacity="0" font-family="Arial,Arial_MSFontService,sans-serif" font-size="56.0088" x="2160.06" y="169.226">𝐹𝑜𝑟𝑐𝑒</text><path d="M2718.88 139.307C2716.12 139.307 2713.65 140.422 2711.46 142.651 2709.28 144.88 2707.55 147.885 2706.3 151.668 2705.04 155.451 2704.41 159.22 2704.41 162.975 2704.41 165.785 2704.82 167.886 2705.63 169.277 2706.44 170.669 2707.71 171.364 2709.44 171.364 2710.82 171.364 2712.19 170.891 2713.55 169.946 2714.92 169 2716.38 167.501 2717.93 165.447 2719.48 163.394 2720.69 161.435 2721.56 159.571 2722.42 157.707 2723.16 155.383 2723.76 152.6 2724.37 149.817 2724.68 147.399 2724.68 145.346 2724.68 143.238 2724.23 141.705 2723.34 140.746 2722.45 139.787 2720.96 139.307 2718.88 139.307ZM2454.94 139.307C2452.21 139.307 2449.58 140.685 2447.05 143.441 2444.53 146.197 2442.59 149.925 2441.24 154.626 2445.05 154.599 2448.32 154.255 2451.05 153.593 2453.77 152.931 2455.87 151.877 2457.33 150.432 2458.79 148.986 2459.52 147.034 2459.52 144.576 2459.52 142.928 2459.13 141.637 2458.36 140.705 2457.59 139.773 2456.45 139.307 2454.94 139.307ZM2630.7 136.43 2633.09 136.43 2627.25 162.448C2626.66 165.096 2626.36 167.095 2626.36 168.446 2626.36 169.527 2626.54 170.311 2626.89 170.797 2627.24 171.283 2627.79 171.526 2628.55 171.526 2629.36 171.526 2630.22 171.195 2631.14 170.533 2632.06 169.872 2633.36 168.608 2635.03 166.744L2637.34 169.014C2634.7 171.797 2632.55 173.688 2630.9 174.688 2629.25 175.687 2627.4 176.187 2625.35 176.187 2623.59 176.187 2622.19 175.545 2621.13 174.262 2620.08 172.979 2619.55 171.337 2619.55 169.338 2619.55 167.285 2619.93 164.664 2620.69 161.476L2623.73 148.223C2624.35 145.521 2624.66 143.495 2624.66 142.144 2624.66 140.928 2624.37 140.104 2623.79 139.672 2623.21 139.24 2622.06 138.996 2620.36 138.942L2620.81 136.794ZM2492.49 136.146C2495 136.146 2497.29 136.295 2499.36 136.592 2501.43 136.889 2503.49 137.402 2505.54 138.132L2503.72 146.643 2500.44 146.643C2500.14 144.238 2499.35 142.414 2498.06 141.171 2496.78 139.929 2494.76 139.307 2492.01 139.307 2489.87 139.307 2488.14 139.854 2486.82 140.949 2485.49 142.043 2484.83 143.481 2484.83 145.265 2484.83 146.237 2485 147.095 2485.34 147.838 2485.68 148.581 2486.36 149.398 2487.39 150.29 2488.41 151.182 2490.01 152.276 2492.17 153.573 2493.87 154.599 2495.23 155.538 2496.26 156.389 2497.29 157.24 2498.1 158.085 2498.69 158.922 2499.29 159.76 2499.72 160.645 2499.99 161.577 2500.26 162.509 2500.39 163.637 2500.39 164.961 2500.39 167.366 2499.75 169.426 2498.47 171.141 2497.19 172.857 2495.44 174.134 2493.24 174.971 2491.04 175.809 2488.53 176.228 2485.72 176.228 2483.48 176.228 2481.28 176.059 2479.12 175.721 2476.96 175.383 2474.55 174.809 2471.9 173.999L2473.85 165.164 2477.01 165.164C2477.12 167.757 2477.85 169.716 2479.2 171.04 2480.55 172.364 2482.7 173.026 2485.64 173.026 2488.21 173.026 2490.22 172.452 2491.66 171.303 2493.11 170.155 2493.83 168.527 2493.83 166.42 2493.83 165.204 2493.63 164.157 2493.22 163.279 2492.82 162.401 2492.15 161.557 2491.24 160.746 2490.32 159.936 2488.86 158.922 2486.86 157.707 2484.75 156.437 2483.11 155.288 2481.93 154.262 2480.76 153.235 2479.87 152.121 2479.28 150.918 2478.69 149.716 2478.39 148.331 2478.39 146.764 2478.39 144.63 2478.96 142.759 2480.11 141.151 2481.26 139.544 2482.9 138.307 2485.03 137.443 2487.17 136.578 2489.65 136.146 2492.49 136.146ZM2718.23 136.105C2719.93 136.105 2721.54 136.308 2723.06 136.713 2724.57 137.119 2726.09 137.808 2727.63 138.78L2731.36 136.105 2733.96 136.754 2729.78 155.64C2729.49 156.964 2728.81 160.3 2727.76 165.65 2726.65 171.324 2725.75 175.336 2725.06 177.687 2724.37 180.037 2723.51 182.178 2722.49 184.11 2721.46 186.042 2720.14 187.724 2718.52 189.156 2716.9 190.588 2714.93 191.695 2712.62 192.479 2710.31 193.263 2707.57 193.654 2704.41 193.654 2694.2 193.654 2689.09 190.682 2689.09 184.738 2689.09 183.225 2689.55 181.847 2690.47 180.605 2691.39 179.362 2692.86 178.051 2694.89 176.673L2697.81 179.024C2697.29 179.645 2696.86 180.26 2696.51 180.868 2696.16 181.476 2695.91 182.063 2695.76 182.631 2695.61 183.198 2695.54 183.874 2695.54 184.657 2695.54 186.684 2696.27 188.163 2697.73 189.095 2699.18 190.027 2701.39 190.493 2704.33 190.493 2707.65 190.493 2710.32 189.743 2712.34 188.244 2714.35 186.744 2716.07 184.333 2717.5 181.01 2718.93 177.687 2720.33 172.661 2721.68 165.934L2721.11 165.812C2718.49 169.405 2716.06 172.026 2713.81 173.674 2711.57 175.322 2709.15 176.146 2706.56 176.146 2703.62 176.146 2701.33 175.039 2699.69 172.823 2698.06 170.608 2697.24 167.447 2697.24 163.34 2697.24 158.72 2698.14 154.282 2699.95 150.027 2701.76 145.771 2704.28 142.387 2707.49 139.875 2710.71 137.362 2714.29 136.105 2718.23 136.105ZM2652.64 136.105C2654.35 136.105 2655.69 136.666 2656.68 137.787 2657.66 138.909 2658.16 140.374 2658.16 142.185 2658.16 143.617 2657.83 145.211 2657.18 146.967L2657.67 147.129C2660.32 143.4 2662.84 140.638 2665.23 138.841 2667.62 137.044 2670.08 136.146 2672.62 136.146 2675.14 136.146 2677.07 136.869 2678.42 138.314 2679.77 139.76 2680.45 141.766 2680.45 144.333 2680.45 146.035 2680.05 148.453 2679.27 151.587L2676.64 162.205C2675.91 165.15 2675.54 167.23 2675.54 168.446 2675.54 169.527 2675.72 170.311 2676.07 170.797 2676.42 171.283 2676.97 171.526 2677.73 171.526 2678.54 171.526 2679.41 171.195 2680.32 170.533 2681.24 169.872 2682.54 168.608 2684.21 166.744L2686.52 169.014C2684.2 171.499 2682.17 173.316 2680.45 174.465 2678.72 175.613 2676.74 176.187 2674.53 176.187 2672.77 176.187 2671.37 175.559 2670.31 174.303 2669.26 173.046 2668.73 171.445 2668.73 169.5 2668.73 167.744 2669.18 165.164 2670.07 161.759L2671.85 154.748C2672.5 152.208 2672.93 150.331 2673.13 149.115 2673.33 147.899 2673.43 146.913 2673.43 146.156 2673.43 144.292 2673.12 142.948 2672.5 142.124 2671.88 141.3 2670.87 140.888 2669.46 140.888 2668.33 140.888 2667.1 141.34 2665.79 142.245 2664.48 143.15 2663.09 144.515 2661.62 146.339 2660.15 148.162 2658.97 149.932 2658.07 151.648 2657.18 153.363 2656.45 155.478 2655.89 157.99L2652.04 175.539 2645.02 175.539 2650.94 149.844C2651.54 147.251 2651.83 145.251 2651.83 143.846 2651.83 142.765 2651.66 141.982 2651.31 141.496 2650.95 141.009 2650.4 140.766 2649.64 140.766 2648.81 140.766 2647.92 141.111 2646.99 141.8 2646.06 142.489 2644.78 143.738 2643.16 145.548L2640.85 143.279C2643.34 140.685 2645.4 138.841 2647.05 137.747 2648.7 136.653 2650.56 136.105 2652.64 136.105ZM2520.97 136.105C2522.7 136.105 2524.06 136.686 2525.06 137.848 2526.06 139.01 2526.56 140.577 2526.56 142.549 2526.56 144.684 2526.14 147.345 2525.3 150.533L2523.52 157.544C2523.06 159.328 2522.73 160.719 2522.53 161.719 2522.33 162.718 2522.18 163.583 2522.08 164.313 2521.99 165.042 2521.94 165.65 2521.94 166.136 2521.94 168.001 2522.25 169.345 2522.87 170.169 2523.49 170.993 2524.51 171.405 2525.91 171.405 2527.05 171.405 2528.27 170.952 2529.58 170.047 2530.89 169.142 2532.28 167.778 2533.75 165.954 2535.23 164.13 2536.41 162.36 2537.3 160.645 2538.19 158.929 2538.92 156.815 2539.49 154.302L2543.34 136.754 2550.35 136.754 2544.43 162.448C2543.84 165.042 2543.54 167.041 2543.54 168.446 2543.54 169.527 2543.72 170.311 2544.07 170.797 2544.42 171.283 2544.97 171.526 2545.73 171.526 2546.54 171.526 2547.41 171.195 2548.32 170.533 2549.24 169.872 2550.54 168.608 2552.21 166.744L2554.52 169.014C2552.07 171.634 2549.97 173.485 2548.24 174.566 2546.51 175.647 2544.68 176.187 2542.73 176.187 2541.06 176.187 2539.72 175.633 2538.72 174.525 2537.72 173.418 2537.22 171.945 2537.22 170.108 2537.22 168.649 2537.54 167.055 2538.19 165.326L2537.71 165.164C2535.03 168.919 2532.5 171.688 2530.11 173.472 2527.72 175.255 2525.26 176.146 2522.75 176.146 2520.24 176.146 2518.31 175.424 2516.96 173.978 2515.6 172.533 2514.93 170.527 2514.93 167.96 2514.93 166.258 2515.32 163.84 2516.1 160.706L2518.74 150.087C2519.47 147.142 2519.83 145.062 2519.83 143.846 2519.83 142.765 2519.66 141.982 2519.31 141.496 2518.95 141.009 2518.4 140.766 2517.64 140.766 2516.81 140.766 2515.92 141.111 2514.99 141.8 2514.06 142.489 2512.78 143.738 2511.16 145.548L2508.85 143.279C2511.15 140.955 2512.88 139.361 2514.04 138.497 2515.2 137.632 2516.31 137.017 2517.38 136.653 2518.45 136.288 2519.64 136.105 2520.97 136.105ZM2456.4 136.105C2459.66 136.105 2462.12 136.767 2463.75 138.091 2465.39 139.415 2466.2 141.482 2466.2 144.292 2466.2 148.885 2464.05 152.33 2459.74 154.626 2455.43 156.923 2449.03 158.071 2440.55 158.071 2440.23 159.692 2440.06 161.449 2440.06 163.34 2440.06 166.177 2440.62 168.237 2441.72 169.52 2442.83 170.804 2444.64 171.445 2447.16 171.445 2449.64 171.445 2451.89 170.905 2453.9 169.824 2455.92 168.743 2458.04 167.082 2460.29 164.839L2462.8 167.474C2460.18 170.365 2457.52 172.54 2454.84 173.999 2452.15 175.458 2449.02 176.187 2445.45 176.187 2441.54 176.187 2438.5 174.991 2436.35 172.6 2434.21 170.209 2433.13 166.879 2433.13 162.61 2433.13 159.719 2433.65 156.619 2434.69 153.309 2435.73 150 2437.31 147.028 2439.41 144.393 2441.52 141.759 2444.05 139.719 2446.99 138.274 2449.94 136.828 2453.07 136.105 2456.4 136.105ZM2402.6 136.105C2404.31 136.105 2405.65 136.666 2406.64 137.787 2407.62 138.909 2408.11 140.374 2408.11 142.185 2408.11 143.535 2407.86 144.927 2407.34 146.359L2407.87 146.562C2410.52 142.968 2413.07 140.334 2415.51 138.659 2417.96 136.984 2420.44 136.146 2422.95 136.146 2424.92 136.146 2426.57 136.295 2427.89 136.592L2425.95 145.67 2421.77 145.67C2421.61 144.535 2421.38 143.657 2421.08 143.036 2420.79 142.414 2420.44 141.982 2420.03 141.739 2419.62 141.496 2419.11 141.374 2418.49 141.374 2417.52 141.374 2416.46 141.793 2415.31 142.63 2414.16 143.468 2412.87 144.778 2411.44 146.562 2410.01 148.345 2408.86 150.06 2408.01 151.709 2407.16 153.357 2406.45 155.451 2405.89 157.99L2402.04 175.539 2395.02 175.539 2400.9 149.844C2401.28 148.223 2401.52 146.967 2401.63 146.075 2401.74 145.184 2401.79 144.441 2401.79 143.846 2401.79 142.765 2401.62 141.982 2401.27 141.496 2400.91 141.009 2400.36 140.766 2399.6 140.766 2398.77 140.766 2397.88 141.111 2396.95 141.8 2396.02 142.489 2394.74 143.738 2393.12 145.548L2390.81 143.279C2393.3 140.685 2395.38 138.841 2397.05 137.747 2398.73 136.653 2400.58 136.105 2402.6 136.105ZM2596.72 126.784 2602.32 126.784 2600.09 136.794 2612.41 136.794 2611.52 140.888 2599.2 140.888 2595.59 156.612C2594.89 159.665 2594.44 161.861 2594.25 163.198 2594.06 164.535 2593.97 165.609 2593.97 166.42 2593.97 169.77 2595.36 171.445 2598.14 171.445 2599.33 171.445 2600.59 170.993 2601.93 170.088 2603.27 169.183 2604.86 167.636 2606.69 165.447L2609.04 167.879C2606.69 170.716 2604.43 172.81 2602.26 174.161 2600.08 175.512 2597.8 176.187 2595.43 176.187 2589.78 176.187 2586.96 173.337 2586.96 167.636 2586.96 165.826 2587.19 163.921 2587.65 161.921L2592.43 140.888 2585.62 140.888 2586.23 138.091C2587.82 138.064 2589.03 137.943 2589.85 137.727 2590.68 137.51 2591.37 137.213 2591.92 136.835 2592.48 136.457 2592.98 135.916 2593.44 135.214 2593.9 134.511 2594.35 133.613 2594.78 132.519 2595.21 131.425 2595.86 129.513 2596.72 126.784ZM2629.6 120.908 2636.78 120.908 2634.91 128.77 2627.74 128.77ZM2576.75 117.584 2579.14 117.584 2569.17 162.448C2568.58 165.123 2568.28 167.122 2568.28 168.446 2568.28 169.527 2568.45 170.311 2568.81 170.797 2569.16 171.283 2569.71 171.526 2570.47 171.526 2571.28 171.526 2572.14 171.195 2573.06 170.533 2573.98 169.872 2575.28 168.608 2576.95 166.744L2579.26 169.014C2576.64 171.77 2574.5 173.654 2572.84 174.667 2571.18 175.68 2569.32 176.187 2567.27 176.187 2565.51 176.187 2564.1 175.545 2563.05 174.262 2562 172.979 2561.47 171.337 2561.47 169.338 2561.47 167.528 2561.85 164.907 2562.6 161.476L2569.86 129.013C2570.18 127.581 2570.41 126.44 2570.55 125.589 2570.68 124.738 2570.75 123.947 2570.75 123.218 2570.75 122.407 2570.6 121.793 2570.31 121.374 2570.01 120.955 2569.58 120.651 2569.03 120.462 2568.47 120.273 2567.48 120.138 2566.05 120.057L2566.54 117.949Z" fill-rule="evenodd"/><text fill="#000000" fill-opacity="0" font-family="Arial,Arial_MSFontService,sans-serif" font-size="76.0698" x="2390.81" y="184.146">𝑟𝑒𝑠𝑢𝑙𝑡𝑖𝑛𝑔</text><path d="M2867.62 139.388C2864.81 139.388 2862.36 140.563 2860.26 142.914 2858.17 145.265 2856.52 148.628 2855.32 153.005 2854.12 157.382 2853.52 161.151 2853.52 164.313 2853.52 167.285 2854.13 169.48 2855.36 170.898 2856.59 172.317 2858.45 173.026 2860.93 173.026 2863.58 173.026 2865.93 171.837 2867.98 169.459 2870.04 167.082 2871.66 163.752 2872.85 159.469 2874.04 155.187 2874.63 151.425 2874.63 148.183 2874.63 145.265 2874.06 143.069 2872.93 141.597 2871.79 140.124 2870.02 139.388 2867.62 139.388ZM2868.43 136.146C2872.75 136.146 2876.05 137.328 2878.32 139.692 2880.59 142.056 2881.72 145.44 2881.72 149.844 2881.72 152.978 2881.18 156.329 2880.08 159.895 2878.99 163.461 2877.49 166.46 2875.58 168.892 2873.68 171.324 2871.4 173.154 2868.75 174.384 2866.11 175.613 2863.07 176.228 2859.63 176.228 2855.45 176.228 2852.2 175.052 2849.89 172.702 2847.58 170.351 2846.42 166.974 2846.42 162.57 2846.42 160.408 2846.75 157.909 2847.4 155.072 2848.23 151.236 2849.64 147.885 2851.61 145.021 2853.58 142.158 2856.01 139.962 2858.91 138.436 2861.8 136.909 2864.97 136.146 2868.43 136.146ZM2898.73 136.105C2900.43 136.105 2901.78 136.666 2902.76 137.787 2903.75 138.909 2904.24 140.374 2904.24 142.185 2904.24 143.671 2903.93 145.251 2903.31 146.926L2903.8 147.088C2906.28 143.387 2908.75 140.638 2911.21 138.841 2913.67 137.044 2916.16 136.146 2918.67 136.146 2921.26 136.146 2923.24 136.882 2924.59 138.355 2925.94 139.827 2926.61 141.955 2926.61 144.738L2926.61 145.305C2926.61 145.494 2926.6 145.697 2926.57 145.913 2928.9 142.617 2931.21 140.165 2933.52 138.557 2935.83 136.95 2938.23 136.146 2940.72 136.146 2943.2 136.146 2945.12 136.862 2946.47 138.294 2947.82 139.726 2948.5 141.739 2948.5 144.333 2948.5 146.035 2948.11 148.453 2947.32 151.587L2944.69 162.205C2943.96 165.15 2943.59 167.23 2943.59 168.446 2943.59 169.527 2943.77 170.311 2944.12 170.797 2944.47 171.283 2945.03 171.526 2945.78 171.526 2946.59 171.526 2947.46 171.195 2948.38 170.533 2949.3 169.872 2950.59 168.608 2952.27 166.744L2954.58 169.014C2952.25 171.472 2950.23 173.283 2948.5 174.444 2946.77 175.606 2944.8 176.187 2942.58 176.187 2940.83 176.187 2939.42 175.559 2938.37 174.303 2937.31 173.046 2936.79 171.445 2936.79 169.5 2936.79 167.744 2937.23 165.164 2938.12 161.759L2939.91 154.748C2940.56 152.208 2940.98 150.331 2941.18 149.115 2941.39 147.899 2941.49 146.913 2941.49 146.156 2941.49 144.292 2941.18 142.948 2940.56 142.124 2939.93 141.3 2938.92 140.888 2937.52 140.888 2936.38 140.888 2935.17 141.313 2933.87 142.164 2932.57 143.015 2931.21 144.339 2929.77 146.136 2928.34 147.933 2927.17 149.702 2926.27 151.445 2925.36 153.188 2924.64 155.315 2924.1 157.828L2920.41 175.539 2913.4 175.539 2918.06 154.951C2918.63 152.438 2919.01 150.581 2919.22 149.378 2919.42 148.176 2919.52 147.142 2919.52 146.278 2919.52 144.333 2919.18 142.948 2918.49 142.124 2917.8 141.3 2916.73 140.888 2915.27 140.888 2914.24 140.888 2913.07 141.313 2911.76 142.164 2910.45 143.015 2909.05 144.38 2907.57 146.258 2906.08 148.135 2904.92 149.939 2904.08 151.668 2903.24 153.397 2902.54 155.505 2901.97 157.99L2898.12 175.539 2891.11 175.539 2897.03 149.844C2897.62 147.251 2897.92 145.251 2897.92 143.846 2897.92 142.765 2897.74 141.982 2897.39 141.496 2897.04 141.009 2896.49 140.766 2895.73 140.766 2894.89 140.766 2894.01 141.111 2893.08 141.8 2892.15 142.489 2890.87 143.738 2889.25 145.548L2886.94 143.279C2889.32 140.793 2891.36 138.976 2893.08 137.828 2894.79 136.68 2896.68 136.105 2898.73 136.105ZM2815.69 136.105C2817.39 136.105 2818.74 136.666 2819.72 137.787 2820.71 138.909 2821.2 140.374 2821.2 142.185 2821.2 143.535 2820.95 144.927 2820.43 146.359L2820.96 146.562C2823.61 142.968 2826.15 140.334 2828.6 138.659 2831.04 136.984 2833.52 136.146 2836.04 136.146 2838.01 136.146 2839.66 136.295 2840.98 136.592L2839.03 145.67 2834.86 145.67C2834.7 144.535 2834.47 143.657 2834.17 143.036 2833.87 142.414 2833.52 141.982 2833.12 141.739 2832.71 141.496 2832.2 141.374 2831.58 141.374 2830.6 141.374 2829.54 141.793 2828.4 142.63 2827.25 143.468 2825.96 144.778 2824.53 146.562 2823.09 148.345 2821.95 150.06 2821.1 151.709 2820.25 153.357 2819.54 155.451 2818.97 157.99L2815.12 175.539 2808.11 175.539 2813.99 149.844C2814.37 148.223 2814.61 146.967 2814.72 146.075 2814.83 145.184 2814.88 144.441 2814.88 143.846 2814.88 142.765 2814.7 141.982 2814.35 141.496 2814 141.009 2813.45 140.766 2812.69 140.766 2811.85 140.766 2810.97 141.111 2810.04 141.8 2809.1 142.489 2807.83 143.738 2806.21 145.548L2803.9 143.279C2806.38 140.685 2808.46 138.841 2810.14 137.747 2811.81 136.653 2813.66 136.105 2815.69 136.105ZM2796.14 117.341C2798.79 117.341 2801.07 117.557 2802.99 117.99L2801.41 124.879 2797.84 124.879C2797.47 123.339 2796.97 122.232 2796.36 121.556 2795.76 120.881 2794.86 120.543 2793.67 120.543 2792.13 120.543 2790.83 120.969 2789.76 121.82 2788.69 122.671 2787.78 123.934 2787.02 125.609 2786.27 127.284 2785.56 129.54 2784.92 132.377L2783.9 136.794 2794.32 136.794 2793.43 140.888 2782.97 140.888 2775.43 176.228C2774.19 182.091 2772.28 186.461 2769.72 189.338 2767.15 192.216 2763.92 193.654 2760.03 193.654 2758.9 193.654 2758.01 193.587 2757.36 193.452L2758.05 189.885C2758.32 189.966 2758.95 190.007 2759.95 190.007 2761.17 190.007 2762.21 189.696 2763.07 189.075 2763.94 188.453 2764.74 187.373 2765.48 185.833 2766.23 184.292 2766.91 182.158 2767.53 179.429L2776.24 140.888 2769.39 140.888 2770 138.091C2771.81 137.983 2773.12 137.835 2773.91 137.646 2774.71 137.456 2775.33 137.173 2775.78 136.794 2776.22 136.416 2776.6 135.923 2776.91 135.315 2777.22 134.707 2777.62 133.593 2778.11 131.972 2779.54 127.108 2781.75 123.454 2784.73 121.009 2787.72 118.564 2791.52 117.341 2796.14 117.341Z" fill-rule="evenodd"/><text fill="#000000" fill-opacity="0" font-family="Arial,Arial_MSFontService,sans-serif" font-size="76.313" x="2757.36" y="184.115">𝑓𝑟𝑜𝑚</text><path d="M2199.34 235.305C2196.61 235.305 2193.99 236.683 2191.46 239.439 2188.93 242.195 2187 245.923 2185.64 250.624 2189.45 250.597 2192.72 250.253 2195.45 249.591 2198.18 248.929 2200.27 247.875 2201.73 246.43 2203.19 244.984 2203.92 243.032 2203.92 240.574 2203.92 238.926 2203.54 237.635 2202.77 236.703 2202 235.771 2200.86 235.305 2199.34 235.305ZM2200.8 232.103C2204.07 232.103 2206.52 232.765 2208.16 234.089 2209.79 235.413 2210.61 237.48 2210.61 240.29 2210.61 244.883 2208.45 248.328 2204.15 250.624 2199.84 252.921 2193.44 254.069 2184.96 254.069 2184.63 255.69 2184.47 257.447 2184.47 259.338 2184.47 262.175 2185.02 264.235 2186.13 265.518 2187.24 266.802 2189.05 267.443 2191.56 267.443 2194.05 267.443 2196.3 266.903 2198.31 265.822 2200.32 264.741 2202.45 263.08 2204.69 260.837L2207.21 263.472C2204.58 266.363 2201.93 268.537 2199.24 269.996 2196.55 271.455 2193.43 272.185 2189.86 272.185 2185.94 272.185 2182.91 270.989 2180.76 268.598 2178.61 266.207 2177.54 262.877 2177.54 258.608 2177.54 255.717 2178.06 252.617 2179.1 249.307 2180.14 245.998 2181.71 243.026 2183.82 240.391 2185.93 237.757 2188.45 235.717 2191.4 234.272 2194.34 232.826 2197.48 232.103 2200.8 232.103ZM2111.13 222.782 2116.72 222.782 2114.49 232.792 2126.81 232.792 2125.92 236.886 2113.6 236.886 2110 252.61C2109.29 255.663 2108.85 257.859 2108.66 259.196 2108.47 260.533 2108.37 261.607 2108.37 262.418 2108.37 265.768 2109.77 267.443 2112.55 267.443 2113.74 267.443 2115 266.991 2116.34 266.086 2117.68 265.18 2119.26 263.634 2121.1 261.445L2123.45 263.877C2121.1 266.714 2118.84 268.808 2116.66 270.159 2114.49 271.509 2112.21 272.185 2109.83 272.185 2104.19 272.185 2101.36 269.335 2101.36 263.634 2101.36 261.823 2101.59 259.919 2102.05 257.919L2106.83 236.886 2100.03 236.886 2100.63 234.089C2102.23 234.062 2103.44 233.941 2104.26 233.724 2105.08 233.508 2105.77 233.211 2106.33 232.833 2106.88 232.455 2107.39 231.914 2107.85 231.212 2108.31 230.509 2108.75 229.611 2109.18 228.517 2109.62 227.422 2110.27 225.511 2111.13 222.782ZM2149.4 213.582 2151.75 213.582 2144.78 241.668 2145.26 241.83C2147.83 238.426 2150.26 235.96 2152.54 234.434 2154.82 232.907 2157.13 232.144 2159.45 232.144 2161.96 232.144 2163.89 232.867 2165.24 234.312 2166.6 235.758 2167.27 237.764 2167.27 240.33 2167.27 242.033 2166.88 244.451 2166.1 247.585L2163.46 258.203C2162.73 261.148 2162.37 263.228 2162.37 264.444 2162.37 265.525 2162.54 266.308 2162.89 266.795 2163.25 267.281 2163.8 267.524 2164.56 267.524 2165.37 267.524 2166.23 267.193 2167.15 266.531 2168.07 265.869 2169.36 264.606 2171.04 262.742L2173.35 265.012C2170.76 267.74 2168.63 269.618 2166.97 270.645 2165.31 271.672 2163.43 272.185 2161.35 272.185 2159.6 272.185 2158.2 271.564 2157.16 270.321 2156.12 269.078 2155.6 267.47 2155.6 265.498 2155.6 263.742 2156.04 261.161 2156.94 257.757L2158.68 250.746C2159.3 248.233 2159.72 246.349 2159.94 245.092 2160.15 243.836 2160.26 242.857 2160.26 242.154 2160.26 240.236 2159.95 238.878 2159.33 238.081 2158.71 237.284 2157.69 236.886 2156.29 236.886 2155.18 236.886 2153.95 237.345 2152.6 238.264 2151.25 239.182 2149.83 240.58 2148.34 242.458 2146.86 244.336 2145.68 246.133 2144.8 247.848 2143.92 249.564 2143.22 251.611 2142.71 253.988L2139.02 271.536 2132.01 271.536 2142.43 225.214C2143.08 222.323 2143.4 220.323 2143.4 219.216 2143.4 218.081 2143.06 217.284 2142.37 216.825 2141.68 216.365 2140.44 216.109 2138.66 216.055L2139.15 213.947Z" fill-rule="evenodd"/><text fill="#000000" fill-opacity="0" font-family="Arial,Arial_MSFontService,sans-serif" font-size="58.6025" x="2100.03" y="264.86">𝑡ℎ𝑒</text><path d="M2524.25 235.386C2521.44 235.386 2518.99 236.561 2516.89 238.912 2514.8 241.263 2513.15 244.626 2511.95 249.003 2510.75 253.38 2510.14 257.149 2510.14 260.31 2510.14 263.282 2510.76 265.478 2511.99 266.896 2513.22 268.315 2515.08 269.024 2517.56 269.024 2520.21 269.024 2522.56 267.835 2524.61 265.457 2526.67 263.08 2528.29 259.75 2529.48 255.467 2530.66 251.185 2531.26 247.423 2531.26 244.181 2531.26 241.263 2530.69 239.067 2529.56 237.595 2528.42 236.122 2526.65 235.386 2524.25 235.386ZM2419.57 235.305C2416.79 235.305 2414.29 236.426 2412.07 238.669 2409.86 240.911 2408.13 243.917 2406.89 247.686 2405.64 251.455 2405.02 255.217 2405.02 258.973 2405.02 261.783 2405.41 263.884 2406.18 265.275 2406.95 266.666 2408.24 267.362 2410.05 267.362 2411.83 267.362 2413.58 266.592 2415.3 265.052 2417.01 263.512 2418.78 261.317 2420.61 258.466 2422.43 255.616 2423.72 252.327 2424.48 248.598L2424.84 246.855C2425.08 245.748 2425.25 244.788 2425.33 243.978 2425.41 243.167 2425.45 242.289 2425.45 241.344 2425.45 239.263 2425 237.737 2424.11 236.764 2423.22 235.791 2421.71 235.305 2419.57 235.305ZM2308.65 235.305C2305.92 235.305 2303.3 236.683 2300.77 239.439 2298.24 242.195 2296.31 245.923 2294.96 250.624 2298.76 250.597 2302.03 250.253 2304.76 249.591 2307.49 248.929 2309.59 247.875 2311.04 246.43 2312.5 244.984 2313.23 243.032 2313.23 240.574 2313.23 238.926 2312.85 237.635 2312.08 236.703 2311.31 235.771 2310.17 235.305 2308.65 235.305ZM2260.49 235.305C2257.74 235.305 2255.26 236.42 2253.07 238.649 2250.89 240.878 2249.16 243.883 2247.91 247.666 2246.65 251.448 2246.02 255.217 2246.02 258.973 2246.02 261.783 2246.41 263.884 2247.18 265.275 2247.95 266.666 2249.24 267.362 2251.05 267.362 2251.89 267.362 2252.74 267.18 2253.6 266.815 2254.47 266.45 2255.36 265.863 2256.3 265.052 2257.23 264.242 2258.15 263.255 2259.05 262.094 2259.96 260.932 2260.79 259.763 2261.54 258.588 2262.3 257.413 2263 256.021 2263.65 254.414 2264.3 252.806 2264.85 250.868 2265.31 248.598L2265.68 246.855C2266.08 244.91 2266.29 243.073 2266.29 241.344 2266.29 239.236 2265.84 237.703 2264.95 236.744 2264.06 235.785 2262.57 235.305 2260.49 235.305ZM2489.41 232.428 2491.8 232.428 2485.97 258.446C2485.37 261.094 2485.08 263.093 2485.08 264.444 2485.08 265.525 2485.25 266.308 2485.6 266.795 2485.95 267.281 2486.51 267.524 2487.27 267.524 2488.08 267.524 2488.94 267.193 2489.86 266.531 2490.78 265.869 2492.07 264.606 2493.75 262.742L2496.06 265.012C2493.41 267.794 2491.26 269.686 2489.62 270.685 2487.97 271.685 2486.12 272.185 2484.06 272.185 2482.31 272.185 2480.9 271.543 2479.85 270.26 2478.79 268.977 2478.27 267.335 2478.27 265.336 2478.27 263.282 2478.65 260.662 2479.4 257.474L2482.44 244.221C2483.06 241.519 2483.37 239.493 2483.37 238.142 2483.37 236.926 2483.08 236.102 2482.5 235.67 2481.92 235.238 2480.78 234.994 2479.08 234.94L2479.52 232.792ZM2384.41 232.428 2386.8 232.428 2380.97 258.446C2380.37 261.094 2380.08 263.093 2380.08 264.444 2380.08 265.525 2380.25 266.308 2380.6 266.795 2380.95 267.281 2381.51 267.524 2382.27 267.524 2383.08 267.524 2383.94 267.193 2384.86 266.531 2385.78 265.869 2387.07 264.606 2388.75 262.742L2391.06 265.012C2388.41 267.794 2386.26 269.686 2384.62 270.685 2382.97 271.685 2381.12 272.185 2379.06 272.185 2377.31 272.185 2375.9 271.543 2374.85 270.26 2373.79 268.977 2373.27 267.335 2373.27 265.336 2373.27 263.282 2373.65 260.662 2374.4 257.474L2377.44 244.221C2378.06 241.519 2378.37 239.493 2378.37 238.142 2378.37 236.926 2378.08 236.102 2377.5 235.67 2376.92 235.238 2375.78 234.994 2374.08 234.94L2374.52 232.792ZM2525.06 232.144C2529.38 232.144 2532.68 233.326 2534.95 235.69 2537.22 238.054 2538.35 241.438 2538.35 245.842 2538.35 248.976 2537.8 252.327 2536.71 255.893 2535.62 259.459 2534.12 262.458 2532.21 264.89 2530.31 267.322 2528.03 269.152 2525.38 270.381 2522.73 271.611 2519.7 272.225 2516.26 272.225 2512.08 272.225 2508.83 271.05 2506.52 268.7 2504.21 266.349 2503.05 262.972 2503.05 258.568 2503.05 256.406 2503.38 253.907 2504.02 251.07 2504.86 247.234 2506.27 243.883 2508.24 241.019 2510.21 238.155 2512.64 235.96 2515.53 234.434 2518.43 232.907 2521.6 232.144 2525.06 232.144ZM2555.36 232.103C2557.06 232.103 2558.41 232.664 2559.39 233.785 2560.38 234.907 2560.87 236.372 2560.87 238.182 2560.87 239.614 2560.55 241.209 2559.9 242.965L2560.39 243.127C2563.03 239.398 2565.55 236.636 2567.94 234.839 2570.34 233.042 2572.8 232.144 2575.34 232.144 2577.85 232.144 2579.78 232.867 2581.14 234.312 2582.49 235.758 2583.16 237.764 2583.16 240.33 2583.16 242.033 2582.77 244.451 2581.99 247.585L2579.35 258.203C2578.62 261.148 2578.26 263.228 2578.26 264.444 2578.26 265.525 2578.43 266.308 2578.79 266.795 2579.14 267.281 2579.69 267.524 2580.45 267.524 2581.26 267.524 2582.12 267.193 2583.04 266.531 2583.96 265.869 2585.26 264.606 2586.93 262.742L2589.24 265.012C2586.92 267.497 2584.89 269.314 2583.16 270.463 2581.43 271.611 2579.46 272.185 2577.25 272.185 2575.49 272.185 2574.08 271.557 2573.03 270.3 2571.98 269.044 2571.45 267.443 2571.45 265.498 2571.45 263.742 2571.9 261.161 2572.79 257.757L2574.57 250.746C2575.22 248.206 2575.64 246.328 2575.85 245.113 2576.05 243.897 2576.15 242.911 2576.15 242.154 2576.15 240.29 2575.84 238.946 2575.22 238.122 2574.6 237.298 2573.58 236.886 2572.18 236.886 2571.04 236.886 2569.82 237.338 2568.51 238.243 2567.2 239.148 2565.81 240.513 2564.34 242.337 2562.86 244.16 2561.68 245.93 2560.79 247.646 2559.9 249.361 2559.17 251.475 2558.6 253.988L2554.75 271.536 2547.74 271.536 2553.66 245.842C2554.25 243.248 2554.55 241.249 2554.55 239.844 2554.55 238.763 2554.37 237.98 2554.02 237.494 2553.67 237.007 2553.12 236.764 2552.36 236.764 2551.52 236.764 2550.64 237.109 2549.71 237.797 2548.77 238.486 2547.5 239.736 2545.88 241.546L2543.57 239.277C2546.05 236.683 2548.12 234.839 2549.77 233.745 2551.42 232.651 2553.28 232.103 2555.36 232.103ZM2418.76 232.103C2420.52 232.103 2422.16 232.299 2423.69 232.691 2425.21 233.083 2426.79 233.779 2428.41 234.778L2432.14 232.103 2434.73 232.752 2428.77 258.446C2428.18 261.013 2427.88 263.012 2427.88 264.444 2427.88 265.525 2428.06 266.308 2428.41 266.795 2428.76 267.281 2429.31 267.524 2430.07 267.524 2430.88 267.524 2431.74 267.193 2432.66 266.531 2433.58 265.869 2434.88 264.606 2436.55 262.742L2438.86 265.012C2436.43 267.605 2434.36 269.449 2432.64 270.544 2430.93 271.638 2429.07 272.185 2427.07 272.185 2425.39 272.185 2424.06 271.631 2423.06 270.523 2422.06 269.416 2421.56 267.943 2421.56 266.106 2421.56 264.62 2421.87 263.039 2422.49 261.364L2421.96 261.202C2419.37 264.985 2416.91 267.754 2414.59 269.51 2412.26 271.266 2409.81 272.144 2407.21 272.144 2404.24 272.144 2401.94 271.023 2400.3 268.781 2398.67 266.538 2397.85 263.391 2397.85 259.338 2397.85 254.691 2398.76 250.226 2400.59 245.943 2402.41 241.661 2404.91 238.284 2408.1 235.812 2411.29 233.339 2414.84 232.103 2418.76 232.103ZM2310.11 232.103C2313.38 232.103 2315.83 232.765 2317.47 234.089 2319.1 235.413 2319.92 237.48 2319.92 240.29 2319.92 244.883 2317.77 248.328 2313.46 250.624 2309.15 252.921 2302.75 254.069 2294.27 254.069 2293.94 255.69 2293.78 257.447 2293.78 259.338 2293.78 262.175 2294.33 264.235 2295.44 265.518 2296.55 266.802 2298.36 267.443 2300.87 267.443 2303.36 267.443 2305.61 266.903 2307.62 265.822 2309.63 264.741 2311.76 263.08 2314 260.837L2316.52 263.472C2313.89 266.363 2311.24 268.537 2308.55 269.996 2305.86 271.455 2302.74 272.185 2299.17 272.185 2295.25 272.185 2292.22 270.989 2290.07 268.598 2287.92 266.207 2286.85 262.877 2286.85 258.608 2286.85 255.717 2287.37 252.617 2288.41 249.307 2289.45 245.998 2291.02 243.026 2293.13 240.391 2295.24 237.757 2297.76 235.717 2300.71 234.272 2303.66 232.826 2306.79 232.103 2310.11 232.103ZM2360.97 231.941C2362.92 231.941 2364.32 232.448 2365.19 233.461 2366.05 234.474 2366.49 235.832 2366.49 237.534 2366.49 238.831 2366.26 240.317 2365.8 241.992 2365.34 243.667 2364.69 245.437 2363.85 247.301 2363.01 249.165 2362.01 251.077 2360.85 253.036 2359.69 254.995 2358.41 256.899 2357 258.75 2355.6 260.601 2354.1 262.344 2352.5 263.978 2350.91 265.613 2349.25 267.038 2347.54 268.254 2345.82 269.47 2344.08 270.436 2342.31 271.151 2340.54 271.867 2338.78 272.225 2337.02 272.225 2336.24 272.225 2335.58 272.03 2335.06 271.638 2334.53 271.246 2334.1 270.692 2333.78 269.976 2333.46 269.26 2333.23 268.416 2333.09 267.443 2332.96 266.471 2332.89 265.403 2332.89 264.242 2332.89 262.702 2332.98 261.053 2333.17 259.297 2333.36 257.541 2333.6 255.771 2333.9 253.988L2335.6 242.762C2335.71 242.114 2335.8 241.499 2335.87 240.918 2335.93 240.337 2335.97 239.912 2335.97 239.641 2335.97 238.804 2335.83 238.115 2335.56 237.575 2335.29 237.034 2334.83 236.764 2334.19 236.764 2333.67 236.764 2333.12 236.919 2332.52 237.23 2331.93 237.541 2331.33 237.939 2330.72 238.426 2330.11 238.912 2329.52 239.432 2328.96 239.986 2328.39 240.54 2327.86 241.06 2327.38 241.546L2325.43 239.277C2326.27 238.412 2327.16 237.554 2328.11 236.703 2329.05 235.852 2330.05 235.082 2331.1 234.393 2332.16 233.704 2333.27 233.15 2334.43 232.732 2335.59 232.313 2336.78 232.103 2337.99 232.103 2339.02 232.103 2339.86 232.272 2340.51 232.61 2341.16 232.948 2341.66 233.394 2342.03 233.947 2342.39 234.501 2342.64 235.109 2342.78 235.771 2342.91 236.433 2342.98 237.088 2342.98 237.737 2342.98 238.115 2342.97 238.48 2342.94 238.831 2342.91 239.182 2342.87 239.506 2342.82 239.804L2340.55 254.474C2340.3 256.015 2340.1 257.521 2339.94 258.993 2339.78 260.466 2339.7 261.769 2339.7 262.904 2339.7 264.039 2339.76 264.958 2339.9 265.66 2340.03 266.363 2340.29 266.714 2340.67 266.714 2341.56 266.714 2342.68 266.356 2344.03 265.64 2345.38 264.924 2346.8 263.938 2348.29 262.681 2349.77 261.425 2351.26 259.939 2352.75 258.223 2354.23 256.508 2355.57 254.65 2356.76 252.651 2357.95 250.651 2358.91 248.544 2359.66 246.328 2360.4 244.113 2360.77 241.884 2360.77 239.641 2360.77 238.669 2360.56 237.919 2360.14 237.392 2359.72 236.865 2359.07 236.602 2358.18 236.602 2357.04 236.602 2356 237.041 2355.04 237.919 2354.08 238.797 2353.08 239.952 2352.06 241.384L2349.75 239.317C2350.4 238.345 2351.16 237.412 2352.04 236.521 2352.92 235.629 2353.85 234.846 2354.83 234.17 2355.82 233.495 2356.84 232.954 2357.89 232.549 2358.95 232.144 2359.97 231.941 2360.97 231.941ZM2455.44 222.782 2461.03 222.782 2458.8 232.792 2471.12 232.792 2470.23 236.886 2457.91 236.886 2454.31 252.61C2453.6 255.663 2453.16 257.859 2452.97 259.196 2452.78 260.533 2452.68 261.607 2452.68 262.418 2452.68 265.768 2454.08 267.443 2456.86 267.443 2458.05 267.443 2459.31 266.991 2460.65 266.086 2461.99 265.18 2463.57 263.634 2465.41 261.445L2467.76 263.877C2465.41 266.714 2463.15 268.808 2460.97 270.159 2458.8 271.509 2456.52 272.185 2454.14 272.185 2448.5 272.185 2445.67 269.335 2445.67 263.634 2445.67 261.823 2445.9 259.919 2446.36 257.919L2451.14 236.886 2444.34 236.886 2444.94 234.089C2446.54 234.062 2447.75 233.941 2448.57 233.724 2449.4 233.508 2450.08 233.211 2450.64 232.833 2451.19 232.455 2451.7 231.914 2452.16 231.212 2452.62 230.509 2453.06 229.611 2453.5 228.517 2453.93 227.422 2454.58 225.511 2455.44 222.782ZM2488.32 216.906 2495.49 216.906 2493.63 224.768 2486.45 224.768ZM2383.32 216.906 2390.49 216.906 2388.63 224.768 2381.45 224.768ZM2277.47 213.582 2279.86 213.582 2269.77 258.446C2269.18 261.094 2268.88 263.093 2268.88 264.444 2268.88 265.525 2269.06 266.308 2269.41 266.795 2269.76 267.281 2270.31 267.524 2271.07 267.524 2271.88 267.524 2272.74 267.193 2273.66 266.531 2274.58 265.869 2275.88 264.606 2277.55 262.742L2279.86 265.012C2277.38 267.632 2275.28 269.483 2273.58 270.564 2271.88 271.645 2270.04 272.185 2268.07 272.185 2266.39 272.185 2265.06 271.631 2264.06 270.523 2263.06 269.416 2262.56 267.943 2262.56 266.106 2262.56 264.62 2262.87 263.039 2263.49 261.364L2262.96 261.202C2260.37 264.985 2257.91 267.754 2255.59 269.51 2253.26 271.266 2250.81 272.144 2248.21 272.144 2245.24 272.144 2242.94 271.023 2241.3 268.781 2239.67 266.538 2238.85 263.391 2238.85 259.338 2238.85 254.691 2239.76 250.226 2241.59 245.943 2243.41 241.661 2245.91 238.284 2249.1 235.812 2252.29 233.339 2255.84 232.103 2259.76 232.103 2261.41 232.103 2262.93 232.272 2264.32 232.61 2265.71 232.948 2267.14 233.535 2268.6 234.373L2270.7 225.011C2270.92 224.12 2271.11 223.133 2271.27 222.053 2271.43 220.972 2271.51 220.026 2271.51 219.216 2271.51 218.405 2271.37 217.79 2271.07 217.372 2270.77 216.953 2270.35 216.649 2269.79 216.46 2269.24 216.271 2268.25 216.136 2266.81 216.055L2267.3 213.947Z" fill-rule="evenodd"/><text fill="#000000" fill-opacity="0" font-family="Arial,Arial_MSFontService,sans-serif" font-size="58.6431" x="2238.85" y="264.895">𝑑𝑒𝑣𝑖𝑎𝑡𝑖𝑜𝑛</text><path d="M2635.78 235.386C2632.97 235.386 2630.52 236.561 2628.43 238.912 2626.33 241.263 2624.69 244.626 2623.48 249.003 2622.28 253.38 2621.68 257.149 2621.68 260.31 2621.68 263.282 2622.29 265.478 2623.52 266.896 2624.75 268.315 2626.61 269.024 2629.1 269.024 2631.74 269.024 2634.09 267.835 2636.15 265.457 2638.2 263.08 2639.82 259.75 2641.01 255.467 2642.2 251.185 2642.79 247.423 2642.79 244.181 2642.79 241.263 2642.23 239.067 2641.09 237.595 2639.96 236.122 2638.19 235.386 2635.78 235.386ZM2636.59 232.144C2640.92 232.144 2644.21 233.326 2646.48 235.69 2648.75 238.054 2649.89 241.438 2649.89 245.842 2649.89 248.976 2649.34 252.327 2648.25 255.893 2647.15 259.459 2645.65 262.458 2643.75 264.89 2641.84 267.322 2639.57 269.152 2636.92 270.381 2634.27 271.611 2631.23 272.225 2627.8 272.225 2623.61 272.225 2620.36 271.05 2618.05 268.7 2615.74 266.349 2614.59 262.972 2614.59 258.568 2614.59 256.406 2614.91 253.907 2615.56 251.07 2616.4 247.234 2617.8 243.883 2619.78 241.019 2621.75 238.155 2624.18 235.96 2627.07 234.434 2629.96 232.907 2633.14 232.144 2636.59 232.144ZM2692.31 213.339C2694.95 213.339 2697.24 213.555 2699.16 213.988L2697.57 220.877 2694.01 220.877C2693.63 219.337 2693.14 218.23 2692.53 217.554 2691.92 216.879 2691.02 216.541 2689.83 216.541 2688.29 216.541 2686.99 216.966 2685.92 217.818 2684.86 218.669 2683.94 219.932 2683.19 221.607 2682.43 223.282 2681.73 225.538 2681.08 228.375L2680.07 232.792 2690.48 232.792 2689.59 236.886 2679.14 236.886 2671.6 272.225C2670.35 278.088 2668.45 282.459 2665.88 285.336 2663.32 288.214 2660.09 289.652 2656.2 289.652 2655.06 289.652 2654.17 289.585 2653.52 289.45L2654.21 285.883C2654.48 285.964 2655.12 286.005 2656.12 286.005 2657.33 286.005 2658.37 285.694 2659.24 285.073 2660.1 284.451 2660.9 283.37 2661.65 281.83 2662.39 280.29 2663.07 278.156 2663.69 275.427L2672.41 236.886 2665.56 236.886 2666.17 234.089C2667.98 233.981 2669.28 233.833 2670.08 233.643 2670.87 233.454 2671.5 233.171 2671.94 232.792 2672.39 232.414 2672.77 231.921 2673.08 231.313 2673.39 230.705 2673.79 229.591 2674.27 227.97 2675.7 223.106 2677.91 219.452 2680.9 217.007 2683.88 214.562 2687.69 213.339 2692.31 213.339Z" fill-rule="evenodd"/><text fill="#000000" fill-opacity="0" font-family="Arial,Arial_MSFontService,sans-serif" font-size="76.313" x="2614.59" y="280.113">𝑜𝑓</text><path d="M2824.3 235.305C2821.57 235.305 2818.95 236.683 2816.42 239.439 2813.89 242.195 2811.96 245.923 2810.6 250.624 2814.41 250.597 2817.68 250.253 2820.41 249.591 2823.14 248.929 2825.24 247.875 2826.69 246.43 2828.15 244.984 2828.88 243.032 2828.88 240.574 2828.88 238.926 2828.5 237.635 2827.73 236.703 2826.96 235.771 2825.82 235.305 2824.3 235.305ZM2825.76 232.103C2829.03 232.103 2831.48 232.765 2833.12 234.089 2834.75 235.413 2835.57 237.48 2835.57 240.29 2835.57 244.883 2833.42 248.328 2829.11 250.624 2824.8 252.921 2818.4 254.069 2809.92 254.069 2809.59 255.69 2809.43 257.447 2809.43 259.338 2809.43 262.175 2809.98 264.235 2811.09 265.518 2812.2 266.802 2814.01 267.443 2816.52 267.443 2819.01 267.443 2821.26 266.903 2823.27 265.822 2825.28 264.741 2827.41 263.08 2829.65 260.837L2832.17 263.472C2829.54 266.363 2826.89 268.537 2824.2 269.996 2821.51 271.455 2818.39 272.185 2814.82 272.185 2810.9 272.185 2807.87 270.989 2805.72 268.598 2803.57 266.207 2802.5 262.877 2802.5 258.608 2802.5 255.717 2803.02 252.617 2804.06 249.307 2805.1 245.998 2806.67 243.026 2808.78 240.391 2810.89 237.757 2813.41 235.717 2816.36 234.272 2819.3 232.826 2822.44 232.103 2825.76 232.103ZM2736.09 222.782 2741.68 222.782 2739.45 232.792 2751.77 232.792 2750.88 236.886 2738.56 236.886 2734.96 252.61C2734.25 255.663 2733.81 257.859 2733.62 259.196 2733.43 260.533 2733.33 261.607 2733.33 262.418 2733.33 265.768 2734.73 267.443 2737.51 267.443 2738.7 267.443 2739.96 266.991 2741.3 266.086 2742.64 265.18 2744.22 263.634 2746.06 261.445L2748.41 263.877C2746.06 266.714 2743.8 268.808 2741.62 270.159 2739.45 271.509 2737.17 272.185 2734.79 272.185 2729.15 272.185 2726.32 269.335 2726.32 263.634 2726.32 261.823 2726.55 259.919 2727.01 257.919L2731.79 236.886 2724.99 236.886 2725.59 234.089C2727.19 234.062 2728.4 233.941 2729.22 233.724 2730.04 233.508 2730.73 233.211 2731.29 232.833 2731.84 232.455 2732.35 231.914 2732.81 231.212 2733.27 230.509 2733.71 229.611 2734.15 228.517 2734.58 227.422 2735.23 225.511 2736.09 222.782ZM2774.36 213.582 2776.71 213.582 2769.74 241.668 2770.23 241.83C2772.79 238.426 2775.22 235.96 2777.5 234.434 2779.78 232.907 2782.09 232.144 2784.41 232.144 2786.92 232.144 2788.85 232.867 2790.21 234.312 2791.56 235.758 2792.23 237.764 2792.23 240.33 2792.23 242.033 2791.84 244.451 2791.06 247.585L2788.42 258.203C2787.69 261.148 2787.33 263.228 2787.33 264.444 2787.33 265.525 2787.5 266.308 2787.85 266.795 2788.21 267.281 2788.76 267.524 2789.52 267.524 2790.33 267.524 2791.19 267.193 2792.11 266.531 2793.03 265.869 2794.33 264.606 2796 262.742L2798.31 265.012C2795.72 267.74 2793.59 269.618 2791.93 270.645 2790.27 271.672 2788.39 272.185 2786.31 272.185 2784.56 272.185 2783.16 271.564 2782.12 270.321 2781.08 269.078 2780.56 267.47 2780.56 265.498 2780.56 263.742 2781.01 261.161 2781.9 257.757L2783.64 250.746C2784.26 248.233 2784.68 246.349 2784.9 245.092 2785.11 243.836 2785.22 242.857 2785.22 242.154 2785.22 240.236 2784.91 238.878 2784.29 238.081 2783.67 237.284 2782.65 236.886 2781.25 236.886 2780.14 236.886 2778.91 237.345 2777.56 238.264 2776.21 239.182 2774.79 240.58 2773.31 242.458 2771.82 244.336 2770.64 246.133 2769.76 247.848 2768.88 249.564 2768.19 251.611 2767.67 253.988L2763.98 271.536 2756.97 271.536 2767.39 225.214C2768.04 222.323 2768.36 220.323 2768.36 219.216 2768.36 218.081 2768.02 217.284 2767.33 216.825 2766.64 216.365 2765.4 216.109 2763.62 216.055L2764.11 213.947Z" fill-rule="evenodd"/><text fill="#000000" fill-opacity="0" font-family="Arial,Arial_MSFontService,sans-serif" font-size="58.6025" x="2724.99" y="264.86">𝑡ℎ𝑒</text><path d="M2956.21 235.386C2953.4 235.386 2950.95 236.561 2948.85 238.912 2946.76 241.263 2945.11 244.626 2943.91 249.003 2942.71 253.38 2942.1 257.149 2942.1 260.31 2942.1 263.282 2942.72 265.478 2943.95 266.896 2945.18 268.315 2947.04 269.024 2949.52 269.024 2952.17 269.024 2954.52 267.835 2956.57 265.457 2958.63 263.08 2960.25 259.75 2961.44 255.467 2962.62 251.185 2963.22 247.423 2963.22 244.181 2963.22 241.263 2962.65 239.067 2961.52 237.595 2960.38 236.122 2958.61 235.386 2956.21 235.386ZM2977.23 232.792 2987.85 232.792 2990.28 264.768C2994.09 258.554 2996.84 253.826 2998.53 250.584 3000.22 247.342 3001.46 244.539 3002.28 242.174 3003.09 239.81 3003.71 237.345 3004.14 234.778L3004.59 232.792 3010.42 232.792 3013.38 264.809C3017.59 258.811 3020.8 253.576 3023 249.105 3025.21 244.633 3026.31 240.992 3026.31 238.182 3026.31 236.913 3026.04 236.048 3025.5 235.589 3024.96 235.129 3024.04 234.859 3022.74 234.778L3023.15 232.792 3033.6 232.792 3034.7 234.819C3033.75 237.223 3032.99 239.074 3032.43 240.371 3031.86 241.668 3031.12 243.228 3030.2 245.052 3029.28 246.876 3028.31 248.693 3027.28 250.503 3026.25 252.313 3025.04 254.306 3023.65 256.481 3022.26 258.656 3020.7 261.02 3018.97 263.573 3017.24 266.126 3015.2 268.997 3012.85 272.185L3008.03 272.185 3006.37 255.245C3006.23 253.921 3006.09 252.191 3005.94 250.057 3005.79 247.923 3005.69 246.274 3005.64 245.113L3005.19 245.072C3003.73 248.666 3001.75 252.664 2999.24 257.068 2996.72 261.472 2993.62 266.511 2989.91 272.185L2984.48 272.185 2981.4 241.668C2981.24 240.101 2981.04 238.831 2980.8 237.858 2980.55 236.886 2980.15 236.156 2979.58 235.67 2979.01 235.183 2978.08 234.886 2976.78 234.778ZM2957.02 232.144C2961.34 232.144 2964.64 233.326 2966.91 235.69 2969.18 238.054 2970.31 241.438 2970.31 245.842 2970.31 248.976 2969.76 252.327 2968.67 255.893 2967.58 259.459 2966.08 262.458 2964.17 264.89 2962.27 267.322 2959.99 269.152 2957.34 270.381 2954.7 271.611 2951.66 272.225 2948.22 272.225 2944.04 272.225 2940.79 271.05 2938.48 268.7 2936.17 266.349 2935.01 262.972 2935.01 258.568 2935.01 256.406 2935.34 253.907 2935.99 251.07 2936.82 247.234 2938.23 243.883 2940.2 241.019 2942.17 238.155 2944.6 235.96 2947.49 234.434 2950.39 232.907 2953.56 232.144 2957.02 232.144ZM2925.43 213.582 2927.82 213.582 2917.85 258.446C2917.25 261.121 2916.96 263.12 2916.96 264.444 2916.96 265.525 2917.13 266.308 2917.48 266.795 2917.83 267.281 2918.39 267.524 2919.14 267.524 2919.95 267.524 2920.82 267.193 2921.74 266.531 2922.66 265.869 2923.95 264.606 2925.63 262.742L2927.94 265.012C2925.32 267.767 2923.18 269.652 2921.52 270.665 2919.85 271.678 2918 272.185 2915.94 272.185 2914.19 272.185 2912.78 271.543 2911.73 270.26 2910.67 268.977 2910.15 267.335 2910.15 265.336 2910.15 263.526 2910.53 260.905 2911.28 257.474L2918.54 225.011C2918.86 223.579 2919.09 222.438 2919.23 221.587 2919.36 220.735 2919.43 219.945 2919.43 219.216 2919.43 218.405 2919.28 217.79 2918.98 217.372 2918.69 216.953 2918.26 216.649 2917.71 216.46 2917.15 216.271 2916.16 216.136 2914.73 216.055L2915.21 213.947ZM2897.73 213.339C2900.38 213.339 2902.66 213.555 2904.58 213.988L2903 220.877 2899.43 220.877C2899.06 219.337 2898.56 218.23 2897.95 217.554 2897.35 216.879 2896.45 216.541 2895.26 216.541 2893.72 216.541 2892.42 216.966 2891.35 217.818 2890.28 218.669 2889.37 219.932 2888.61 221.607 2887.86 223.282 2887.15 225.538 2886.51 228.375L2885.49 232.792 2895.91 232.792 2895.02 236.886 2884.56 236.886 2877.02 272.225C2875.78 278.088 2873.87 282.459 2871.31 285.336 2868.74 288.214 2865.51 289.652 2861.62 289.652 2860.49 289.652 2859.59 289.585 2858.95 289.45L2859.64 285.883C2859.91 285.964 2860.54 286.005 2861.54 286.005 2862.76 286.005 2863.8 285.694 2864.66 285.073 2865.53 284.451 2866.33 283.37 2867.07 281.83 2867.82 280.29 2868.5 278.156 2869.12 275.427L2877.83 236.886 2870.98 236.886 2871.59 234.089C2873.4 233.981 2874.7 233.833 2875.5 233.643 2876.3 233.454 2876.92 233.171 2877.37 232.792 2877.81 232.414 2878.19 231.921 2878.5 231.313 2878.81 230.705 2879.21 229.591 2879.7 227.97 2881.13 223.106 2883.34 219.452 2886.32 217.007 2889.31 214.562 2893.11 213.339 2897.73 213.339Z" fill-rule="evenodd"/><text fill="#000000" fill-opacity="0" font-family="Arial,Arial_MSFontService,sans-serif" font-size="76.313" x="2858.95" y="280.113">𝑓𝑙𝑜𝑤</text><path d="M0.655969-0.939489 411.852 286.165 410.54 288.044-0.655969 0.939489ZM415.31 273.207 429.986 300.224 399.567 295.755Z" transform="matrix(1 0 0 -1 959 846.224)"/><path d="M0.655969-0.939489 411.852 286.165 410.54 288.044-0.655969 0.939489ZM415.31 273.207 429.986 300.224 399.567 295.755Z" transform="matrix(1 0 0 -1 1014 901.224)"/><path d="M0.655969-0.939489 411.852 286.165 410.54 288.044-0.655969 0.939489ZM415.31 273.207 429.986 300.224 399.567 295.755Z" transform="matrix(1 0 0 -1 1069 956.224)"/><path d="M0.655969-0.939489 411.852 286.165 410.54 288.044-0.655969 0.939489ZM415.31 273.207 429.986 300.224 399.567 295.755Z" transform="matrix(1 0 0 -1 1124 1011.22)"/><path d="M0.655969-0.939489 411.852 286.165 410.54 288.044-0.655969 0.939489ZM415.31 273.207 429.986 300.224 399.567 295.755Z" transform="matrix(1 0 0 -1 1179 1066.22)"/><path d="M0.655969-0.939489 411.852 286.165 410.54 288.044-0.655969 0.939489ZM415.31 273.207 429.986 300.224 399.567 295.755Z" transform="matrix(1 0 0 -1 1234 1121.22)"/><path d="M0.655969-0.939489 411.852 286.165 410.54 288.044-0.655969 0.939489ZM415.31 273.207 429.986 300.224 399.567 295.755Z" transform="matrix(1 0 0 -1 1289 1176.22)"/><path d="M0.655969-0.939489 411.852 286.165 410.54 288.044-0.655969 0.939489ZM415.31 273.207 429.986 300.224 399.567 295.755Z" transform="matrix(1 0 0 -1 1344 1231.22)"/><path d="M0.655969-0.939489 411.852 286.165 410.54 288.044-0.655969 0.939489ZM415.31 273.207 429.986 300.224 399.567 295.755Z" transform="matrix(1 0 0 -1 1399 1286.22)"/><path d="M0.655969-0.939489 411.852 286.165 410.54 288.044-0.655969 0.939489ZM415.31 273.207 429.986 300.224 399.567 295.755Z" transform="matrix(-0.194391 0.980924 0.980924 0.194391 3022.36 1483.09)"/><path d="M0.655969-0.939489 411.852 286.165 410.54 288.044-0.655969 0.939489ZM415.31 273.207 429.986 300.224 399.567 295.755Z" transform="matrix(-0.194391 0.980924 0.980924 0.194391 2957.71 1526.35)"/><path d="M0.655969-0.939489 411.852 286.165 410.54 288.044-0.655969 0.939489ZM415.31 273.207 429.986 300.224 399.567 295.755Z" transform="matrix(-0.194391 0.980924 0.980924 0.194391 2893.07 1569.61)"/><path d="M0.655969-0.939489 411.852 286.165 410.54 288.044-0.655969 0.939489ZM415.31 273.207 429.986 300.224 399.567 295.755Z" transform="matrix(-0.194391 0.980924 0.980924 0.194391 2828.43 1612.87)"/><path d="M0.655969-0.939489 411.852 286.165 410.54 288.044-0.655969 0.939489ZM415.31 273.207 429.986 300.224 399.567 295.755Z" transform="matrix(-0.194391 0.980924 0.980924 0.194391 2763.79 1656.13)"/><path d="M0.655969-0.939489 411.852 286.165 410.54 288.044-0.655969 0.939489ZM415.31 273.207 429.986 300.224 399.567 295.755Z" transform="matrix(-0.194391 0.980924 0.980924 0.194391 2699.14 1699.39)"/><path d="M0.655969-0.939489 411.852 286.165 410.54 288.044-0.655969 0.939489ZM415.31 273.207 429.986 300.224 399.567 295.755Z" transform="matrix(-0.194391 0.980924 0.980924 0.194391 2634.5 1742.64)"/><path d="M0.655969-0.939489 411.852 286.165 410.54 288.044-0.655969 0.939489ZM415.31 273.207 429.986 300.224 399.567 295.755Z" transform="matrix(-0.194391 0.980924 0.980924 0.194391 2569.86 1785.9)"/><path d="M0.655969-0.939489 411.852 286.165 410.54 288.044-0.655969 0.939489ZM415.31 273.207 429.986 300.224 399.567 295.755Z" transform="matrix(-0.194391 0.980924 0.980924 0.194391 2505.22 1829.16)"/><path d="M0.655969-0.939489 411.852 286.165 410.54 288.044-0.655969 0.939489ZM415.31 273.207 429.986 300.224 399.567 295.755Z" transform="matrix(-0.194391 0.980924 0.980924 0.194391 2440.58 1872.42)"/><path d="M605.173 1242.72C602.363 1242.72 599.911 1243.9 597.817 1246.25 595.723 1248.6 594.075 1251.96 592.872 1256.34 591.67 1260.72 591.069 1264.49 591.069 1267.65 591.069 1270.62 591.684 1272.81 592.913 1274.23 594.142 1275.65 596 1276.36 598.486 1276.36 601.133 1276.36 603.484 1275.17 605.537 1272.79 607.591 1270.42 609.212 1267.09 610.401 1262.8 611.589 1258.52 612.184 1254.76 612.184 1251.52 612.184 1248.6 611.616 1246.4 610.482 1244.93 609.347 1243.46 607.577 1242.72 605.173 1242.72ZM797.522 1242.64C794.766 1242.64 792.294 1243.76 790.106 1245.98 787.917 1248.21 786.195 1251.22 784.938 1255 783.682 1258.78 783.054 1262.55 783.054 1266.31 783.054 1269.12 783.459 1271.22 784.27 1272.61 785.08 1274 786.35 1274.7 788.079 1274.7 789.457 1274.7 790.828 1274.23 792.193 1273.28 793.557 1272.33 795.016 1270.83 796.57 1268.78 798.123 1266.73 799.332 1264.77 800.197 1262.9 801.062 1261.04 801.798 1258.72 802.406 1255.93 803.014 1253.15 803.318 1250.73 803.318 1248.68 803.318 1246.57 802.872 1245.04 801.98 1244.08 801.089 1243.12 799.603 1242.64 797.522 1242.64ZM709.338 1239.76 711.729 1239.76 705.893 1265.78C705.298 1268.43 705.001 1270.43 705.001 1271.78 705.001 1272.86 705.177 1273.64 705.528 1274.13 705.879 1274.62 706.433 1274.86 707.19 1274.86 708 1274.86 708.865 1274.53 709.783 1273.87 710.702 1273.21 711.999 1271.94 713.674 1270.08L715.984 1272.35C713.336 1275.13 711.188 1277.02 709.54 1278.02 707.892 1279.02 706.041 1279.52 703.988 1279.52 702.232 1279.52 700.827 1278.88 699.773 1277.6 698.719 1276.31 698.193 1274.67 698.193 1272.67 698.193 1270.62 698.571 1268 699.327 1264.81L702.367 1251.56C702.988 1248.86 703.299 1246.83 703.299 1245.48 703.299 1244.26 703.009 1243.44 702.428 1243.01 701.847 1242.57 700.705 1242.33 699.003 1242.28L699.449 1240.13ZM605.983 1239.48C610.306 1239.48 613.602 1240.66 615.872 1243.03 618.141 1245.39 619.276 1248.77 619.276 1253.18 619.276 1256.31 618.729 1259.66 617.635 1263.23 616.54 1266.8 615.041 1269.79 613.136 1272.23 611.231 1274.66 608.955 1276.49 606.307 1277.72 603.66 1278.95 600.62 1279.56 597.189 1279.56 593.001 1279.56 589.752 1278.39 587.442 1276.04 585.132 1273.68 583.977 1270.31 583.977 1265.9 583.977 1263.74 584.301 1261.24 584.949 1258.41 585.787 1254.57 587.192 1251.22 589.164 1248.36 591.137 1245.49 593.568 1243.3 596.459 1241.77 599.35 1240.24 602.525 1239.48 605.983 1239.48ZM568.348 1239.48C571.941 1239.48 575.251 1239.89 578.277 1240.7L576.291 1249.85 572.036 1249.85C571.982 1247.8 571.813 1246.32 571.529 1245.4 571.246 1244.48 570.786 1243.79 570.151 1243.33 569.516 1242.87 568.618 1242.64 567.456 1242.64 564.727 1242.64 562.276 1243.73 560.101 1245.9 557.926 1248.08 556.149 1251.16 554.771 1255.14 553.393 1259.13 552.704 1262.96 552.704 1266.63 552.704 1269.39 553.245 1271.44 554.325 1272.77 555.406 1274.11 557.027 1274.78 559.189 1274.78 561.647 1274.78 563.775 1274.31 565.572 1273.38 567.368 1272.45 569.266 1270.98 571.266 1268.98L573.738 1271.46C571.198 1274.27 568.638 1276.32 566.058 1277.62 563.478 1278.91 560.702 1279.56 557.73 1279.56 553.812 1279.56 550.84 1278.4 548.814 1276.08 546.787 1273.75 545.774 1270.38 545.774 1265.94 545.774 1263.05 546.315 1259.88 547.395 1256.42 548.476 1252.96 550.057 1249.92 552.137 1247.3 554.217 1244.68 556.649 1242.72 559.432 1241.43 562.215 1240.13 565.187 1239.48 568.348 1239.48ZM796.874 1239.44C798.576 1239.44 800.183 1239.64 801.696 1240.05 803.209 1240.45 804.736 1241.14 806.276 1242.11L810.005 1239.44 812.598 1240.09 808.424 1258.97C808.127 1260.3 807.451 1263.63 806.398 1268.98 805.29 1274.66 804.392 1278.67 803.703 1281.02 803.014 1283.37 802.156 1285.51 801.129 1287.44 800.102 1289.38 798.779 1291.06 797.157 1292.49 795.536 1293.92 793.571 1295.03 791.261 1295.81 788.951 1296.6 786.215 1296.99 783.054 1296.99 772.841 1296.99 767.735 1294.02 767.735 1288.07 767.735 1286.56 768.194 1285.18 769.112 1283.94 770.031 1282.7 771.504 1281.39 773.53 1280.01L776.448 1282.36C775.935 1282.98 775.502 1283.59 775.151 1284.2 774.8 1284.81 774.55 1285.4 774.401 1285.96 774.253 1286.53 774.178 1287.21 774.178 1287.99 774.178 1290.02 774.908 1291.5 776.367 1292.43 777.826 1293.36 780.028 1293.83 782.973 1293.83 786.296 1293.83 788.964 1293.08 790.977 1291.58 792.99 1290.08 794.712 1287.67 796.144 1284.34 797.576 1281.02 798.968 1275.99 800.319 1269.27L799.751 1269.15C797.13 1272.74 794.699 1275.36 792.456 1277.01 790.214 1278.66 787.796 1279.48 785.202 1279.48 782.257 1279.48 779.967 1278.37 778.332 1276.16 776.698 1273.94 775.881 1270.78 775.881 1266.67 775.881 1262.05 776.786 1257.62 778.596 1253.36 780.406 1249.1 782.919 1245.72 786.134 1243.21 789.349 1240.7 792.929 1239.44 796.874 1239.44ZM732.285 1239.44C733.987 1239.44 735.331 1240 736.317 1241.12 737.303 1242.24 737.797 1243.71 737.797 1245.52 737.797 1246.95 737.472 1248.54 736.824 1250.3L737.31 1250.46C739.958 1246.73 742.477 1243.97 744.869 1242.17 747.26 1240.38 749.725 1239.48 752.265 1239.48 754.778 1239.48 756.709 1240.2 758.06 1241.65 759.411 1243.09 760.087 1245.1 760.087 1247.67 760.087 1249.37 759.695 1251.79 758.911 1254.92L756.277 1265.54C755.548 1268.48 755.183 1270.56 755.183 1271.78 755.183 1272.86 755.358 1273.64 755.71 1274.13 756.061 1274.62 756.615 1274.86 757.371 1274.86 758.182 1274.86 759.046 1274.53 759.965 1273.87 760.884 1273.21 762.181 1271.94 763.856 1270.08L766.166 1272.35C763.842 1274.83 761.816 1276.65 760.087 1277.8 758.357 1278.95 756.385 1279.52 754.17 1279.52 752.413 1279.52 751.008 1278.89 749.955 1277.64 748.901 1276.38 748.374 1274.78 748.374 1272.83 748.374 1271.08 748.82 1268.5 749.712 1265.09L751.495 1258.08C752.143 1255.54 752.569 1253.66 752.771 1252.45 752.974 1251.23 753.075 1250.25 753.075 1249.49 753.075 1247.63 752.765 1246.28 752.143 1245.46 751.522 1244.63 750.509 1244.22 749.104 1244.22 747.969 1244.22 746.746 1244.67 745.436 1245.58 744.126 1246.48 742.734 1247.85 741.262 1249.67 739.789 1251.5 738.607 1253.27 737.716 1254.98 736.824 1256.7 736.094 1258.81 735.527 1261.32L731.677 1278.87 724.666 1278.87 730.583 1253.18C731.177 1250.58 731.474 1248.58 731.474 1247.18 731.474 1246.1 731.299 1245.32 730.947 1244.83 730.596 1244.34 730.042 1244.1 729.286 1244.1 728.448 1244.1 727.563 1244.44 726.631 1245.13 725.699 1245.82 724.423 1247.07 722.801 1248.88L720.491 1246.61C722.977 1244.02 725.044 1242.17 726.692 1241.08 728.34 1239.99 730.204 1239.44 732.285 1239.44ZM636.285 1239.44C637.987 1239.44 639.331 1240 640.317 1241.12 641.304 1242.24 641.797 1243.71 641.797 1245.52 641.797 1247 641.486 1248.58 640.864 1250.26L641.351 1250.42C643.836 1246.72 646.309 1243.97 648.767 1242.17 651.226 1240.38 653.712 1239.48 656.224 1239.48 658.818 1239.48 660.79 1240.22 662.141 1241.69 663.492 1243.16 664.168 1245.29 664.168 1248.07L664.168 1248.64C664.168 1248.83 664.154 1249.03 664.127 1249.25 666.451 1245.95 668.768 1243.5 671.078 1241.89 673.388 1240.28 675.786 1239.48 678.271 1239.48 680.757 1239.48 682.675 1240.2 684.026 1241.63 685.377 1243.06 686.052 1245.07 686.052 1247.67 686.052 1249.37 685.661 1251.79 684.877 1254.92L682.243 1265.54C681.513 1268.48 681.149 1270.56 681.149 1271.78 681.149 1272.86 681.324 1273.64 681.675 1274.13 682.027 1274.62 682.581 1274.86 683.337 1274.86 684.148 1274.86 685.012 1274.53 685.931 1273.87 686.849 1273.21 688.146 1271.94 689.821 1270.08L692.132 1272.35C689.808 1274.81 687.782 1276.62 686.052 1277.78 684.323 1278.94 682.351 1279.52 680.135 1279.52 678.379 1279.52 676.974 1278.89 675.921 1277.64 674.867 1276.38 674.34 1274.78 674.34 1272.83 674.34 1271.08 674.786 1268.5 675.677 1265.09L677.461 1258.08C678.109 1255.54 678.535 1253.66 678.737 1252.45 678.94 1251.23 679.041 1250.25 679.041 1249.49 679.041 1247.63 678.731 1246.28 678.109 1245.46 677.488 1244.63 676.474 1244.22 675.07 1244.22 673.935 1244.22 672.719 1244.65 671.422 1245.5 670.125 1246.35 668.761 1247.67 667.329 1249.47 665.897 1251.27 664.728 1253.04 663.823 1254.78 662.918 1256.52 662.195 1258.65 661.655 1261.16L657.967 1278.87 650.956 1278.87 655.616 1258.28C656.184 1255.77 656.569 1253.91 656.771 1252.71 656.974 1251.51 657.075 1250.48 657.075 1249.61 657.075 1247.67 656.731 1246.28 656.042 1245.46 655.353 1244.63 654.279 1244.22 652.82 1244.22 651.793 1244.22 650.625 1244.65 649.314 1245.5 648.004 1246.35 646.606 1247.71 645.12 1249.59 643.634 1251.47 642.472 1253.27 641.634 1255 640.797 1256.73 640.094 1258.84 639.527 1261.32L635.677 1278.87 628.666 1278.87 634.583 1253.18C635.177 1250.58 635.474 1248.58 635.474 1247.18 635.474 1246.1 635.299 1245.32 634.947 1244.83 634.596 1244.34 634.042 1244.1 633.286 1244.1 632.448 1244.1 631.563 1244.44 630.631 1245.13 629.699 1245.82 628.423 1247.07 626.801 1248.88L624.491 1246.61C626.869 1244.13 628.916 1242.31 630.631 1241.16 632.347 1240.01 634.232 1239.44 636.285 1239.44ZM507.285 1239.44C508.987 1239.44 510.331 1240 511.317 1241.12 512.304 1242.24 512.797 1243.71 512.797 1245.52 512.797 1246.95 512.472 1248.54 511.824 1250.3L512.31 1250.46C514.958 1246.73 517.478 1243.97 519.869 1242.17 522.26 1240.38 524.725 1239.48 527.265 1239.48 529.778 1239.48 531.709 1240.2 533.06 1241.65 534.411 1243.09 535.087 1245.1 535.087 1247.67 535.087 1249.37 534.695 1251.79 533.911 1254.92L531.277 1265.54C530.548 1268.48 530.183 1270.56 530.183 1271.78 530.183 1272.86 530.358 1273.64 530.71 1274.13 531.061 1274.62 531.615 1274.86 532.371 1274.86 533.182 1274.86 534.046 1274.53 534.965 1273.87 535.884 1273.21 537.181 1271.94 538.856 1270.08L541.166 1272.35C538.842 1274.83 536.816 1276.65 535.087 1277.8 533.357 1278.95 531.385 1279.52 529.17 1279.52 527.413 1279.52 526.009 1278.89 524.955 1277.64 523.901 1276.38 523.374 1274.78 523.374 1272.83 523.374 1271.08 523.82 1268.5 524.712 1265.09L526.495 1258.08C527.143 1255.54 527.569 1253.66 527.771 1252.45 527.974 1251.23 528.075 1250.25 528.075 1249.49 528.075 1247.63 527.765 1246.28 527.143 1245.46 526.522 1244.63 525.509 1244.22 524.104 1244.22 522.969 1244.22 521.746 1244.67 520.436 1245.58 519.126 1246.48 517.734 1247.85 516.262 1249.67 514.789 1251.5 513.607 1253.27 512.716 1254.98 511.824 1256.7 511.094 1258.81 510.527 1261.32L506.677 1278.87 499.666 1278.87 505.583 1253.18C506.177 1250.58 506.474 1248.58 506.474 1247.18 506.474 1246.1 506.299 1245.32 505.947 1244.83 505.596 1244.34 505.042 1244.1 504.286 1244.1 503.448 1244.1 502.563 1244.44 501.631 1245.13 500.699 1245.82 499.423 1247.07 497.801 1248.88L495.491 1246.61C497.977 1244.02 500.044 1242.17 501.692 1241.08 503.34 1239.99 505.204 1239.44 507.285 1239.44ZM708.243 1224.24 715.417 1224.24 713.552 1232.1 706.379 1232.1ZM475.447 1223.55 491.658 1223.55 491.212 1225.54C490.185 1225.75 489.449 1226 489.003 1226.27 488.558 1226.54 488.159 1226.94 487.808 1227.48 487.457 1228.02 487.092 1228.87 486.714 1230.02 486.335 1231.16 485.863 1233.04 485.295 1235.63L478.365 1267.08C478.014 1268.67 477.784 1269.94 477.676 1270.87 477.568 1271.8 477.514 1272.64 477.514 1273.4 477.514 1274.62 477.818 1275.47 478.426 1275.97 479.034 1276.47 480.054 1276.78 481.486 1276.89L481.04 1278.87 464.829 1278.87 465.275 1276.89C466.301 1276.72 467.071 1276.46 467.585 1276.1 468.098 1275.73 468.53 1275.22 468.882 1274.58 469.233 1273.93 469.557 1273.14 469.854 1272.21 470.151 1271.27 470.597 1269.47 471.192 1266.8L478.081 1235.59C478.676 1232.89 478.973 1230.71 478.973 1229.06 478.973 1227.79 478.655 1226.91 478.02 1226.41 477.386 1225.91 476.379 1225.62 475.001 1225.54Z" fill-rule="evenodd"/><text fill="#000000" fill-opacity="0" font-family="Arial,Arial_MSFontService,sans-serif" font-size="73.4355" x="464.829" y="1287.81">𝐼𝑛𝑐𝑜𝑚𝑖𝑛𝑔</text><path d="M933.562 1242.72C930.752 1242.72 928.3 1243.9 926.206 1246.25 924.112 1248.6 922.464 1251.96 921.262 1256.34 920.06 1260.72 919.459 1264.49 919.459 1267.65 919.459 1270.62 920.073 1272.81 921.303 1274.23 922.532 1275.65 924.389 1276.36 926.875 1276.36 929.523 1276.36 931.873 1275.17 933.927 1272.79 935.98 1270.42 937.601 1267.09 938.79 1262.8 939.979 1258.52 940.573 1254.76 940.573 1251.52 940.573 1248.6 940.006 1246.4 938.871 1244.93 937.736 1243.46 935.967 1242.72 933.562 1242.72ZM954.583 1240.13 965.201 1240.13 967.633 1272.1C971.443 1265.89 974.192 1261.16 975.88 1257.92 977.569 1254.68 978.818 1251.87 979.629 1249.51 980.44 1247.15 981.061 1244.68 981.493 1242.11L981.939 1240.13 987.775 1240.13 990.734 1272.14C994.948 1266.15 998.157 1260.91 1000.36 1256.44 1002.56 1251.97 1003.66 1248.33 1003.66 1245.52 1003.66 1244.25 1003.39 1243.38 1002.85 1242.92 1002.31 1242.47 1001.39 1242.2 1000.1 1242.11L1000.5 1240.13 1010.96 1240.13 1012.05 1242.15C1011.11 1244.56 1010.35 1246.41 1009.78 1247.71 1009.21 1249 1008.47 1250.56 1007.55 1252.39 1006.63 1254.21 1005.66 1256.03 1004.63 1257.84 1003.61 1259.65 1002.4 1261.64 1001.01 1263.82 999.616 1265.99 998.055 1268.36 996.326 1270.91 994.597 1273.46 992.557 1276.33 990.207 1279.52L985.384 1279.52 983.722 1262.58C983.587 1261.26 983.445 1259.53 983.297 1257.39 983.148 1255.26 983.047 1253.61 982.993 1252.45L982.547 1252.41C981.088 1256 979.102 1260 976.589 1264.4 974.077 1268.81 970.97 1273.85 967.268 1279.52L961.838 1279.52 958.757 1249C958.595 1247.44 958.393 1246.17 958.15 1245.19 957.906 1244.22 957.501 1243.49 956.934 1243.01 956.366 1242.52 955.434 1242.22 954.137 1242.11ZM934.373 1239.48C938.696 1239.48 941.992 1240.66 944.261 1243.03 946.531 1245.39 947.666 1248.77 947.666 1253.18 947.666 1256.31 947.119 1259.66 946.024 1263.23 944.93 1266.8 943.431 1269.79 941.526 1272.23 939.621 1274.66 937.345 1276.49 934.697 1277.72 932.049 1278.95 929.01 1279.56 925.578 1279.56 921.39 1279.56 918.141 1278.39 915.831 1276.04 913.521 1273.68 912.366 1270.31 912.366 1265.9 912.366 1263.74 912.691 1261.24 913.339 1258.41 914.177 1254.57 915.581 1251.22 917.554 1248.36 919.526 1245.49 921.958 1243.3 924.849 1241.77 927.74 1240.24 930.914 1239.48 934.373 1239.48ZM902.78 1220.92 905.171 1220.92 895.201 1265.78C894.607 1268.46 894.31 1270.46 894.31 1271.78 894.31 1272.86 894.485 1273.64 894.837 1274.13 895.188 1274.62 895.742 1274.86 896.498 1274.86 897.309 1274.86 898.173 1274.53 899.092 1273.87 900.011 1273.21 901.307 1271.94 902.983 1270.08L905.293 1272.35C902.672 1275.1 900.531 1276.99 898.869 1278 897.207 1279.01 895.35 1279.52 893.297 1279.52 891.54 1279.52 890.135 1278.88 889.082 1277.6 888.028 1276.31 887.501 1274.67 887.501 1272.67 887.501 1270.86 887.879 1268.24 888.636 1264.81L895.89 1232.35C896.214 1230.91 896.444 1229.77 896.579 1228.92 896.714 1228.07 896.782 1227.28 896.782 1226.55 896.782 1225.74 896.633 1225.13 896.336 1224.71 896.039 1224.29 895.613 1223.98 895.059 1223.8 894.506 1223.61 893.513 1223.47 892.081 1223.39L892.567 1221.28ZM875.085 1220.68C877.733 1220.68 880.016 1220.89 881.934 1221.32L880.354 1228.21 876.787 1228.21C876.409 1226.67 875.916 1225.57 875.308 1224.89 874.7 1224.21 873.802 1223.88 872.613 1223.88 871.073 1223.88 869.769 1224.3 868.702 1225.15 867.635 1226 866.723 1227.27 865.966 1228.94 865.21 1230.62 864.507 1232.87 863.859 1235.71L862.846 1240.13 873.261 1240.13 872.37 1244.22 861.914 1244.22 854.376 1279.56C853.133 1285.42 851.228 1289.79 848.661 1292.67 846.095 1295.55 842.866 1296.99 838.975 1296.99 837.84 1296.99 836.949 1296.92 836.3 1296.79L836.989 1293.22C837.26 1293.3 837.894 1293.34 838.894 1293.34 840.11 1293.34 841.15 1293.03 842.015 1292.41 842.879 1291.79 843.683 1290.71 844.426 1289.17 845.169 1287.63 845.851 1285.49 846.473 1282.76L855.186 1244.22 848.337 1244.22 848.945 1241.43C850.755 1241.32 852.059 1241.17 852.856 1240.98 853.653 1240.79 854.274 1240.51 854.72 1240.13 855.166 1239.75 855.544 1239.26 855.855 1238.65 856.166 1238.04 856.564 1236.93 857.05 1235.31 858.482 1230.44 860.691 1226.79 863.677 1224.34 866.662 1221.9 870.465 1220.68 875.085 1220.68Z" fill-rule="evenodd"/><text fill="#000000" fill-opacity="0" font-family="Arial,Arial_MSFontService,sans-serif" font-size="76.313" x="836.3" y="1287.45">𝑓𝑙𝑜𝑤</text><path d="M3357.62 2250.11C3354.86 2250.11 3352.39 2251.22 3350.2 2253.45 3348.01 2255.68 3346.29 2258.69 3345.04 2262.47 3343.78 2266.25 3343.15 2270.02 3343.15 2273.78 3343.15 2276.59 3343.54 2278.69 3344.31 2280.08 3345.08 2281.47 3346.37 2282.17 3348.18 2282.17 3349.01 2282.17 3349.87 2281.98 3350.73 2281.62 3351.59 2281.25 3352.49 2280.67 3353.43 2279.86 3354.36 2279.05 3355.28 2278.06 3356.18 2276.9 3357.09 2275.74 3357.92 2274.57 3358.67 2273.39 3359.43 2272.22 3360.13 2270.83 3360.78 2269.22 3361.43 2267.61 3361.98 2265.67 3362.44 2263.4L3362.81 2261.66C3363.21 2259.71 3363.42 2257.88 3363.42 2256.15 3363.42 2254.04 3362.97 2252.51 3362.08 2251.55 3361.19 2250.59 3359.7 2250.11 3357.62 2250.11ZM3316.78 2250.11C3314.05 2250.11 3311.43 2251.49 3308.9 2254.24 3306.37 2257 3304.43 2260.73 3303.08 2265.43 3306.89 2265.4 3310.16 2265.06 3312.89 2264.4 3315.62 2263.73 3317.71 2262.68 3319.17 2261.23 3320.63 2259.79 3321.36 2257.84 3321.36 2255.38 3321.36 2253.73 3320.98 2252.44 3320.21 2251.51 3319.44 2250.58 3318.29 2250.11 3316.78 2250.11ZM3205.78 2250.11C3203.05 2250.11 3200.43 2251.49 3197.9 2254.24 3195.37 2257 3193.43 2260.73 3192.08 2265.43 3195.89 2265.4 3199.16 2265.06 3201.89 2264.4 3204.62 2263.73 3206.71 2262.68 3208.17 2261.23 3209.63 2259.79 3210.36 2257.84 3210.36 2255.38 3210.36 2253.73 3209.98 2252.44 3209.21 2251.51 3208.44 2250.58 3207.29 2250.11 3205.78 2250.11ZM3093.78 2250.11C3091.05 2250.11 3088.43 2251.49 3085.9 2254.24 3083.37 2257 3081.43 2260.73 3080.08 2265.43 3083.89 2265.4 3087.16 2265.06 3089.89 2264.4 3092.62 2263.73 3094.71 2262.68 3096.17 2261.23 3097.63 2259.79 3098.36 2257.84 3098.36 2255.38 3098.36 2253.73 3097.98 2252.44 3097.21 2251.51 3096.44 2250.58 3095.29 2250.11 3093.78 2250.11ZM3247.55 2246.95C3251.15 2246.95 3254.46 2247.35 3257.48 2248.16L3255.5 2257.32 3251.24 2257.32C3251.19 2255.27 3251.02 2253.78 3250.73 2252.87 3250.45 2251.95 3249.99 2251.26 3249.36 2250.8 3248.72 2250.34 3247.82 2250.11 3246.66 2250.11 3243.93 2250.11 3241.48 2251.2 3239.3 2253.37 3237.13 2255.55 3235.35 2258.63 3233.98 2262.61 3232.6 2266.6 3231.91 2270.43 3231.91 2274.1 3231.91 2276.86 3232.45 2278.9 3233.53 2280.24 3234.61 2281.58 3236.23 2282.25 3238.39 2282.25 3240.85 2282.25 3242.98 2281.78 3244.78 2280.85 3246.57 2279.92 3248.47 2278.45 3250.47 2276.45L3252.94 2278.92C3250.4 2281.73 3247.84 2283.79 3245.26 2285.08 3242.68 2286.38 3239.91 2287.03 3236.93 2287.03 3233.02 2287.03 3230.04 2285.87 3228.02 2283.54 3225.99 2281.22 3224.98 2277.84 3224.98 2273.41 3224.98 2270.52 3225.52 2267.35 3226.6 2263.89 3227.68 2260.43 3229.26 2257.39 3231.34 2254.77 3233.42 2252.15 3235.85 2250.19 3238.64 2248.89 3241.42 2247.6 3244.39 2246.95 3247.55 2246.95ZM3318.24 2246.91C3321.51 2246.91 3323.96 2247.57 3325.6 2248.89 3327.23 2250.22 3328.05 2252.28 3328.05 2255.09 3328.05 2259.69 3325.89 2263.13 3321.58 2265.43 3317.28 2267.73 3310.88 2268.87 3302.39 2268.87 3302.07 2270.49 3301.91 2272.25 3301.91 2274.14 3301.91 2276.98 3302.46 2279.04 3303.57 2280.32 3304.68 2281.61 3306.49 2282.25 3309 2282.25 3311.49 2282.25 3313.74 2281.71 3315.75 2280.63 3317.76 2279.55 3319.89 2277.88 3322.13 2275.64L3324.64 2278.28C3322.02 2281.17 3319.37 2283.34 3316.68 2284.8 3313.99 2286.26 3310.86 2286.99 3307.3 2286.99 3303.38 2286.99 3300.35 2285.79 3298.2 2283.4 3296.05 2281.01 3294.98 2277.68 3294.98 2273.41 3294.98 2270.52 3295.5 2267.42 3296.54 2264.11 3297.58 2260.8 3299.15 2257.83 3301.26 2255.2 3303.37 2252.56 3305.89 2250.52 3308.84 2249.08 3311.78 2247.63 3314.92 2246.91 3318.24 2246.91ZM3207.24 2246.91C3210.51 2246.91 3212.96 2247.57 3214.6 2248.89 3216.23 2250.22 3217.05 2252.28 3217.05 2255.09 3217.05 2259.69 3214.89 2263.13 3210.58 2265.43 3206.28 2267.73 3199.88 2268.87 3191.39 2268.87 3191.07 2270.49 3190.91 2272.25 3190.91 2274.14 3190.91 2276.98 3191.46 2279.04 3192.57 2280.32 3193.68 2281.61 3195.49 2282.25 3198 2282.25 3200.49 2282.25 3202.74 2281.71 3204.75 2280.63 3206.76 2279.55 3208.89 2277.88 3211.13 2275.64L3213.64 2278.28C3211.02 2281.17 3208.37 2283.34 3205.68 2284.8 3202.99 2286.26 3199.86 2286.99 3196.3 2286.99 3192.38 2286.99 3189.35 2285.79 3187.2 2283.4 3185.05 2281.01 3183.98 2277.68 3183.98 2273.41 3183.98 2270.52 3184.5 2267.42 3185.54 2264.11 3186.58 2260.8 3188.15 2257.83 3190.26 2255.2 3192.37 2252.56 3194.89 2250.52 3197.84 2249.08 3200.78 2247.63 3203.92 2246.91 3207.24 2246.91ZM3095.24 2246.91C3098.51 2246.91 3100.96 2247.57 3102.6 2248.89 3104.23 2250.22 3105.05 2252.28 3105.05 2255.09 3105.05 2259.69 3102.89 2263.13 3098.58 2265.43 3094.28 2267.73 3087.88 2268.87 3079.39 2268.87 3079.07 2270.49 3078.91 2272.25 3078.91 2274.14 3078.91 2276.98 3079.46 2279.04 3080.57 2280.32 3081.68 2281.61 3083.49 2282.25 3086 2282.25 3088.49 2282.25 3090.74 2281.71 3092.75 2280.63 3094.76 2279.55 3096.89 2277.88 3099.13 2275.64L3101.64 2278.28C3099.02 2281.17 3096.37 2283.34 3093.68 2284.8 3090.99 2286.26 3087.86 2286.99 3084.3 2286.99 3080.38 2286.99 3077.35 2285.79 3075.2 2283.4 3073.05 2281.01 3071.98 2277.68 3071.98 2273.41 3071.98 2270.52 3072.5 2267.42 3073.54 2264.11 3074.58 2260.8 3076.15 2257.83 3078.26 2255.2 3080.37 2252.56 3082.89 2250.52 3085.84 2249.08 3088.78 2247.63 3091.92 2246.91 3095.24 2246.91ZM3274.57 2237.59 3280.16 2237.59 3277.93 2247.6 3290.25 2247.6 3289.36 2251.69 3277.04 2251.69 3273.43 2267.41C3272.73 2270.47 3272.29 2272.66 3272.1 2274 3271.91 2275.34 3271.81 2276.41 3271.81 2277.22 3271.81 2280.57 3273.2 2282.25 3275.99 2282.25 3277.18 2282.25 3278.44 2281.79 3279.78 2280.89 3281.11 2279.98 3282.7 2278.44 3284.54 2276.25L3286.89 2278.68C3284.54 2281.52 3282.28 2283.61 3280.1 2284.96 3277.93 2286.31 3275.65 2286.99 3273.27 2286.99 3267.63 2286.99 3264.8 2284.14 3264.8 2278.44 3264.8 2276.63 3265.03 2274.72 3265.49 2272.72L3270.27 2251.69 3263.46 2251.69 3264.07 2248.89C3265.67 2248.87 3266.88 2248.74 3267.7 2248.53 3268.52 2248.31 3269.21 2248.02 3269.77 2247.64 3270.32 2247.26 3270.83 2246.72 3271.29 2246.02 3271.75 2245.31 3272.19 2244.42 3272.62 2243.32 3273.06 2242.23 3273.7 2240.32 3274.57 2237.59ZM3039.13 2234.55C3037.94 2234.55 3036.66 2234.59 3035.28 2234.67L3024.79 2282.61C3025.57 2282.69 3027.07 2282.73 3029.28 2282.73 3033.66 2282.73 3037.38 2281.97 3040.43 2280.44 3043.48 2278.92 3046.12 2276.53 3048.33 2273.27 3050.55 2270.02 3052.18 2266.58 3053.24 2262.98 3054.29 2259.37 3054.82 2255.57 3054.82 2251.57 3054.82 2245.92 3053.5 2241.67 3050.87 2238.82 3048.23 2235.97 3044.32 2234.55 3039.13 2234.55ZM3023.65 2231.02 3039.01 2231.02C3043.09 2231.02 3046.4 2231.33 3048.94 2231.95 3051.48 2232.57 3053.85 2233.7 3056.05 2235.32 3058.25 2236.94 3059.91 2239.09 3061.02 2241.78 3062.12 2244.47 3062.68 2247.65 3062.68 2251.33 3062.68 2254.97 3062.26 2258.46 3061.42 2261.78 3060.58 2265.1 3059.38 2268.16 3057.82 2270.96 3056.25 2273.76 3054.37 2276.19 3052.18 2278.26 3049.99 2280.32 3047.87 2281.91 3045.82 2283.02 3043.77 2284.13 3041.47 2284.96 3038.93 2285.51 3036.39 2286.06 3033.43 2286.34 3030.05 2286.34L3013.03 2286.34 3013.48 2284.35C3014.51 2284.19 3015.28 2283.93 3015.79 2283.56 3016.3 2283.2 3016.73 2282.69 3017.09 2282.04 3017.44 2281.4 3017.76 2280.61 3018.06 2279.67 3018.36 2278.74 3018.8 2276.94 3019.4 2274.26L3026.29 2243.06C3026.88 2240.36 3027.18 2238.18 3027.18 2236.53 3027.18 2235.26 3026.86 2234.38 3026.22 2233.88 3025.59 2233.38 3024.58 2233.09 3023.21 2233.01ZM3374.6 2228.39 3376.99 2228.39 3366.9 2273.25C3366.31 2275.9 3366.01 2277.9 3366.01 2279.25 3366.01 2280.33 3366.18 2281.11 3366.54 2281.6 3366.89 2282.09 3367.44 2282.33 3368.2 2282.33 3369.01 2282.33 3369.87 2282 3370.79 2281.34 3371.71 2280.67 3373.01 2279.41 3374.68 2277.55L3376.99 2279.82C3374.51 2282.44 3372.41 2284.29 3370.71 2285.37 3369.01 2286.45 3367.17 2286.99 3365.2 2286.99 3363.52 2286.99 3362.19 2286.44 3361.19 2285.33 3360.19 2284.22 3359.69 2282.75 3359.69 2280.91 3359.69 2279.42 3360 2277.84 3360.62 2276.17L3360.09 2276.01C3357.5 2279.79 3355.04 2282.56 3352.72 2284.31 3350.39 2286.07 3347.93 2286.95 3345.34 2286.95 3342.37 2286.95 3340.06 2285.83 3338.43 2283.58 3336.8 2281.34 3335.98 2278.19 3335.98 2274.14 3335.98 2269.49 3336.89 2265.03 3338.71 2260.75 3340.54 2256.47 3343.04 2253.09 3346.23 2250.62 3349.42 2248.14 3352.97 2246.91 3356.89 2246.91 3358.54 2246.91 3360.06 2247.08 3361.45 2247.41 3362.84 2247.75 3364.27 2248.34 3365.73 2249.18L3367.83 2239.82C3368.05 2238.92 3368.24 2237.94 3368.4 2236.86 3368.56 2235.78 3368.64 2234.83 3368.64 2234.02 3368.64 2233.21 3368.49 2232.59 3368.2 2232.18 3367.9 2231.76 3367.47 2231.45 3366.92 2231.26 3366.37 2231.07 3365.37 2230.94 3363.94 2230.86L3364.43 2228.75ZM3174.59 2228.39 3176.99 2228.39 3167.02 2273.25C3166.42 2275.93 3166.12 2277.92 3166.12 2279.25 3166.12 2280.33 3166.3 2281.11 3166.65 2281.6 3167 2282.09 3167.56 2282.33 3168.31 2282.33 3169.12 2282.33 3169.99 2282 3170.91 2281.34 3171.83 2280.67 3173.12 2279.41 3174.8 2277.55L3177.11 2279.82C3174.49 2282.57 3172.35 2284.46 3170.68 2285.47 3169.02 2286.48 3167.16 2286.99 3165.11 2286.99 3163.35 2286.99 3161.95 2286.35 3160.9 2285.06 3159.84 2283.78 3159.32 2282.14 3159.32 2280.14 3159.32 2278.33 3159.69 2275.71 3160.45 2272.28L3167.7 2239.82C3168.03 2238.38 3168.26 2237.24 3168.39 2236.39 3168.53 2235.54 3168.6 2234.75 3168.6 2234.02 3168.6 2233.21 3168.45 2232.59 3168.15 2232.18 3167.85 2231.76 3167.43 2231.45 3166.87 2231.26 3166.32 2231.07 3165.33 2230.94 3163.9 2230.86L3164.38 2228.75ZM3146.9 2228.14C3149.55 2228.14 3151.83 2228.36 3153.75 2228.79L3152.17 2235.68 3148.6 2235.68C3148.22 2234.14 3147.73 2233.03 3147.12 2232.36 3146.51 2231.68 3145.62 2231.35 3144.43 2231.35 3142.89 2231.35 3141.58 2231.77 3140.52 2232.62 3139.45 2233.47 3138.54 2234.74 3137.78 2236.41 3137.02 2238.09 3136.32 2240.34 3135.67 2243.18L3134.66 2247.6 3145.08 2247.6 3144.18 2251.69 3133.73 2251.69 3126.19 2287.03C3124.95 2292.89 3123.04 2297.26 3120.48 2300.14 3117.91 2303.02 3114.68 2304.46 3110.79 2304.46 3109.66 2304.46 3108.76 2304.39 3108.11 2304.25L3108.8 2300.69C3109.07 2300.77 3109.71 2300.81 3110.71 2300.81 3111.92 2300.81 3112.96 2300.5 3113.83 2299.88 3114.69 2299.26 3115.5 2298.17 3116.24 2296.63 3116.98 2295.09 3117.67 2292.96 3118.29 2290.23L3127 2251.69 3120.15 2251.69 3120.76 2248.89C3122.57 2248.79 3123.87 2248.64 3124.67 2248.45 3125.47 2248.26 3126.09 2247.97 3126.53 2247.6 3126.98 2247.22 3127.36 2246.73 3127.67 2246.12 3127.98 2245.51 3128.38 2244.4 3128.86 2242.77 3130.3 2237.91 3132.51 2234.26 3135.49 2231.81 3138.48 2229.37 3142.28 2228.14 3146.9 2228.14Z" fill-rule="evenodd"/><text fill="#000000" fill-opacity="0" font-family="Arial,Arial_MSFontService,sans-serif" font-size="76.313" x="3013.03" y="2294.92">𝐷𝑒𝑓𝑙𝑒𝑐𝑡𝑒𝑑</text><path d="M3496.71 2250.19C3493.9 2250.19 3491.45 2251.37 3489.35 2253.72 3487.26 2256.07 3485.61 2259.43 3484.41 2263.81 3483.21 2268.18 3482.6 2271.95 3482.6 2275.11 3482.6 2278.09 3483.22 2280.28 3484.45 2281.7 3485.68 2283.12 3487.54 2283.83 3490.02 2283.83 3492.67 2283.83 3495.02 2282.64 3497.07 2280.26 3499.13 2277.88 3500.75 2274.55 3501.94 2270.27 3503.12 2265.99 3503.72 2262.23 3503.72 2258.98 3503.72 2256.07 3503.15 2253.87 3502.02 2252.4 3500.88 2250.93 3499.11 2250.19 3496.71 2250.19ZM3517.73 2247.6 3528.35 2247.6 3530.78 2279.57C3534.59 2273.36 3537.34 2268.63 3539.03 2265.39 3540.71 2262.15 3541.96 2259.34 3542.77 2256.98 3543.59 2254.61 3544.21 2252.15 3544.64 2249.58L3545.08 2247.6 3550.92 2247.6 3553.88 2279.61C3558.09 2273.62 3561.3 2268.38 3563.5 2263.91 3565.71 2259.44 3566.81 2255.8 3566.81 2252.99 3566.81 2251.72 3566.54 2250.85 3566 2250.39 3565.46 2249.93 3564.54 2249.66 3563.24 2249.58L3563.65 2247.6 3574.1 2247.6 3575.2 2249.62C3574.25 2252.03 3573.49 2253.88 3572.93 2255.18 3572.36 2256.47 3571.62 2258.03 3570.7 2259.86 3569.78 2261.68 3568.81 2263.5 3567.78 2265.31 3566.75 2267.12 3565.54 2269.11 3564.15 2271.28 3562.76 2273.46 3561.2 2275.82 3559.47 2278.38 3557.74 2280.93 3555.7 2283.8 3553.35 2286.99L3548.53 2286.99 3546.87 2270.05C3546.73 2268.72 3546.59 2267 3546.44 2264.86 3546.29 2262.73 3546.19 2261.08 3546.14 2259.92L3545.69 2259.88C3544.23 2263.47 3542.25 2267.47 3539.74 2271.87 3537.22 2276.28 3534.12 2281.32 3530.41 2286.99L3524.98 2286.99 3521.9 2256.47C3521.74 2254.91 3521.54 2253.64 3521.3 2252.66 3521.05 2251.69 3520.65 2250.96 3520.08 2250.47 3519.51 2249.99 3518.58 2249.69 3517.28 2249.58ZM3497.52 2246.95C3501.84 2246.95 3505.14 2248.13 3507.41 2250.49 3509.68 2252.86 3510.81 2256.24 3510.81 2260.65 3510.81 2263.78 3510.26 2267.13 3509.17 2270.7 3508.08 2274.26 3506.58 2277.26 3504.67 2279.69 3502.77 2282.13 3500.49 2283.96 3497.84 2285.19 3495.2 2286.42 3492.16 2287.03 3488.72 2287.03 3484.54 2287.03 3481.29 2285.85 3478.98 2283.5 3476.67 2281.15 3475.51 2277.78 3475.51 2273.37 3475.51 2271.21 3475.84 2268.71 3476.48 2265.87 3477.32 2262.04 3478.73 2258.69 3480.7 2255.82 3482.67 2252.96 3485.1 2250.76 3487.99 2249.24 3490.89 2247.71 3494.06 2246.95 3497.52 2246.95ZM3465.93 2228.39 3468.32 2228.39 3458.35 2273.25C3457.75 2275.93 3457.46 2277.92 3457.46 2279.25 3457.46 2280.33 3457.63 2281.11 3457.98 2281.6 3458.33 2282.09 3458.89 2282.33 3459.64 2282.33 3460.45 2282.33 3461.32 2282 3462.24 2281.34 3463.16 2280.67 3464.45 2279.41 3466.13 2277.55L3468.44 2279.82C3465.82 2282.57 3463.68 2284.46 3462.01 2285.47 3460.35 2286.48 3458.5 2286.99 3456.44 2286.99 3454.69 2286.99 3453.28 2286.35 3452.23 2285.06 3451.17 2283.78 3450.65 2282.14 3450.65 2280.14 3450.65 2278.33 3451.03 2275.71 3451.78 2272.28L3459.04 2239.82C3459.36 2238.38 3459.59 2237.24 3459.73 2236.39 3459.86 2235.54 3459.93 2234.75 3459.93 2234.02 3459.93 2233.21 3459.78 2232.59 3459.48 2232.18 3459.18 2231.76 3458.76 2231.45 3458.21 2231.26 3457.65 2231.07 3456.66 2230.94 3455.23 2230.86L3455.71 2228.75ZM3438.23 2228.14C3440.88 2228.14 3443.16 2228.36 3445.08 2228.79L3443.5 2235.68 3439.93 2235.68C3439.55 2234.14 3439.06 2233.03 3438.45 2232.36 3437.85 2231.68 3436.95 2231.35 3435.76 2231.35 3434.22 2231.35 3432.92 2231.77 3431.85 2232.62 3430.78 2233.47 3429.87 2234.74 3429.11 2236.41 3428.36 2238.09 3427.65 2240.34 3427 2243.18L3425.99 2247.6 3436.41 2247.6 3435.52 2251.69 3425.06 2251.69 3417.52 2287.03C3416.28 2292.89 3414.37 2297.26 3411.81 2300.14 3409.24 2303.02 3406.01 2304.46 3402.12 2304.46 3400.99 2304.46 3400.09 2304.39 3399.45 2304.25L3400.14 2300.69C3400.41 2300.77 3401.04 2300.81 3402.04 2300.81 3403.26 2300.81 3404.3 2300.5 3405.16 2299.88 3406.03 2299.26 3406.83 2298.17 3407.57 2296.63 3408.31 2295.09 3409 2292.96 3409.62 2290.23L3418.33 2251.69 3411.48 2251.69 3412.09 2248.89C3413.9 2248.79 3415.2 2248.64 3416 2248.45 3416.8 2248.26 3417.42 2247.97 3417.87 2247.6 3418.31 2247.22 3418.69 2246.73 3419 2246.12 3419.31 2245.51 3419.71 2244.4 3420.2 2242.77 3421.63 2237.91 3423.84 2234.26 3426.82 2231.81 3429.81 2229.37 3433.61 2228.14 3438.23 2228.14Z" fill-rule="evenodd"/><text fill="#000000" fill-opacity="0" font-family="Arial,Arial_MSFontService,sans-serif" font-size="76.313" x="3399.45" y="2294.92">𝑓𝑙𝑜𝑤</text><path d="M3171.15 57.0001 3171.15 280.267 3168.85 280.267 3168.85 57.0001ZM3183.75 275.684 3170 303.184 3156.25 275.684Z" fill="#FF0000"/><text fill="#FF0000" font-family="Calibri,Calibri_MSFontService,sans-serif" font-weight="400" font-size="83" transform="matrix(1 0 0 1 3220.57 206)">Pump rotating against the force</text></g></svg>